<?xml version="1.0" standalone="no"?>
<!DOCTYPE svg PUBLIC "-//W3C//DTD SVG 1.1//EN" "http://www.w3.org/Graphics/SVG/1.1/DTD/svg11.dtd" >
<svg>
<metadata>
Created by FontForge 20120731 at Thu Oct 11 16:46:30 2018
 By www-data
Copyright (c) 2011 by FabianLeuenberger. All rights reserved.
</metadata>
<defs>
<font id="Europa-BoldItalic" horiz-adv-x="580" >
  <font-face 
    font-family="Europa-Bold"
    font-weight="700"
    font-style="italic"
    font-stretch="normal"
    units-per-em="1000"
    panose-1="2 0 0 0 0 0 0 0 0 0"
    ascent="782"
    descent="-218"
    x-height="474"
    cap-height="700"
    bbox="-178 -276 1159 1038"
    underline-thickness="38"
    underline-position="-39"
    unicode-range="U+0020-FB04"
  />
<missing-glyph horiz-adv-x="600" 
d="M36 0l123 700h528l-123 -700h-528zM221 628l-98 -556h378l98 556h-378zM378 375c24 15 46 31 46 63c0 22 -19 40 -47 40c-51 0 -68 -52 -68 -52l-54 26s31 87 122 87c65 0 112 -37 112 -101c0 -47 -26 -75 -78 -108c-23 -14 -24 -22 -26 -35l-5 -27h-64l7 39
c6 38 12 41 55 68zM291 194c0 23 19 42 42 42s42 -19 42 -42c0 -24 -19 -43 -42 -43s-42 19 -42 43z" />
    <glyph glyph-name="ff" unicode="ff" horiz-adv-x="691" 
d="M330 572l-17 -98h192l20 112c24 137 119 182 196 182c76 0 114 -26 114 -26l-51 -103s-23 17 -60 17c-33 0 -71 -23 -82 -84l-17 -98h120l-19 -106h-120l-64 -368h-120l64 368h-192l-64 -368h-120l64 368h-94l19 106h94l20 112c24 137 119 182 196 182
c76 0 114 -26 114 -26l-51 -103s-23 17 -60 17c-33 0 -71 -23 -82 -84z" />
    <glyph glyph-name="fi" unicode="fi" horiz-adv-x="582" 
d="M80 368l19 106h94l20 111c20 117 107 183 224 183c135 0 192 -83 177 -167l-2 -11c-6 -33 -39 -59 -72 -59s-54 25 -48 59l1 7c6 37 -26 63 -71 63c-40 0 -81 -27 -91 -85l-18 -101h97l-19 -106h-97l-64 -368h-120l64 368h-94zM388 0l83 474h120l-83 -474h-120z" />
    <glyph glyph-name="ffi" unicode="ffi" horiz-adv-x="860" 
d="M388 0l104 590l1 7c6 37 -24 63 -69 63c-40 0 -83 -27 -93 -85l-18 -101h95l-19 -106h-95l-64 -368h-120l64 368h-94l19 106h94l20 111c20 117 111 183 223 183c59 0 111 -19 138 -46c40 29 91 46 145 46c130 0 188 -83 173 -167l-2 -11c-6 -33 -39 -59 -72 -59
s-54 25 -48 59l1 7c6 37 -27 63 -72 63c-40 0 -80 -27 -90 -85l-18 -101h97l-19 -106h-97l-64 -368h-120zM666 0l83 474h120l-83 -474h-120z" />
    <glyph glyph-name="ffj" unicode="ffj" horiz-adv-x="860" 
d="M80 368l19 106h94l20 111c20 117 111 183 223 183c59 0 109 -21 137 -48c41 29 85 48 141 48c135 0 193 -83 178 -167l-2 -11c-6 -33 -39 -59 -72 -59s-54 25 -48 59l1 7c6 37 -21 63 -66 63c-40 0 -86 -27 -96 -85l-18 -101h92l-19 -106h-92l-64 -368h-120l105 597
c6 37 -21 63 -66 63c-40 0 -86 -27 -96 -85l-18 -101h97l-19 -106h-97l-64 -368h-120l64 368h-94zM460 -211l47 103s28 -21 62 -21c26 0 75 5 91 97l89 506h120l-91 -517c-27 -155 -125 -199 -204 -199c-75 0 -114 31 -114 31z" />
    <glyph glyph-name="fl" unicode="fl" horiz-adv-x="583" 
d="M389 0l101 575c10 58 -28 85 -68 85s-82 -27 -92 -85l-18 -101h97l-19 -106h-97l-64 -368h-120l64 368h-93l19 106h93l20 111c20 117 106 183 223 183s196 -71 176 -188l-102 -580h-120z" />
    <glyph glyph-name="ffl" unicode="ffl" horiz-adv-x="853" 
d="M659 0l101 575c10 58 -28 85 -68 85s-82 -27 -92 -85l-18 -101h97l-19 -106h-97l-64 -368h-120l64 368h-158l-64 -368h-120l64 368h-85l19 106h85l20 111c20 117 106 183 223 183c58 0 110 -19 137 -46c40 29 88 46 142 46c112 0 195 -71 175 -188l-102 -580h-120z
M304 474h158l22 123c7 37 -26 63 -71 63c-40 0 -81 -27 -91 -85z" />
    <glyph glyph-name="fft" unicode="fft" horiz-adv-x="1001" 
d="M322 572l-17 -98h192l20 112c24 137 119 182 196 182c76 0 112 -26 112 -26l-51 -103s-21 17 -58 17c-33 0 -71 -23 -82 -84l-17 -98h166l23 129h120l-23 -129h143l-19 -106h-143l-35 -198c-10 -58 19 -70 51 -70c26 0 52 17 52 17l34 -100s-48 -29 -117 -29
c-91 0 -159 72 -141 173l36 207h-166l-64 -368h-120l64 368h-192l-64 -368h-120l64 368h-94l19 106h94l20 112c24 137 119 182 196 182c76 0 112 -26 112 -26l-51 -103s-21 17 -58 17c-33 0 -71 -23 -82 -84z" />
    <glyph glyph-name=".notdef" horiz-adv-x="600" 
d="M36 0l123 700h528l-123 -700h-528zM221 628l-98 -556h378l98 556h-378zM378 375c24 15 46 31 46 63c0 22 -19 40 -47 40c-51 0 -68 -52 -68 -52l-54 26s31 87 122 87c65 0 112 -37 112 -101c0 -47 -26 -75 -78 -108c-23 -14 -24 -22 -26 -35l-5 -27h-64l7 39
c6 38 12 41 55 68zM291 194c0 23 19 42 42 42s42 -19 42 -42c0 -24 -19 -43 -42 -43s-42 19 -42 43z" />
    <glyph glyph-name="space" unicode=" " horiz-adv-x="294" 
 />
    <glyph glyph-name="nbspace" unicode="&#xa0;" horiz-adv-x="294" 
 />
    <glyph glyph-name="numbersign" unicode="#" horiz-adv-x="634" 
d="M675 418h-128l-38 -120h115l-15 -88h-128l-73 -233l-84 24l66 209h-107l-73 -233l-84 24l66 209h-116l15 88h129l38 120h-116l16 88h128l69 217l83 -24l-61 -193h107l69 217l83 -24l-61 -193h116zM349 418l-38 -120h107l38 120h-107z" />
    <glyph glyph-name="percent" unicode="%" horiz-adv-x="712" 
d="M577 306c99 0 149 -69 149 -144c0 -93 -93 -174 -177 -174c-99 0 -149 69 -149 144c0 93 93 174 177 174zM549 65c55 0 97 44 97 97c0 39 -27 67 -69 67c-57 0 -97 -45 -97 -97c0 -39 26 -67 69 -67zM285 712c99 0 149 -69 149 -144c0 -93 -93 -174 -177 -174
c-99 0 -149 69 -149 144c0 93 93 174 177 174zM257 471c55 0 97 44 97 97c0 39 -27 67 -69 67c-57 0 -97 -45 -97 -97c0 -39 26 -67 69 -67zM90 9l597 724l51 -44l-598 -724z" />
    <glyph glyph-name="perthousand" unicode="&#x2030;" horiz-adv-x="1072" 
d="M577 306c99 0 149 -69 149 -144c0 -93 -93 -174 -177 -174c-99 0 -149 69 -149 144c0 93 93 174 177 174zM549 65c55 0 97 44 97 97c0 39 -27 67 -69 67c-57 0 -97 -45 -97 -97c0 -39 26 -67 69 -67zM285 712c99 0 149 -69 149 -144c0 -93 -93 -174 -177 -174
c-99 0 -149 69 -149 144c0 93 93 174 177 174zM257 471c55 0 97 44 97 97c0 39 -27 67 -69 67c-57 0 -97 -45 -97 -97c0 -39 26 -67 69 -67zM937 306c99 0 149 -69 149 -144c0 -93 -93 -174 -177 -174c-99 0 -149 69 -149 144c0 93 93 174 177 174zM909 65c55 0 97 44 97 97
c0 39 -27 67 -69 67c-57 0 -97 -45 -97 -97c0 -39 26 -67 69 -67zM84 9l597 724l51 -44l-598 -724z" />
    <glyph glyph-name="at" unicode="@" horiz-adv-x="799" 
d="M586 110l30 -78c-45 -22 -109 -44 -194 -44c-200 0 -319 142 -319 312c0 226 191 412 413 412c196 0 305 -127 305 -292c0 -185 -100 -268 -187 -268c-41 0 -85 20 -95 66c0 0 -50 -66 -132 -66c-77 0 -121 55 -121 121c0 85 86 133 164 133c61 0 100 -34 100 -34l3 17
c1 6 2 11 2 16c0 43 -32 61 -67 61c-59 0 -117 -28 -117 -28l-26 74s72 36 143 36c92 0 156 -44 156 -117c0 -9 -1 -18 -3 -28l-22 -121c-1 -7 -2 -13 -2 -19c0 -20 8 -33 29 -33c42 0 87 71 87 190c0 122 -82 208 -217 208c-181 0 -324 -140 -324 -328
c0 -130 90 -228 230 -228c76 0 127 20 164 38zM441 232c59 0 92 41 92 41l5 29s-20 28 -79 28c-49 0 -82 -23 -82 -57c0 -24 22 -41 64 -41z" />
    <glyph glyph-name="at.alt" horiz-adv-x="799" 
d="M641 191c80 0 136 111 136 233c0 140 -91 246 -249 246c-198 0 -381 -170 -381 -372c0 -149 108 -268 268 -268c79 0 145 24 182 42l15 -39c-45 -22 -112 -45 -197 -45c-194 0 -312 140 -312 310c0 219 198 414 425 414c166 0 293 -110 293 -288
c0 -192 -106 -275 -190 -275h-6c-41 0 -82 18 -87 68c0 0 -50 -65 -129 -65s-124 55 -124 121c0 82 81 133 164 133c61 0 100 -34 100 -34l3 17c1 6 2 11 2 16c0 43 -32 61 -67 61c-59 0 -117 -28 -117 -28l-26 74s77 36 148 36c92 0 151 -44 151 -117c0 -9 -1 -18 -3 -28
l-29 -160c-1 -7 -2 -13 -2 -19c0 -20 11 -33 32 -33zM441 232c59 0 92 41 92 41l6 34s-21 23 -80 23c-49 0 -82 -23 -82 -57c0 -24 22 -41 64 -41z" />
    <glyph glyph-name="ampersand" unicode="&#x26;" horiz-adv-x="695" 
d="M574 384h117c-20 -151 -78 -217 -78 -217l94 -97l-83 -80l-85 90c-59 -55 -158 -92 -235 -92c-141 0 -223 74 -223 166c0 95 91 164 175 220c-48 56 -70 95 -70 146c0 110 102 192 203 192c95 0 183 -58 183 -157c0 -82 -57 -136 -143 -196l105 -110s26 30 40 135z
M304 98c60 0 122 29 159 61l-133 138c-33 -24 -126 -76 -126 -131c0 -43 48 -68 100 -68zM389 602c-49 0 -87 -33 -87 -80c0 -29 21 -49 55 -88c32 24 96 59 96 111c0 36 -33 57 -64 57z" />
    <glyph glyph-name="question" unicode="?" horiz-adv-x="489" 
d="M334 407c44 27 86 57 86 118c0 41 -33 73 -85 73c-96 0 -129 -96 -129 -96l-101 49s61 161 230 161c121 0 207 -69 207 -187c0 -80 -48 -142 -147 -205c-43 -27 -44 -39 -48 -64l-9 -51h-120l13 74c12 70 23 79 103 128zM179 67c0 44 35 79 79 79s79 -35 79 -79
s-35 -79 -79 -79s-79 35 -79 79z" />
    <glyph glyph-name="questiondown" unicode="&#xbf;" horiz-adv-x="489" 
d="M238 67c-44 -27 -86 -57 -86 -118c0 -41 33 -73 85 -73c96 0 129 96 129 96l101 -49s-61 -161 -230 -161c-121 0 -207 69 -207 187c0 80 48 142 147 205c43 27 44 39 48 64l9 51h120l-13 -74c-12 -70 -23 -79 -103 -128zM393 407c0 -44 -35 -79 -79 -79s-79 35 -79 79
s35 79 79 79s79 -35 79 -79z" />
    <glyph glyph-name="exclam" unicode="!" horiz-adv-x="306" 
d="M338 700l-93 -500h-114l83 500h124zM90 67c0 44 35 79 79 79s79 -35 79 -79s-35 -79 -79 -79s-79 35 -79 79z" />
    <glyph glyph-name="exclamdown" unicode="&#xa1;" horiz-adv-x="306" 
d="M51 -226l93 500h114l-83 -500h-124zM299 407c0 -44 -35 -79 -79 -79s-79 35 -79 79s35 79 79 79s79 -35 79 -79z" />
    <glyph glyph-name="period" unicode="." horiz-adv-x="262" 
d="M63 67c0 44 35 79 79 79s79 -35 79 -79s-35 -79 -79 -79s-79 35 -79 79z" />
    <glyph glyph-name="colon" unicode=":" horiz-adv-x="274" 
d="M69 67c0 44 35 79 79 79s79 -35 79 -79s-35 -79 -79 -79s-79 35 -79 79zM129 407c0 44 35 79 79 79s79 -35 79 -79s-35 -79 -79 -79s-79 35 -79 79z" />
    <glyph glyph-name="ellipsis" unicode="&#x2026;" horiz-adv-x="1000" 
d="M111 67c0 44 35 79 79 79s79 -35 79 -79s-35 -79 -79 -79s-79 35 -79 79zM431 67c0 44 35 79 79 79s79 -35 79 -79s-35 -79 -79 -79s-79 35 -79 79zM751 67c0 44 35 79 79 79s79 -35 79 -79s-35 -79 -79 -79s-79 35 -79 79z" />
    <glyph glyph-name="comma" unicode="," horiz-adv-x="241" 
d="M116 102l93 -46l-128 -233l-85 43z" />
    <glyph glyph-name="semicolon" unicode=";" horiz-adv-x="243" 
d="M114 406c0 44 35 79 79 79s79 -35 79 -79s-35 -79 -79 -79s-79 35 -79 79zM116 102l93 -46l-128 -233l-85 43z" />
    <glyph glyph-name="asciitilde" unicode="~" horiz-adv-x="489" 
d="M156 258l-82 58s41 108 151 108c59 0 118 -47 158 -47c54 0 71 56 71 56l81 -59s-38 -107 -149 -107c-62 0 -122 47 -158 47c-54 0 -72 -56 -72 -56z" />
    <glyph glyph-name="hyphen" unicode="-" horiz-adv-x="333" 
d="M66 190l20 114h267l-20 -114h-267z" />
    <glyph glyph-name="underscore" unicode="_" horiz-adv-x="500" 
d="M1 -230l20 114h416l-20 -114h-416z" />
    <glyph glyph-name="endash" unicode="&#x2013;" horiz-adv-x="500" 
d="M34 194l19 110h500l-19 -110h-500z" />
    <glyph glyph-name="emdash" unicode="&#x2014;" horiz-adv-x="1000" 
d="M34 194l19 110h1000l-19 -110h-1000z" />
    <glyph glyph-name="zero" unicode="0" horiz-adv-x="606" 
d="M409 712c165 0 228 -117 228 -272c0 -203 -114 -452 -316 -452c-166 0 -229 118 -229 274c0 203 116 450 317 450zM321 100c123 0 195 196 195 340c0 93 -33 160 -107 160c-124 0 -196 -194 -196 -338c0 -94 33 -162 108 -162z" />
    <glyph glyph-name="one" unicode="1" horiz-adv-x="444" 
d="M99 532l241 168h111l-123 -700h-120l95 540l-141 -98z" />
    <glyph glyph-name="two" unicode="2" horiz-adv-x="555" 
d="M40 0l314 326c48 51 112 108 112 187c0 47 -34 87 -92 87c-104 0 -138 -102 -138 -102l-105 43s55 171 243 171c156 0 215 -103 215 -199c0 -61 -33 -132 -86 -190c-86 -94 -197 -209 -197 -209h215l-20 -114h-461z" />
    <glyph glyph-name="three" unicode="3" horiz-adv-x="570" 
d="M323 404c68 0 150 33 150 115c0 48 -41 81 -97 81c-89 0 -127 -85 -127 -85l-99 52s64 145 226 145c126 0 220 -71 220 -193c0 -77 -42 -130 -110 -166c0 0 76 -30 76 -137c0 -149 -140 -228 -263 -228c-180 0 -236 155 -236 155l99 61s33 -104 137 -104
c67 0 141 38 141 116c0 59 -50 78 -125 78h-35l20 110h23z" />
    <glyph glyph-name="four" unicode="4" horiz-adv-x="593" 
d="M22 152l453 548h134l-77 -436h87l-20 -112h-87l-26 -152h-120l26 152h-370zM243 264h171l47 265z" />
    <glyph glyph-name="five" unicode="5" horiz-adv-x="585" 
d="M587 256c0 -155 -123 -268 -277 -268c-187 0 -236 155 -236 155l101 61s36 -104 135 -104c84 0 153 67 153 156c0 60 -48 104 -138 104c-94 0 -195 -78 -195 -78l73 418h434l-20 -114h-314l-22 -127s30 11 90 11c138 0 216 -85 216 -214z" />
    <glyph glyph-name="six" unicode="6" horiz-adv-x="564" 
d="M510 663l-162 -204s15 3 26 3c122 0 198 -102 198 -211c0 -146 -131 -263 -271 -263c-162 0 -227 109 -227 212c0 63 34 127 74 184c14 20 270 349 270 349zM342 350c-79 0 -145 -68 -145 -150c0 -62 46 -100 107 -100c77 0 145 66 145 151c0 61 -46 99 -107 99z" />
    <glyph glyph-name="seven" unicode="7" horiz-adv-x="526" 
d="M139 586l20 114h500l-503 -724l-95 64l381 546h-303z" />
    <glyph glyph-name="eight" unicode="8" horiz-adv-x="576" 
d="M394 712c138 0 207 -77 207 -185c0 -74 -54 -138 -104 -159c0 0 70 -27 70 -140c0 -142 -124 -240 -262 -240c-169 0 -225 101 -225 200c0 77 49 153 127 185c0 0 -52 44 -52 119c0 120 103 220 239 220zM305 98c70 0 140 53 140 130c0 48 -33 88 -102 88
c-70 0 -140 -51 -140 -128c0 -49 33 -90 102 -90zM361 416c60 0 119 46 119 111c0 47 -36 75 -86 75c-59 0 -120 -45 -120 -110c0 -47 37 -76 87 -76z" />
    <glyph glyph-name="nine" unicode="9" horiz-adv-x="564" 
d="M180 43l158 199s-15 -3 -26 -3c-106 0 -198 87 -198 211c0 146 131 263 271 263c164 0 227 -109 227 -212c0 -63 -34 -127 -74 -184c-14 -20 -266 -344 -266 -344zM344 351c79 0 145 68 145 150c0 62 -46 100 -107 100c-77 0 -145 -66 -145 -151c0 -61 46 -99 107 -99z
" />
    <glyph glyph-name="oneeighth" unicode="&#x215b;" horiz-adv-x="830" 
d="M110 574l174 126h98l-72 -406h-93l51 289l-111 -80zM138 9l597 724l51 -44l-598 -724zM698 412c98 0 135 -63 135 -117c0 -52 -50 -81 -64 -87c0 0 43 -18 43 -79c0 -89 -80 -135 -160 -135c-106 0 -144 60 -144 120c0 54 47 91 77 98c0 0 -38 30 -38 72
c0 80 77 128 151 128zM652 74c41 0 71 22 71 55c0 23 -20 39 -54 39c-39 0 -72 -21 -72 -54c0 -24 20 -40 55 -40zM698 332c-29 0 -62 -14 -62 -48c0 -25 21 -38 46 -38c31 0 62 15 62 49c0 25 -21 37 -46 37z" />
    <glyph glyph-name="onequarter" unicode="&#xbc;" horiz-adv-x="830" 
d="M182 9l597 724l51 -44l-598 -724zM462 78l266 328h98l-44 -250h50l-14 -78h-50l-14 -78h-86l14 78h-220zM612 156h84l23 134zM120 574l174 126h98l-72 -406h-93l51 289l-111 -80z" />
    <glyph glyph-name="onethird" unicode="&#x2153;" horiz-adv-x="830" 
d="M135 9l597 724l51 -44l-598 -724zM745 292c0 23 -20 39 -52 39c-53 0 -71 -43 -71 -43l-69 41s44 83 140 83c78 0 144 -37 144 -120c0 -32 -24 -74 -60 -86c0 0 42 -14 42 -76c0 -90 -88 -136 -164 -136c-115 0 -145 96 -145 96l69 41s18 -56 76 -56c30 0 73 15 73 55
c0 26 -25 40 -64 40h-22l12 70h15c32 0 76 10 76 52zM110 574l174 126h98l-72 -406h-93l51 289l-111 -80z" />
    <glyph glyph-name="threeeighths" unicode="&#x215c;" horiz-adv-x="830" 
d="M155 9l597 724l51 -44l-598 -724zM326 586c0 23 -20 39 -52 39c-53 0 -71 -43 -71 -43l-69 41s44 83 140 83c78 0 144 -37 144 -120c0 -32 -24 -74 -60 -86c0 0 42 -14 42 -76c0 -90 -88 -136 -164 -136c-115 0 -145 96 -145 96l69 41s18 -56 76 -56c30 0 73 15 73 55
c0 26 -25 40 -64 40h-22l12 70h15c32 0 76 10 76 52zM710 412c98 0 135 -63 135 -117c0 -52 -50 -81 -64 -87c0 0 43 -18 43 -79c0 -89 -80 -135 -160 -135c-106 0 -144 60 -144 120c0 54 47 91 77 98c0 0 -38 30 -38 72c0 80 77 128 151 128zM664 74c41 0 71 22 71 55
c0 23 -20 39 -54 39c-39 0 -72 -21 -72 -54c0 -24 20 -40 55 -40zM710 332c-29 0 -62 -14 -62 -48c0 -25 21 -38 46 -38c31 0 62 15 62 49c0 25 -21 37 -46 37z" />
    <glyph glyph-name="onehalf" unicode="&#xbd;" horiz-adv-x="830" 
d="M479 0l185 184c21 22 63 58 63 97c0 27 -22 46 -56 46c-60 0 -76 -59 -76 -59l-77 30s39 114 153 114c110 0 148 -72 148 -131c0 -41 -21 -78 -47 -106l-85 -93h111l-15 -82h-304zM122 9l597 724l51 -44l-598 -724zM110 574l174 126h98l-72 -406h-93l51 289l-111 -80z
" />
    <glyph glyph-name="fiveeighths" unicode="&#x215d;" horiz-adv-x="830" 
d="M409 440c0 -92 -81 -152 -168 -152c-118 0 -147 87 -147 87l70 49s17 -52 77 -52c35 0 76 25 76 68c0 31 -25 53 -74 53c-57 0 -112 -39 -112 -39l42 246h265l-15 -84h-175l-10 -54s15 4 45 4c74 0 126 -51 126 -126zM149 9l597 724l51 -44l-598 -724zM710 412
c98 0 135 -63 135 -117c0 -52 -50 -81 -64 -87c0 0 43 -18 43 -79c0 -89 -80 -135 -160 -135c-106 0 -144 60 -144 120c0 54 47 91 77 98c0 0 -38 30 -38 72c0 80 77 128 151 128zM664 74c41 0 71 22 71 55c0 23 -20 39 -54 39c-39 0 -72 -21 -72 -54c0 -24 20 -40 55 -40z
M710 332c-29 0 -62 -14 -62 -48c0 -25 21 -38 46 -38c31 0 62 15 62 49c0 25 -21 37 -46 37z" />
    <glyph glyph-name="twothirds" unicode="&#x2154;" horiz-adv-x="817" 
d="M73 294l185 184c21 22 63 58 63 97c0 27 -22 46 -56 46c-60 0 -76 -59 -76 -59l-77 30s39 114 153 114c110 0 148 -72 148 -131c0 -41 -21 -78 -47 -106l-85 -93h111l-15 -82h-304zM748 292c0 23 -20 39 -52 39c-53 0 -71 -43 -71 -43l-69 41s44 83 140 83
c78 0 144 -37 144 -120c0 -32 -24 -74 -60 -86c0 0 42 -14 42 -76c0 -90 -88 -136 -164 -136c-115 0 -145 96 -145 96l69 41s18 -56 76 -56c30 0 73 15 73 55c0 26 -25 40 -64 40h-22l12 70h15c32 0 76 10 76 52zM169 9l597 724l51 -44l-598 -724z" />
    <glyph glyph-name="threequarters" unicode="&#xbe;" horiz-adv-x="830" 
d="M191 9l597 724l51 -44l-598 -724zM342 586c0 23 -20 39 -52 39c-53 0 -71 -43 -71 -43l-69 41s44 83 140 83c78 0 144 -37 144 -120c0 -32 -24 -74 -60 -86c0 0 42 -14 42 -76c0 -90 -88 -136 -164 -136c-115 0 -145 96 -145 96l69 41s18 -56 76 -56c30 0 73 15 73 55
c0 26 -25 40 -64 40h-22l12 70h15c32 0 76 10 76 52zM462 78l266 328h98l-44 -250h50l-14 -78h-50l-14 -78h-86l14 78h-220zM612 156h84l23 134z" />
    <glyph glyph-name="seveneighths" unicode="&#x215e;" horiz-adv-x="830" 
d="M170 616l15 84h313l-294 -423l-71 49l204 290h-167zM114 9l597 724l51 -44l-598 -724zM704 412c98 0 135 -63 135 -117c0 -52 -50 -81 -64 -87c0 0 43 -18 43 -79c0 -89 -80 -135 -160 -135c-106 0 -144 60 -144 120c0 54 47 91 77 98c0 0 -38 30 -38 72
c0 80 77 128 151 128zM658 74c41 0 71 22 71 55c0 23 -20 39 -54 39c-39 0 -72 -21 -72 -54c0 -24 20 -40 55 -40zM704 332c-29 0 -62 -14 -62 -48c0 -25 21 -38 46 -38c31 0 62 15 62 49c0 25 -21 37 -46 37z" />
    <glyph glyph-name="A" unicode="A" horiz-adv-x="678" 
d="M6 0l395 700h122l149 -700h-118l-35 166h-292l-93 -166h-128zM439 546l-150 -270h206z" />
    <glyph glyph-name="B" unicode="B" horiz-adv-x="590" 
d="M74 0l123 700h222c119 0 197 -68 197 -183c0 -100 -86 -150 -100 -154c13 -5 84 -37 84 -137c0 -124 -106 -226 -254 -226h-272zM342 114h5c70 0 129 40 129 113c0 52 -43 73 -102 73h-128l-32 -186h128zM266 414h103c71 0 123 33 123 103c0 48 -39 69 -92 69h-103z" />
    <glyph glyph-name="C" unicode="C" horiz-adv-x="676" 
d="M406 100c123 0 202 86 202 86l70 -88s-110 -110 -272 -110c-211 0 -317 152 -317 323c0 225 192 401 405 401c178 0 260 -110 260 -110l-79 -79s-66 77 -181 77c-161 0 -281 -135 -281 -289c0 -113 64 -211 193 -211z" />
    <glyph glyph-name="D" unicode="D" horiz-adv-x="680" 
d="M423 700c184 0 291 -136 291 -301c0 -211 -139 -399 -384 -399h-256l123 700h226zM322 114c174 0 267 139 267 285c0 106 -66 187 -184 187h-108l-83 -472h108z" />
    <glyph glyph-name="E" unicode="E" horiz-adv-x="546" 
d="M297 586l-30 -170h280l-20 -114h-280l-33 -188h310l-20 -114h-430l123 700h424l-20 -114h-304z" />
    <glyph glyph-name="F" unicode="F" horiz-adv-x="527" 
d="M297 586l-30 -171h275l-20 -114h-275l-53 -301h-120l123 700h415l-20 -114h-295z" />
    <glyph glyph-name="G" unicode="G" horiz-adv-x="713" 
d="M419 100c100 0 146 29 146 29l27 153h-159l20 112h277l-60 -339s-106 -67 -251 -67c-214 0 -330 139 -330 317c0 230 189 407 413 407c187 0 261 -105 261 -105l-83 -78s-59 71 -178 71c-171 0 -289 -139 -289 -295c0 -115 77 -205 206 -205z" />
    <glyph glyph-name="H" unicode="H" horiz-adv-x="687" 
d="M566 415l50 285h120l-123 -700h-120l53 301h-299l-53 -301h-120l123 700h120l-50 -285h299z" />
    <glyph glyph-name="I" unicode="I" horiz-adv-x="296" 
d="M88 0l123 700h120l-123 -700h-120z" />
    <glyph glyph-name="J" unicode="J" horiz-adv-x="521" 
d="M365 216c40 231 85 484 85 484h120l-85 -480c-26 -147 -116 -232 -260 -232c-135 0 -204 115 -204 115l87 77s41 -78 117 -78c90 0 130 60 140 114z" />
    <glyph glyph-name="K" unicode="K" horiz-adv-x="628" 
d="M317 700l-54 -305l298 305h156l-335 -344l246 -356h-146l-230 334l-58 -334h-120l123 700h120z" />
    <glyph glyph-name="L" unicode="L" horiz-adv-x="500" 
d="M74 0l123 700h120l-103 -586h298l-20 -114h-418z" />
    <glyph glyph-name="M" unicode="M" horiz-adv-x="826" 
d="M197 700h111l159 -353l284 353h124l-123 -700h-120l83 475l-278 -338l-161 333l-82 -470h-120z" />
    <glyph glyph-name="N" unicode="N" horiz-adv-x="726" 
d="M197 700h108l264 -490l86 490h120l-123 -700h-108l-265 489l-85 -489h-120z" />
    <glyph glyph-name="O" unicode="O" horiz-adv-x="776" 
d="M493 712c205 0 316 -140 316 -316c0 -218 -183 -408 -404 -408c-205 0 -316 141 -316 317c0 217 184 407 404 407zM405 102c168 0 281 150 281 294c0 111 -70 202 -193 202c-168 0 -281 -149 -281 -293c0 -111 70 -203 193 -203z" />
    <glyph glyph-name="P" unicode="P" horiz-adv-x="566" 
d="M361 366c91 0 146 56 146 134c0 52 -35 86 -107 86h-103l-39 -220h103zM74 0l123 700h233c122 0 201 -82 201 -200c0 -127 -98 -248 -272 -248h-121l-44 -252h-120z" />
    <glyph glyph-name="Q" unicode="Q" horiz-adv-x="791" 
d="M493 712c205 0 316 -140 316 -316c0 -101 -40 -195 -103 -268l78 -80l-79 -82l-85 87c-63 -41 -137 -65 -215 -65c-205 0 -316 141 -316 317c0 217 183 407 404 407zM438 240l79 82l106 -109c40 53 63 118 63 183c0 111 -70 202 -193 202c-168 0 -281 -149 -281 -293
c0 -111 70 -203 193 -203c49 0 94 13 133 35z" />
    <glyph glyph-name="R" unicode="R" horiz-adv-x="583" 
d="M74 0l123 700h227c123 0 200 -80 200 -194c0 -121 -92 -217 -198 -232l129 -274h-131l-120 264h-64l-46 -264h-120zM355 378c86 0 145 48 145 128c0 53 -40 80 -108 80h-95l-37 -208h95z" />
    <glyph glyph-name="S" unicode="S" horiz-adv-x="595" 
d="M321 102c58 0 137 25 137 98c0 52 -41 67 -111 93c-88 33 -185 83 -185 204c0 103 100 215 248 215c160 0 229 -111 229 -111l-84 -78s-58 75 -145 75c-68 0 -124 -43 -124 -99c0 -54 55 -64 137 -98c89 -37 159 -80 159 -196c0 -142 -128 -217 -261 -217
c-171 0 -252 138 -252 138l90 82s61 -106 162 -106z" />
    <glyph glyph-name="T" unicode="T" horiz-adv-x="534" 
d="M207 0l103 586h-193l20 114h506l-20 -114h-193l-103 -586h-120z" />
    <glyph glyph-name="U" unicode="U" horiz-adv-x="688" 
d="M541 269c41 231 76 431 76 431h120l-80 -451c-27 -154 -131 -261 -301 -261c-180 0 -266 107 -239 261l80 451h120s-36 -205 -77 -436c-18 -100 21 -162 121 -162c101 0 162 67 180 167z" />
    <glyph glyph-name="V" unicode="V" horiz-adv-x="630" 
d="M751 700l-441 -724l-185 724h127l107 -446l258 446h134z" />
    <glyph glyph-name="W" unicode="W" horiz-adv-x="983" 
d="M1102 700l-403 -724l-118 525l-305 -525l-149 724h134l72 -408l230 408h106l81 -408l218 408h134z" />
    <glyph glyph-name="X" unicode="X" horiz-adv-x="612" 
d="M464 0l-108 256l-196 -256h-148l289 362l-152 338h137l99 -239l179 239h143l-269 -343l162 -357h-136z" />
    <glyph glyph-name="Y" unicode="Y" horiz-adv-x="614" 
d="M415 276l-48 -276h-120l48 276l-164 424h126l115 -312l224 312h133z" />
    <glyph glyph-name="Z" unicode="Z" horiz-adv-x="597" 
d="M171 700h535l-464 -586h341l-20 -114h-549l466 586h-329z" />
    <glyph glyph-name="a" unicode="a" horiz-adv-x="536" 
d="M261 88c72 0 120 55 120 55l9 49s-39 24 -104 24c-41 0 -101 -21 -101 -75c0 -42 42 -53 76 -53zM331 486c136 0 217 -74 198 -182l-53 -304h-111l10 60s-63 -72 -158 -72c-98 0 -156 67 -156 149c0 107 103 167 206 167c83 0 135 -39 135 -39l6 32c11 62 -42 82 -94 82
c-69 0 -145 -31 -145 -31l-31 102s94 36 193 36z" />
    <glyph glyph-name="b" unicode="b" horiz-adv-x="587" 
d="M74 0l133 756h120l-59 -332s55 62 145 62c114 0 191 -95 191 -219c0 -154 -128 -279 -262 -279c-104 0 -146 79 -146 79l-11 -67h-111zM248 308l-25 -142s22 -66 101 -66c92 0 157 77 157 167c0 63 -39 107 -109 107c-79 0 -124 -66 -124 -66z" />
    <glyph glyph-name="c" unicode="c" horiz-adv-x="497" 
d="M300 100c81 0 128 53 128 53l65 -91s-77 -74 -193 -74c-153 0 -235 104 -235 222c0 158 139 276 283 276c145 0 198 -88 198 -88l-86 -73s-37 49 -112 49c-88 0 -159 -79 -159 -164c0 -62 45 -110 111 -110z" />
    <glyph glyph-name="d" unicode="d" horiz-adv-x="587" 
d="M646 756l-133 -756h-111l10 62s-58 -74 -156 -74c-105 0 -191 85 -191 220c0 166 138 278 269 278c90 0 134 -59 134 -59l58 329h120zM423 171l25 142s-24 61 -103 61c-90 0 -156 -77 -156 -166c0 -63 37 -108 108 -108c81 0 126 71 126 71z" />
    <glyph glyph-name="e" unicode="e" horiz-adv-x="533" 
d="M332 486c133 0 219 -80 219 -200c0 -15 -1 -31 -13 -92h-356c1 -42 43 -96 118 -96c83 0 136 48 136 48l56 -92s-77 -66 -192 -66c-159 0 -235 107 -235 225c0 156 132 273 267 273zM195 281h239c0 3 1 6 1 9c0 40 -30 87 -103 87c-76 0 -124 -54 -137 -96z" />
    <glyph glyph-name="f" unicode="f" horiz-adv-x="371" 
d="M80 366l19 108h94l21 116c23 132 115 178 192 178c73 0 110 -25 110 -25l-51 -101s-20 14 -56 14c-23 0 -66 -13 -77 -72l-19 -110h116l-19 -108h-116l-64 -366h-120l64 366h-94z" />
    <glyph glyph-name="g" unicode="g" horiz-adv-x="573" 
d="M485 474h111l-84 -478c-29 -165 -149 -238 -282 -238c-136 0 -224 87 -224 87l67 94s63 -69 157 -69c93 0 148 51 161 122l10 57c-19 -20 -70 -61 -145 -61c-107 0 -191 85 -191 220c0 166 138 278 269 278c98 0 141 -69 141 -69zM423 171l25 142s-25 61 -102 61
c-91 0 -157 -77 -157 -166c0 -63 36 -108 107 -108c82 0 127 71 127 71z" />
    <glyph glyph-name="h" unicode="h" horiz-adv-x="562" 
d="M408 486c95 0 166 -75 146 -189l-52 -297h-120l48 277c12 68 -20 97 -72 97c-62 0 -108 -56 -108 -56l-56 -318h-120l133 756h120l-60 -339c20 22 70 69 141 69z" />
    <glyph glyph-name="i" unicode="i" horiz-adv-x="278" 
d="M79 0l83 474h120l-83 -474h-120zM165 627c0 44 35 79 79 79s79 -35 79 -79s-35 -79 -79 -79s-79 35 -79 79z" />
    <glyph glyph-name="j" unicode="j" horiz-adv-x="332" 
d="M-72 -211l47 103s28 -21 62 -21c26 0 75 5 91 97l89 506h120l-91 -517c-27 -155 -125 -199 -204 -199c-75 0 -114 31 -114 31zM220 627c0 44 35 79 79 79s79 -35 79 -79s-35 -79 -79 -79s-79 35 -79 79z" />
    <glyph glyph-name="k" unicode="k" horiz-adv-x="535" 
d="M327 756l-81 -459l191 177h165l-247 -224l178 -250h-148l-153 218l-38 -218h-120l133 756h120z" />
    <glyph glyph-name="l" unicode="l" horiz-adv-x="268" 
d="M74 0l133 756h120l-133 -756h-120z" />
    <glyph glyph-name="m" unicode="m" horiz-adv-x="836" 
d="M675 486c100 0 173 -77 153 -191l-52 -295h-120l48 274c11 64 -8 100 -68 100c-63 0 -102 -56 -102 -56l-56 -318h-120l48 274c11 65 -8 100 -68 100c-63 0 -102 -56 -102 -56l-56 -318h-120l83 474h112l-12 -69s52 81 144 81c107 0 133 -90 133 -90s57 90 155 90z" />
    <glyph glyph-name="n" unicode="n" horiz-adv-x="548" 
d="M394 486c95 0 166 -75 146 -189l-52 -297h-120l48 277c12 68 -20 97 -72 97c-62 0 -108 -56 -108 -56l-56 -318h-120l83 474h112l-12 -69s59 81 151 81z" />
    <glyph glyph-name="o" unicode="o" horiz-adv-x="562" 
d="M343 486c156 0 236 -104 236 -222c0 -157 -142 -276 -278 -276c-156 0 -236 104 -236 222c0 158 142 276 278 276zM301 100c91 0 154 79 154 164c0 61 -39 110 -112 110c-91 0 -154 -79 -154 -164c0 -61 39 -110 112 -110z" />
    <glyph glyph-name="p" unicode="p" horiz-adv-x="573" 
d="M143 474h111l-10 -57s57 69 155 69c114 0 191 -95 191 -219c0 -164 -128 -279 -262 -279c-75 0 -127 41 -140 61l-49 -279h-120zM234 308l-26 -147s23 -61 102 -61c92 0 157 77 157 167c0 63 -39 107 -109 107c-79 0 -124 -66 -124 -66z" />
    <glyph glyph-name="q" unicode="q" horiz-adv-x="573" 
d="M485 474h111l-124 -704h-120l48 275c-20 -20 -69 -57 -144 -57c-105 0 -191 85 -191 220c0 166 138 278 269 278c98 0 141 -69 141 -69zM424 176l24 137s-24 61 -103 61c-90 0 -156 -77 -156 -166c0 -63 37 -108 108 -108c82 0 127 76 127 76z" />
    <glyph glyph-name="r" unicode="r" horiz-adv-x="387" 
d="M388 486c43 0 80 -15 80 -15l-51 -108s-31 11 -66 11c-73 0 -117 -64 -117 -64l-54 -310h-120l83 474h114l-12 -69s55 81 143 81z" />
    <glyph glyph-name="s" unicode="s" horiz-adv-x="483" 
d="M43 74l70 86s58 -67 143 -67c53 0 98 13 98 49c0 28 -27 34 -90 48c-83 18 -151 59 -151 140c0 85 81 156 203 156c119 0 189 -59 189 -59l-62 -91s-63 45 -127 45c-37 0 -85 -12 -85 -49c0 -24 28 -34 99 -50c72 -16 146 -48 146 -137c0 -103 -110 -157 -220 -157
c-131 0 -213 86 -213 86z" />
    <glyph glyph-name="t" unicode="t" horiz-adv-x="416" 
d="M76 366l19 108h103l25 141h120l-25 -141h143l-19 -108h-143l-35 -196c-10 -58 19 -70 51 -70c26 0 52 17 52 17l34 -100s-48 -29 -117 -29c-91 0 -159 72 -141 173l36 205h-103z" />
    <glyph glyph-name="u" unicode="u" horiz-adv-x="548" 
d="M240 -12c-91 0 -169 75 -149 189l52 297h120l-48 -274c-13 -70 17 -100 76 -100c65 0 105 63 105 63l55 311h120l-83 -474h-112l11 64s-55 -76 -147 -76z" />
    <glyph glyph-name="v" unicode="v" horiz-adv-x="506" 
d="M85 474h129l77 -256l161 256h135l-338 -494z" />
    <glyph glyph-name="w" unicode="w" horiz-adv-x="768" 
d="M87 474h130l54 -238l142 238h110l53 -238l139 238h132l-316 -498l-93 338l-209 -338z" />
    <glyph glyph-name="x" unicode="x" horiz-adv-x="525" 
d="M234 247l-122 227h134l71 -145l121 145h144l-206 -230l133 -244h-136l-78 157l-132 -157h-147z" />
    <glyph glyph-name="y" unicode="y" horiz-adv-x="557" 
d="M-13 -194l56 95s31 -31 70 -31c41 0 60 12 95 73l28 49l-145 482h130l97 -345l184 345h136l-332 -580c-60 -104 -114 -136 -190 -136c-75 0 -129 48 -129 48z" />
    <glyph glyph-name="z" unicode="z" horiz-adv-x="495" 
d="M130 474h422l-295 -362h220l-19 -112h-428l294 362h-214z" />
    <glyph glyph-name="a.alt" horiz-adv-x="573" 
d="M485 474h111l-83 -474h-111l10 62s-58 -74 -156 -74c-105 0 -191 85 -191 220c0 166 138 278 269 278c98 0 141 -69 141 -69zM423 171l25 142s-25 61 -102 61c-91 0 -157 -77 -157 -166c0 -63 36 -108 107 -108c82 0 127 71 127 71z" />
    <glyph glyph-name="dollar" unicode="$" 
d="M254 -94l15 85c-138 20 -207 135 -207 135l90 82s52 -90 137 -104l34 195c-83 34 -168 86 -168 200c0 101 97 210 241 213l15 82h63l-16 -87c121 -21 174 -106 174 -106l-84 -79s-43 55 -110 72l-34 -193l9 -3c89 -37 162 -82 162 -195c0 -135 -119 -207 -244 -214
l-14 -83h-63zM451 200c0 40 -25 59 -69 77l-30 -172c50 9 99 37 99 95zM279 499c0 -37 25 -55 67 -74l30 170c-56 -9 -97 -48 -97 -96z" />
    <glyph glyph-name="cent" unicode="&#xa2;" 
d="M269 -94l15 88c-113 22 -177 114 -177 216c0 152 130 265 264 275l15 85h63l-16 -87c114 -15 156 -85 156 -85l-87 -74s-28 39 -88 48l-48 -270c66 10 103 56 103 56l73 -83s-75 -85 -196 -87l-14 -82h-63zM231 210c0 -50 26 -91 73 -105l46 264
c-70 -19 -119 -87 -119 -159z" />
    <glyph glyph-name="sterling" unicode="&#xa3;" 
d="M406 600c-64 0 -125 -42 -125 -113c0 -37 24 -87 37 -117c0 -1 1 -2 1 -3h185l-15 -84h-143s4 -16 4 -31c0 -56 -27 -94 -35 -105c44 -15 66 -47 104 -47c48 0 74 62 74 62l91 -58s-48 -116 -165 -116c-95 0 -114 56 -179 56c-72 0 -100 -64 -100 -64l-88 64
s48 91 136 110c14 13 40 52 40 84c0 20 -10 45 -10 45h-124l15 84h78c-11 28 -26 76 -26 120c0 122 108 225 245 225c163 0 212 -112 212 -112l-93 -64s-37 64 -119 64z" />
    <glyph glyph-name="yen" unicode="&#xa5;" 
d="M622 385h-143l-52 -70h183l-15 -84h-205l-40 -231h-120l40 231h-205l15 84h183l-27 70h-144l15 84h96l-89 231h124l116 -313l226 313h132l-171 -231h96z" />
    <glyph glyph-name="Euro" unicode="&#x20ac;" 
d="M89 385l15 84h85c59 146 191 243 352 243c80 0 138 -24 138 -24l-40 -103s-43 17 -98 17c-103 0 -191 -55 -227 -133h212l-15 -84h-226s-6 -17 -9 -35c-3 -19 -5 -35 -5 -35h228l-15 -84h-213c9 -69 74 -131 181 -131c55 0 90 13 90 13l30 -101s-54 -24 -130 -24
c-166 0 -273 98 -291 243h-89l15 84h76c1 11 3 23 5 35s4 23 7 35h-76z" />
    <glyph glyph-name="euro.alt" horiz-adv-x="739" 
d="M85 385l15 84h94c59 146 196 243 362 243c108 0 213 -45 265 -117l-82 -69c-38 44 -111 74 -183 74c-95 0 -185 -36 -237 -131h290l-15 -84h-308c-8 -22 -13 -47 -14 -70h268l-15 -84h-252c20 -81 90 -131 195 -131c75 0 145 33 197 86l70 -86
c-79 -74 -178 -112 -277 -112c-168 0 -283 94 -305 243h-95l15 84h81c2 23 6 47 12 70h-81z" />
    <glyph glyph-name="florin" unicode="&#x192;" 
d="M415 366l-116 -330c-43 -125 -137 -183 -251 -183h-51l18 112h40c89 0 121 51 142 110l102 291h-90l37 108h90l53 147c35 98 105 147 197 147c72 0 111 -25 111 -25l-51 -100s-21 13 -60 13c-53 0 -79 -29 -95 -74l-39 -108h114l-37 -108h-114z" />
    <glyph glyph-name="currency" unicode="&#xa4;" 
d="M111 303c0 56 22 109 56 152l-56 69l78 66l56 -68c38 22 81 35 124 35c51 0 96 -17 131 -44l91 77l63 -76l-92 -78c14 -29 22 -60 22 -92c0 -62 -24 -117 -61 -160l52 -63l-78 -66l-54 65c-37 -20 -78 -30 -117 -30c-48 0 -90 14 -124 38l-87 -73l-63 76l84 72
c-16 30 -25 65 -25 100zM369 445c-76 0 -145 -66 -145 -142c0 -57 42 -101 102 -101c78 0 144 64 144 142c0 55 -41 101 -101 101z" />
    <glyph glyph-name="section" unicode="&#xa7;" horiz-adv-x="508" 
d="M497 272c0 -70 -62 -137 -135 -160c40 -32 61 -80 61 -127c0 -100 -85 -179 -198 -179c-123 0 -177 81 -177 81l80 79s37 -50 97 -50c42 0 78 32 78 69c0 30 -29 49 -89 87c-2 1 -4 3 -6 4c-58 38 -117 86 -117 171c0 69 62 136 135 158c-45 36 -62 84 -62 129
c0 99 102 178 200 178c125 0 176 -82 176 -82l-82 -74s-34 46 -94 46c-34 0 -79 -26 -79 -68c0 -31 30 -50 89 -88c61 -39 123 -87 123 -174zM279 172l4 -3c48 18 91 49 91 103c0 25 -13 44 -64 74l-5 2c-48 -16 -90 -48 -90 -101c0 -26 13 -44 64 -75z" />
    <glyph glyph-name="copyright" unicode="&#xa9;" horiz-adv-x="819" 
d="M104 304c0 222 178 408 416 408c205 0 317 -142 317 -314c0 -222 -176 -410 -414 -410c-205 0 -319 144 -319 316zM520 626c-193 0 -329 -149 -329 -322c0 -129 92 -230 232 -230c193 0 327 153 327 324c0 129 -90 228 -230 228zM458 241c64 0 101 42 101 42l52 -72
s-61 -59 -153 -59c-121 0 -186 83 -186 177c0 125 110 218 224 218c115 0 157 -69 157 -69l-68 -58s-30 39 -89 39c-70 0 -126 -63 -126 -130c0 -50 35 -88 88 -88z" />
    <glyph glyph-name="registered" unicode="&#xae;" horiz-adv-x="425" 
d="M210 417l34 190h88c42 0 63 -29 63 -58c0 -35 -29 -59 -55 -62l38 -70h-60l-29 61h-14l-11 -61h-54zM307 524c18 0 35 1 35 25c0 16 -16 17 -27 17h-25l-7 -42h24zM91 485c0 123 102 235 237 235c128 0 187 -87 187 -185c0 -124 -103 -233 -238 -233
c-128 0 -186 85 -186 183zM328 654c-101 0 -171 -76 -171 -169c0 -67 40 -118 120 -118c101 0 171 75 171 168c0 67 -40 119 -120 119z" />
    <glyph glyph-name="trademark" unicode="&#x2122;" horiz-adv-x="805" 
d="M182 330l50 287h-103l15 83h293l-15 -83h-103l-50 -287h-87zM482 700h79l82 -184l147 184h86l-65 -370h-87l37 211l-137 -168l-82 173l-38 -216h-87z" />
    <glyph glyph-name="ordfeminine" unicode="&#xaa;" horiz-adv-x="325" 
d="M228 464c44 0 77 36 77 36l4 22s-27 16 -67 16c-26 0 -59 -12 -59 -44c0 -23 24 -30 45 -30zM279 712c81 0 130 -47 118 -111l-34 -195h-70l7 39s-36 -46 -96 -46c-49 0 -101 28 -101 95c0 65 61 103 129 103c55 0 85 -29 85 -29l4 22c6 34 -18 49 -58 49
c-43 0 -93 -19 -93 -19l-20 68s54 24 129 24z" />
    <glyph glyph-name="ordmasculine" unicode="&#xba;" horiz-adv-x="357" 
d="M117 543c0 92 85 169 171 169c93 0 147 -66 147 -144c0 -99 -85 -170 -171 -170c-93 0 -147 67 -147 145zM288 626c-45 0 -85 -37 -85 -83c0 -33 26 -59 61 -59c45 0 85 38 85 84c0 33 -26 58 -61 58z" />
    <glyph glyph-name="slash" unicode="/" horiz-adv-x="520" 
d="M636 751l-558 -898l-90 55l558 898z" />
    <glyph glyph-name="backslash" unicode="\" horiz-adv-x="520" 
d="M390 -136l-241 898l108 34l241 -898z" />
    <glyph glyph-name="bar" unicode="|" horiz-adv-x="260" 
d="M31 -230l171 970h116l-171 -970h-116z" />
    <glyph glyph-name="brokenbar" unicode="&#xa6;" horiz-adv-x="260" 
d="M133 350l69 390h116l-69 -390h-116zM31 -230l69 390h116l-69 -390h-116z" />
    <glyph glyph-name="bracketleft" unicode="[" horiz-adv-x="330" 
d="M300 660l-140 -794h114l-17 -96h-224l174 986h224l-17 -96h-114z" />
    <glyph glyph-name="bracketright" unicode="]" horiz-adv-x="330" 
d="M122 -134l140 794h-114l17 96h224l-174 -986h-224l17 96h114z" />
    <glyph glyph-name="parenleft" unicode="(" horiz-adv-x="312" 
d="M329 759l88 -71c-116 -127 -209 -311 -209 -506c0 -172 66 -292 66 -292l-103 -60s-82 145 -82 347c0 218 97 421 240 582z" />
    <glyph glyph-name="parenright" unicode=")" horiz-adv-x="312" 
d="M86 -170l-88 71c115 127 209 311 209 506c0 172 -66 292 -66 292l103 60s82 -145 82 -347c0 -218 -97 -421 -240 -582z" />
    <glyph glyph-name="braceleft" unicode="{" horiz-adv-x="350" 
d="M447 756l-19 -108c-40 0 -68 0 -79 -64l-35 -196c-19 -105 -76 -126 -127 -128v-4c49 -2 100 -23 81 -128l-31 -176c-12 -66 25 -74 65 -74l-19 -108h-54c-78 0 -132 65 -118 145l34 198c16 90 -32 101 -82 101l16 88c50 0 102 11 118 101l36 208c14 80 67 145 145 145
h69z" />
    <glyph glyph-name="braceright" unicode="}" horiz-adv-x="350" 
d="M140 648l19 108h54c78 0 132 -65 118 -145l-36 -208c-16 -90 32 -101 82 -101l-16 -88c-50 0 -102 -11 -118 -101l-36 -208c-14 -80 -65 -135 -143 -135h-68l18 108c40 0 68 0 79 64l33 186c19 105 76 126 127 128v4c-49 2 -100 23 -81 128l33 186c11 66 -25 74 -65 74z
" />
    <glyph glyph-name="guilsinglleft" unicode="&#x2039;" horiz-adv-x="322" 
d="M46 250l215 236l74 -74l-159 -169l108 -178l-91 -62z" />
    <glyph glyph-name="guilsinglright" unicode="&#x203a;" horiz-adv-x="322" 
d="M215 481l147 -241l-212 -237l-77 77l161 171l-108 168z" />
    <glyph glyph-name="guillemotleft" unicode="&#xab;" horiz-adv-x="529" 
d="M46 250l215 236l74 -74l-159 -169l108 -178l-91 -62zM266 250l215 236l74 -74l-159 -169l108 -178l-91 -62z" />
    <glyph glyph-name="guillemotright" unicode="&#xbb;" horiz-adv-x="529" 
d="M416 481l149 -246l-214 -232l-77 77l161 171l-108 168zM196 481l147 -241l-212 -237l-77 77l161 171l-108 168z" />
    <glyph glyph-name="quotesingle" unicode="'" horiz-adv-x="186" 
d="M120 454l43 246h106l-43 -246h-106z" />
    <glyph glyph-name="quotedbl" unicode="&#x22;" horiz-adv-x="400" 
d="M139 452l44 248h106l-44 -248h-106zM313 452l44 248h106l-44 -248h-106z" />
    <glyph glyph-name="quotesinglbase" unicode="&#x201a;" horiz-adv-x="186" 
d="M15 -140l44 248h106l-44 -248h-106z" />
    <glyph glyph-name="quoteleft" unicode="&#x2018;" horiz-adv-x="186" 
d="M120 454l43 246h106l-43 -246h-106z" />
    <glyph glyph-name="quoteright" unicode="&#x2019;" horiz-adv-x="186" 
d="M120 454l43 246h106l-43 -246h-106z" />
    <glyph glyph-name="quotedblbase" unicode="&#x201e;" horiz-adv-x="400" 
d="M35 -140l44 248h106l-44 -248h-106zM209 -140l44 248h106l-44 -248h-106z" />
    <glyph glyph-name="quotedblleft" unicode="&#x201c;" horiz-adv-x="400" 
d="M139 452l44 248h106l-44 -248h-106zM313 452l44 248h106l-44 -248h-106z" />
    <glyph glyph-name="quotedblright" unicode="&#x201d;" horiz-adv-x="400" 
d="M139 452l44 248h106l-44 -248h-106zM313 452l44 248h106l-44 -248h-106z" />
    <glyph glyph-name="periodcentered" unicode="&#xb7;" horiz-adv-x="262" 
d="M113 350c0 44 35 79 79 79s79 -35 79 -79s-35 -79 -79 -79s-79 35 -79 79z" />
    <glyph glyph-name="bullet" unicode="&#x2022;" horiz-adv-x="500" 
d="M167 350c0 79 65 144 144 144s144 -65 144 -144s-65 -144 -144 -144s-144 65 -144 144z" />
    <glyph glyph-name="bullet.alt" horiz-adv-x="500" 
d="M101 350c0 116 94 210 210 210s210 -94 210 -210s-94 -210 -210 -210s-210 94 -210 210z" />
    <glyph glyph-name="paragraph.alt" horiz-adv-x="589" 
d="M418 598l-105 -598h-102l58 326c-80 0 -157 69 -157 159c0 137 80 215 223 215h303l-124 -700h-101l105 598h-100z" />
    <glyph glyph-name="paragraph" unicode="&#xb6;" horiz-adv-x="672" 
d="M491 598l-139 -786h-111l73 414c-101 0 -199 87 -199 201c0 174 102 273 283 273h323l-157 -888h-112l139 786h-100z" />
    <glyph glyph-name="fj" horiz-adv-x="582" 
d="M80 368l19 106h94l20 111c20 117 106 183 223 183c130 0 193 -83 178 -167l-2 -11c-6 -33 -39 -59 -72 -59s-54 25 -48 59l1 7c6 37 -26 63 -71 63c-40 0 -81 -27 -91 -85l-18 -101h97l-19 -106h-97l-64 -368h-120l64 368h-94zM182 -211l47 103s28 -21 62 -21
c26 0 75 5 91 97l89 506h120l-91 -517c-27 -155 -125 -199 -204 -199c-75 0 -114 31 -114 31z" />
    <glyph glyph-name="ft" horiz-adv-x="689" 
d="M72 368l19 106h94l21 116c23 132 115 178 192 178c73 0 110 -25 110 -25l-51 -101s-20 14 -56 14c-23 0 -66 -13 -77 -72l-19 -110h166l23 129h120l-23 -129h143l-19 -106h-143l-35 -198c-10 -58 19 -70 51 -70c26 0 52 17 52 17l34 -100s-48 -29 -117 -29
c-91 0 -159 72 -141 173l36 207h-166l-64 -368h-120l64 368h-94z" />
    <glyph glyph-name="germandbls" unicode="&#xdf;" horiz-adv-x="601" 
d="M64 0c0 0 50 283 96 543c24 137 107 225 245 225c121 0 213 -68 213 -196c0 -66 -46 -140 -112 -160c0 0 103 -22 103 -157c0 -163 -109 -267 -304 -267h-45l20 112h20c103 0 185 36 185 155c0 56 -38 97 -152 97l18 106c63 1 142 34 142 114c0 37 -26 82 -88 82
c-70 0 -114 -43 -126 -111l-95 -543h-120z" />
    <glyph glyph-name="dieresis" unicode="&#xa8;" horiz-adv-x="392" 
d="M123 621c0 44 35 79 79 79s79 -35 79 -79s-35 -79 -79 -79s-79 35 -79 79zM329 621c0 44 35 79 79 79s79 -35 79 -79s-35 -79 -79 -79s-79 35 -79 79z" />
    <glyph glyph-name="acute" unicode="&#xb4;" horiz-adv-x="272" 
d="M311 758l74 -88l-199 -164l-69 79z" />
    <glyph glyph-name="grave" unicode="`" horiz-adv-x="272" 
d="M113 688l88 74l150 -184l-84 -68z" />
    <glyph glyph-name="circumflex" unicode="&#x2c6;" horiz-adv-x="424" 
d="M124 599l199 131l181 -140l-73 -76l-114 97l-133 -95z" />
    <glyph glyph-name="caron" unicode="&#x2c7;" horiz-adv-x="424" 
d="M313 513l-178 134l74 79l115 -93l133 96l59 -82z" />
    <glyph glyph-name="breve" unicode="&#x2d8;" horiz-adv-x="410" 
d="M149 700h108s-14 -72 58 -72s84 72 84 72h108s-19 -164 -197 -164c-193 0 -161 164 -161 164z" />
    <glyph glyph-name="dotaccent" unicode="&#x2d9;" horiz-adv-x="240" 
d="M150 623c0 44 35 79 79 79s79 -35 79 -79s-35 -79 -79 -79s-79 35 -79 79z" />
    <glyph glyph-name="ring" unicode="&#x2da;" horiz-adv-x="256" 
d="M117 634c0 71 65 129 133 129c75 0 115 -55 115 -111c0 -71 -66 -129 -134 -129c-75 0 -114 55 -114 111zM250 697c-37 0 -64 -28 -64 -63c0 -25 18 -45 45 -45c37 0 65 28 65 63c0 26 -19 45 -46 45z" />
    <glyph glyph-name="cedilla" unicode="&#xb8;" horiz-adv-x="315" 
d="M232 -54l-99 -217l-111 29l101 197z" />
    <glyph glyph-name="ogonek" unicode="&#x2db;" horiz-adv-x="256" 
d="M85 0h111s-105 -35 -105 -90c0 -23 16 -37 44 -37c21 0 44 8 44 8l-16 -95c-17 -5 -38 -9 -58 -9c-69 0 -112 45 -112 107c0 77 92 116 92 116z" />
    <glyph glyph-name="tilde" unicode="&#x2dc;" horiz-adv-x="425" 
d="M189 539l-81 57s41 106 145 106c59 0 100 -58 138 -58c43 0 65 63 65 63l79 -61s-39 -108 -141 -108c-58 0 -101 57 -139 57c-43 0 -66 -56 -66 -56z" />
    <glyph glyph-name="hungarumlaut" unicode="&#x2dd;" horiz-adv-x="382" 
d="M249 740l84 -49l-159 -177l-78 42zM423 740l84 -49l-159 -177l-78 42z" />
    <glyph glyph-name="macron" unicode="&#xaf;" horiz-adv-x="334" 
d="M106 572l19 108h322l-19 -108h-322z" />
    <glyph glyph-name="logicalnot" unicode="&#xac;" horiz-adv-x="674" 
d="M87 394l20 114h600l-56 -316h-118l36 202h-482z" />
    <glyph glyph-name="Delta" unicode="&#x394;" horiz-adv-x="836" 
d="M4 0l547 756l281 -756h-828zM218 114h454l-154 414z" />
    <glyph glyph-name="Delta" unicode="&#x2206;" horiz-adv-x="836" 
d="M4 0l547 756l281 -756h-828zM218 114h454l-154 414z" />
    <glyph glyph-name="Omega" unicode="&#x3a9;" horiz-adv-x="788" 
d="M500 712c184 0 314 -105 314 -286c0 -140 -86 -259 -194 -312h120l-20 -114h-259l20 114c116 38 210 182 210 312c0 101 -70 176 -191 176c-156 0 -276 -132 -276 -287c0 -92 46 -172 123 -201l-20 -114h-259l20 114h123c-60 40 -110 113 -110 201c0 230 188 397 399 397
z" />
    <glyph glyph-name="Omega" unicode="&#x2126;" horiz-adv-x="788" 
d="M500 712c184 0 314 -105 314 -286c0 -140 -86 -259 -194 -312h120l-20 -114h-259l20 114c116 38 210 182 210 312c0 101 -70 176 -191 176c-156 0 -276 -132 -276 -287c0 -92 46 -172 123 -201l-20 -114h-259l20 114h123c-60 40 -110 113 -110 201c0 230 188 397 399 397
z" />
    <glyph glyph-name="mu" unicode="&#xb5;" horiz-adv-x="548" 
d="M236 -12c-20 0 -40 4 -57 11l-40 -229h-120l124 704h120l-48 -274c-13 -70 17 -100 76 -100c60 0 104 58 104 58l56 316h120l-83 -474h-112l12 69s-60 -81 -152 -81z" />
    <glyph glyph-name="mu" unicode="&#x3bc;" horiz-adv-x="548" 
d="M236 -12c-20 0 -40 4 -57 11l-40 -229h-120l124 704h120l-48 -274c-13 -70 17 -100 76 -100c60 0 104 58 104 58l56 316h120l-83 -474h-112l12 69s-60 -81 -152 -81z" />
    <glyph glyph-name="pi" unicode="&#x3c0;" horiz-adv-x="571" 
d="M347 153l36 207h-90l-63 -360h-120l63 360h-84l20 114h513l-20 -114h-99l-37 -207c-6 -36 7 -53 33 -53c22 0 36 10 36 10l31 -99s-34 -23 -94 -23c-68 0 -145 49 -125 165z" />
    <glyph glyph-name="partialdiff" unicode="&#x2202;" horiz-adv-x="544" 
d="M337 486c34 0 89 -10 120 -33c-43 138 -255 175 -255 175l23 105s358 -30 358 -367c0 -179 -85 -378 -294 -378c-140 0 -232 105 -232 222c0 160 128 276 280 276zM289 100c89 0 156 79 156 164c0 61 -38 110 -108 110c-89 0 -156 -79 -156 -164c0 -61 38 -110 108 -110z
" />
    <glyph glyph-name="product" unicode="&#x220f;" horiz-adv-x="707" 
d="M758 700l-164 -930h-120l144 816h-323l-144 -816h-120l164 930h563z" />
    <glyph glyph-name="summation" unicode="&#x2211;" horiz-adv-x="738" 
d="M-16 -230l406 466l-241 464h664l-20 -114h-445l188 -359l-300 -343h433l-20 -114h-665z" />
    <glyph glyph-name="radical" unicode="&#x221a;" horiz-adv-x="625" 
d="M356 257l348 703h121l-489 -980l-132 380h-111l20 114h169z" />
    <glyph glyph-name="infinity" unicode="&#x221e;" horiz-adv-x="838" 
d="M652 151c62 0 120 54 120 120c0 49 -38 82 -86 82c-64 0 -131 -73 -165 -104c23 -31 67 -98 131 -98zM274 353c-62 0 -120 -54 -120 -120c0 -49 38 -82 86 -82c64 0 130 71 165 102c-24 31 -67 100 -131 100zM66 217c0 121 89 224 218 224c49 0 102 -24 132 -63l55 -67
l75 68c45 38 100 62 151 62c88 0 163 -65 163 -155c0 -121 -90 -223 -218 -223c-49 0 -102 24 -132 63l-55 65l-75 -66c-45 -38 -100 -62 -151 -62c-88 0 -163 64 -163 154z" />
    <glyph glyph-name="integral" unicode="&#x222b;" horiz-adv-x="418" 
d="M373 592l-117 -663c-20 -115 -100 -171 -186 -171c-60 0 -101 29 -101 29l49 99s26 -16 51 -16c35 0 60 22 68 64l117 665c20 115 100 169 186 169c60 0 106 -30 106 -30l-56 -98s-25 16 -50 16c-35 0 -60 -22 -67 -64z" />
    <glyph glyph-name="lozenge" unicode="&#x25ca;" horiz-adv-x="488" 
d="M265 161l169 203l-89 180l-171 -195zM64 357l305 355l179 -355l-307 -369z" />
    <glyph glyph-name="asterisk" unicode="*" horiz-adv-x="398" 
d="M284 453l-92 -105l-64 55l91 99l-113 39l31 82l121 -43l23 132h86l-23 -132l126 39l20 -82l-134 -40l60 -99l-74 -47z" />
    <glyph glyph-name="asciicircum" unicode="^" horiz-adv-x="537" 
d="M71 350l278 406h105l134 -406h-120l-83 274l-180 -274h-134z" />
    <glyph glyph-name="degree" unicode="&#xb0;" horiz-adv-x="357" 
d="M117 543c0 92 84 169 170 169c100 0 148 -71 148 -144c0 -92 -83 -169 -169 -169c-100 0 -149 71 -149 144zM287 626c-45 0 -83 -36 -83 -83c0 -34 27 -59 62 -59c45 0 82 37 82 84c0 34 -26 58 -61 58z" />
    <glyph glyph-name="dagger" unicode="&#x2020;" horiz-adv-x="520" 
d="M135 412l20 114h136l31 174h120l-31 -174h138l-20 -114h-138l-87 -492h-120l87 492h-136z" />
    <glyph glyph-name="daggerdbl" unicode="&#x2021;" horiz-adv-x="520" 
d="M79 94l20 114h136l36 204h-136l20 114h136l31 174h120l-31 -174h138l-20 -114h-138l-36 -204h138l-20 -114h-138l-31 -174h-120l31 174h-136z" />
    <glyph glyph-name="plus" unicode="+" horiz-adv-x="520" 
d="M550 302l-20 -112h-177l-33 -190h-120l33 190h-177l20 112h177l32 184h120l-32 -184h177z" />
    <glyph glyph-name="plusminus" unicode="&#xb1;" horiz-adv-x="520" 
d="M38 0l17 102h444l-17 -102h-444zM85 269l18 102h167l23 130h110l-23 -130h167l-18 -102h-167l-22 -123h-110l22 123h-167z" />
    <glyph glyph-name="minus" unicode="&#x2212;" horiz-adv-x="520" 
d="M68 190l20 112h450l-20 -112h-450z" />
    <glyph glyph-name="divide" unicode="&#xf7;" horiz-adv-x="520" 
d="M67 182l19 110h450l-19 -110h-450zM202 67c0 44 35 79 79 79s79 -35 79 -79s-35 -79 -79 -79s-79 35 -79 79zM241 407c0 44 35 79 79 79s79 -35 79 -79s-35 -79 -79 -79s-79 35 -79 79z" />
    <glyph glyph-name="multiply" unicode="&#xd7;" horiz-adv-x="520" 
d="M114 21l-71 84l182 155l-123 150l88 74l123 -150l182 155l70 -84l-182 -155l123 -150l-87 -74l-123 150z" />
    <glyph glyph-name="equal" unicode="=" horiz-adv-x="520" 
d="M65 116l19 110h430l-19 -110h-430zM98 302l19 110h430l-19 -110h-430z" />
    <glyph glyph-name="notequal" unicode="&#x2260;" horiz-adv-x="520" 
d="M94 299l20 110h254l178 252l50 -35l-154 -217h102l-20 -110h-159l-50 -70h197l-20 -110h-254l-170 -241l-50 35l145 206h-101l20 110h159l49 70h-196z" />
    <glyph glyph-name="approxequal" unicode="&#x2248;" horiz-adv-x="520" 
d="M175 284l-71 59s36 86 125 86c56 0 117 -52 156 -52c57 0 65 57 65 57l70 -61s-42 -99 -135 -99c-54 0 -117 51 -156 51c-45 0 -54 -41 -54 -41zM163 90l-71 59s36 96 125 96c53 0 117 -52 156 -52c57 0 64 47 64 47l71 -61s-42 -89 -135 -89c-57 0 -117 51 -156 51
c-45 0 -54 -51 -54 -51z" />
    <glyph glyph-name="less" unicode="&#x3c;" horiz-adv-x="520" 
d="M56 221l18 100l497 197l-22 -128l-330 -124l286 -125l-21 -118z" />
    <glyph glyph-name="greater" unicode="&#x3e;" horiz-adv-x="520" 
d="M562 321l-18 -100l-496 -198l22 128l326 125l-282 124l21 118z" />
    <glyph glyph-name="lessequal" unicode="&#x2264;" horiz-adv-x="520" 
d="M19 0l17 102h462l-17 -102h-462zM78 343l18 100l497 197l-22 -128l-330 -124l286 -125l-21 -118z" />
    <glyph glyph-name="greaterequal" unicode="&#x2265;" horiz-adv-x="520" 
d="M581 443l-18 -100l-496 -198l22 128l326 125l-282 124l21 118zM521 102l-17 -102h-462l17 102h462z" />
    <glyph glyph-name="Agrave" unicode="&#xc0;" horiz-adv-x="678" 
d="M6 0l395 700h122l149 -700h-118l-35 166h-292l-93 -166h-128zM439 546l-150 -270h206zM334 926l88 74l150 -184l-84 -68z" />
    <glyph glyph-name="agrave" unicode="&#xe0;" horiz-adv-x="536" 
d="M261 88c72 0 120 55 120 55l9 49s-39 24 -104 24c-41 0 -101 -21 -101 -75c0 -42 42 -53 76 -53zM331 486c136 0 217 -74 198 -182l-53 -304h-111l10 60s-63 -72 -158 -72c-98 0 -156 67 -156 149c0 107 103 167 206 167c83 0 135 -39 135 -39l6 32c11 62 -42 82 -94 82
c-69 0 -145 -31 -145 -31l-31 102s94 36 193 36zM246 717l88 74l150 -184l-84 -68z" />
    <glyph glyph-name="agrave.alt" horiz-adv-x="573" 
d="M485 474h111l-83 -474h-111l10 62s-58 -74 -156 -74c-105 0 -191 85 -191 220c0 166 138 278 269 278c98 0 141 -69 141 -69zM423 171l25 142s-25 61 -102 61c-91 0 -157 -77 -157 -166c0 -63 36 -108 107 -108c82 0 127 71 127 71zM232 717l88 74l150 -184l-84 -68z" />
    <glyph glyph-name="Aacute" unicode="&#xc1;" horiz-adv-x="678" 
d="M6 0l395 700h122l149 -700h-118l-35 166h-292l-93 -166h-128zM439 546l-150 -270h206zM549 996l74 -88l-199 -164l-69 79z" />
    <glyph glyph-name="aacute" unicode="&#xe1;" horiz-adv-x="536" 
d="M434 788l74 -88l-199 -164l-69 79zM261 88c72 0 120 55 120 55l9 49s-39 24 -104 24c-41 0 -101 -21 -101 -75c0 -42 42 -53 76 -53zM331 486c136 0 217 -74 198 -182l-53 -304h-111l10 60s-63 -72 -158 -72c-98 0 -156 67 -156 149c0 107 103 167 206 167
c83 0 135 -39 135 -39l6 32c11 62 -42 82 -94 82c-69 0 -145 -31 -145 -31l-31 102s94 36 193 36z" />
    <glyph glyph-name="aacute.alt" horiz-adv-x="573" 
d="M470 788l74 -88l-199 -164l-69 79zM485 474h111l-83 -474h-111l10 62s-58 -74 -156 -74c-105 0 -191 85 -191 220c0 166 138 278 269 278c98 0 141 -69 141 -69zM423 171l25 142s-25 61 -102 61c-91 0 -157 -77 -157 -166c0 -63 36 -108 107 -108c82 0 127 71 127 71z
" />
    <glyph glyph-name="Acircumflex" unicode="&#xc2;" horiz-adv-x="678" 
d="M6 0l395 700h122l149 -700h-118l-35 166h-292l-93 -166h-128zM439 546l-150 -270h206zM277 827l199 131l181 -140l-73 -76l-114 97l-133 -95z" />
    <glyph glyph-name="acircumflex" unicode="&#xe2;" horiz-adv-x="536" 
d="M261 88c72 0 120 55 120 55l9 49s-39 24 -104 24c-41 0 -101 -21 -101 -75c0 -42 42 -53 76 -53zM331 486c136 0 217 -74 198 -182l-53 -304h-111l10 60s-63 -72 -158 -72c-98 0 -156 67 -156 149c0 107 103 167 206 167c83 0 135 -39 135 -39l6 32c11 62 -42 82 -94 82
c-69 0 -145 -31 -145 -31l-31 102s94 36 193 36zM170 608l199 131l181 -140l-73 -76l-114 97l-133 -95z" />
    <glyph glyph-name="acircumflex.alt" horiz-adv-x="573" 
d="M485 474h111l-83 -474h-111l10 62s-58 -74 -156 -74c-105 0 -191 85 -191 220c0 166 138 278 269 278c98 0 141 -69 141 -69zM423 171l25 142s-25 61 -102 61c-91 0 -157 -77 -157 -166c0 -63 36 -108 107 -108c82 0 127 71 127 71zM184 608l199 131l181 -140l-73 -76
l-114 97l-133 -95z" />
    <glyph glyph-name="Atilde" unicode="&#xc3;" horiz-adv-x="678" 
d="M6 0l395 700h122l149 -700h-118l-35 166h-292l-93 -166h-128zM439 546l-150 -270h206zM336 777l-81 57s41 106 145 106c59 0 100 -58 138 -58c43 0 65 63 65 63l79 -61s-39 -108 -141 -108c-58 0 -101 57 -139 57c-43 0 -66 -56 -66 -56z" />
    <glyph glyph-name="atilde" unicode="&#xe3;" horiz-adv-x="536" 
d="M261 88c72 0 120 55 120 55l9 49s-39 24 -104 24c-41 0 -101 -21 -101 -75c0 -42 42 -53 76 -53zM331 486c136 0 217 -74 198 -182l-53 -304h-111l10 60s-63 -72 -158 -72c-98 0 -156 67 -156 149c0 107 103 167 206 167c83 0 135 -39 135 -39l6 32c11 62 -42 82 -94 82
c-69 0 -145 -31 -145 -31l-31 102s94 36 193 36zM246 556l-81 57s41 106 145 106c59 0 100 -58 138 -58c43 0 65 63 65 63l79 -61s-39 -108 -141 -108c-58 0 -101 57 -139 57c-43 0 -66 -56 -66 -56z" />
    <glyph glyph-name="atilde.alt" horiz-adv-x="573" 
d="M485 474h111l-83 -474h-111l10 62s-58 -74 -156 -74c-105 0 -191 85 -191 220c0 166 138 278 269 278c98 0 141 -69 141 -69zM423 171l25 142s-25 61 -102 61c-91 0 -157 -77 -157 -166c0 -63 36 -108 107 -108c82 0 127 71 127 71zM253 556l-81 57s41 106 145 106
c59 0 100 -58 138 -58c43 0 65 63 65 63l79 -61s-39 -108 -141 -108c-58 0 -101 57 -139 57c-43 0 -66 -56 -66 -56z" />
    <glyph glyph-name="Adieresis" unicode="&#xc4;" horiz-adv-x="678" 
d="M6 0l395 700h122l149 -700h-118l-35 166h-292l-93 -166h-128zM439 546l-150 -270h206zM296 859c0 44 35 79 79 79s79 -35 79 -79s-35 -79 -79 -79s-79 35 -79 79zM502 859c0 44 35 79 79 79s79 -35 79 -79s-35 -79 -79 -79s-79 35 -79 79z" />
    <glyph glyph-name="adieresis" unicode="&#xe4;" horiz-adv-x="536" 
d="M261 88c72 0 120 55 120 55l9 49s-39 24 -104 24c-41 0 -101 -21 -101 -75c0 -42 42 -53 76 -53zM331 486c136 0 217 -74 198 -182l-53 -304h-111l10 60s-63 -72 -158 -72c-98 0 -156 67 -156 149c0 107 103 167 206 167c83 0 135 -39 135 -39l6 32c11 62 -42 82 -94 82
c-69 0 -145 -31 -145 -31l-31 102s94 36 193 36zM184 631c0 44 35 79 79 79s79 -35 79 -79s-35 -79 -79 -79s-79 35 -79 79zM390 631c0 44 35 79 79 79s79 -35 79 -79s-35 -79 -79 -79s-79 35 -79 79z" />
    <glyph glyph-name="adieresis.alt" horiz-adv-x="573" 
d="M485 474h111l-83 -474h-111l10 62s-58 -74 -156 -74c-105 0 -191 85 -191 220c0 166 138 278 269 278c98 0 141 -69 141 -69zM423 171l25 142s-25 61 -102 61c-91 0 -157 -77 -157 -166c0 -63 36 -108 107 -108c82 0 127 71 127 71zM208 631c0 44 35 79 79 79
s79 -35 79 -79s-35 -79 -79 -79s-79 35 -79 79zM414 631c0 44 35 79 79 79s79 -35 79 -79s-35 -79 -79 -79s-79 35 -79 79z" />
    <glyph glyph-name="Aring" unicode="&#xc5;" horiz-adv-x="678" 
d="M6 0l395 700h122l149 -700h-118l-35 166h-292l-93 -166h-128zM439 546l-150 -270h206zM353 854c0 71 65 129 133 129c75 0 115 -55 115 -111c0 -71 -66 -129 -134 -129c-75 0 -114 55 -114 111zM486 917c-37 0 -64 -28 -64 -63c0 -25 18 -45 45 -45c37 0 65 28 65 63
c0 26 -19 45 -46 45z" />
    <glyph glyph-name="aring" unicode="&#xe5;" horiz-adv-x="536" 
d="M261 88c72 0 120 55 120 55l9 49s-39 24 -104 24c-41 0 -101 -21 -101 -75c0 -42 42 -53 76 -53zM331 486c136 0 217 -74 198 -182l-53 -304h-111l10 60s-63 -72 -158 -72c-98 0 -156 67 -156 149c0 107 103 167 206 167c83 0 135 -39 135 -39l6 32c11 62 -42 82 -94 82
c-69 0 -145 -31 -145 -31l-31 102s94 36 193 36zM247 638c0 71 65 129 133 129c75 0 115 -55 115 -111c0 -71 -66 -129 -134 -129c-75 0 -114 55 -114 111zM380 701c-37 0 -64 -28 -64 -63c0 -25 18 -45 45 -45c37 0 65 28 65 63c0 26 -19 45 -46 45z" />
    <glyph glyph-name="aring.alt" horiz-adv-x="573" 
d="M485 474h111l-83 -474h-111l10 62s-58 -74 -156 -74c-105 0 -191 85 -191 220c0 166 138 278 269 278c98 0 141 -69 141 -69zM423 171l25 142s-25 61 -102 61c-91 0 -157 -77 -157 -166c0 -63 36 -108 107 -108c82 0 127 71 127 71zM265 639c0 71 65 129 133 129
c75 0 115 -55 115 -111c0 -71 -66 -129 -134 -129c-75 0 -114 55 -114 111zM398 702c-37 0 -64 -28 -64 -63c0 -25 18 -45 45 -45c37 0 65 28 65 63c0 26 -19 45 -46 45z" />
    <glyph glyph-name="Amacron" unicode="&#x100;" horiz-adv-x="678" 
d="M6 0l395 700h122l149 -700h-118l-35 166h-292l-93 -166h-128zM439 546l-150 -270h206zM303 790l19 108h322l-19 -108h-322z" />
    <glyph glyph-name="amacron" unicode="&#x101;" horiz-adv-x="536" 
d="M261 88c72 0 120 55 120 55l9 49s-39 24 -104 24c-41 0 -101 -21 -101 -75c0 -42 42 -53 76 -53zM331 486c136 0 217 -74 198 -182l-53 -304h-111l10 60s-63 -72 -158 -72c-98 0 -156 67 -156 149c0 107 103 167 206 167c83 0 135 -39 135 -39l6 32c11 62 -42 82 -94 82
c-69 0 -145 -31 -145 -31l-31 102s94 36 193 36zM210 567l19 108h322l-19 -108h-322z" />
    <glyph glyph-name="amacron.alt" horiz-adv-x="573" 
d="M485 474h111l-83 -474h-111l10 62s-58 -74 -156 -74c-105 0 -191 85 -191 220c0 166 138 278 269 278c98 0 141 -69 141 -69zM423 171l25 142s-25 61 -102 61c-91 0 -157 -77 -157 -166c0 -63 36 -108 107 -108c82 0 127 71 127 71zM225 567l19 108h322l-19 -108h-322z
" />
    <glyph glyph-name="Abreve" unicode="&#x102;" horiz-adv-x="678" 
d="M6 0l395 700h122l149 -700h-118l-35 166h-292l-93 -166h-128zM439 546l-150 -270h206zM310 918h108s-14 -72 58 -72s84 72 84 72h108s-19 -164 -197 -164c-193 0 -161 164 -161 164z" />
    <glyph glyph-name="abreve" unicode="&#x103;" horiz-adv-x="536" 
d="M261 88c72 0 120 55 120 55l9 49s-39 24 -104 24c-41 0 -101 -21 -101 -75c0 -42 42 -53 76 -53zM331 486c136 0 217 -74 198 -182l-53 -304h-111l10 60s-63 -72 -158 -72c-98 0 -156 67 -156 149c0 107 103 167 206 167c83 0 135 -39 135 -39l6 32c11 62 -42 82 -94 82
c-69 0 -145 -31 -145 -31l-31 102s94 36 193 36zM212 712h108s-14 -72 58 -72s84 72 84 72h108s-19 -164 -197 -164c-193 0 -161 164 -161 164z" />
    <glyph glyph-name="abreve.alt" horiz-adv-x="573" 
d="M485 474h111l-83 -474h-111l10 62s-58 -74 -156 -74c-105 0 -191 85 -191 220c0 166 138 278 269 278c98 0 141 -69 141 -69zM423 171l25 142s-25 61 -102 61c-91 0 -157 -77 -157 -166c0 -63 36 -108 107 -108c82 0 127 71 127 71zM210 712h108s-14 -72 58 -72
s84 72 84 72h108s-19 -164 -197 -164c-193 0 -161 164 -161 164z" />
    <glyph glyph-name="Aogonek" unicode="&#x104;" horiz-adv-x="678" 
d="M8 0l393 700h122l149 -700s-105 -35 -105 -90c0 -23 16 -37 44 -37c21 0 44 8 44 8l-16 -95c-17 -5 -38 -9 -58 -9c-69 0 -112 45 -112 107c0 67 60 108 84 121l-34 161h-292l-93 -166h-126zM439 549l-150 -273h206z" />
    <glyph glyph-name="aogonek" unicode="&#x105;" horiz-adv-x="536" 
d="M331 486c136 0 217 -74 198 -182l-53 -304s-105 -35 -105 -90c0 -23 16 -37 44 -37c21 0 44 8 44 8l-16 -95c-17 -5 -38 -9 -58 -9c-69 0 -112 45 -112 107c0 81 89 124 93 126l9 50s-63 -72 -158 -72c-98 0 -156 67 -156 149c0 107 103 167 206 167
c83 0 135 -39 135 -39l6 32c11 62 -42 82 -94 82c-69 0 -145 -31 -145 -31l-31 102s94 36 193 36zM261 88c72 0 120 55 120 55l9 49s-39 24 -104 24c-41 0 -101 -21 -101 -75c0 -42 42 -53 76 -53z" />
    <glyph glyph-name="aogonek.alt" horiz-adv-x="573" 
d="M485 474h111l-83 -474s-105 -35 -105 -90c0 -23 16 -37 44 -37c21 0 44 8 44 8l-16 -95c-17 -5 -38 -9 -58 -9c-69 0 -112 45 -112 107c0 81 90 125 94 127l9 56s-59 -79 -157 -79c-105 0 -191 85 -191 220c0 166 138 278 269 278c98 0 140 -74 140 -74zM422 166l26 147
s-25 61 -102 61c-91 0 -157 -77 -157 -166c0 -63 36 -108 107 -108c77 0 126 66 126 66z" />
    <glyph glyph-name="AE" unicode="&#xc6;" horiz-adv-x="915" 
d="M609 605l-267 -348h206zM726 588l-30 -172h220l-20 -114h-220l-34 -190h250l-19 -112h-370l25 143h-272l-110 -143h-140l536 700h448l-20 -112h-244z" />
    <glyph glyph-name="ae" unicode="&#xe6;" horiz-adv-x="865" 
d="M666 486c133 0 219 -80 219 -200c0 -15 -1 -31 -13 -92h-356c1 -42 43 -96 118 -96c83 0 136 48 136 48l56 -92s-77 -66 -192 -66c-99 0 -157 38 -196 93c-41 -51 -109 -93 -198 -93c-114 0 -180 61 -180 147c0 74 60 145 185 145h168c1 5 1 10 1 14c0 52 -44 82 -107 82
c-73 0 -149 -31 -149 -31l-32 103s97 38 191 38c112 0 152 -41 170 -72c47 46 112 72 179 72zM529 281h239c0 3 1 6 1 9c0 40 -30 87 -103 87c-76 0 -124 -54 -137 -96zM255 94c87 0 138 47 148 100h-148c-41 0 -73 -14 -73 -51c0 -34 29 -49 73 -49z" />
    <glyph glyph-name="Cacute" unicode="&#x106;" horiz-adv-x="676" 
d="M406 100c123 0 202 86 202 86l70 -88s-110 -110 -272 -110c-211 0 -317 152 -317 323c0 225 192 401 405 401c178 0 260 -110 260 -110l-79 -79s-66 77 -181 77c-161 0 -281 -135 -281 -289c0 -113 64 -211 193 -211zM567 996l74 -88l-199 -164l-69 79z" />
    <glyph glyph-name="cacute" unicode="&#x107;" horiz-adv-x="494" 
d="M437 778l74 -88l-199 -164l-69 79zM300 100c81 0 128 53 128 53l65 -91s-77 -74 -193 -74c-153 0 -235 104 -235 222c0 158 139 276 283 276c145 0 198 -88 198 -88l-86 -73s-37 49 -112 49c-88 0 -159 -79 -159 -164c0 -62 45 -110 111 -110z" />
    <glyph glyph-name="Ccircumflex" unicode="&#x108;" horiz-adv-x="676" 
d="M406 100c123 0 202 86 202 86l70 -88s-110 -110 -272 -110c-211 0 -317 152 -317 323c0 225 192 401 405 401c178 0 260 -110 260 -110l-79 -79s-66 77 -181 77c-161 0 -281 -135 -281 -289c0 -113 64 -211 193 -211zM314 837l199 131l181 -140l-73 -76l-114 97l-133 -95
z" />
    <glyph glyph-name="ccircumflex" unicode="&#x109;" horiz-adv-x="497" 
d="M178 608l199 131l181 -140l-73 -76l-114 97l-133 -95zM300 100c81 0 128 53 128 53l65 -91s-77 -74 -193 -74c-153 0 -235 104 -235 222c0 158 139 276 283 276c145 0 198 -88 198 -88l-86 -73s-37 49 -112 49c-88 0 -159 -79 -159 -164c0 -62 45 -110 111 -110z" />
    <glyph glyph-name="Ccaron" unicode="&#x10c;" horiz-adv-x="676" 
d="M406 100c123 0 202 86 202 86l70 -88s-110 -110 -272 -110c-211 0 -317 152 -317 323c0 225 192 401 405 401c178 0 260 -110 260 -110l-79 -79s-66 77 -181 77c-161 0 -281 -135 -281 -289c0 -113 64 -211 193 -211zM502 745l-178 134l74 79l115 -93l133 96l59 -82z" />
    <glyph glyph-name="ccaron" unicode="&#x10d;" horiz-adv-x="497" 
d="M354 536l-178 134l74 79l115 -93l133 96l59 -82zM300 100c81 0 128 53 128 53l65 -91s-77 -74 -193 -74c-153 0 -235 104 -235 222c0 158 139 276 283 276c145 0 198 -88 198 -88l-86 -73s-37 49 -112 49c-88 0 -159 -79 -159 -164c0 -62 45 -110 111 -110z" />
    <glyph glyph-name="Ccedilla" unicode="&#xc7;" horiz-adv-x="676" 
d="M424 -59l-99 -217l-111 29l101 197zM406 100c123 0 202 86 202 86l70 -88s-110 -110 -272 -110c-211 0 -317 152 -317 323c0 225 192 401 405 401c178 0 260 -110 260 -110l-79 -79s-66 77 -181 77c-161 0 -281 -135 -281 -289c0 -113 64 -211 193 -211z" />
    <glyph glyph-name="ccedilla" unicode="&#xe7;" horiz-adv-x="497" 
d="M340 -59l-99 -217l-111 29l101 197zM300 100c81 0 128 53 128 53l65 -91s-77 -74 -193 -74c-153 0 -235 104 -235 222c0 158 139 276 283 276c145 0 198 -88 198 -88l-86 -73s-37 49 -112 49c-88 0 -159 -79 -159 -164c0 -62 45 -110 111 -110z" />
    <glyph glyph-name="Cdotaccent" unicode="&#x10a;" horiz-adv-x="676" 
d="M406 100c123 0 202 86 202 86l70 -88s-110 -110 -272 -110c-211 0 -317 152 -317 323c0 225 192 401 405 401c178 0 260 -110 260 -110l-79 -79s-66 77 -181 77c-161 0 -281 -135 -281 -289c0 -113 64 -211 193 -211zM430 851c0 44 35 79 79 79s79 -35 79 -79
s-35 -79 -79 -79s-79 35 -79 79z" />
    <glyph glyph-name="cdotaccent" unicode="&#x10b;" horiz-adv-x="494" 
d="M286 627c0 44 35 79 79 79s79 -35 79 -79s-35 -79 -79 -79s-79 35 -79 79zM300 100c81 0 128 53 128 53l65 -91s-77 -74 -193 -74c-153 0 -235 104 -235 222c0 158 139 276 283 276c145 0 198 -88 198 -88l-86 -73s-37 49 -112 49c-88 0 -159 -79 -159 -164
c0 -62 45 -110 111 -110z" />
    <glyph glyph-name="Eth" unicode="&#xd0;" horiz-adv-x="708" 
d="M451 700c179 0 291 -136 291 -301c0 -211 -139 -399 -384 -399h-256l53 305h-90l19 104h90l51 291h226zM350 114c174 0 267 139 267 285c0 106 -66 187 -184 187h-108l-31 -177h202l-19 -104h-202l-33 -191h108z" />
    <glyph glyph-name="eth" unicode="&#xf0;" horiz-adv-x="577" 
d="M216 516l-31 74l111 48c-32 21 -59 34 -86 48l51 93c45 -24 101 -54 149 -92l137 59l32 -73l-105 -46c68 -73 110 -155 110 -286c0 -177 -96 -353 -288 -353c-151 0 -231 104 -231 222c0 149 127 276 279 276c29 0 78 -7 107 -27c-19 50 -51 90 -83 121zM296 100
c82 0 157 74 157 164c0 62 -39 110 -109 110c-82 0 -157 -74 -157 -164c0 -62 39 -110 109 -110z" />
    <glyph glyph-name="Dcaron" unicode="&#x10e;" horiz-adv-x="680" 
d="M423 700c184 0 291 -136 291 -301c0 -211 -139 -399 -384 -399h-256l123 700h226zM322 114c174 0 267 139 267 285c0 106 -66 187 -184 187h-108l-83 -472h108zM432 743l-178 134l74 79l115 -93l133 96l59 -82z" />
    <glyph glyph-name="dcaron" unicode="&#x10f;" horiz-adv-x="705" 
d="M646 756l-133 -756h-111l10 62s-58 -74 -156 -74c-105 0 -191 85 -191 220c0 166 138 278 269 278c90 0 134 -59 134 -59l58 329h120zM423 171l25 142s-24 61 -103 61c-90 0 -156 -77 -156 -166c0 -63 37 -108 108 -108c81 0 126 71 126 71zM673 454l43 246h106l-43 -246
h-106z" />
    <glyph glyph-name="Dcroat" unicode="&#x110;" horiz-adv-x="703" 
d="M451 700c179 0 291 -136 291 -301c0 -211 -139 -399 -384 -399h-256l53 305h-90l19 104h90l51 291h226zM350 114c174 0 267 139 267 285c0 106 -66 187 -184 187h-108l-31 -177h202l-19 -104h-202l-33 -191h108z" />
    <glyph glyph-name="dcroat" unicode="&#x111;" horiz-adv-x="605" 
d="M646 756l-18 -101h80l-18 -100h-80l-97 -555h-111l11 67s-59 -79 -157 -79c-106 0 -191 85 -191 220c0 166 136 278 267 278c90 0 135 -62 135 -62l23 131h-155l18 100h155l18 101h120zM422 166l26 147s-24 61 -103 61c-90 0 -157 -77 -157 -166c0 -63 38 -108 109 -108
c79 0 125 66 125 66z" />
    <glyph glyph-name="Egrave" unicode="&#xc8;" horiz-adv-x="546" 
d="M297 586l-30 -170h280l-20 -114h-280l-33 -188h310l-20 -114h-430l123 700h424l-20 -114h-304zM260 926l88 74l150 -184l-84 -68z" />
    <glyph glyph-name="egrave" unicode="&#xe8;" horiz-adv-x="533" 
d="M332 486c133 0 219 -80 219 -200c0 -15 -1 -31 -13 -92h-356c1 -42 43 -96 118 -96c83 0 136 48 136 48l56 -92s-77 -66 -192 -66c-159 0 -235 107 -235 225c0 156 132 273 267 273zM195 281h239c0 3 1 6 1 9c0 40 -30 87 -103 87c-76 0 -124 -54 -137 -96zM245 707
l88 74l150 -184l-84 -68z" />
    <glyph glyph-name="Eacute" unicode="&#xc9;" horiz-adv-x="546" 
d="M297 586l-30 -170h280l-20 -114h-280l-33 -188h310l-20 -114h-430l123 700h424l-20 -114h-304zM511 996l74 -88l-199 -164l-69 79z" />
    <glyph glyph-name="eacute" unicode="&#xe9;" horiz-adv-x="533" 
d="M332 486c133 0 219 -80 219 -200c0 -15 -1 -31 -13 -92h-356c1 -42 43 -96 118 -96c83 0 136 48 136 48l56 -92s-77 -66 -192 -66c-159 0 -235 107 -235 225c0 156 132 273 267 273zM195 281h239c0 3 1 6 1 9c0 40 -30 87 -103 87c-76 0 -124 -54 -137 -96zM435 778
l74 -88l-199 -164l-69 79z" />
    <glyph glyph-name="Ecircumflex" unicode="&#xca;" horiz-adv-x="546" 
d="M297 586l-30 -170h280l-20 -114h-280l-33 -188h310l-20 -114h-430l123 700h424l-20 -114h-304zM227 827l199 131l181 -140l-73 -76l-114 97l-133 -95z" />
    <glyph glyph-name="ecircumflex" unicode="&#xea;" horiz-adv-x="533" 
d="M169 608l199 131l181 -140l-73 -76l-114 97l-133 -95zM332 486c133 0 219 -80 219 -200c0 -15 -1 -31 -13 -92h-356c1 -42 43 -96 118 -96c83 0 136 48 136 48l56 -92s-77 -66 -192 -66c-159 0 -235 107 -235 225c0 156 132 273 267 273zM195 281h239c0 3 1 6 1 9
c0 40 -30 87 -103 87c-76 0 -124 -54 -137 -96z" />
    <glyph glyph-name="Edieresis" unicode="&#xcb;" horiz-adv-x="546" 
d="M297 586l-30 -170h280l-20 -114h-280l-33 -188h310l-20 -114h-430l123 700h424l-20 -114h-304zM246 859c0 44 35 79 79 79s79 -35 79 -79s-35 -79 -79 -79s-79 35 -79 79zM452 859c0 44 35 79 79 79s79 -35 79 -79s-35 -79 -79 -79s-79 35 -79 79z" />
    <glyph glyph-name="edieresis" unicode="&#xeb;" horiz-adv-x="533" 
d="M183 631c0 44 35 79 79 79s79 -35 79 -79s-35 -79 -79 -79s-79 35 -79 79zM389 631c0 44 35 79 79 79s79 -35 79 -79s-35 -79 -79 -79s-79 35 -79 79zM332 486c133 0 219 -80 219 -200c0 -15 -1 -31 -13 -92h-356c1 -42 43 -96 118 -96c83 0 136 48 136 48l56 -92
s-77 -66 -192 -66c-159 0 -235 107 -235 225c0 156 132 273 267 273zM195 281h239c0 3 1 6 1 9c0 40 -30 87 -103 87c-76 0 -124 -54 -137 -96z" />
    <glyph glyph-name="Ecaron" unicode="&#x11a;" horiz-adv-x="546" 
d="M297 586l-30 -170h280l-20 -114h-280l-33 -188h310l-20 -114h-430l123 700h424l-20 -114h-304zM414 745l-178 134l74 79l115 -93l133 96l59 -82z" />
    <glyph glyph-name="ecaron" unicode="&#x11b;" horiz-adv-x="533" 
d="M332 486c133 0 219 -80 219 -200c0 -15 -1 -31 -13 -92h-356c1 -42 43 -96 118 -96c83 0 136 48 136 48l56 -92s-77 -66 -192 -66c-159 0 -235 107 -235 225c0 156 132 273 267 273zM195 281h239c0 3 1 6 1 9c0 40 -30 87 -103 87c-76 0 -124 -54 -137 -96zM356 526
l-178 134l74 79l115 -93l133 96l59 -82z" />
    <glyph glyph-name="Emacron" unicode="&#x112;" horiz-adv-x="546" 
d="M297 586l-30 -170h280l-20 -114h-280l-33 -188h310l-20 -114h-430l123 700h424l-20 -114h-304zM255 795l19 108h322l-19 -108h-322z" />
    <glyph glyph-name="emacron" unicode="&#x113;" horiz-adv-x="533" 
d="M197 567l19 108h322l-19 -108h-322zM332 486c133 0 219 -80 219 -200c0 -15 -1 -31 -13 -92h-356c1 -42 43 -96 118 -96c83 0 136 48 136 48l56 -92s-77 -66 -192 -66c-159 0 -235 107 -235 225c0 156 132 273 267 273zM195 281h239c0 3 1 6 1 9c0 40 -30 87 -103 87
c-76 0 -124 -54 -137 -96z" />
    <glyph glyph-name="Ebreve" unicode="&#x114;" horiz-adv-x="546" 
d="M297 586l-30 -170h280l-20 -114h-280l-33 -188h310l-20 -114h-430l123 700h424l-20 -114h-304zM251 918h108s-14 -72 58 -72s84 72 84 72h108s-19 -164 -197 -164c-193 0 -161 164 -161 164z" />
    <glyph glyph-name="ebreve" unicode="&#x115;" horiz-adv-x="533" 
d="M200 712h108s-14 -72 58 -72s84 72 84 72h108s-19 -164 -197 -164c-193 0 -161 164 -161 164zM332 486c133 0 219 -80 219 -200c0 -15 -1 -31 -13 -92h-356c1 -42 43 -96 118 -96c83 0 136 48 136 48l56 -92s-77 -66 -192 -66c-159 0 -235 107 -235 225
c0 156 132 273 267 273zM195 281h239c0 3 1 6 1 9c0 40 -30 87 -103 87c-76 0 -124 -54 -137 -96z" />
    <glyph glyph-name="Edotaccent" unicode="&#x116;" horiz-adv-x="546" 
d="M297 586l-30 -170h280l-20 -114h-280l-33 -188h310l-20 -114h-430l123 700h424l-20 -114h-304zM345 851c0 44 35 79 79 79s79 -35 79 -79s-35 -79 -79 -79s-79 35 -79 79z" />
    <glyph glyph-name="edotaccent" unicode="&#x117;" horiz-adv-x="533" 
d="M286 627c0 44 35 79 79 79s79 -35 79 -79s-35 -79 -79 -79s-79 35 -79 79zM332 486c133 0 219 -80 219 -200c0 -15 -1 -31 -13 -92h-356c1 -42 43 -96 118 -96c83 0 136 48 136 48l56 -92s-77 -66 -192 -66c-159 0 -235 107 -235 225c0 156 132 273 267 273zM195 281h239
c0 3 1 6 1 9c0 40 -30 87 -103 87c-76 0 -124 -54 -137 -96z" />
    <glyph glyph-name="Eogonek" unicode="&#x118;" horiz-adv-x="546" 
d="M297 586l-30 -170h280l-20 -114h-280l-33 -188h310l-20 -114h-430l123 700h424l-20 -114h-304zM393 0h111s-105 -35 -105 -90c0 -23 16 -37 44 -37c21 0 44 8 44 8l-16 -95c-17 -5 -38 -9 -58 -9c-69 0 -112 45 -112 107c0 77 92 116 92 116z" />
    <glyph glyph-name="eogonek" unicode="&#x119;" horiz-adv-x="533" 
d="M332 486c133 0 219 -80 219 -200c0 -15 -1 -31 -13 -92h-356c1 -42 43 -96 118 -96c83 0 136 48 136 48l56 -92s-59 -49 -148 -62c-31 -13 -83 -42 -83 -82c0 -23 16 -37 44 -37c21 0 44 8 44 8l-16 -95c-17 -5 -38 -9 -58 -9c-69 0 -112 45 -112 107c0 60 54 97 79 110
c-113 23 -177 117 -177 219c0 156 127 273 267 273zM195 281h239c0 3 1 6 1 9c0 40 -30 87 -103 87c-76 0 -124 -54 -137 -96z" />
    <glyph glyph-name="Gcircumflex" unicode="&#x11c;" horiz-adv-x="713" 
d="M419 100c100 0 146 29 146 29l27 153h-159l20 112h277l-60 -339s-106 -67 -251 -67c-214 0 -330 139 -330 317c0 230 189 407 413 407c187 0 261 -105 261 -105l-83 -78s-59 71 -178 71c-171 0 -289 -139 -289 -295c0 -115 77 -205 206 -205zM333 847l199 131l181 -140
l-73 -76l-114 97l-133 -95z" />
    <glyph glyph-name="gcircumflex" unicode="&#x11d;" horiz-adv-x="573" 
d="M485 474h111l-84 -478c-29 -165 -149 -238 -282 -238c-136 0 -224 87 -224 87l67 94s63 -69 157 -69c93 0 148 51 161 122l10 57c-19 -20 -70 -61 -145 -61c-107 0 -191 85 -191 220c0 166 138 278 269 278c98 0 141 -69 141 -69zM423 171l25 142s-25 61 -102 61
c-91 0 -157 -77 -157 -166c0 -63 36 -108 107 -108c82 0 127 71 127 71zM184 608l199 131l181 -140l-73 -76l-114 97l-133 -95z" />
    <glyph glyph-name="Gbreve" unicode="&#x11e;" horiz-adv-x="713" 
d="M419 100c100 0 146 29 146 29l27 153h-159l20 112h277l-60 -339s-106 -67 -251 -67c-214 0 -330 139 -330 317c0 230 189 407 413 407c187 0 261 -105 261 -105l-83 -78s-59 71 -178 71c-171 0 -289 -139 -289 -295c0 -115 77 -205 206 -205zM346 928h108s-14 -72 58 -72
s84 72 84 72h108s-19 -164 -197 -164c-193 0 -161 164 -161 164z" />
    <glyph glyph-name="gbreve" unicode="&#x11f;" horiz-adv-x="573" 
d="M485 474h111l-84 -478c-29 -165 -149 -238 -282 -238c-136 0 -224 87 -224 87l67 94s63 -69 157 -69c93 0 148 51 161 122l10 57c-19 -20 -70 -61 -145 -61c-107 0 -191 85 -191 220c0 166 138 278 269 278c98 0 141 -69 141 -69zM423 171l25 142s-25 61 -102 61
c-91 0 -157 -77 -157 -166c0 -63 36 -108 107 -108c82 0 127 71 127 71zM213 712h108s-14 -72 58 -72s84 72 84 72h108s-19 -164 -197 -164c-193 0 -161 164 -161 164z" />
    <glyph glyph-name="Gdotaccent" unicode="&#x120;" horiz-adv-x="713" 
d="M419 100c100 0 146 29 146 29l27 153h-159l20 112h277l-60 -339s-106 -67 -251 -67c-214 0 -330 139 -330 317c0 230 189 407 413 407c187 0 261 -105 261 -105l-83 -78s-59 71 -178 71c-171 0 -289 -139 -289 -295c0 -115 77 -205 206 -205zM433 851c0 44 35 79 79 79
s79 -35 79 -79s-35 -79 -79 -79s-79 35 -79 79z" />
    <glyph glyph-name="gdotaccent" unicode="&#x121;" horiz-adv-x="573" 
d="M485 474h111l-84 -478c-29 -165 -149 -238 -282 -238c-136 0 -224 87 -224 87l67 94s63 -69 157 -69c93 0 148 51 161 122l10 57c-19 -20 -70 -61 -145 -61c-107 0 -191 85 -191 220c0 166 138 278 269 278c98 0 141 -69 141 -69zM423 171l25 142s-25 61 -102 61
c-91 0 -157 -77 -157 -166c0 -63 36 -108 107 -108c82 0 127 71 127 71zM287 627c0 44 35 79 79 79s79 -35 79 -79s-35 -79 -79 -79s-79 35 -79 79z" />
    <glyph glyph-name="Gcedilla" unicode="&#x122;" horiz-adv-x="713" 
d="M419 100c100 0 146 29 146 29l27 153h-159l20 112h277l-60 -339s-106 -67 -251 -67c-214 0 -330 139 -330 317c0 230 189 407 413 407c187 0 261 -105 261 -105l-83 -78s-59 71 -178 71c-171 0 -289 -139 -289 -295c0 -115 77 -205 206 -205zM443 -54l-99 -217l-111 29
l101 197z" />
    <glyph glyph-name="gcedilla" unicode="&#x123;" horiz-adv-x="573" 
d="M485 474h111l-84 -478c-29 -165 -149 -238 -282 -238c-136 0 -224 87 -224 87l67 94s63 -69 157 -69c93 0 148 51 161 122l10 57c-19 -20 -70 -61 -145 -61c-107 0 -191 85 -191 220c0 166 138 278 269 278c98 0 141 -69 141 -69zM423 171l25 142s-25 61 -102 61
c-91 0 -157 -77 -157 -166c0 -63 36 -108 107 -108c82 0 127 71 127 71zM289 551l99 217l111 -29l-101 -197z" />
    <glyph glyph-name="Hcircumflex" unicode="&#x124;" horiz-adv-x="687" 
d="M566 415l50 285h120l-123 -700h-120l53 301h-299l-53 -301h-120l123 700h120l-50 -285h299zM287 837l199 131l181 -140l-73 -76l-114 97l-133 -95z" />
    <glyph glyph-name="hcircumflex" unicode="&#x125;" horiz-adv-x="562" 
d="M408 486c95 0 166 -75 146 -189l-52 -297h-120l48 277c12 68 -20 97 -72 97c-62 0 -108 -56 -108 -56l-56 -318h-120l133 756h120l-60 -339c20 22 70 69 141 69zM82 867l199 131l181 -140l-73 -76l-114 97l-133 -95z" />
    <glyph glyph-name="Hbar" unicode="&#x126;" horiz-adv-x="701" 
d="M114 606h73l17 94h120l-17 -94h299l17 94h120l-17 -94h73l-17 -100h-73l-89 -506h-120l53 301h-299l-53 -301h-120l89 506h-73zM573 415l16 91h-299l-16 -91h299z" />
    <glyph glyph-name="hbar" unicode="&#x127;" horiz-adv-x="576" 
d="M105 555l18 100h80l18 101h120l-18 -101h145l-18 -100h-145l-24 -138c20 22 70 69 141 69c95 0 166 -75 146 -189l-52 -297h-120l48 277c12 68 -20 97 -72 97c-62 0 -108 -56 -108 -56l-56 -318h-120l97 555h-80z" />
    <glyph glyph-name="dotlessi" unicode="&#x131;" horiz-adv-x="278" 
d="M79 0l81 462h120l-81 -462h-120z" />
    <glyph glyph-name="Igrave" unicode="&#xcc;" horiz-adv-x="296" 
d="M88 0l123 700h120l-123 -700h-120zM107 926l88 74l150 -184l-84 -68z" />
    <glyph glyph-name="igrave" unicode="&#xec;" horiz-adv-x="278" 
d="M93 708l88 74l150 -184l-84 -68zM77 0l81 462h120l-81 -462h-120z" />
    <glyph glyph-name="Iacute" unicode="&#xcd;" horiz-adv-x="296" 
d="M85 0l123 700h120l-123 -700h-120zM361 996l74 -88l-199 -164l-69 79z" />
    <glyph glyph-name="iacute" unicode="&#xed;" horiz-adv-x="278" 
d="M317 778l74 -88l-199 -164l-69 79zM73 0l81 462h120l-81 -462h-120z" />
    <glyph glyph-name="Icircumflex" unicode="&#xce;" horiz-adv-x="296" 
d="M88 0l123 700h120l-123 -700h-120zM94 837l199 131l181 -140l-73 -76l-114 97l-133 -95z" />
    <glyph glyph-name="icircumflex" unicode="&#xee;" horiz-adv-x="308" 
d="M94 0l81 462h120l-81 -462h-120zM61 621l199 131l181 -140l-73 -76l-114 97l-133 -95z" />
    <glyph glyph-name="Idieresis" unicode="&#xcf;" horiz-adv-x="296" 
d="M74 0l123 700h120l-123 -700h-120zM90 859c0 44 35 79 79 79s79 -35 79 -79s-35 -79 -79 -79s-79 35 -79 79zM296 859c0 44 35 79 79 79s79 -35 79 -79s-35 -79 -79 -79s-79 35 -79 79z" />
    <glyph glyph-name="idieresis" unicode="&#xef;" horiz-adv-x="278" 
d="M79 0l81 462h120l-81 -462h-120zM48 631c0 44 35 79 79 79s79 -35 79 -79s-35 -79 -79 -79s-79 35 -79 79zM254 631c0 44 35 79 79 79s79 -35 79 -79s-35 -79 -79 -79s-79 35 -79 79z" />
    <glyph glyph-name="Itilde" unicode="&#x128;" horiz-adv-x="296" 
d="M88 0l123 700h120l-123 -700h-120zM154 767l-81 57s41 106 145 106c59 0 100 -58 138 -58c43 0 65 63 65 63l79 -61s-39 -108 -141 -108c-58 0 -101 57 -139 57c-43 0 -66 -56 -66 -56z" />
    <glyph glyph-name="itilde" unicode="&#x129;" horiz-adv-x="343" 
d="M112 0l81 462h120l-81 -462h-120zM138 529l-81 57s41 106 145 106c59 0 100 -58 138 -58c43 0 65 63 65 63l79 -61s-39 -108 -141 -108c-58 0 -101 57 -139 57c-43 0 -66 -56 -66 -56z" />
    <glyph glyph-name="Imacron" unicode="&#x12a;" horiz-adv-x="296" 
d="M88 0l123 700h120l-123 -700h-120zM115 790l19 108h322l-19 -108h-322z" />
    <glyph glyph-name="imacron" unicode="&#x12b;" horiz-adv-x="286" 
d="M82 0l81 462h120l-81 -462h-120zM72 568l19 108h322l-19 -108h-322z" />
    <glyph glyph-name="Ibreve" unicode="&#x12c;" horiz-adv-x="296" 
d="M88 0l123 700h120l-123 -700h-120zM122 918h108s-14 -72 58 -72s84 72 84 72h108s-19 -164 -197 -164c-193 0 -161 164 -161 164z" />
    <glyph glyph-name="ibreve" unicode="&#x12d;" horiz-adv-x="294" 
d="M85 0l81 462h120l-81 -462h-120zM85 712h108s-14 -72 58 -72s84 72 84 72h108s-19 -164 -197 -164c-193 0 -161 164 -161 164z" />
    <glyph glyph-name="Iogonek" unicode="&#x12e;" horiz-adv-x="296" 
d="M88 5l123 695h120l-123 -700s-105 -35 -105 -90c0 -23 16 -37 44 -37c21 0 44 8 44 8l-16 -95c-17 -5 -38 -9 -58 -9c-69 0 -112 45 -112 107c0 77 83 121 83 121z" />
    <glyph glyph-name="iogonek" unicode="&#x12f;" horiz-adv-x="278" 
d="M170 627c8 44 49 79 93 79s73 -35 65 -79s-49 -79 -93 -79s-73 35 -65 79zM79 5l83 469h120l-83 -474s-105 -35 -105 -90c0 -23 16 -37 44 -37c21 0 44 8 44 8l-16 -95c-17 -5 -38 -9 -58 -9c-69 0 -112 45 -112 107c0 77 83 121 83 121z" />
    <glyph glyph-name="Idotaccent" unicode="&#x130;" horiz-adv-x="296" 
d="M89 0l123 700h120l-123 -700h-120zM208 835c0 44 35 79 79 79s79 -35 79 -79s-35 -79 -79 -79s-79 35 -79 79z" />
    <glyph glyph-name="IJ" unicode="&#x132;" horiz-adv-x="748" 
d="M88 0l123 700h120l-123 -700h-120zM592 216c40 231 85 484 85 484h120l-85 -480c-26 -147 -116 -232 -260 -232c-135 0 -204 115 -204 115l87 77s41 -78 117 -78c90 0 130 60 140 114z" />
    <glyph glyph-name="ij" unicode="&#x133;" horiz-adv-x="494" 
d="M79 0l83 474h120l-83 -474h-120zM165 627c0 44 35 79 79 79s79 -35 79 -79s-35 -79 -79 -79s-79 35 -79 79zM90 -211l47 103s28 -21 62 -21c26 0 75 5 91 97l89 506h120l-91 -517c-27 -155 -125 -199 -204 -199c-75 0 -114 31 -114 31zM382 627c0 44 35 79 79 79
s79 -35 79 -79s-35 -79 -79 -79s-79 35 -79 79z" />
    <glyph glyph-name="Jcircumflex" unicode="&#x134;" horiz-adv-x="521" 
d="M365 216c40 231 85 484 85 484h120l-85 -480c-26 -147 -116 -232 -260 -232c-135 0 -204 115 -204 115l87 77s41 -78 117 -78c90 0 130 60 140 114zM329 824l199 131l181 -140l-73 -76l-114 97l-133 -95z" />
    <glyph glyph-name="jcircumflex" unicode="&#x135;" horiz-adv-x="331" 
d="M-72 -211l62 100s24 -19 46 -19c32 0 75 6 91 98l89 506h120l-91 -517c-27 -155 -140 -199 -211 -199c-33 0 -70 7 -106 31zM95 608l199 131l181 -140l-73 -76l-114 97l-133 -95z" />
    <glyph glyph-name="Kcedilla" unicode="&#x136;" horiz-adv-x="628" 
d="M317 700l-54 -305l298 305h156l-335 -344l246 -356h-146l-230 334l-58 -334h-120l123 700h120zM385 -44l-99 -217l-111 29l101 197z" />
    <glyph glyph-name="kcedilla" unicode="&#x137;" horiz-adv-x="535" 
d="M327 756l-81 -459l191 177h165l-247 -224l178 -250h-148l-153 218l-38 -218h-120l133 756h120zM350 -54l-99 -217l-111 29l101 197z" />
    <glyph glyph-name="kgreenlandic" unicode="&#x138;" horiz-adv-x="521" 
d="M369 0l-152 217l-37 -217h-120l83 474h120l-33 -184l199 184h159l-247 -224l178 -250h-150z" />
    <glyph glyph-name="Lacute" unicode="&#x139;" horiz-adv-x="500" 
d="M74 0l123 700h120l-103 -586h298l-20 -114h-418zM351 996l74 -88l-199 -164l-69 79z" />
    <glyph glyph-name="lacute" unicode="&#x13a;" horiz-adv-x="268" 
d="M74 0l133 756h120l-133 -756h-120zM351 1038l74 -88l-199 -164l-69 79z" />
    <glyph glyph-name="Lcedilla" unicode="&#x13b;" horiz-adv-x="500" 
d="M74 0l123 700h120l-103 -586h298l-20 -114h-418zM353 -54l-99 -217l-111 29l101 197z" />
    <glyph glyph-name="lcedilla" unicode="&#x13c;" horiz-adv-x="268" 
d="M74 0l133 756h120l-133 -756h-120zM204 -54l-99 -217l-111 29l101 197z" />
    <glyph glyph-name="Lcaron" unicode="&#x13d;" horiz-adv-x="500" 
d="M74 0l123 700h120l-103 -586h298l-20 -114h-418zM371 454l43 246h106l-43 -246h-106z" />
    <glyph glyph-name="lcaron" unicode="&#x13e;" horiz-adv-x="387" 
d="M74 0l133 756h120l-133 -756h-120zM355 454l43 246h106l-43 -246h-106z" />
    <glyph glyph-name="Ldot" unicode="&#x13f;" horiz-adv-x="500" 
d="M74 0l123 700h120l-103 -586h298l-20 -114h-418zM372 370c0 44 35 79 79 79s79 -35 79 -79s-35 -79 -79 -79s-79 35 -79 79z" />
    <glyph glyph-name="ldot" unicode="&#x140;" horiz-adv-x="394" 
d="M74 0l133 756h120l-133 -756h-120zM339 370c0 44 35 79 79 79s79 -35 79 -79s-35 -79 -79 -79s-79 35 -79 79z" />
    <glyph glyph-name="Lslash" unicode="&#x141;" horiz-adv-x="541" 
d="M83 148l-40 66l125 86l71 400h120l-54 -307l193 133l40 -66l-252 -173l-30 -173h297l-20 -114h-417l34 194z" />
    <glyph glyph-name="lslash" unicode="&#x142;" horiz-adv-x="360" 
d="M93 213l-38 67l127 87l69 389h120l-52 -296l75 52l38 -67l-132 -91l-62 -354h-120l46 261z" />
    <glyph glyph-name="Nacute" unicode="&#x143;" horiz-adv-x="726" 
d="M197 700h108l264 -490l86 490h120l-123 -700h-108l-265 489l-85 -489h-120zM604 996l74 -88l-199 -164l-69 79z" />
    <glyph glyph-name="nacute" unicode="&#x144;" horiz-adv-x="548" 
d="M394 486c95 0 166 -75 146 -189l-52 -297h-120l48 277c12 68 -20 97 -72 97c-62 0 -108 -56 -108 -56l-56 -318h-120l83 474h112l-12 -69s59 81 151 81zM458 778l74 -88l-199 -164l-69 79z" />
    <glyph glyph-name="Ncedilla" unicode="&#x145;" horiz-adv-x="726" 
d="M197 700h108l264 -490l86 490h120l-123 -700h-108l-265 489l-85 -489h-120zM427 -44l-99 -217l-111 29l101 197z" />
    <glyph glyph-name="ncedilla" unicode="&#x146;" horiz-adv-x="548" 
d="M394 486c95 0 166 -75 146 -189l-52 -297h-120l48 277c12 68 -20 97 -72 97c-62 0 -108 -56 -108 -56l-56 -318h-120l83 474h112l-12 -69s59 81 151 81zM351 -44l-99 -217l-111 29l101 197z" />
    <glyph glyph-name="Ntilde" unicode="&#xd1;" horiz-adv-x="726" 
d="M197 700h108l264 -490l86 490h120l-123 -700h-108l-265 489l-85 -489h-120zM363 777l-81 57s41 106 145 106c59 0 100 -58 138 -58c43 0 65 63 65 63l79 -61s-39 -108 -141 -108c-58 0 -101 57 -139 57c-43 0 -66 -56 -66 -56z" />
    <glyph glyph-name="ntilde" unicode="&#xf1;" horiz-adv-x="548" 
d="M394 486c95 0 166 -75 146 -189l-52 -297h-120l48 277c12 68 -20 97 -72 97c-62 0 -108 -56 -108 -56l-56 -318h-120l83 474h112l-12 -69s59 81 151 81zM246 556l-81 57s41 106 145 106c59 0 100 -58 138 -58c43 0 65 63 65 63l79 -61s-39 -108 -141 -108
c-58 0 -101 57 -139 57c-43 0 -66 -56 -66 -56z" />
    <glyph glyph-name="Ncaron" unicode="&#x147;" horiz-adv-x="726" 
d="M197 700h108l264 -490l86 490h120l-123 -700h-108l-265 489l-85 -489h-120zM483 741l-178 134l74 79l115 -93l133 96l59 -82z" />
    <glyph glyph-name="ncaron" unicode="&#x148;" horiz-adv-x="548" 
d="M394 486c95 0 166 -75 146 -189l-52 -297h-120l48 277c12 68 -20 97 -72 97c-62 0 -108 -56 -108 -56l-56 -318h-120l83 474h112l-12 -69s59 81 151 81zM367 526l-178 134l74 79l115 -93l133 96l59 -82z" />
    <glyph glyph-name="napostrophe" unicode="&#x149;" horiz-adv-x="656" 
d="M502 486c95 0 166 -75 146 -189l-52 -297h-120l48 277c12 68 -20 97 -72 97c-62 0 -108 -56 -108 -56l-56 -318h-120l83 474h112l-12 -69s59 81 151 81zM82 454l43 246h106l-43 -246h-106z" />
    <glyph glyph-name="Eng" unicode="&#x14a;" horiz-adv-x="726" 
d="M197 700h108l263 -492l87 492h120l-123 -700l-8 -43c-27 -155 -125 -199 -204 -199c-75 0 -114 31 -114 31l47 103s28 -21 62 -21c26 0 75 5 91 97l8 48l-254 475l-86 -491h-120z" />
    <glyph glyph-name="eng" unicode="&#x14b;" horiz-adv-x="548" 
d="M394 486c95 0 166 -75 146 -189l-60 -340c-27 -155 -125 -199 -204 -199c-75 0 -114 31 -114 31l47 103s28 -21 62 -21c26 0 75 5 91 97l6 32l48 277c12 68 -20 97 -72 97c-62 0 -108 -56 -108 -56l-56 -318h-120l83 474h112l-12 -69s59 81 151 81z" />
    <glyph glyph-name="Ograve" unicode="&#xd2;" horiz-adv-x="776" 
d="M493 712c205 0 316 -140 316 -316c0 -218 -183 -408 -404 -408c-205 0 -316 141 -316 317c0 217 184 407 404 407zM405 102c168 0 281 150 281 294c0 111 -70 202 -193 202c-168 0 -281 -149 -281 -293c0 -111 70 -203 193 -203zM412 926l88 74l150 -184l-84 -68z" />
    <glyph glyph-name="ograve" unicode="&#xf2;" horiz-adv-x="562" 
d="M343 486c156 0 236 -104 236 -222c0 -157 -142 -276 -278 -276c-156 0 -236 104 -236 222c0 158 142 276 278 276zM301 100c91 0 154 79 154 164c0 61 -39 110 -112 110c-91 0 -154 -79 -154 -164c0 -61 39 -110 112 -110zM238 708l88 74l150 -184l-84 -68z" />
    <glyph glyph-name="Oacute" unicode="&#xd3;" horiz-adv-x="776" 
d="M551 996l74 -88l-199 -164l-69 79zM493 712c205 0 316 -140 316 -316c0 -218 -183 -408 -404 -408c-205 0 -316 141 -316 317c0 217 184 407 404 407zM405 102c168 0 281 150 281 294c0 111 -70 202 -193 202c-168 0 -281 -149 -281 -293c0 -111 70 -203 193 -203z" />
    <glyph glyph-name="oacute" unicode="&#xf3;" horiz-adv-x="562" 
d="M456 778l74 -88l-199 -164l-69 79zM343 486c156 0 236 -104 236 -222c0 -157 -142 -276 -278 -276c-156 0 -236 104 -236 222c0 158 142 276 278 276zM301 100c91 0 154 79 154 164c0 61 -39 110 -112 110c-91 0 -154 -79 -154 -164c0 -61 39 -110 112 -110z" />
    <glyph glyph-name="Ocircumflex" unicode="&#xd4;" horiz-adv-x="776" 
d="M493 712c205 0 316 -140 316 -316c0 -218 -183 -408 -404 -408c-205 0 -316 141 -316 317c0 217 184 407 404 407zM405 102c168 0 281 150 281 294c0 111 -70 202 -193 202c-168 0 -281 -149 -281 -293c0 -111 70 -203 193 -203zM330 837l199 131l181 -140l-73 -76
l-114 97l-133 -95z" />
    <glyph glyph-name="ocircumflex" unicode="&#xf4;" horiz-adv-x="562" 
d="M343 486c156 0 236 -104 236 -222c0 -157 -142 -276 -278 -276c-156 0 -236 104 -236 222c0 158 142 276 278 276zM301 100c91 0 154 79 154 164c0 61 -39 110 -112 110c-91 0 -154 -79 -154 -164c0 -61 39 -110 112 -110zM178 608l199 131l181 -140l-73 -76l-114 97
l-133 -95z" />
    <glyph glyph-name="Otilde" unicode="&#xd5;" horiz-adv-x="776" 
d="M493 712c205 0 316 -140 316 -316c0 -218 -183 -408 -404 -408c-205 0 -316 141 -316 317c0 217 184 407 404 407zM405 102c168 0 281 150 281 294c0 111 -70 202 -193 202c-168 0 -281 -149 -281 -293c0 -111 70 -203 193 -203zM394 777l-81 57s41 106 145 106
c59 0 100 -58 138 -58c43 0 65 63 65 63l79 -61s-39 -108 -141 -108c-58 0 -101 57 -139 57c-43 0 -66 -56 -66 -56z" />
    <glyph glyph-name="otilde" unicode="&#xf5;" horiz-adv-x="562" 
d="M343 486c156 0 236 -104 236 -222c0 -157 -142 -276 -278 -276c-156 0 -236 104 -236 222c0 158 142 276 278 276zM301 100c91 0 154 79 154 164c0 61 -39 110 -112 110c-91 0 -154 -79 -154 -164c0 -61 39 -110 112 -110zM253 556l-81 57s41 106 145 106
c59 0 100 -58 138 -58c43 0 65 63 65 63l79 -61s-39 -108 -141 -108c-58 0 -101 57 -139 57c-43 0 -66 -56 -66 -56z" />
    <glyph glyph-name="Odieresis" unicode="&#xd6;" horiz-adv-x="776" 
d="M493 712c205 0 316 -140 316 -316c0 -218 -183 -408 -404 -408c-205 0 -316 141 -316 317c0 217 184 407 404 407zM405 102c168 0 281 150 281 294c0 111 -70 202 -193 202c-168 0 -281 -149 -281 -293c0 -111 70 -203 193 -203zM337 859c0 44 35 79 79 79s79 -35 79 -79
s-35 -79 -79 -79s-79 35 -79 79zM543 859c0 44 35 79 79 79s79 -35 79 -79s-35 -79 -79 -79s-79 35 -79 79z" />
    <glyph glyph-name="odieresis" unicode="&#xf6;" horiz-adv-x="562" 
d="M343 486c156 0 236 -104 236 -222c0 -157 -142 -276 -278 -276c-156 0 -236 104 -236 222c0 158 142 276 278 276zM301 100c91 0 154 79 154 164c0 61 -39 110 -112 110c-91 0 -154 -79 -154 -164c0 -61 39 -110 112 -110zM188 631c0 44 35 79 79 79s79 -35 79 -79
s-35 -79 -79 -79s-79 35 -79 79zM394 631c0 44 35 79 79 79s79 -35 79 -79s-35 -79 -79 -79s-79 35 -79 79z" />
    <glyph glyph-name="Oslash" unicode="&#xd8;" horiz-adv-x="784" 
d="M493 712c89 0 160 -27 212 -71l92 91l44 -47l-93 -91c40 -54 61 -123 61 -198c0 -218 -183 -408 -404 -408c-86 0 -156 25 -207 67l-89 -87l-44 47l88 86c-42 55 -64 126 -64 204c0 217 184 407 404 407zM212 305c0 -43 10 -84 30 -117l375 368c-31 26 -73 42 -124 42
c-168 0 -281 -149 -281 -293zM405 102c168 0 281 150 281 294c0 41 -10 78 -28 110l-373 -366c31 -24 71 -38 120 -38z" />
    <glyph glyph-name="oslash" unicode="&#xf8;" horiz-adv-x="570" 
d="M343 486c61 0 110 -16 148 -42l58 57l45 -44l-58 -57c28 -38 43 -86 43 -136c0 -157 -142 -276 -278 -276c-60 0 -108 15 -145 40l-58 -57l-45 44l57 56c-30 38 -45 87 -45 139c0 158 142 276 278 276zM189 210c0 -19 3 -36 10 -52l205 201c-16 9 -37 15 -61 15
c-91 0 -154 -79 -154 -164zM301 100c91 0 154 79 154 164c0 17 -3 33 -9 48l-203 -199c16 -9 35 -13 58 -13z" />
    <glyph glyph-name="Omacron" unicode="&#x14c;" horiz-adv-x="776" 
d="M493 712c205 0 316 -140 316 -316c0 -218 -183 -408 -404 -408c-205 0 -316 141 -316 317c0 217 184 407 404 407zM405 102c168 0 281 150 281 294c0 111 -70 202 -193 202c-168 0 -281 -149 -281 -293c0 -111 70 -203 193 -203zM352 790l19 108h322l-19 -108h-322z" />
    <glyph glyph-name="omacron" unicode="&#x14d;" horiz-adv-x="562" 
d="M343 486c156 0 236 -104 236 -222c0 -157 -142 -276 -278 -276c-156 0 -236 104 -236 222c0 158 142 276 278 276zM301 100c91 0 154 79 154 164c0 61 -39 110 -112 110c-91 0 -154 -79 -154 -164c0 -61 39 -110 112 -110zM200 568l19 108h322l-19 -108h-322z" />
    <glyph glyph-name="Obreve" unicode="&#x14e;" horiz-adv-x="776" 
d="M493 712c205 0 316 -140 316 -316c0 -218 -183 -408 -404 -408c-205 0 -316 141 -316 317c0 217 184 407 404 407zM405 102c168 0 281 150 281 294c0 111 -70 202 -193 202c-168 0 -281 -149 -281 -293c0 -111 70 -203 193 -203zM354 928h108s-14 -72 58 -72s84 72 84 72
h108s-19 -164 -197 -164c-193 0 -161 164 -161 164z" />
    <glyph glyph-name="obreve" unicode="&#x14f;" horiz-adv-x="562" 
d="M343 486c156 0 236 -104 236 -222c0 -157 -142 -276 -278 -276c-156 0 -236 104 -236 222c0 158 142 276 278 276zM301 100c91 0 154 79 154 164c0 61 -39 110 -112 110c-91 0 -154 -79 -154 -164c0 -61 39 -110 112 -110zM215 712h108s-14 -72 58 -72s84 72 84 72h108
s-19 -164 -197 -164c-193 0 -161 164 -161 164z" />
    <glyph glyph-name="Ohungarumlaut" unicode="&#x150;" horiz-adv-x="776" 
d="M493 712c205 0 316 -140 316 -316c0 -218 -183 -408 -404 -408c-205 0 -316 141 -316 317c0 217 184 407 404 407zM405 102c168 0 281 150 281 294c0 111 -70 202 -193 202c-168 0 -281 -149 -281 -293c0 -111 70 -203 193 -203zM519 976l84 -49l-159 -177l-78 42z
M693 976l84 -49l-159 -177l-78 42z" />
    <glyph glyph-name="ohungarumlaut" unicode="&#x151;" horiz-adv-x="562" 
d="M343 486c156 0 236 -104 236 -222c0 -157 -142 -276 -278 -276c-156 0 -236 104 -236 222c0 158 142 276 278 276zM301 100c91 0 154 79 154 164c0 61 -39 110 -112 110c-91 0 -154 -79 -154 -164c0 -61 39 -110 112 -110zM361 742l84 -49l-159 -177l-78 42zM535 742
l84 -49l-159 -177l-78 42z" />
    <glyph glyph-name="OE" unicode="&#x152;" horiz-adv-x="826" 
d="M627 588l-30 -172h230l-20 -114h-230l-34 -190h260l-19 -112h-386c-173 0 -313 107 -313 306c0 232 176 394 397 394h419l-20 -112h-254zM423 112l84 476h-25c-147 0 -273 -105 -273 -282c0 -118 72 -194 189 -194h25z" />
    <glyph glyph-name="oe" unicode="&#x153;" horiz-adv-x="916" 
d="M715 486c133 0 219 -80 219 -200c0 -15 -1 -31 -13 -92h-356c1 -42 43 -96 118 -96c83 0 136 48 136 48l56 -92s-77 -66 -192 -66c-84 0 -149 35 -189 85c-53 -52 -123 -85 -193 -85c-156 0 -236 104 -236 222c0 158 142 276 278 276c85 0 148 -33 188 -80
c49 49 114 80 184 80zM301 100c91 0 154 79 154 164c0 61 -39 110 -112 110c-91 0 -154 -79 -154 -164c0 -61 39 -110 112 -110zM578 281h239c0 3 1 6 1 9c0 40 -30 87 -103 87c-76 0 -124 -54 -137 -96z" />
    <glyph glyph-name="Racute" unicode="&#x154;" horiz-adv-x="583" 
d="M74 0l123 700h227c123 0 200 -80 200 -194c0 -121 -92 -217 -198 -232l129 -274h-131l-120 264h-64l-46 -264h-120zM355 378c86 0 145 48 145 128c0 53 -40 80 -108 80h-95l-37 -208h95zM495 996l74 -88l-199 -164l-69 79z" />
    <glyph glyph-name="racute" unicode="&#x155;" horiz-adv-x="387" 
d="M388 486c43 0 80 -15 80 -15l-51 -108s-31 11 -66 11c-73 0 -117 -64 -117 -64l-54 -310h-120l83 474h114l-12 -69s55 81 143 81zM373 778l74 -88l-199 -164l-69 79z" />
    <glyph glyph-name="Rcedilla" unicode="&#x156;" horiz-adv-x="583" 
d="M74 0l123 700h227c123 0 200 -80 200 -194c0 -121 -92 -217 -198 -232l129 -274h-131l-120 264h-64l-46 -264h-120zM355 378c86 0 145 48 145 128c0 53 -40 80 -108 80h-95l-37 -208h95zM380 -44l-99 -217l-111 29l101 197z" />
    <glyph glyph-name="rcedilla" unicode="&#x157;" horiz-adv-x="387" 
d="M388 486c43 0 80 -15 80 -15l-51 -108s-31 11 -66 11c-73 0 -117 -64 -117 -64l-54 -310h-120l83 474h114l-12 -69s55 81 143 81zM201 -54l-99 -217l-111 29l101 197z" />
    <glyph glyph-name="Rcaron" unicode="&#x158;" horiz-adv-x="583" 
d="M74 0l123 700h227c123 0 200 -80 200 -194c0 -121 -92 -217 -198 -232l129 -274h-131l-120 264h-64l-46 -264h-120zM355 378c86 0 145 48 145 128c0 53 -40 80 -108 80h-95l-37 -208h95zM402 751l-178 134l74 79l115 -93l133 96l59 -82z" />
    <glyph glyph-name="rcaron" unicode="&#x159;" horiz-adv-x="387" 
d="M388 486c43 0 80 -15 80 -15l-51 -108s-31 11 -66 11c-73 0 -117 -64 -117 -64l-54 -310h-120l83 474h114l-12 -69s55 81 143 81zM297 526l-178 134l74 79l115 -93l133 96l59 -82z" />
    <glyph glyph-name="Sacute" unicode="&#x15a;" horiz-adv-x="595" 
d="M321 102c58 0 137 25 137 98c0 52 -41 67 -111 93c-88 33 -185 83 -185 204c0 103 100 215 248 215c160 0 229 -111 229 -111l-84 -78s-58 75 -145 75c-68 0 -124 -43 -124 -99c0 -54 55 -64 137 -98c89 -37 159 -80 159 -196c0 -142 -128 -217 -261 -217
c-171 0 -252 138 -252 138l90 82s61 -106 162 -106zM521 996l74 -88l-199 -164l-69 79z" />
    <glyph glyph-name="sacute" unicode="&#x15b;" horiz-adv-x="483" 
d="M43 74l70 86s58 -67 143 -67c53 0 98 13 98 49c0 28 -27 34 -90 48c-83 18 -151 59 -151 140c0 85 81 156 203 156c119 0 189 -59 189 -59l-62 -91s-63 45 -127 45c-37 0 -85 -12 -85 -49c0 -24 28 -34 99 -50c72 -16 146 -48 146 -137c0 -103 -110 -157 -220 -157
c-131 0 -213 86 -213 86zM415 778l74 -88l-199 -164l-69 79z" />
    <glyph glyph-name="Scircumflex" unicode="&#x15c;" horiz-adv-x="595" 
d="M321 102c58 0 137 25 137 98c0 52 -41 67 -111 93c-88 33 -185 83 -185 204c0 103 100 215 248 215c160 0 229 -111 229 -111l-84 -78s-58 75 -145 75c-68 0 -124 -43 -124 -99c0 -54 55 -64 137 -98c89 -37 159 -80 159 -196c0 -142 -128 -217 -261 -217
c-171 0 -252 138 -252 138l90 82s61 -106 162 -106zM243 847l199 131l181 -140l-73 -76l-114 97l-133 -95z" />
    <glyph glyph-name="scircumflex" unicode="&#x15d;" horiz-adv-x="483" 
d="M43 74l70 86s58 -67 143 -67c53 0 98 13 98 49c0 28 -27 34 -90 48c-83 18 -151 59 -151 140c0 85 81 156 203 156c119 0 189 -59 189 -59l-62 -91s-63 45 -127 45c-37 0 -85 -12 -85 -49c0 -24 28 -34 99 -50c72 -16 146 -48 146 -137c0 -103 -110 -157 -220 -157
c-131 0 -213 86 -213 86zM152 611l199 131l181 -140l-73 -76l-114 97l-133 -95z" />
    <glyph glyph-name="Scedilla" unicode="&#x15e;" horiz-adv-x="595" 
d="M321 102c58 0 137 25 137 98c0 52 -41 67 -111 93c-88 33 -185 83 -185 204c0 103 100 215 248 215c160 0 229 -111 229 -111l-84 -78s-58 75 -145 75c-68 0 -124 -43 -124 -99c0 -54 55 -64 137 -98c89 -37 159 -80 159 -196c0 -142 -128 -217 -261 -217
c-171 0 -252 138 -252 138l90 82s61 -106 162 -106zM344 -54l-99 -217l-111 29l101 197z" />
    <glyph glyph-name="scedilla" unicode="&#x15f;" horiz-adv-x="483" 
d="M43 74l70 86s58 -67 143 -67c53 0 98 13 98 49c0 28 -27 34 -90 48c-83 18 -151 59 -151 140c0 85 81 156 203 156c119 0 189 -59 189 -59l-62 -91s-63 45 -127 45c-37 0 -85 -12 -85 -49c0 -24 28 -34 99 -50c72 -16 146 -48 146 -137c0 -103 -110 -157 -220 -157
c-131 0 -213 86 -213 86zM304 -54l-99 -217l-111 29l101 197z" />
    <glyph glyph-name="Scaron" unicode="&#x160;" horiz-adv-x="595" 
d="M321 102c58 0 137 25 137 98c0 52 -41 67 -111 93c-88 33 -185 83 -185 204c0 103 100 215 248 215c160 0 229 -111 229 -111l-84 -78s-58 75 -145 75c-68 0 -124 -43 -124 -99c0 -54 55 -64 137 -98c89 -37 159 -80 159 -196c0 -142 -128 -217 -261 -217
c-171 0 -252 138 -252 138l90 82s61 -106 162 -106zM444 745l-178 134l74 79l115 -93l133 96l59 -82z" />
    <glyph glyph-name="scaron" unicode="&#x161;" horiz-adv-x="483" 
d="M43 74l70 86s58 -67 143 -67c53 0 98 13 98 49c0 28 -27 34 -90 48c-83 18 -151 59 -151 140c0 85 81 156 203 156c119 0 189 -59 189 -59l-62 -91s-63 45 -127 45c-37 0 -85 -12 -85 -49c0 -24 28 -34 99 -50c72 -16 146 -48 146 -137c0 -103 -110 -157 -220 -157
c-131 0 -213 86 -213 86zM340 526l-178 134l74 79l115 -93l133 96l59 -82z" />
    <glyph glyph-name="Tcedilla" unicode="&#x162;" horiz-adv-x="534" 
d="M207 0l103 586h-193l20 114h506l-20 -114h-193l-103 -586h-120zM335 -54l-99 -217l-111 29l101 197z" />
    <glyph glyph-name="tcedilla" unicode="&#x163;" horiz-adv-x="416" 
d="M76 366l19 108h103l25 141h120l-25 -141h143l-19 -108h-143l-35 -196c-10 -58 19 -70 51 -70c26 0 52 17 52 17l34 -100s-48 -29 -117 -29c-91 0 -159 72 -141 173l36 205h-103zM303 -54l-99 -217l-111 29l101 197z" />
    <glyph glyph-name="Tcaron" unicode="&#x164;" horiz-adv-x="534" 
d="M207 0l103 586h-193l20 114h506l-20 -114h-193l-103 -586h-120zM388 743l-178 134l74 79l115 -93l133 96l59 -82z" />
    <glyph glyph-name="tcaron" unicode="&#x165;" horiz-adv-x="428" 
d="M76 366l19 108h103l25 141h120l-25 -141h143l-19 -108h-143l-35 -196c-10 -58 19 -70 51 -70c26 0 52 17 52 17l34 -100s-48 -29 -117 -29c-91 0 -159 72 -141 173l36 205h-103zM400 534l43 246h106l-43 -246h-106z" />
    <glyph glyph-name="Tbar" unicode="&#x166;" horiz-adv-x="534" 
d="M149 374l18 100h123l20 112h-193l20 114h506l-20 -114h-193l-20 -112h123l-18 -100h-123l-65 -374h-120l65 374h-123z" />
    <glyph glyph-name="tbar" unicode="&#x167;" horiz-adv-x="406" 
d="M86 366l19 108h83l25 141h120l-25 -141h143l-19 -108h-143l-14 -76h144l-18 -100h-144l-3 -20c-10 -58 19 -70 51 -70c26 0 52 17 52 17l34 -100s-48 -29 -117 -29c-93 0 -159 72 -141 173l5 29h-83l18 100h82l14 76h-83z" />
    <glyph glyph-name="Ugrave" unicode="&#xd9;" horiz-adv-x="688" 
d="M542 269c41 231 76 431 76 431h120l-80 -451c-27 -154 -131 -261 -301 -261c-180 0 -266 107 -239 261l80 451h120s-36 -205 -77 -436c-18 -100 21 -162 121 -162c101 0 162 67 180 167zM322 926l88 74l150 -184l-84 -68z" />
    <glyph glyph-name="ugrave" unicode="&#xf9;" horiz-adv-x="548" 
d="M240 -12c-91 0 -169 75 -149 189l52 297h120l-48 -274c-13 -70 17 -100 76 -100c65 0 105 63 105 63l55 311h120l-83 -474h-112l11 64s-55 -76 -147 -76zM219 708l88 74l150 -184l-84 -68z" />
    <glyph glyph-name="Uacute" unicode="&#xda;" horiz-adv-x="688" 
d="M541 269c41 231 76 431 76 431h120l-80 -451c-27 -154 -131 -261 -301 -261c-180 0 -266 107 -239 261l80 451h120s-36 -205 -77 -436c-18 -100 21 -162 121 -162c101 0 162 67 180 167zM563 996l74 -88l-199 -164l-69 79z" />
    <glyph glyph-name="uacute" unicode="&#xfa;" horiz-adv-x="548" 
d="M470 778l74 -88l-199 -164l-69 79zM240 -12c-91 0 -169 75 -149 189l52 297h120l-48 -274c-13 -70 17 -100 76 -100c65 0 105 63 105 63l55 311h120l-83 -474h-112l11 64s-55 -76 -147 -76z" />
    <glyph glyph-name="Ucircumflex" unicode="&#xdb;" horiz-adv-x="688" 
d="M541 269c41 231 76 431 76 431h120l-80 -451c-27 -154 -131 -261 -301 -261c-180 0 -266 107 -239 261l80 451h120s-36 -205 -77 -436c-18 -100 21 -162 121 -162c101 0 162 67 180 167zM286 837l199 131l181 -140l-73 -76l-114 97l-133 -95z" />
    <glyph glyph-name="ucircumflex" unicode="&#xfb;" horiz-adv-x="548" 
d="M240 -12c-91 0 -169 75 -149 189l52 297h120l-48 -274c-13 -70 17 -100 76 -100c65 0 105 63 105 63l55 311h120l-83 -474h-112l11 64s-55 -76 -147 -76zM180 608l199 131l181 -140l-73 -76l-114 97l-133 -95z" />
    <glyph glyph-name="Udieresis" unicode="&#xdc;" horiz-adv-x="688" 
d="M541 269c41 231 76 431 76 431h120l-80 -451c-27 -154 -131 -261 -301 -261c-180 0 -266 107 -239 261l80 451h120s-36 -205 -77 -436c-18 -100 21 -162 121 -162c101 0 162 67 180 167zM293 859c0 44 35 79 79 79s79 -35 79 -79s-35 -79 -79 -79s-79 35 -79 79zM499 859
c0 44 35 79 79 79s79 -35 79 -79s-35 -79 -79 -79s-79 35 -79 79z" />
    <glyph glyph-name="udieresis" unicode="&#xfc;" horiz-adv-x="548" 
d="M240 -12c-91 0 -169 75 -149 189l52 297h120l-48 -274c-13 -70 17 -100 76 -100c65 0 105 63 105 63l55 311h120l-83 -474h-112l11 64s-55 -76 -147 -76zM186 631c0 44 35 79 79 79s79 -35 79 -79s-35 -79 -79 -79s-79 35 -79 79zM392 631c0 44 35 79 79 79
s79 -35 79 -79s-35 -79 -79 -79s-79 35 -79 79z" />
    <glyph glyph-name="Utilde" unicode="&#x168;" horiz-adv-x="688" 
d="M541 269c41 231 76 431 76 431h120l-80 -451c-27 -154 -131 -261 -301 -261c-180 0 -266 107 -239 261l80 451h120s-36 -205 -77 -436c-18 -100 21 -162 121 -162c101 0 162 67 180 167zM350 777l-81 57s41 106 145 106c59 0 100 -58 138 -58c43 0 65 63 65 63l79 -61
s-39 -108 -141 -108c-58 0 -101 57 -139 57c-43 0 -66 -56 -66 -56z" />
    <glyph glyph-name="utilde" unicode="&#x169;" horiz-adv-x="548" 
d="M240 -12c-91 0 -169 75 -149 189l52 297h120l-48 -274c-13 -70 17 -100 76 -100c65 0 105 63 105 63l55 311h120l-83 -474h-112l11 64s-55 -76 -147 -76zM241 556l-81 57s41 106 145 106c59 0 100 -58 138 -58c43 0 65 63 65 63l79 -61s-39 -108 -141 -108
c-58 0 -101 57 -139 57c-43 0 -66 -56 -66 -56z" />
    <glyph glyph-name="Umacron" unicode="&#x16a;" horiz-adv-x="688" 
d="M541 269c41 231 76 431 76 431h120l-80 -451c-27 -154 -131 -261 -301 -261c-180 0 -266 107 -239 261l80 451h120s-36 -205 -77 -436c-18 -100 21 -162 121 -162c101 0 162 67 180 167zM316 800l19 108h322l-19 -108h-322z" />
    <glyph glyph-name="umacron" unicode="&#x16b;" horiz-adv-x="548" 
d="M240 -12c-91 0 -169 75 -149 189l52 297h120l-48 -274c-13 -70 17 -100 76 -100c65 0 105 63 105 63l55 311h120l-83 -474h-112l11 64s-55 -76 -147 -76zM209 577l19 108h322l-19 -108h-322z" />
    <glyph glyph-name="Ubreve" unicode="&#x16c;" horiz-adv-x="688" 
d="M541 269c41 231 76 431 76 431h120l-80 -451c-27 -154 -131 -261 -301 -261c-180 0 -266 107 -239 261l80 451h120s-36 -205 -77 -436c-18 -100 21 -162 121 -162c101 0 162 67 180 167zM320 918h108s-14 -72 58 -72s84 72 84 72h108s-19 -164 -197 -164
c-193 0 -161 164 -161 164z" />
    <glyph glyph-name="ubreve" unicode="&#x16d;" horiz-adv-x="548" 
d="M240 -12c-91 0 -169 75 -149 189l52 297h120l-48 -274c-13 -70 17 -100 76 -100c65 0 105 63 105 63l55 311h120l-83 -474h-112l11 64s-55 -76 -147 -76zM214 700h108s-14 -72 58 -72s84 72 84 72h108s-19 -164 -197 -164c-193 0 -161 164 -161 164z" />
    <glyph glyph-name="Uring" unicode="&#x16e;" horiz-adv-x="688" 
d="M541 269c41 231 76 431 76 431h120l-80 -451c-27 -154 -131 -261 -301 -261c-180 0 -266 107 -239 261l80 451h120s-36 -205 -77 -436c-18 -100 21 -162 121 -162c101 0 162 67 180 167zM353 841c0 71 65 129 133 129c75 0 115 -55 115 -111c0 -71 -66 -129 -134 -129
c-75 0 -114 55 -114 111zM486 904c-37 0 -64 -28 -64 -63c0 -25 18 -45 45 -45c37 0 65 28 65 63c0 26 -19 45 -46 45z" />
    <glyph glyph-name="uring" unicode="&#x16f;" horiz-adv-x="548" 
d="M240 -12c-91 0 -169 75 -149 189l52 297h120l-48 -274c-13 -70 17 -100 76 -100c65 0 105 63 105 63l55 311h120l-83 -474h-112l11 64s-55 -76 -147 -76zM253 639c0 71 65 129 133 129c75 0 115 -55 115 -111c0 -71 -66 -129 -134 -129c-75 0 -114 55 -114 111zM386 702
c-37 0 -64 -28 -64 -63c0 -25 18 -45 45 -45c37 0 65 28 65 63c0 26 -19 45 -46 45z" />
    <glyph glyph-name="Uhungarumlaut" unicode="&#x170;" horiz-adv-x="688" 
d="M541 269c41 231 76 431 76 431h120l-80 -451c-27 -154 -131 -261 -301 -261c-180 0 -266 107 -239 261l80 451h120s-36 -205 -77 -436c-18 -100 21 -162 121 -162c101 0 162 67 180 167zM464 978l84 -49l-159 -177l-78 42zM638 978l84 -49l-159 -177l-78 42z" />
    <glyph glyph-name="uhungarumlaut" unicode="&#x171;" horiz-adv-x="548" 
d="M240 -12c-91 0 -169 75 -149 189l52 297h120l-48 -274c-13 -70 17 -100 76 -100c65 0 105 63 105 63l55 311h120l-83 -474h-112l11 64s-55 -76 -147 -76zM361 740l84 -49l-159 -177l-78 42zM535 740l84 -49l-159 -177l-78 42z" />
    <glyph glyph-name="Uogonek" unicode="&#x172;" horiz-adv-x="688" 
d="M541 269c41 231 76 431 76 431h120l-80 -451c-24 -137 -112 -239 -245 -257c-31 -4 -85 -41 -85 -82c0 -23 16 -37 44 -37c21 0 44 8 44 8l-16 -95c-17 -5 -38 -9 -58 -9c-69 0 -112 45 -112 107c0 56 45 92 75 107c-144 19 -211 119 -187 258l80 451h120
s-36 -205 -77 -436c-18 -100 21 -162 121 -162c101 0 162 67 180 167z" />
    <glyph glyph-name="uogonek" unicode="&#x173;" horiz-adv-x="548" 
d="M236 -12c-91 0 -165 75 -145 189l52 297h120l-48 -274c-13 -70 17 -100 76 -100c60 0 104 58 104 58l56 316h120l-83 -474s-105 -35 -105 -90c0 -23 16 -37 44 -37c21 0 44 8 44 8l-16 -95c-17 -5 -38 -9 -58 -9c-69 0 -112 45 -112 107c0 79 84 122 92 126l11 59
s-60 -81 -152 -81z" />
    <glyph glyph-name="Wgrave" unicode="&#x1e80;" horiz-adv-x="983" 
d="M1102 700l-403 -724l-118 525l-305 -525l-149 724h134l72 -408l230 408h106l81 -408l218 408h134zM490 926l88 74l150 -184l-84 -68z" />
    <glyph glyph-name="wgrave" unicode="&#x1e81;" horiz-adv-x="768" 
d="M87 474h130l54 -238l142 238h110l53 -238l139 238h132l-316 -498l-93 338l-209 -338zM342 707l88 74l150 -184l-84 -68z" />
    <glyph glyph-name="Wacute" unicode="&#x1e82;" horiz-adv-x="983" 
d="M1102 700l-403 -724l-118 525l-305 -525l-149 724h134l72 -408l230 408h106l81 -408l218 408h134zM717 996l74 -88l-199 -164l-69 79z" />
    <glyph glyph-name="wacute" unicode="&#x1e83;" horiz-adv-x="768" 
d="M87 474h130l54 -238l142 238h110l53 -238l139 238h132l-316 -498l-93 338l-209 -338zM572 778l74 -88l-199 -164l-69 79z" />
    <glyph glyph-name="Wcircumflex" unicode="&#x174;" horiz-adv-x="983" 
d="M1102 700l-403 -724l-118 525l-305 -525l-149 724h134l72 -408l230 408h106l81 -408l218 408h134zM433 827l199 131l181 -140l-73 -76l-114 97l-133 -95z" />
    <glyph glyph-name="wcircumflex" unicode="&#x175;" horiz-adv-x="768" 
d="M87 474h130l54 -238l142 238h110l53 -238l139 238h132l-316 -498l-93 338l-209 -338zM286 608l199 131l181 -140l-73 -76l-114 97l-133 -95z" />
    <glyph glyph-name="Ygrave" unicode="&#x1ef2;" horiz-adv-x="614" 
d="M415 276l-48 -276h-120l48 276l-164 424h126l115 -312l224 312h133zM263 906l88 74l150 -184l-84 -68z" />
    <glyph glyph-name="ygrave" unicode="&#x1ef3;" horiz-adv-x="557" 
d="M-13 -194l56 95s31 -31 70 -31c41 0 60 12 95 73l28 49l-145 482h130l97 -345l184 345h136l-332 -580c-60 -104 -114 -136 -190 -136c-75 0 -129 48 -129 48zM209 708l88 74l150 -184l-84 -68z" />
    <glyph glyph-name="Yacute" unicode="&#xdd;" horiz-adv-x="614" 
d="M415 276l-48 -276h-120l48 276l-164 424h126l115 -312l224 312h133zM526 996l74 -88l-199 -164l-69 79z" />
    <glyph glyph-name="yacute" unicode="&#xfd;" horiz-adv-x="557" 
d="M468 778l74 -88l-199 -164l-69 79zM-13 -194l56 95s31 -31 70 -31c41 0 60 12 95 73l28 49l-145 482h130l97 -345l184 345h136l-332 -580c-60 -104 -114 -136 -190 -136c-75 0 -129 48 -129 48z" />
    <glyph glyph-name="Ycircumflex" unicode="&#x176;" horiz-adv-x="614" 
d="M415 276l-48 -276h-120l48 276l-164 424h126l115 -312l224 312h133zM244 827l199 131l181 -140l-73 -76l-114 97l-133 -95z" />
    <glyph glyph-name="ycircumflex" unicode="&#x177;" horiz-adv-x="557" 
d="M-13 -194l56 95s31 -31 70 -31c41 0 60 12 95 73l28 49l-145 482h130l97 -345l184 345h136l-332 -580c-60 -104 -114 -136 -190 -136c-75 0 -129 48 -129 48zM174 608l199 131l181 -140l-73 -76l-114 97l-133 -95z" />
    <glyph glyph-name="Ydieresis" unicode="&#x178;" horiz-adv-x="614" 
d="M415 276l-48 -276h-120l48 276l-164 424h126l115 -312l224 312h133zM254 851c0 44 35 79 79 79s79 -35 79 -79s-35 -79 -79 -79s-79 35 -79 79zM460 851c0 44 35 79 79 79s79 -35 79 -79s-35 -79 -79 -79s-79 35 -79 79z" />
    <glyph glyph-name="ydieresis" unicode="&#xff;" horiz-adv-x="557" 
d="M-12 -194l56 95s31 -31 70 -31c41 0 60 12 95 73l28 49l-145 482h130l97 -345l184 345h136l-332 -580c-60 -104 -114 -136 -190 -136c-75 0 -129 48 -129 48zM196 631c0 44 35 79 79 79s79 -35 79 -79s-35 -79 -79 -79s-79 35 -79 79zM402 631c0 44 35 79 79 79
s79 -35 79 -79s-35 -79 -79 -79s-79 35 -79 79z" />
    <glyph glyph-name="Zacute" unicode="&#x179;" horiz-adv-x="597" 
d="M171 700h535l-464 -586h341l-20 -114h-549l466 586h-329zM529 1003l74 -88l-199 -164l-69 79z" />
    <glyph glyph-name="zacute" unicode="&#x17a;" horiz-adv-x="495" 
d="M130 474h422l-295 -362h220l-19 -112h-428l294 362h-214zM452 778l74 -88l-199 -164l-69 79z" />
    <glyph glyph-name="Zdotaccent" unicode="&#x17b;" horiz-adv-x="597" 
d="M171 700h535l-464 -586h341l-20 -114h-549l466 586h-329zM359 841c0 44 35 79 79 79s79 -35 79 -79s-35 -79 -79 -79s-79 35 -79 79z" />
    <glyph glyph-name="zdotaccent" unicode="&#x17c;" horiz-adv-x="495" 
d="M130 474h422l-295 -362h220l-19 -112h-428l294 362h-214zM266 627c0 44 35 79 79 79s79 -35 79 -79s-35 -79 -79 -79s-79 35 -79 79z" />
    <glyph glyph-name="Zcaron" unicode="&#x17d;" horiz-adv-x="597" 
d="M171 700h535l-464 -586h341l-20 -114h-549l466 586h-329zM437 746l-178 134l74 79l115 -93l133 96l59 -82z" />
    <glyph glyph-name="zcaron" unicode="&#x17e;" horiz-adv-x="495" 
d="M130 474h422l-295 -362h220l-19 -112h-428l294 362h-214zM353 526l-178 134l74 79l115 -93l133 96l59 -82z" />
    <glyph glyph-name="Thorn" unicode="&#xde;" horiz-adv-x="545" 
d="M74 0l123 700h120l-20 -111h83c135 0 217 -75 217 -191c0 -168 -135 -237 -284 -237h-91l-28 -161h-120zM328 273c86 0 147 32 147 125c0 63 -52 79 -121 79h-76l-36 -204h86z" />
    <glyph glyph-name="thorn" unicode="&#xfe;" horiz-adv-x="583" 
d="M207 756h120l-58 -327c21 21 69 57 144 57c114 0 191 -95 191 -219c0 -164 -128 -279 -262 -279c-75 0 -127 40 -140 60l-49 -278h-120zM248 308l-26 -147s23 -61 102 -61c92 0 157 77 157 167c0 63 -39 107 -109 107c-79 0 -124 -66 -124 -66z" />
    <glyph glyph-name="longs" unicode="&#x17f;" horiz-adv-x="342" 
d="M79 366l19 108h94l21 116c23 132 115 178 192 178c73 0 110 -25 110 -25l-51 -101s-20 14 -56 14c-23 0 -67 -13 -77 -72l-102 -584h-120l64 366h-94z" />
    <glyph glyph-name="zero.lnum_tnum" 
d="M396 712c165 0 228 -117 228 -272c0 -203 -114 -452 -316 -452c-166 0 -229 118 -229 274c0 203 116 450 317 450zM308 100c123 0 195 196 195 340c0 93 -33 160 -107 160c-124 0 -196 -194 -196 -338c0 -94 33 -162 108 -162z" />
    <glyph glyph-name="one.lnum_tnum" 
d="M150 505l280 195h111l-123 -700h-120l95 540l-178 -124z" />
    <glyph glyph-name="two.lnum_tnum" 
d="M48 0l314 326c48 51 112 108 112 187c0 47 -34 87 -92 87c-104 0 -138 -102 -138 -102l-105 43s55 171 243 171c156 0 215 -103 215 -199c0 -61 -33 -132 -86 -190c-86 -94 -197 -209 -197 -209h215l-20 -114h-461z" />
    <glyph glyph-name="three.lnum_tnum" 
d="M321 404c68 0 150 33 150 115c0 48 -41 81 -97 81c-89 0 -127 -85 -127 -85l-99 52s64 145 226 145c126 0 220 -71 220 -193c0 -77 -42 -130 -110 -166c0 0 76 -30 76 -137c0 -149 -140 -228 -263 -228c-180 0 -236 155 -236 155l99 61s33 -104 137 -104
c67 0 141 38 141 116c0 59 -50 78 -125 78h-35l20 110h23z" />
    <glyph glyph-name="four.lnum_tnum" 
d="M0 152l453 548h134l-77 -436h87l-20 -112h-87l-26 -152h-120l26 152h-370zM221 264h171l47 265z" />
    <glyph glyph-name="five.lnum_tnum" 
d="M588 256c0 -155 -123 -268 -277 -268c-187 0 -236 155 -236 155l101 61s36 -104 135 -104c84 0 153 67 153 156c0 60 -48 104 -138 104c-94 0 -195 -78 -195 -78l73 418h434l-20 -114h-314l-22 -127s30 11 90 11c138 0 216 -85 216 -214z" />
    <glyph glyph-name="six.lnum_tnum" 
d="M519 663l-162 -204s15 3 26 3c122 0 198 -102 198 -211c0 -146 -131 -263 -271 -263c-162 0 -227 109 -227 212c0 63 34 127 74 184c14 20 270 349 270 349zM351 350c-79 0 -145 -68 -145 -150c0 -62 46 -100 107 -100c77 0 145 66 145 151c0 61 -46 99 -107 99z" />
    <glyph glyph-name="seven.lnum_tnum" 
d="M167 586l20 114h500l-503 -724l-95 64l381 546h-303z" />
    <glyph glyph-name="eight.lnum_tnum" 
d="M396 712c138 0 207 -77 207 -185c0 -74 -54 -138 -104 -159c0 0 70 -27 70 -140c0 -142 -124 -240 -262 -240c-169 0 -225 101 -225 200c0 77 49 153 127 185c0 0 -52 44 -52 119c0 120 103 220 239 220zM307 98c70 0 140 53 140 130c0 48 -33 88 -102 88
c-70 0 -140 -51 -140 -128c0 -49 33 -90 102 -90zM363 416c60 0 119 46 119 111c0 47 -36 75 -86 75c-59 0 -120 -45 -120 -110c0 -47 37 -76 87 -76z" />
    <glyph glyph-name="nine.lnum_tnum" 
d="M187 43l158 199s-15 -3 -26 -3c-106 0 -198 87 -198 211c0 146 131 263 271 263c164 0 227 -109 227 -212c0 -63 -34 -127 -74 -184c-14 -20 -266 -344 -266 -344zM351 351c79 0 145 68 145 150c0 62 -46 100 -107 100c-77 0 -145 -66 -145 -151c0 -61 46 -99 107 -99z
" />
    <glyph glyph-name="zero.onum_pnum" horiz-adv-x="554" 
d="M342 486c148 0 235 -105 235 -222c0 -159 -134 -276 -283 -276s-235 105 -235 223c0 158 135 275 283 275zM294 100c89 0 161 75 161 164c0 65 -43 110 -113 110c-87 0 -161 -73 -161 -163c0 -65 43 -111 113 -111z" />
    <glyph glyph-name="one.onum_pnum" horiz-adv-x="396" 
d="M52 312l233 162h128l-83 -474h-120l56 322l-149 -105z" />
    <glyph glyph-name="two.onum_pnum" horiz-adv-x="500" 
d="M415 186c-9 -8 -80 -72 -80 -72h135l-20 -114h-408l234 200c36 30 90 67 90 117c0 33 -31 57 -68 57c-73 0 -98 -70 -98 -70l-100 48s52 134 198 134c113 0 189 -62 189 -169c0 -38 -17 -81 -72 -131z" />
    <glyph glyph-name="three.onum_pnum" horiz-adv-x="543" 
d="M296 193c58 0 117 41 117 106c0 44 -40 75 -92 75c-90 0 -125 -83 -125 -83l-97 59s64 136 222 136c108 0 214 -52 214 -187c0 -71 -51 -129 -99 -151c0 0 70 -24 70 -133c0 -139 -131 -225 -256 -225c-172 0 -229 148 -229 148l95 62s36 -98 134 -98
c64 0 135 39 135 113c0 53 -47 74 -108 74h-46l19 104h46z" />
    <glyph glyph-name="four.onum_pnum" horiz-adv-x="574" 
d="M-4 0l431 474h133l-64 -364h73l-19 -110h-73l-35 -198h-119l35 198h-362zM231 110h146l35 201z" />
    <glyph glyph-name="five.onum_pnum" horiz-adv-x="586" 
d="M549 50c0 -152 -120 -260 -275 -260c-187 0 -229 155 -229 155l102 55s24 -98 127 -98c76 0 152 53 152 148c0 68 -58 103 -117 103c-73 0 -137 -37 -205 -75l70 396h427l-21 -120h-307l-19 -102s39 12 91 12c110 0 204 -70 204 -214z" />
    <glyph glyph-name="six.onum_pnum" horiz-adv-x="562" 
d="M509 663l-162 -204s15 3 26 3c122 0 198 -102 198 -211c0 -146 -131 -263 -271 -263c-162 0 -227 109 -227 212c0 63 34 127 74 184c14 20 270 349 270 349zM341 350c-79 0 -145 -68 -145 -150c0 -62 46 -100 107 -100c77 0 145 66 145 151c0 61 -46 99 -107 99z" />
    <glyph glyph-name="seven.onum_pnum" horiz-adv-x="496" 
d="M86 354l21 120h480l-474 -684l-99 69l343 495h-271z" />
    <glyph glyph-name="eight.onum_pnum" horiz-adv-x="576" 
d="M394 712c138 0 207 -77 207 -185c0 -74 -54 -138 -104 -159c0 0 70 -27 70 -140c0 -142 -124 -240 -262 -240c-169 0 -225 101 -225 200c0 77 49 153 127 185c0 0 -52 44 -52 119c0 120 103 220 239 220zM305 98c70 0 140 53 140 130c0 48 -33 88 -102 88
c-70 0 -140 -51 -140 -128c0 -49 33 -90 102 -90zM361 416c60 0 119 46 119 111c0 47 -36 75 -86 75c-59 0 -120 -45 -120 -110c0 -47 37 -76 87 -76z" />
    <glyph glyph-name="nine.onum_pnum" horiz-adv-x="556" 
d="M156 -156l134 170s-4 -1 -17 -1c-124 0 -199 106 -199 211c0 142 118 262 267 262c164 0 224 -112 224 -212c0 -66 -23 -109 -64 -167c-13 -19 -251 -331 -251 -331zM300 124c76 0 143 66 143 150c0 60 -44 100 -105 100c-76 0 -143 -66 -143 -150
c0 -60 44 -100 105 -100z" />
    <glyph glyph-name="zero.onum_tnum" 
d="M355 486c148 0 235 -105 235 -222c0 -159 -134 -276 -283 -276s-235 105 -235 223c0 158 135 275 283 275zM307 100c89 0 161 75 161 164c0 65 -43 110 -113 110c-87 0 -161 -73 -161 -163c0 -65 43 -111 113 -111z" />
    <glyph glyph-name="one.onum_tnum" 
d="M109 292l260 182h119l-83 -474h-120l56 322l-172 -120z" />
    <glyph glyph-name="two.onum_tnum" 
d="M441 186c-9 -8 -80 -72 -80 -72h135l-20 -114h-408l234 200c36 30 90 67 90 117c0 33 -31 57 -68 57c-73 0 -98 -70 -98 -70l-100 48s52 134 198 134c113 0 189 -62 189 -169c0 -38 -17 -81 -72 -131z" />
    <glyph glyph-name="three.onum_tnum" 
d="M303 193c58 0 117 41 117 106c0 44 -40 75 -92 75c-90 0 -125 -83 -125 -83l-97 59s64 136 222 136c108 0 214 -52 214 -187c0 -71 -51 -129 -99 -151c0 0 70 -24 70 -133c0 -139 -131 -225 -256 -225c-172 0 -229 148 -229 148l95 62s36 -98 134 -98
c64 0 135 39 135 113c0 53 -47 74 -108 74h-46l19 104h46z" />
    <glyph glyph-name="four.onum_tnum" 
d="M-15 0l431 474h133l-64 -364h73l-19 -110h-73l-35 -198h-119l35 198h-362zM220 110h146l35 201z" />
    <glyph glyph-name="five.onum_tnum" 
d="M548 50c0 -152 -120 -260 -275 -260c-187 0 -229 155 -229 155l102 55s24 -98 127 -98c76 0 152 53 152 148c0 68 -58 103 -117 103c-73 0 -137 -37 -205 -75l70 396h427l-21 -120h-307l-19 -102s39 12 91 12c110 0 204 -70 204 -214z" />
    <glyph glyph-name="six.onum_tnum" 
d="M521 663l-162 -204s15 3 26 3c122 0 198 -102 198 -211c0 -146 -131 -263 -271 -263c-162 0 -227 109 -227 212c0 63 34 127 74 184c14 20 270 349 270 349zM353 350c-79 0 -145 -68 -145 -150c0 -62 46 -100 107 -100c77 0 145 66 145 151c0 61 -46 99 -107 99z" />
    <glyph glyph-name="seven.onum_tnum" 
d="M148 354l21 120h480l-474 -684l-99 69l343 495h-271z" />
    <glyph glyph-name="eight.onum_tnum" 
d="M396 712c138 0 207 -77 207 -185c0 -74 -54 -138 -104 -159c0 0 70 -27 70 -140c0 -142 -124 -240 -262 -240c-169 0 -225 101 -225 200c0 77 49 153 127 185c0 0 -52 44 -52 119c0 120 103 220 239 220zM307 98c70 0 140 53 140 130c0 48 -33 88 -102 88
c-70 0 -140 -51 -140 -128c0 -49 33 -90 102 -90zM363 416c60 0 119 46 119 111c0 47 -36 75 -86 75c-59 0 -120 -45 -120 -110c0 -47 37 -76 87 -76z" />
    <glyph glyph-name="nine.onum_tnum" 
d="M168 -156l134 170s-4 -1 -17 -1c-124 0 -199 106 -199 211c0 142 118 262 267 262c164 0 224 -112 224 -212c0 -66 -23 -109 -64 -167c-13 -19 -251 -331 -251 -331zM312 124c76 0 143 66 143 150c0 60 -44 100 -105 100c-76 0 -143 -66 -143 -150
c0 -60 44 -100 105 -100z" />
    <glyph glyph-name="zerosuperior" unicode="&#x2070;" horiz-adv-x="386" 
d="M234 806c106 0 146 -70 146 -161c0 -134 -68 -257 -190 -257c-106 0 -146 70 -146 161c0 134 68 257 190 257zM190 473c69 0 99 107 99 172c0 42 -14 77 -55 77c-71 0 -99 -107 -99 -173c0 -42 14 -76 55 -76z" />
    <glyph glyph-name="onesuperior" unicode="&#xb9;" horiz-adv-x="323" 
d="M34 674l174 126h98l-72 -406h-93l51 289l-111 -80z" />
    <glyph glyph-name="twosuperior" unicode="&#xb2;" horiz-adv-x="362" 
d="M15 394l185 184c21 22 63 58 63 97c0 27 -22 46 -56 46c-60 0 -76 -59 -76 -59l-77 30s39 114 153 114c110 0 148 -72 148 -131c0 -41 -21 -78 -47 -106l-85 -93h111l-15 -82h-304z" />
    <glyph glyph-name="threesuperior" unicode="&#xb3;" horiz-adv-x="368" 
d="M264 686c0 23 -20 39 -52 39c-53 0 -71 -43 -71 -43l-69 41s44 83 140 83c78 0 144 -37 144 -120c0 -32 -24 -74 -60 -86c0 0 42 -14 42 -76c0 -90 -88 -136 -164 -136c-115 0 -145 96 -145 96l69 41s18 -56 76 -56c30 0 73 15 73 55c0 26 -25 40 -64 40h-22l12 70h15
c32 0 76 10 76 52z" />
    <glyph glyph-name="foursuperior" unicode="&#x2074;" horiz-adv-x="386" 
d="M1 472l266 328h98l-44 -250h50l-14 -78h-50l-14 -78h-86l14 78h-220zM151 550h84l23 134z" />
    <glyph glyph-name="fivesuperior" unicode="&#x2075;" horiz-adv-x="383" 
d="M355 540c0 -92 -81 -152 -168 -152c-118 0 -147 87 -147 87l70 49s17 -52 77 -52c35 0 76 25 76 68c0 31 -25 53 -74 53c-57 0 -112 -39 -112 -39l42 246h265l-15 -84h-175l-10 -54s15 4 45 4c74 0 126 -51 126 -126z" />
    <glyph glyph-name="sixsuperior" unicode="&#x2076;" horiz-adv-x="355" 
d="M304 780l-91 -115c69 0 127 -53 127 -126c0 -88 -86 -151 -162 -151c-105 0 -145 70 -145 131c0 31 13 68 31 95c25 39 172 219 172 219zM192 587c-35 0 -72 -27 -72 -68c0 -30 25 -48 58 -48c35 0 71 27 71 68c0 30 -24 48 -57 48z" />
    <glyph glyph-name="sevensuperior" unicode="&#x2077;" horiz-adv-x="333" 
d="M56 716l15 84h313l-294 -423l-71 49l204 290h-167z" />
    <glyph glyph-name="eightsuperior" unicode="&#x2078;" horiz-adv-x="368" 
d="M226 806c98 0 135 -63 135 -117c0 -52 -50 -81 -64 -87c0 0 43 -18 43 -79c0 -89 -80 -135 -160 -135c-106 0 -144 60 -144 120c0 54 47 91 77 98c0 0 -38 30 -38 72c0 80 77 128 151 128zM180 468c41 0 71 22 71 55c0 23 -20 39 -54 39c-39 0 -72 -21 -72 -54
c0 -24 20 -40 55 -40zM226 726c-29 0 -62 -14 -62 -48c0 -25 21 -38 46 -38c31 0 62 15 62 49c0 25 -21 37 -46 37z" />
    <glyph glyph-name="ninesuperior" unicode="&#x2079;" horiz-adv-x="355" 
d="M94 421l87 108c-71 0 -128 53 -128 126c0 86 86 151 162 151c99 0 147 -62 147 -131c0 -36 -17 -66 -35 -93c-25 -39 -165 -214 -165 -214zM201 607c35 0 72 27 72 68c0 30 -23 48 -58 48c-33 0 -71 -27 -71 -68c0 -30 24 -48 57 -48z" />
    <glyph glyph-name="zeroinferior" unicode="&#x2080;" horiz-adv-x="386" 
d="M234 319c106 0 146 -70 146 -161c0 -134 -68 -257 -190 -257c-106 0 -146 70 -146 161c0 134 68 257 190 257zM190 -14c69 0 99 107 99 172c0 42 -14 77 -55 77c-71 0 -99 -107 -99 -173c0 -42 14 -76 55 -76z" />
    <glyph glyph-name="oneinferior" unicode="&#x2081;" horiz-adv-x="323" 
d="M34 187l174 126h98l-72 -406h-93l51 289l-111 -80z" />
    <glyph glyph-name="twoinferior" unicode="&#x2082;" horiz-adv-x="362" 
d="M15 -93l185 184c21 22 63 58 63 97c0 27 -22 46 -56 46c-60 0 -76 -59 -76 -59l-77 30s39 114 153 114c110 0 148 -72 148 -131c0 -41 -21 -78 -47 -106l-85 -93h111l-15 -82h-304z" />
    <glyph glyph-name="threeinferior" unicode="&#x2083;" horiz-adv-x="368" 
d="M264 199c0 23 -20 39 -52 39c-53 0 -71 -43 -71 -43l-69 41s44 83 140 83c78 0 144 -37 144 -120c0 -32 -24 -74 -60 -86c0 0 42 -14 42 -76c0 -90 -88 -136 -164 -136c-115 0 -145 96 -145 96l69 41s18 -56 76 -56c30 0 73 15 73 55c0 26 -25 40 -64 40h-22l12 70h15
c32 0 76 10 76 52z" />
    <glyph glyph-name="fourinferior" unicode="&#x2084;" horiz-adv-x="386" 
d="M1 -15l266 328h98l-44 -250h50l-14 -78h-50l-14 -78h-86l14 78h-220zM151 63h84l23 134z" />
    <glyph glyph-name="fiveinferior" unicode="&#x2085;" horiz-adv-x="383" 
d="M355 53c0 -92 -81 -152 -168 -152c-118 0 -147 87 -147 87l70 49s17 -52 77 -52c35 0 76 25 76 68c0 31 -25 53 -74 53c-57 0 -112 -39 -112 -39l42 246h265l-15 -84h-175l-10 -54s15 4 45 4c74 0 126 -51 126 -126z" />
    <glyph glyph-name="sixinferior" unicode="&#x2086;" horiz-adv-x="355" 
d="M304 293l-91 -115c69 0 127 -53 127 -126c0 -88 -86 -151 -162 -151c-105 0 -145 70 -145 131c0 31 13 68 31 95c25 39 172 219 172 219zM192 100c-35 0 -72 -27 -72 -68c0 -30 25 -48 58 -48c35 0 71 27 71 68c0 30 -24 48 -57 48z" />
    <glyph glyph-name="seveninferior" unicode="&#x2087;" horiz-adv-x="333" 
d="M56 229l15 84h313l-294 -423l-71 49l204 290h-167z" />
    <glyph glyph-name="eightinferior" unicode="&#x2088;" horiz-adv-x="368" 
d="M226 319c98 0 135 -63 135 -117c0 -52 -50 -81 -64 -87c0 0 43 -18 43 -79c0 -89 -80 -135 -160 -135c-106 0 -144 60 -144 120c0 54 47 91 77 98c0 0 -38 30 -38 72c0 80 77 128 151 128zM180 -19c41 0 71 22 71 55c0 23 -20 39 -54 39c-39 0 -72 -21 -72 -54
c0 -24 20 -40 55 -40zM226 239c-29 0 -62 -14 -62 -48c0 -25 21 -38 46 -38c31 0 62 15 62 49c0 25 -21 37 -46 37z" />
    <glyph glyph-name="nineinferior" unicode="&#x2089;" horiz-adv-x="355" 
d="M94 -66l87 108c-71 0 -128 53 -128 126c0 86 86 151 162 151c99 0 147 -62 147 -131c0 -36 -17 -66 -35 -93c-25 -39 -165 -214 -165 -214zM201 120c35 0 72 27 72 68c0 30 -23 48 -58 48c-33 0 -71 -27 -71 -68c0 -30 24 -48 57 -48z" />
    <glyph glyph-name="zero.numerator" unicode="&#xf661;" horiz-adv-x="386" 
d="M234 706c106 0 146 -70 146 -161c0 -134 -68 -257 -190 -257c-106 0 -146 70 -146 161c0 134 68 257 190 257zM190 373c69 0 99 107 99 172c0 42 -14 77 -55 77c-71 0 -99 -107 -99 -173c0 -42 14 -76 55 -76z" />
    <glyph glyph-name="one.numerator" unicode="&#xf662;" horiz-adv-x="323" 
d="M34 574l174 126h98l-72 -406h-93l51 289l-111 -80z" />
    <glyph glyph-name="two.numerator" unicode="&#xf663;" horiz-adv-x="362" 
d="M15 294l185 184c21 22 63 58 63 97c0 27 -22 46 -56 46c-60 0 -76 -59 -76 -59l-77 30s39 114 153 114c110 0 148 -72 148 -131c0 -41 -21 -78 -47 -106l-85 -93h111l-15 -82h-304z" />
    <glyph glyph-name="three.numerator" unicode="&#xf664;" horiz-adv-x="368" 
d="M264 586c0 23 -20 39 -52 39c-53 0 -71 -43 -71 -43l-69 41s44 83 140 83c78 0 144 -37 144 -120c0 -32 -24 -74 -60 -86c0 0 42 -14 42 -76c0 -90 -88 -136 -164 -136c-115 0 -145 96 -145 96l69 41s18 -56 76 -56c30 0 73 15 73 55c0 26 -25 40 -64 40h-22l12 70h15
c32 0 76 10 76 52z" />
    <glyph glyph-name="four.numerator" unicode="&#xf665;" horiz-adv-x="386" 
d="M1 372l266 328h98l-44 -250h50l-14 -78h-50l-14 -78h-86l14 78h-220zM151 450h84l23 134z" />
    <glyph glyph-name="five.numerator" unicode="&#xf666;" horiz-adv-x="383" 
d="M355 440c0 -92 -81 -152 -168 -152c-118 0 -147 87 -147 87l70 49s17 -52 77 -52c35 0 76 25 76 68c0 31 -25 53 -74 53c-57 0 -112 -39 -112 -39l42 246h265l-15 -84h-175l-10 -54s15 4 45 4c74 0 126 -51 126 -126z" />
    <glyph glyph-name="six.numerator" unicode="&#xf667;" horiz-adv-x="355" 
d="M304 680l-91 -115c69 0 127 -53 127 -126c0 -88 -86 -151 -162 -151c-105 0 -145 70 -145 131c0 31 13 68 31 95c25 39 172 219 172 219zM192 487c-35 0 -72 -27 -72 -68c0 -30 25 -48 58 -48c35 0 71 27 71 68c0 30 -24 48 -57 48z" />
    <glyph glyph-name="seven.numerator" unicode="&#xf668;" horiz-adv-x="333" 
d="M57 616l15 84h313l-294 -423l-71 49l204 290h-167z" />
    <glyph glyph-name="eight.numerator" unicode="&#xf669;" horiz-adv-x="368" 
d="M226 706c98 0 135 -63 135 -117c0 -52 -50 -81 -64 -87c0 0 43 -18 43 -79c0 -89 -80 -135 -160 -135c-106 0 -144 60 -144 120c0 54 47 91 77 98c0 0 -38 30 -38 72c0 80 77 128 151 128zM180 368c41 0 71 22 71 55c0 23 -20 39 -54 39c-39 0 -72 -21 -72 -54
c0 -24 20 -40 55 -40zM226 626c-29 0 -62 -14 -62 -48c0 -25 21 -38 46 -38c31 0 62 15 62 49c0 25 -21 37 -46 37z" />
    <glyph glyph-name="nine.numerator" unicode="&#xf66a;" horiz-adv-x="355" 
d="M94 321l87 108c-71 0 -128 53 -128 126c0 86 86 151 162 151c99 0 147 -62 147 -131c0 -36 -17 -66 -35 -93c-25 -39 -165 -214 -165 -214zM201 507c35 0 72 27 72 68c0 30 -23 48 -58 48c-33 0 -71 -27 -71 -68c0 -30 24 -48 57 -48z" />
    <glyph glyph-name="fraction" unicode="&#x2044;" horiz-adv-x="168" 
d="M-178 9l597 724l51 -44l-598 -724z" />
    <glyph glyph-name="zero.denominator" unicode="&#xf655;" horiz-adv-x="386" 
d="M234 412c106 0 146 -70 146 -161c0 -134 -68 -257 -190 -257c-106 0 -146 70 -146 161c0 134 68 257 190 257zM190 79c69 0 99 107 99 172c0 42 -14 77 -55 77c-71 0 -99 -107 -99 -173c0 -42 14 -76 55 -76z" />
    <glyph glyph-name="one.denominator" unicode="&#xf656;" horiz-adv-x="323" 
d="M34 280l174 126h98l-72 -406h-93l51 289l-111 -80z" />
    <glyph glyph-name="two.denominator" unicode="&#xf657;" horiz-adv-x="362" 
d="M15 0l185 184c21 22 63 58 63 97c0 27 -22 46 -56 46c-60 0 -76 -59 -76 -59l-77 30s39 114 153 114c110 0 148 -72 148 -131c0 -41 -21 -78 -47 -106l-85 -93h111l-15 -82h-304z" />
    <glyph glyph-name="three.denominator" unicode="&#xf658;" horiz-adv-x="368" 
d="M264 292c0 23 -20 39 -52 39c-53 0 -71 -43 -71 -43l-69 41s44 83 140 83c78 0 144 -37 144 -120c0 -32 -24 -74 -60 -86c0 0 42 -14 42 -76c0 -90 -88 -136 -164 -136c-115 0 -145 96 -145 96l69 41s18 -56 76 -56c30 0 73 15 73 55c0 26 -25 40 -64 40h-22l12 70h15
c32 0 76 10 76 52z" />
    <glyph glyph-name="four.denominator" unicode="&#xf659;" horiz-adv-x="386" 
d="M1 78l266 328h98l-44 -250h50l-14 -78h-50l-14 -78h-86l14 78h-220zM151 156h84l23 134z" />
    <glyph glyph-name="five.denominator" unicode="&#xf65a;" horiz-adv-x="383" 
d="M355 146c0 -92 -81 -152 -168 -152c-118 0 -147 87 -147 87l70 49s17 -52 77 -52c35 0 76 25 76 68c0 31 -25 53 -74 53c-57 0 -112 -39 -112 -39l42 246h265l-15 -84h-175l-10 -54s15 4 45 4c74 0 126 -51 126 -126z" />
    <glyph glyph-name="six.denominator" unicode="&#xf65b;" horiz-adv-x="355" 
d="M304 386l-91 -115c69 0 127 -53 127 -126c0 -88 -86 -151 -162 -151c-105 0 -145 70 -145 131c0 31 13 68 31 95c25 39 172 219 172 219zM192 193c-35 0 -72 -27 -72 -68c0 -30 25 -48 58 -48c35 0 71 27 71 68c0 30 -24 48 -57 48z" />
    <glyph glyph-name="seven.denominator" unicode="&#xf65c;" horiz-adv-x="333" 
d="M56 322l15 84h313l-294 -423l-71 49l204 290h-167z" />
    <glyph glyph-name="eight.denominator" unicode="&#xf65d;" horiz-adv-x="368" 
d="M226 412c98 0 135 -63 135 -117c0 -52 -50 -81 -64 -87c0 0 43 -18 43 -79c0 -89 -80 -135 -160 -135c-106 0 -144 60 -144 120c0 54 47 91 77 98c0 0 -38 30 -38 72c0 80 77 128 151 128zM180 74c41 0 71 22 71 55c0 23 -20 39 -54 39c-39 0 -72 -21 -72 -54
c0 -24 20 -40 55 -40zM226 332c-29 0 -62 -14 -62 -48c0 -25 21 -38 46 -38c31 0 62 15 62 49c0 25 -21 37 -46 37z" />
    <glyph glyph-name="nine.denominator" unicode="&#xf65e;" horiz-adv-x="355" 
d="M94 27l87 108c-71 0 -128 53 -128 126c0 86 86 151 162 151c99 0 147 -62 147 -131c0 -36 -17 -66 -35 -93c-25 -39 -165 -214 -165 -214zM201 213c35 0 72 27 72 68c0 30 -23 48 -58 48c-33 0 -71 -27 -71 -68c0 -30 24 -48 57 -48z" />
    <glyph glyph-name="numero" unicode="&#x2116;" horiz-adv-x="1110" 
d="M773 228l18 106h314l-18 -106h-314zM997 712c122 0 162 -91 162 -159c0 -96 -83 -183 -187 -183c-122 0 -161 90 -161 158c0 96 80 184 186 184zM997 612c-51 0 -84 -37 -84 -84c0 -33 24 -58 59 -58c50 0 85 37 85 83c0 33 -25 59 -60 59zM197 700h108l264 -490l86 490
h120l-123 -700h-108l-265 489l-85 -489h-120z" />
    <glyph glyph-name="uni27F5" unicode="&#x27f5;" horiz-adv-x="1000" 
d="M1021 304l-19 -110h-774l112 -157l-85 -69l-194 281l284 272l69 -79l-155 -138h762z" />
    <glyph glyph-name="uni27F6" unicode="&#x27f6;" horiz-adv-x="1000" 
d="M66 194l19 110h774l-111 159l84 67l194 -281l-286 -274l-69 79l154 140h-759z" />
    <glyph glyph-name="arrowleft" unicode="&#x2190;" horiz-adv-x="760" 
d="M785 304l-19 -110h-538l112 -157l-85 -69l-194 281l284 272l69 -79l-155 -138h526z" />
    <glyph glyph-name="arrowright" unicode="&#x2192;" horiz-adv-x="760" 
d="M62 194l19 110h537l-111 159l84 67l194 -281l-286 -274l-69 79l154 140h-522z" />
    <glyph glyph-name="arrowup" unicode="&#x2191;" horiz-adv-x="598" 
d="M354 0h-110l91 521l-157 -118l-59 82l305 229l226 -231l-80 -75l-122 129z" />
    <glyph glyph-name="arrowdown" unicode="&#x2193;" horiz-adv-x="598" 
d="M366 700h110l-91 -521l155 116l60 -82l-304 -227l-226 231l80 76l122 -130z" />
    <glyph glyph-name="uni21B3" unicode="&#x21b3;" horiz-adv-x="796" 
d="M98 194l89 506h115l-70 -396h422l-111 159l84 67l194 -281l-286 -274l-69 79l154 140h-522z" />
    <glyph glyph-name="carriagereturn" unicode="&#x21b5;" horiz-adv-x="796" 
d="M855 700l-89 -506h-538l112 -157l-85 -69l-194 281l284 272l69 -79l-155 -138h411l70 396h115z" />
    <glyph glyph-name="BALLOTBOX" unicode="&#x2610;" horiz-adv-x="844" 
d="M82 0l123 700h680l-123 -700h-680zM296 595l-86 -490h460l86 490h-460z" />
    <glyph glyph-name="BALLOTBOXWITHCHECK" unicode="&#x2611;" horiz-adv-x="844" 
d="M296 595l-86 -490h460l86 490h-460zM391 166l-87 184h102l41 -91l150 275h103l-206 -368h-103zM82 0l123 700h680l-123 -700h-680z" />
    <glyph glyph-name="BALLOTBOXWITHX" unicode="&#x2612;" horiz-adv-x="844" 
d="M82 0l123 700h680l-123 -700h-680zM296 595l-86 -490h460l86 490h-460zM582 142l-106 141l-157 -142l-58 67l161 147l-110 147l74 56l105 -141l156 142l58 -67l-160 -146l111 -148z" />
    <glyph glyph-name="Circle" horiz-adv-x="844" 
d="M114 307c0 213 179 405 411 405c209 0 323 -150 323 -319c0 -213 -179 -405 -411 -405c-209 0 -323 150 -323 319zM525 598c-168 0 -296 -134 -296 -291c0 -116 86 -205 208 -205c168 0 296 136 296 291c0 116 -86 205 -208 205z" />
    <glyph glyph-name="CircleDotted" horiz-adv-x="844" 
d="M347 350c0 77 62 140 139 140s140 -63 140 -140s-63 -139 -140 -139s-139 62 -139 139zM114 307c0 213 179 405 411 405c209 0 323 -150 323 -319c0 -213 -179 -405 -411 -405c-209 0 -323 150 -323 319zM525 598c-168 0 -296 -134 -296 -291c0 -116 86 -205 208 -205
c168 0 296 136 296 291c0 116 -86 205 -208 205z" />
    <glyph glyph-name="uni2709" unicode="&#x2709;" horiz-adv-x="844" 
d="M20 0v700h804v-700h-804zM422 190l-292 309v-394h584v394zM180 595l242 -250l240 250h-482z" />
    <glyph glyph-name="uni270E" unicode="&#x270e;" horiz-adv-x="844" 
d="M829 434l-383 -382l-371 -52l52 371l382 383zM446 207l231 231l-164 164l-231 -231zM246 117l120 15l-159 159l-15 -120z" />
    <glyph glyph-name="Trash" horiz-adv-x="844" 
d="M168 0l-133 700h774l-133 -700h-508zM354 590l7 -130h121l7 130h-135zM174 590l23 -130h114l-7 130h-130zM539 590l-7 -130h114l23 130h-130zM364 414l6 -126h104l6 126h-116zM205 414l22 -126h93l-6 126h-109zM530 414l-6 -126h92l22 126h-108zM372 242l7 -132h85l7 132
h-99zM521 242l-7 -132h71l23 132h-87zM235 242l23 -132h71l-7 132h-87z" />
    <glyph glyph-name="uni2717" unicode="&#x2717;" horiz-adv-x="844" 
d="M772 637l-268 -288l268 -287l-88 -81l-262 280l-262 -280l-88 81l268 287l-268 288l88 81l262 -281l262 281z" />
    <glyph glyph-name="heart" unicode="&#x2665;" horiz-adv-x="632" 
d="M316 127l-240 239c-28 28 -42 64 -42 101c0 36 14 73 42 100c27 27 64 41 100 41s72 -14 99 -41c24 -24 38 -55 41 -86c3 31 16 62 40 86c27 27 64 41 100 41s72 -14 100 -41s42 -64 42 -100c0 -37 -14 -74 -42 -101z" />
    <glyph glyph-name="EuropaType" horiz-adv-x="776" 
d="M619 194l24 -64c-14 -9 -47 -25 -92 -38c-5 8 -14 13 -24 13c-16 0 -29 -13 -29 -29s13 -29 29 -29c15 0 28 12 29 27c45 13 78 30 94 38l24 -63s-105 -60 -233 -60c-15 21 -22 52 -23 84c0 24 3 48 11 67c111 0 190 54 190 54zM211 408h363c-4 78 -69 155 -182 155
c-109 0 -173 -77 -181 -155zM391 712c205 0 338 -151 338 -366c0 -13 -2 -38 -3 -55h-514c11 -77 83 -143 195 -150c-7 -21 -11 -44 -11 -69c1 -31 8 -61 21 -84h-6c-218 0 -364 164 -364 362c0 199 138 362 344 362z" />
    <glyph glyph-name="softhyphen" unicode="&#xad;" horiz-adv-x="333" 
d="M66 190l20 114h267l-20 -114h-267z" />
    <glyph glyph-name="apostrophemod" unicode="&#x2bc;" horiz-adv-x="186" 
d="M120 454l43 246h106l-43 -246h-106z" />
    <glyph glyph-name="period.tabular" 
d="M222 67c0 44 35 79 79 79s79 -35 79 -79s-35 -79 -79 -79s-79 35 -79 79z" />
    <glyph glyph-name="space.tabular" 
 />
    </font>
</defs>
</svg>
