<?xml version="1.0" standalone="no"?>
<!DOCTYPE svg PUBLIC "-//W3C//DTD SVG 1.1//EN" "http://www.w3.org/Graphics/SVG/1.1/DTD/svg11.dtd" >
<svg>
<metadata>
Created by FontForge 20120731 at Thu Oct 11 16:42:21 2018
 By www-data
Copyright (c) 2011 by FabianLeuenberger. All rights reserved.
</metadata>
<defs>
<font id="Europa-Bold" horiz-adv-x="580" >
  <font-face 
    font-family="Europa-Bold"
    font-weight="700"
    font-stretch="normal"
    units-per-em="1000"
    panose-1="2 0 0 0 0 0 0 0 0 0"
    ascent="782"
    descent="-218"
    x-height="474"
    cap-height="700"
    bbox="-180 -276 1062 1033"
    underline-thickness="38"
    underline-position="-39"
    unicode-range="U+0020-FB04"
  />
<missing-glyph horiz-adv-x="600" 
d="M36 0v700h528v-700h-528zM111 628v-556h378v556h-378zM347 432c0 25 -23 45 -49 45c-47 0 -63 -50 -63 -50l-55 25s26 87 118 87c64 0 113 -48 113 -107c0 -47 -25 -70 -59 -99c-19 -17 -19 -18 -19 -38v-31h-65v44c0 34 13 41 49 71c20 18 30 28 30 53zM260 192
c0 22 18 40 40 40c23 0 42 -18 42 -40c0 -23 -19 -41 -42 -41c-22 0 -40 18 -40 41z" />
    <glyph glyph-name="ff" unicode="ff" horiz-adv-x="691" 
d="M230 572v-98h192v112c0 137 95 182 172 182c66 0 111 -28 111 -28l-45 -101s-20 17 -54 17c-33 0 -64 -23 -64 -84v-98h120v-106h-120v-368h-120v368h-192v-368h-120v368h-94v106h94v112c0 137 95 182 172 182c66 0 111 -28 111 -28l-45 -101s-20 17 -54 17
c-33 0 -64 -23 -64 -84z" />
    <glyph glyph-name="fi" unicode="fi" horiz-adv-x="582" 
d="M16 368v106h94v111c0 117 89 183 201 183c130 0 197 -83 197 -167v-11c0 -33 -28 -59 -61 -59s-59 25 -59 59v7c0 37 -32 63 -77 63c-40 0 -81 -27 -81 -85v-101h97v-106h-97v-368h-120v368h-94zM388 0v474h120v-474h-120z" />
    <glyph glyph-name="ffi" unicode="ffi" horiz-adv-x="860" 
d="M388 0v590v7c0 37 -32 63 -77 63c-40 0 -81 -27 -81 -85v-101h95v-106h-95v-368h-120v368h-94v106h94v111c0 117 89 183 201 183c59 0 107 -17 139 -44c35 29 85 44 139 44c130 0 197 -83 197 -167v-11c0 -33 -28 -59 -61 -59s-59 25 -59 59v7c0 37 -32 63 -77 63
c-40 0 -81 -27 -81 -85v-101h95v-106h-95v-368h-120zM666 0v474h120v-474h-120z" />
    <glyph glyph-name="ffj" unicode="ffj" horiz-adv-x="860" 
d="M16 368v106h94v111c0 117 89 183 201 183c59 0 106 -18 139 -45c36 29 85 45 139 45c130 0 197 -83 197 -167v-11c0 -33 -28 -59 -61 -59s-59 25 -59 59v7c0 37 -32 63 -77 63c-40 0 -81 -27 -81 -85v-101h92v-106h-92v-368h-120v597c0 37 -32 63 -77 63
c-40 0 -81 -27 -81 -85v-101h97v-106h-97v-368h-120v368h-94zM498 -211l44 100s27 -19 49 -19c32 0 75 6 75 98v506h120v-517c0 -155 -105 -199 -176 -199c-33 0 -72 7 -112 31z" />
    <glyph glyph-name="fl" unicode="fl" horiz-adv-x="583" 
d="M389 0v575c0 58 -38 85 -78 85s-82 -27 -82 -85v-101h97v-106h-97v-368h-120v368h-93v106h93v111c0 117 90 183 202 183s198 -66 198 -183v-585h-120z" />
    <glyph glyph-name="ffl" unicode="ffl" horiz-adv-x="853" 
d="M659 0v575c0 58 -38 85 -78 85s-82 -27 -82 -85v-101h97v-106h-97v-368h-120v368h-158v-368h-120v368h-85v106h85v111c0 117 89 183 201 183c58 0 106 -17 138 -44c35 29 87 44 141 44c112 0 198 -66 198 -183v-585h-120zM221 474h158v123c0 37 -32 63 -77 63
c-40 0 -81 -27 -81 -85v-101z" />
    <glyph glyph-name="fft" unicode="fft" horiz-adv-x="1001" 
d="M222 572v-98h192v112c0 137 95 182 172 182c66 0 111 -28 111 -28l-45 -101s-20 17 -54 17c-33 0 -64 -23 -64 -84v-98h166v129h120v-129h143v-106h-143v-193c0 -60 31 -75 63 -75c27 0 50 17 50 17l43 -98s-45 -31 -114 -31c-92 0 -162 60 -162 166v214h-166v-368h-120
v368h-192v-368h-120v368h-86v106h86v112c0 137 95 182 172 182c66 0 111 -28 111 -28l-45 -101s-20 17 -54 17c-33 0 -64 -23 -64 -84z" />
    <glyph glyph-name=".notdef" horiz-adv-x="600" 
d="M36 0v700h528v-700h-528zM111 628v-556h378v556h-378zM347 432c0 25 -23 45 -49 45c-47 0 -63 -50 -63 -50l-55 25s26 87 118 87c64 0 113 -48 113 -107c0 -47 -25 -70 -59 -99c-19 -17 -19 -18 -19 -38v-31h-65v44c0 34 13 41 49 71c20 18 30 28 30 53zM260 192
c0 22 18 40 40 40c23 0 42 -18 42 -40c0 -23 -19 -41 -42 -41c-22 0 -40 18 -40 41z" />
    <glyph glyph-name="space" unicode=" " horiz-adv-x="294" 
 />
    <glyph glyph-name="nbspace" unicode="&#xa0;" horiz-adv-x="294" 
 />
    <glyph glyph-name="numbersign" unicode="#" horiz-adv-x="634" 
d="M69 418v88h129l30 211l87 -12l-28 -199h109l30 211l87 -12l-28 -199h117v-88h-129l-17 -120h116v-88h-128l-32 -227l-88 12l30 215h-108l-32 -227l-88 12l30 215h-117v88h130l17 120h-117zM275 418l-17 -120h109l17 120h-109z" />
    <glyph glyph-name="percent" unicode="%" horiz-adv-x="712" 
d="M184 712c89 0 162 -70 162 -159s-73 -159 -162 -159s-162 70 -162 159s73 159 162 159zM184 471c47 0 81 35 81 82c0 46 -34 82 -81 82c-48 0 -82 -36 -82 -82c0 -47 34 -82 82 -82zM528 306c89 0 162 -70 162 -159s-73 -159 -162 -159s-162 70 -162 159s73 159 162 159z
M528 65c47 0 81 35 81 82c0 46 -34 82 -81 82c-48 0 -82 -36 -82 -82c0 -47 34 -82 82 -82zM89 7l471 724l57 -39l-471 -724z" />
    <glyph glyph-name="perthousand" unicode="&#x2030;" horiz-adv-x="1072" 
d="M184 712c89 0 162 -70 162 -159s-73 -159 -162 -159s-162 70 -162 159s73 159 162 159zM184 471c45 0 81 35 81 82c0 46 -36 82 -81 82c-46 0 -82 -36 -82 -82c0 -47 36 -82 82 -82zM528 306c89 0 162 -70 162 -159s-73 -159 -162 -159s-162 70 -162 159s73 159 162 159z
M528 65c45 0 81 35 81 82c0 46 -36 82 -81 82c-46 0 -82 -36 -82 -82c0 -47 36 -82 82 -82zM888 306c89 0 162 -70 162 -159s-73 -159 -162 -159s-162 70 -162 159s73 159 162 159zM888 65c45 0 81 35 81 82c0 46 -36 82 -81 82c-46 0 -82 -36 -82 -82c0 -47 36 -82 82 -82z
M89 7l471 724l57 -39l-471 -724z" />
    <glyph glyph-name="at" unicode="@" horiz-adv-x="799" 
d="M567 110l35 -75c-41 -22 -107 -47 -192 -47c-200 0 -362 162 -362 362s162 362 362 362s341 -156 341 -347c0 -179 -89 -213 -148 -213c-41 0 -89 20 -102 66c0 0 -38 -66 -125 -66c-69 0 -137 49 -137 129c0 74 71 125 140 125c71 0 106 -34 106 -34v17
c0 54 -45 77 -84 77c-59 0 -104 -37 -104 -37l-40 72s64 47 147 47c98 0 166 -56 166 -145v-121c0 -30 9 -52 36 -52c21 0 58 2 58 135c0 150 -99 263 -254 263s-275 -121 -275 -278c0 -155 120 -278 275 -278c76 0 123 20 157 38zM401 232c59 0 84 41 84 41v29
s-25 28 -84 28c-47 0 -72 -20 -72 -49c0 -28 25 -49 72 -49z" />
    <glyph glyph-name="at.alt" horiz-adv-x="799" 
d="M585 72l17 -37c-41 -22 -107 -47 -192 -47c-200 0 -362 162 -362 362s162 362 362 362s341 -156 341 -347c0 -188 -95 -216 -146 -216h-6c-39 1 -83 14 -99 69c0 0 -38 -66 -125 -66c-69 0 -137 49 -137 129c0 74 71 125 140 125c71 0 106 -34 106 -34v17
c0 54 -45 77 -84 77c-59 0 -104 -37 -104 -37l-40 72s64 47 147 47c98 0 166 -56 166 -145v-169c0 -31 19 -43 39 -43c40 0 100 20 100 174c0 168 -118 305 -298 305s-319 -142 -319 -320c0 -176 139 -320 319 -320c79 0 141 24 175 42zM400 232c59 0 84 41 84 41v29
s-25 28 -84 28c-47 0 -72 -20 -72 -49c0 -28 25 -49 72 -49z" />
    <glyph glyph-name="ampersand" unicode="&#x26;" horiz-adv-x="695" 
d="M507 384h115c0 -156 -41 -214 -41 -214l114 -100l-70 -82l-107 95c-49 -55 -134 -95 -231 -95c-138 0 -233 93 -233 182c0 66 26 115 138 199c-73 67 -98 114 -98 164c0 97 78 179 191 179s191 -82 191 -179c0 -57 -25 -96 -113 -171l129 -114s15 22 15 136zM287 98
c60 0 115 27 147 59l-159 139c-84 -72 -101 -87 -101 -119c0 -50 57 -79 113 -79zM210 533c0 -35 26 -56 72 -100c68 57 77 78 77 100c0 43 -40 69 -74 69c-38 0 -75 -28 -75 -69z" />
    <glyph glyph-name="question" unicode="?" horiz-adv-x="489" 
d="M329 512c0 47 -43 86 -93 86c-86 0 -118 -96 -118 -96l-102 47s48 163 220 163c120 0 213 -89 213 -200c0 -88 -46 -130 -111 -187c-35 -31 -37 -33 -37 -69v-51h-119v74c0 65 25 79 90 135c37 32 57 51 57 98zM163 67c0 44 35 79 79 79s79 -35 79 -79s-35 -79 -79 -79
s-79 35 -79 79z" />
    <glyph glyph-name="questiondown" unicode="&#xbf;" horiz-adv-x="489" 
d="M160 -38c0 -47 43 -86 93 -86c86 0 118 96 118 96l102 -47s-48 -163 -220 -163c-120 0 -213 89 -213 200c0 88 46 130 111 187c35 31 37 33 37 69v51h119v-74c0 -65 -25 -79 -90 -135c-37 -32 -57 -51 -57 -98zM326 407c0 -44 -35 -79 -79 -79s-79 35 -79 79s35 79 79 79
s79 -35 79 -79z" />
    <glyph glyph-name="exclam" unicode="!" horiz-adv-x="306" 
d="M215 700l-5 -500h-114l-5 500h124zM74 67c0 44 35 79 79 79s79 -35 79 -79s-35 -79 -79 -79s-79 35 -79 79z" />
    <glyph glyph-name="exclamdown" unicode="&#xa1;" horiz-adv-x="306" 
d="M210 274l5 -500h-124l5 500h114zM74 407c0 44 35 79 79 79s79 -35 79 -79s-35 -79 -79 -79s-79 35 -79 79z" />
    <glyph glyph-name="period" unicode="." horiz-adv-x="262" 
d="M52 67c0 44 35 79 79 79s79 -35 79 -79s-35 -79 -79 -79s-79 35 -79 79z" />
    <glyph glyph-name="colon" unicode=":" horiz-adv-x="274" 
d="M58 67c0 44 35 79 79 79s79 -35 79 -79s-35 -79 -79 -79s-79 35 -79 79zM58 407c0 44 35 79 79 79s79 -35 79 -79s-35 -79 -79 -79s-79 35 -79 79z" />
    <glyph glyph-name="ellipsis" unicode="&#x2026;" horiz-adv-x="1000" 
d="M100 67c0 44 35 79 79 79s79 -35 79 -79s-35 -79 -79 -79s-79 35 -79 79zM420 67c0 44 35 79 79 79s79 -35 79 -79s-35 -79 -79 -79s-79 35 -79 79zM741 67c0 44 35 79 79 79s79 -35 79 -79s-35 -79 -79 -79s-79 35 -79 79z" />
    <glyph glyph-name="comma" unicode="," horiz-adv-x="241" 
d="M99 97l100 -35l-87 -233l-92 32z" />
    <glyph glyph-name="semicolon" unicode=";" horiz-adv-x="243" 
d="M42 406c0 44 36 80 79 80c44 0 80 -36 80 -80c0 -43 -36 -79 -80 -79c-43 0 -79 36 -79 79zM99 97l100 -35l-87 -233l-92 32z" />
    <glyph glyph-name="asciitilde" unicode="~" horiz-adv-x="489" 
d="M106 258l-86 53s40 113 150 113c59 0 107 -47 147 -47c54 0 66 56 66 56l86 -54s-38 -112 -149 -112c-62 0 -111 47 -147 47c-54 0 -67 -56 -67 -56z" />
    <glyph glyph-name="hyphen" unicode="-" horiz-adv-x="333" 
d="M33 190v114h267v-114h-267z" />
    <glyph glyph-name="underscore" unicode="_" horiz-adv-x="500" 
d="M42 -230v114h416v-114h-416z" />
    <glyph glyph-name="endash" unicode="&#x2013;" horiz-adv-x="500" 
d="M0 194v110h500v-110h-500z" />
    <glyph glyph-name="emdash" unicode="&#x2014;" horiz-adv-x="1000" 
d="M0 194v110h1000v-110h-1000z" />
    <glyph glyph-name="zero" unicode="0" horiz-adv-x="606" 
d="M304 712c178 0 262 -172 262 -362s-84 -362 -262 -362s-264 172 -264 362s86 362 264 362zM304 100c97 0 142 113 142 250s-45 250 -142 250s-144 -113 -144 -250s47 -250 144 -250z" />
    <glyph glyph-name="one" unicode="1" horiz-adv-x="444" 
d="M16 530l213 170h99v-700h-120v540l-123 -98z" />
    <glyph glyph-name="two" unicode="2" horiz-adv-x="555" 
d="M40 0l257 326c26 34 81 87 81 166c0 56 -38 108 -104 108c-103 0 -125 -102 -125 -102l-107 39s45 175 232 175c151 0 224 -102 224 -218c0 -87 -44 -149 -61 -172l-161 -208h225v-114h-461z" />
    <glyph glyph-name="three" unicode="3" horiz-adv-x="570" 
d="M386 502c0 56 -43 98 -105 98c-91 0 -119 -85 -119 -85l-104 49s54 148 223 148c128 0 226 -81 226 -210c0 -100 -86 -147 -86 -147s103 -26 103 -160c0 -127 -106 -207 -242 -207c-195 0 -245 162 -245 162l98 57s31 -107 147 -107c76 0 122 41 122 95
c0 74 -64 99 -127 99h-50v110h38c73 0 121 27 121 98z" />
    <glyph glyph-name="four" unicode="4" horiz-adv-x="593" 
d="M-4 152l356 548h134v-436h77v-112h-77v-152h-120v152h-370zM192 264h176v271z" />
    <glyph glyph-name="five" unicode="5" horiz-adv-x="585" 
d="M542 230c0 -164 -128 -242 -249 -242c-185 0 -245 162 -245 162l100 57s36 -107 145 -107c81 0 128 57 128 130c0 75 -45 130 -149 130c-97 0 -188 -76 -188 -76v416h440v-114h-320v-137s39 21 99 21c124 0 239 -76 239 -240z" />
    <glyph glyph-name="six" unicode="6" horiz-adv-x="564" 
d="M398 670l-130 -211s13 3 24 3c151 0 237 -118 237 -237s-95 -237 -245 -237s-245 118 -245 235c0 60 21 112 39 145c11 20 220 364 220 364zM284 350c-69 0 -124 -49 -124 -125s55 -125 124 -125s124 49 124 125s-55 125 -124 125z" />
    <glyph glyph-name="seven" unicode="7" horiz-adv-x="526" 
d="M36 586v114h500l-375 -724l-102 53l288 557h-311z" />
    <glyph glyph-name="eight" unicode="8" horiz-adv-x="576" 
d="M288 712c146 0 220 -98 220 -202c0 -93 -78 -138 -78 -138s98 -39 98 -166c0 -117 -88 -218 -240 -218s-240 101 -240 218c0 127 98 166 98 166s-78 45 -78 138c0 104 74 202 220 202zM288 98c79 0 119 53 119 110s-40 108 -119 108s-119 -51 -119 -108s40 -110 119 -110
zM389 509c0 57 -45 93 -101 93s-101 -36 -101 -93s45 -93 101 -93s101 36 101 93z" />
    <glyph glyph-name="nine" unicode="9" horiz-adv-x="564" 
d="M168 34l128 207s-13 -3 -24 -3c-144 0 -237 118 -237 237s95 237 245 237s245 -118 245 -235c0 -60 -22 -111 -40 -145c-11 -20 -217 -360 -217 -360zM280 350c69 0 124 49 124 125s-55 125 -124 125s-124 -49 -124 -125s55 -125 124 -125z" />
    <glyph glyph-name="oneeighth" unicode="&#x215b;" horiz-adv-x="830" 
d="M16 569l158 131h85v-406h-93v289l-97 -80zM137 7l471 724l57 -39l-471 -724zM639 412c88 0 143 -49 143 -121c0 -55 -49 -81 -49 -81s58 -21 58 -91s-58 -125 -152 -125s-152 55 -152 125s58 91 58 91s-49 26 -49 82c0 72 55 120 143 120zM639 74c38 0 62 19 62 47
s-24 47 -62 47s-62 -18 -62 -47c0 -28 24 -47 62 -47zM586 289c0 -31 25 -43 53 -43s53 12 53 43s-25 43 -53 43s-53 -12 -53 -43z" />
    <glyph glyph-name="onequarter" unicode="&#xbc;" horiz-adv-x="830" 
d="M180 7l471 724l57 -39l-471 -724zM449 78l208 328h98v-250h50v-78h-50v-78h-86v78h-220zM585 156h84v134zM26 569l158 131h85v-406h-93v289l-97 -80z" />
    <glyph glyph-name="onethird" unicode="&#x2153;" horiz-adv-x="830" 
d="M135 7l471 724l57 -39l-471 -724zM699 286c0 26 -21 45 -59 45c-50 0 -69 -43 -69 -43l-70 38s38 86 139 86c81 0 149 -43 149 -126c0 -55 -47 -74 -47 -74s54 -19 54 -91c0 -84 -75 -127 -154 -127c-115 0 -148 96 -148 96l74 41s16 -56 74 -56c44 0 64 22 64 46
c0 32 -24 49 -67 49h-22v70h15c32 0 67 12 67 46zM16 569l158 131h85v-406h-93v289l-97 -80z" />
    <glyph glyph-name="threeeighths" unicode="&#x215c;" horiz-adv-x="830" 
d="M155 7l471 724l57 -39l-471 -724zM229 580c0 26 -21 45 -59 45c-50 0 -69 -43 -69 -43l-70 38s38 86 139 86c81 0 149 -43 149 -126c0 -55 -47 -74 -47 -74s54 -19 54 -91c0 -84 -75 -127 -154 -127c-115 0 -148 96 -148 96l74 41s16 -56 74 -56c44 0 64 22 64 46
c0 32 -24 49 -67 49h-22v70h15c32 0 67 12 67 46zM651 412c88 0 143 -49 143 -121c0 -55 -49 -81 -49 -81s58 -21 58 -91s-58 -125 -152 -125s-152 55 -152 125s58 91 58 91s-49 26 -49 82c0 72 55 120 143 120zM651 74c38 0 62 19 62 47s-24 47 -62 47s-62 -18 -62 -47
c0 -28 24 -47 62 -47zM598 289c0 -31 25 -43 53 -43s53 12 53 43s-25 43 -53 43s-53 -12 -53 -43z" />
    <glyph glyph-name="onehalf" unicode="&#xbd;" horiz-adv-x="830" 
d="M479 0l152 184c15 20 47 52 47 86c0 33 -25 57 -63 57c-53 0 -67 -59 -67 -59l-79 27s30 117 146 117c105 0 154 -73 154 -140c0 -40 -22 -77 -32 -90l-75 -100h111v-82h-294zM131 7l471 724l57 -39l-471 -724zM16 569l158 131h85v-406h-93v289l-97 -80z" />
    <glyph glyph-name="fiveeighths" unicode="&#x215d;" horiz-adv-x="830" 
d="M332 430c0 -91 -80 -142 -155 -142c-115 0 -148 90 -148 90l69 46s19 -52 79 -52c42 0 65 26 65 58c0 36 -25 63 -79 63c-57 0 -112 -29 -112 -29v236h275v-84h-185v-54s19 4 49 4c71 0 142 -42 142 -136zM149 7l471 724l57 -39l-471 -724zM651 412
c88 0 143 -49 143 -121c0 -55 -49 -81 -49 -81s58 -21 58 -91s-58 -125 -152 -125s-152 55 -152 125s58 91 58 91s-49 26 -49 82c0 72 55 120 143 120zM651 74c38 0 62 19 62 47s-24 47 -62 47s-62 -18 -62 -47c0 -28 24 -47 62 -47zM598 289c0 -31 25 -43 53 -43
s53 12 53 43s-25 43 -53 43s-53 -12 -53 -43z" />
    <glyph glyph-name="twothirds" unicode="&#x2154;" horiz-adv-x="817" 
d="M22 294l152 184c15 20 47 52 47 86c0 33 -25 57 -63 57c-53 0 -67 -59 -67 -59l-79 27s30 117 146 117c105 0 154 -73 154 -140c0 -40 -22 -77 -32 -90l-75 -100h111v-82h-294zM702 286c0 26 -21 45 -59 45c-50 0 -69 -43 -69 -43l-70 38s38 86 139 86
c81 0 149 -43 149 -126c0 -55 -47 -74 -47 -74s54 -19 54 -91c0 -84 -75 -127 -154 -127c-115 0 -148 96 -148 96l74 41s16 -56 74 -56c44 0 64 22 64 46c0 32 -24 49 -67 49h-22v70h15c32 0 67 12 67 46zM169 7l471 724l57 -39l-471 -724z" />
    <glyph glyph-name="threequarters" unicode="&#xbe;" horiz-adv-x="830" 
d="M190 7l471 724l57 -39l-471 -724zM245 580c0 26 -21 45 -59 45c-50 0 -69 -43 -69 -43l-70 38s38 86 139 86c81 0 149 -43 149 -126c0 -55 -47 -74 -47 -74s54 -19 54 -91c0 -84 -75 -127 -154 -127c-115 0 -148 96 -148 96l74 41s16 -56 74 -56c44 0 64 22 64 46
c0 32 -24 49 -67 49h-22v70h15c32 0 67 12 67 46zM449 78l208 328h98v-250h50v-78h-50v-78h-86v78h-220zM585 156h84v134z" />
    <glyph glyph-name="seveneighths" unicode="&#x215e;" horiz-adv-x="830" 
d="M62 616v84h313l-219 -423l-76 41l157 298h-175zM114 7l471 724l57 -39l-471 -724zM645 412c88 0 143 -49 143 -121c0 -55 -49 -81 -49 -81s58 -21 58 -91s-58 -125 -152 -125s-152 55 -152 125s58 91 58 91s-49 26 -49 82c0 72 55 120 143 120zM645 74c38 0 62 19 62 47
s-24 47 -62 47s-62 -18 -62 -47c0 -28 24 -47 62 -47zM592 289c0 -31 25 -43 53 -43s53 12 53 43s-25 43 -53 43s-53 -12 -53 -43z" />
    <glyph glyph-name="A" unicode="A" horiz-adv-x="678" 
d="M6 0l272 700h122l272 -700h-121l-64 166h-296l-64 -166h-121zM339 549l-105 -273h210z" />
    <glyph glyph-name="B" unicode="B" horiz-adv-x="590" 
d="M74 0v700h227c114 0 223 -53 223 -200c0 -85 -63 -126 -73 -129c10 -2 109 -38 109 -164c0 -123 -102 -207 -234 -207h-252zM322 114c66 0 116 27 116 93s-50 93 -116 93h-128v-186h128zM194 414h103c67 0 105 25 105 86s-46 86 -105 86h-103v-172z" />
    <glyph glyph-name="C" unicode="C" horiz-adv-x="676" 
d="M389 100c123 0 189 86 189 86l80 -79s-92 -119 -269 -119c-202 0 -355 155 -355 362s153 362 355 362c168 0 259 -110 259 -110l-81 -79s-63 77 -178 77c-138 0 -233 -115 -233 -250s95 -250 233 -250z" />
    <glyph glyph-name="D" unicode="D" horiz-adv-x="680" 
d="M300 700c204 0 346 -148 346 -350s-142 -350 -346 -350h-226v700h226zM302 114c136 0 222 109 222 236c0 128 -86 236 -222 236h-108v-472h108z" />
    <glyph glyph-name="E" unicode="E" horiz-adv-x="546" 
d="M194 586v-170h280v-114h-280v-188h310v-114h-430v700h424v-114h-304z" />
    <glyph glyph-name="F" unicode="F" horiz-adv-x="527" 
d="M194 586v-171h275v-114h-275v-301h-120v700h415v-114h-295z" />
    <glyph glyph-name="G" unicode="G" horiz-adv-x="713" 
d="M402 100c100 0 141 34 141 34v148h-159v112h277v-318s-89 -88 -259 -88c-205 0 -368 155 -368 362s158 362 363 362c172 0 259 -105 259 -105l-82 -80s-58 73 -177 73c-141 0 -241 -115 -241 -250s105 -250 246 -250z" />
    <glyph glyph-name="H" unicode="H" horiz-adv-x="687" 
d="M493 415v285h120v-700h-120v301h-299v-301h-120v700h120v-285h299z" />
    <glyph glyph-name="I" unicode="I" horiz-adv-x="296" 
d="M88 0v700h120v-700h-120z" />
    <glyph glyph-name="J" unicode="J" horiz-adv-x="521" 
d="M327 216v484h120v-480c0 -147 -91 -232 -239 -232c-140 0 -205 117 -205 117l88 74s44 -77 117 -77c92 0 119 60 119 114z" />
    <glyph glyph-name="K" unicode="K" horiz-adv-x="628" 
d="M194 700v-314l250 314h150l-274 -344l308 -356h-159l-275 316v-316h-120v700h120z" />
    <glyph glyph-name="L" unicode="L" horiz-adv-x="500" 
d="M74 0v700h120v-586h298v-114h-418z" />
    <glyph glyph-name="M" unicode="M" horiz-adv-x="826" 
d="M74 700h111l228 -352l228 352h111v-700h-120v470l-219 -333l-219 333v-470h-120v700z" />
    <glyph glyph-name="N" unicode="N" horiz-adv-x="726" 
d="M74 700h108l350 -482v482h120v-700h-108l-350 481v-481h-120v700z" />
    <glyph glyph-name="O" unicode="O" horiz-adv-x="776" 
d="M388 712c204 0 354 -155 354 -362s-150 -362 -354 -362s-354 155 -354 362s150 362 354 362zM388 102c141 0 232 113 232 248s-91 248 -232 248s-232 -113 -232 -248s91 -248 232 -248z" />
    <glyph glyph-name="P" unicode="P" horiz-adv-x="566" 
d="M297 366c82 0 125 44 125 110s-43 110 -125 110h-103v-220h103zM74 0v700h238c139 0 232 -96 232 -224s-93 -224 -232 -224h-118v-252h-120z" />
    <glyph glyph-name="Q" unicode="Q" horiz-adv-x="791" 
d="M388 712c204 0 354 -155 354 -362c0 -80 -23 -152 -62 -211l99 -85l-77 -88l-103 89c-58 -43 -130 -67 -211 -67c-204 0 -354 155 -354 362s150 362 354 362zM387 240l77 87l124 -108c21 38 32 83 32 131c0 135 -92 248 -232 248s-232 -113 -232 -248s92 -248 232 -248
c45 0 86 12 120 32z" />
    <glyph glyph-name="R" unicode="R" horiz-adv-x="583" 
d="M74 0v700h230c139 0 232 -90 232 -218c0 -105 -56 -185 -156 -210l175 -272h-140l-166 264h-55v-264h-120zM289 378c77 0 125 35 125 104s-48 104 -125 104h-95v-208h95z" />
    <glyph glyph-name="S" unicode="S" horiz-adv-x="595" 
d="M424 183c0 59 -45 80 -128 109c-103 36 -219 92 -219 222c0 99 88 198 229 198c146 0 228 -111 228 -111l-83 -82s-58 79 -145 79c-60 0 -107 -37 -107 -84c0 -61 55 -80 151 -116c107 -40 196 -88 196 -215s-112 -195 -244 -195c-175 0 -256 143 -256 143l90 76
s60 -105 166 -105c60 0 122 24 122 81z" />
    <glyph glyph-name="T" unicode="T" horiz-adv-x="534" 
d="M207 0v586h-193v114h506v-114h-193v-586h-120z" />
    <glyph glyph-name="U" unicode="U" horiz-adv-x="688" 
d="M494 269v431h120v-446c0 -154 -105 -266 -270 -266s-270 112 -270 266v446h120v-431c0 -100 50 -167 150 -167c99 0 150 67 150 167z" />
    <glyph glyph-name="V" unicode="V" horiz-adv-x="630" 
d="M628 700l-313 -724l-313 724h131l186 -449l184 449h125z" />
    <glyph glyph-name="W" unicode="W" horiz-adv-x="983" 
d="M979 700l-276 -724l-210 525l-213 -525l-276 724h136l148 -420l159 420h99l156 -420l152 420h125z" />
    <glyph glyph-name="X" unicode="X" horiz-adv-x="612" 
d="M457 0l-157 264l-153 -264h-135l226 362l-212 338h142l143 -242l141 242h132l-212 -338l228 -362h-143z" />
    <glyph glyph-name="Y" unicode="Y" horiz-adv-x="614" 
d="M367 276v-276h-120v276l-239 424h132l171 -313l171 313h124z" />
    <glyph glyph-name="Z" unicode="Z" horiz-adv-x="597" 
d="M48 700h535l-364 -586h344v-114h-549l366 586h-332v114z" />
    <glyph glyph-name="a" unicode="a" horiz-adv-x="536" 
d="M246 88c72 0 110 55 110 55v49s-43 24 -108 24c-37 0 -88 -16 -88 -67c0 -50 49 -61 86 -61zM260 486c136 0 216 -69 216 -177v-309h-111v60s-49 -72 -156 -72c-89 0 -171 58 -171 159c0 91 83 157 186 157c87 0 132 -34 132 -34v27c0 62 -60 82 -102 82
c-69 0 -142 -35 -142 -35l-39 99s88 43 187 43z" />
    <glyph glyph-name="b" unicode="b" horiz-adv-x="587" 
d="M74 0v756h120v-332s44 62 134 62c123 0 231 -103 231 -249s-108 -249 -231 -249c-102 0 -143 74 -143 74v-62h-111zM194 308v-142s34 -66 113 -66c81 0 130 59 130 137s-49 137 -130 137c-79 0 -113 -66 -113 -66z" />
    <glyph glyph-name="c" unicode="c" horiz-adv-x="497" 
d="M283 100c81 0 117 58 117 58l79 -80s-68 -90 -196 -90c-142 0 -255 110 -255 249c0 140 113 249 255 249c127 0 194 -88 194 -88l-83 -74s-39 50 -111 50c-81 0 -133 -63 -133 -137s52 -137 133 -137z" />
    <glyph glyph-name="d" unicode="d" horiz-adv-x="587" 
d="M513 756v-756h-111v62s-41 -74 -143 -74c-123 0 -231 103 -231 249s108 249 231 249c90 0 134 -62 134 -62v332h120zM393 166v142s-34 66 -113 66c-81 0 -130 -59 -130 -137s49 -137 130 -137c79 0 113 66 113 66z" />
    <glyph glyph-name="e" unicode="e" horiz-adv-x="533" 
d="M266 486c130 0 239 -101 239 -247c0 -9 0 -27 -1 -45h-354c9 -42 58 -96 133 -96c83 0 130 48 130 48l60 -90s-75 -68 -190 -68c-144 0 -255 110 -255 249s101 249 238 249zM150 281h235c-2 41 -40 96 -119 96c-77 0 -112 -54 -116 -96z" />
    <glyph glyph-name="f" unicode="f" horiz-adv-x="371" 
d="M16 366v108h94v116c0 132 93 178 170 178c66 0 105 -25 105 -25l-45 -101s-18 14 -48 14c-23 0 -62 -13 -62 -72v-110h116v-108h-116v-366h-120v366h-94z" />
    <glyph glyph-name="g" unicode="g" horiz-adv-x="573" 
d="M393 49c-16 -20 -59 -61 -134 -61c-123 0 -231 103 -231 249s108 249 231 249c99 0 143 -74 143 -74v62h111v-478c0 -165 -122 -238 -255 -238c-136 0 -225 90 -225 90l68 92s66 -70 157 -70c93 0 135 51 135 122v57zM393 166v142s-34 66 -113 66
c-81 0 -130 -59 -130 -137s49 -137 130 -137c78 0 113 66 113 66z" />
    <glyph glyph-name="h" unicode="h" horiz-adv-x="562" 
d="M328 486c92 0 174 -65 174 -179v-307h-120v277c0 68 -42 97 -94 97c-62 0 -94 -62 -94 -62v-312h-120v756h120v-339s42 69 134 69z" />
    <glyph glyph-name="i" unicode="i" horiz-adv-x="278" 
d="M79 0v474h120v-474h-120zM60 627c0 44 35 79 79 79s79 -35 79 -79s-35 -79 -79 -79s-79 35 -79 79z" />
    <glyph glyph-name="j" unicode="j" horiz-adv-x="332" 
d="M-35 -211l43 101s31 -20 57 -20s69 6 69 98v506h120v-517c0 -155 -105 -199 -176 -199c-66 0 -113 31 -113 31zM114 627c0 44 35 79 79 79s79 -35 79 -79s-35 -79 -79 -79s-79 35 -79 79z" />
    <glyph glyph-name="k" unicode="k" horiz-adv-x="535" 
d="M194 756v-469l170 187h155l-208 -224l222 -250h-158l-181 207v-207h-120v756h120z" />
    <glyph glyph-name="l" unicode="l" horiz-adv-x="268" 
d="M74 0v756h120v-756h-120z" />
    <glyph glyph-name="m" unicode="m" horiz-adv-x="836" 
d="M610 486c96 0 166 -67 166 -181v-305h-120v274c0 65 -25 100 -85 100c-63 0 -93 -61 -93 -61v-313h-120v274c0 65 -25 100 -85 100c-63 0 -93 -61 -93 -61v-313h-120v474h112v-69s43 81 140 81c114 0 147 -83 147 -83s40 83 151 83z" />
    <glyph glyph-name="n" unicode="n" horiz-adv-x="548" 
d="M314 486c92 0 174 -65 174 -179v-307h-120v277c0 68 -42 97 -94 97c-62 0 -94 -61 -94 -61v-313h-120v474h112v-69s42 81 142 81z" />
    <glyph glyph-name="o" unicode="o" horiz-adv-x="562" 
d="M281 486c141 0 253 -109 253 -249c0 -139 -112 -249 -253 -249s-253 110 -253 249c0 140 112 249 253 249zM281 100c81 0 131 63 131 137s-50 137 -131 137s-131 -63 -131 -137s50 -137 131 -137z" />
    <glyph glyph-name="p" unicode="p" horiz-adv-x="573" 
d="M60 474h111v-62s45 74 143 74c123 0 231 -103 231 -249s-108 -249 -231 -249c-75 0 -118 41 -134 61v-279h-120v704zM180 308v-142s34 -66 113 -66c81 0 130 59 130 137s-49 137 -130 137c-79 0 -113 -66 -113 -66z" />
    <glyph glyph-name="q" unicode="q" horiz-adv-x="573" 
d="M402 474h111v-704h-120v279c-16 -20 -59 -61 -134 -61c-123 0 -231 103 -231 249s108 249 231 249c98 0 143 -74 143 -74v62zM393 166v142s-34 66 -113 66c-81 0 -130 -59 -130 -137s49 -137 130 -137c79 0 113 66 113 66z" />
    <glyph glyph-name="r" unicode="r" horiz-adv-x="387" 
d="M303 486c43 0 82 -15 82 -15l-42 -108s-22 11 -57 11c-73 0 -106 -64 -106 -64v-310h-120v474h114v-69s41 81 129 81z" />
    <glyph glyph-name="s" unicode="s" horiz-adv-x="483" 
d="M30 74l67 87s63 -68 143 -68c49 0 90 14 90 43c0 31 -22 37 -94 52c-94 20 -176 60 -176 150c0 74 74 148 204 148c107 0 178 -58 178 -58l-60 -88s-54 41 -118 41c-45 0 -86 -16 -86 -45s32 -36 112 -53c94 -20 161 -51 161 -149c0 -81 -86 -146 -207 -146
c-139 0 -214 86 -214 86z" />
    <glyph glyph-name="t" unicode="t" horiz-adv-x="416" 
d="M22 366v108h93v141h120v-141h143v-108h-143v-191c0 -58 30 -75 62 -75c27 0 50 17 50 17l44 -98s-45 -31 -114 -31c-92 0 -162 67 -162 168v210h-93z" />
    <glyph glyph-name="u" unicode="u" horiz-adv-x="548" 
d="M234 -12c-91 0 -174 65 -174 179v307h120v-274c0 -70 33 -100 94 -100c62 0 94 58 94 58v316h120v-474h-112v69s-45 -81 -142 -81z" />
    <glyph glyph-name="v" unicode="v" horiz-adv-x="506" 
d="M2 474h133l120 -258l120 258h129l-251 -498z" />
    <glyph glyph-name="w" unicode="w" horiz-adv-x="768" 
d="M4 474h134l98 -243l103 243h101l100 -243l102 243h122l-229 -498l-152 338l-150 -338z" />
    <glyph glyph-name="x" unicode="x" horiz-adv-x="525" 
d="M192 245l-163 229h141l97 -146l95 146h137l-165 -229l175 -245h-143l-107 162l-107 -162h-136z" />
    <glyph glyph-name="y" unicode="y" horiz-adv-x="557" 
d="M20 -192l56 93s32 -31 63 -31c41 0 58 12 81 70l19 49l-231 485h133l160 -347l125 347h129l-230 -580c-41 -104 -108 -136 -178 -136c-72 0 -127 50 -127 50z" />
    <glyph glyph-name="z" unicode="z" horiz-adv-x="495" 
d="M47 474h422l-235 -362h224v-112h-428l235 362h-218v112z" />
    <glyph glyph-name="a.alt" horiz-adv-x="573" 
d="M402 474h111v-474h-111v62s-41 -74 -143 -74c-123 0 -231 103 -231 249s108 249 231 249c99 0 143 -74 143 -74v62zM393 166v142s-35 66 -112 66c-81 0 -131 -59 -131 -137s50 -137 131 -137c77 0 112 66 112 66z" />
    <glyph glyph-name="dollar" unicode="$" 
d="M271 -94v83c-155 13 -230 140 -230 140l93 74s48 -86 137 -101v199c-98 36 -199 92 -199 213c0 92 75 183 199 196v84h63v-84c122 -14 190 -102 190 -102l-90 -75s-37 49 -100 63v-196c3 -2 7 -3 11 -4c107 -40 197 -87 197 -213c0 -115 -93 -182 -208 -193v-84h-63z
M420 183c0 48 -31 72 -86 95v-175c46 8 86 34 86 80zM194 514c0 -43 27 -66 77 -89v171c-46 -10 -77 -43 -77 -82z" />
    <glyph glyph-name="cent" unicode="&#xa2;" 
d="M287 -94v85c-124 17 -217 119 -217 246s93 229 217 246v87h63v-85c110 -11 169 -87 169 -87l-83 -74s-31 38 -86 48v-270c63 10 92 56 92 56l79 -80s-60 -78 -171 -89v-83h-63zM192 237c0 -62 36 -116 95 -132v264c-59 -17 -95 -71 -95 -132z" />
    <glyph glyph-name="sterling" unicode="&#xa3;" 
d="M194 500c0 -38 40 -100 61 -133h185v-84h-143c7 -20 10 -35 10 -59c0 -42 -18 -77 -18 -77c46 -15 75 -47 113 -47c58 0 70 62 70 62l93 -52s-41 -122 -164 -122c-95 0 -114 56 -179 56c-60 0 -85 -64 -85 -64l-92 64s46 90 117 108c11 12 25 45 25 75c0 19 -8 36 -18 56
h-124v84h78c-19 34 -49 87 -49 141c0 92 67 204 232 204c143 0 207 -112 207 -112l-87 -70s-36 70 -120 70c-70 0 -112 -44 -112 -100z" />
    <glyph glyph-name="yen" unicode="&#xa5;" 
d="M25 385v84h96l-130 231h132l171 -313l171 313h124l-130 -231h96v-84h-144l-39 -70h183v-84h-205v-231h-120v231h-205v84h183l-40 70h-143z" />
    <glyph glyph-name="Euro" unicode="&#x20ac;" 
d="M22 385v84h88c43 145 164 243 325 243c65 0 126 -24 126 -24l-36 -102s-38 16 -90 16c-103 0 -168 -55 -200 -133h209v-84h-229c-2 -12 -3 -23 -3 -35s0 -24 2 -35h230v-84h-215c32 -78 98 -131 200 -131c55 0 90 14 90 14l35 -102s-49 -24 -125 -24
c-176 0 -284 98 -327 243h-80v84h76c-1 11 -1 23 -1 35s1 24 2 35h-77z" />
    <glyph glyph-name="euro.alt" horiz-adv-x="739" 
d="M18 385v84h95c47 144 176 243 338 243c108 0 201 -45 266 -117l-85 -75c-43 50 -109 80 -181 80c-95 0 -173 -53 -210 -131h306v-84h-326c-4 -17 -7 -50 -3 -70h287v-84h-269c28 -79 107 -131 202 -131c75 0 149 35 192 88l78 -82c-66 -74 -161 -118 -270 -118
c-163 0 -291 91 -328 243h-92v84h83c0 22 1 47 2 70h-85z" />
    <glyph glyph-name="florin" unicode="&#x192;" 
d="M351 366l-58 -330c-21 -125 -105 -183 -219 -183h-52v112h40c89 0 112 51 122 110l51 291h-90l18 108h90l27 147c18 98 91 147 183 147c52 0 103 -25 103 -25l-45 -103s-21 16 -50 16c-53 0 -74 -29 -82 -74l-20 -108h114l-18 -108h-114z" />
    <glyph glyph-name="currency" unicode="&#xa4;" 
d="M58 323c0 46 13 89 37 126l-71 71l70 70l70 -71c37 24 80 38 127 38c46 0 89 -14 125 -38l71 71l70 -70l-71 -71c24 -36 38 -80 38 -126c0 -47 -14 -90 -38 -127l71 -70l-70 -70l-71 71c-37 -24 -79 -37 -125 -37c-47 0 -90 13 -126 37l-71 -71l-70 70l71 71
c-24 36 -37 79 -37 126zM170 322c0 -67 54 -121 121 -121s121 52 121 121c0 63 -54 122 -121 122s-121 -56 -121 -122z" />
    <glyph glyph-name="section" unicode="&#xa7;" horiz-adv-x="508" 
d="M448 264c0 -83 -63 -133 -104 -152c56 -39 83 -88 83 -151c0 -84 -76 -155 -187 -155c-108 0 -172 81 -172 81l76 79s36 -50 96 -50c39 0 67 27 67 59c0 37 -32 55 -105 97c-75 43 -152 86 -152 182c0 82 63 133 104 151c-56 39 -83 81 -83 142c0 89 76 165 187 165
c110 0 171 -82 171 -82l-79 -74s-32 46 -92 46c-39 0 -67 -27 -67 -59c0 -37 32 -55 105 -97c75 -43 152 -86 152 -182zM249 172l5 -3c34 5 74 34 74 79c0 39 -7 59 -79 98l-5 2c-34 -4 -74 -33 -74 -78c0 -39 7 -59 79 -98z" />
    <glyph glyph-name="copyright" unicode="&#xa9;" horiz-adv-x="819" 
d="M48 350c0 200 162 362 362 362s361 -162 361 -362s-161 -362 -361 -362s-362 162 -362 362zM134 350c0 -151 125 -276 276 -276s275 125 275 276s-124 276 -275 276s-276 -125 -276 -276zM418 241c64 0 93 46 93 46l62 -63s-54 -71 -155 -71c-112 0 -202 87 -202 197
s90 197 202 197c101 0 154 -70 154 -70l-66 -59s-31 40 -88 40c-64 0 -105 -50 -105 -108c0 -59 41 -109 105 -109z" />
    <glyph glyph-name="registered" unicode="&#xae;" horiz-adv-x="425" 
d="M137 417v190h98c38 0 63 -28 63 -62c0 -28 -17 -50 -43 -58l50 -70h-60l-40 61h-14v-61h-54zM211 524c18 0 35 1 35 21s-17 21 -35 21h-20v-42h20zM5 510c0 116 93 210 208 210c116 0 210 -94 210 -210c0 -115 -94 -208 -210 -208c-115 0 -208 93 -208 208zM70 510
c0 -79 64 -143 143 -143s144 64 144 143s-65 144 -144 144s-143 -65 -143 -144z" />
    <glyph glyph-name="trademark" unicode="&#x2122;" horiz-adv-x="805" 
d="M124 330v287h-103v83h293v-83h-103v-287h-87zM359 700h84l115 -184l114 184h81v-370h-87v216l-110 -173l-110 173v-216h-87v370z" />
    <glyph glyph-name="ordfeminine" unicode="&#xaa;" horiz-adv-x="325" 
d="M147 464c44 0 70 36 70 36v22s-29 16 -69 16c-23 0 -52 -8 -52 -37c0 -28 28 -37 51 -37zM159 712c86 0 133 -47 133 -111v-195h-70v39s-30 -46 -98 -46c-51 0 -106 36 -106 99c0 59 49 99 114 99c55 0 85 -26 85 -26v19c0 34 -36 49 -66 49c-43 0 -86 -21 -86 -21
l-25 66s49 28 119 28z" />
    <glyph glyph-name="ordmasculine" unicode="&#xba;" horiz-adv-x="357" 
d="M22 555c0 87 70 157 157 157s157 -70 157 -157s-70 -157 -157 -157s-157 70 -157 157zM108 555c0 -39 32 -71 71 -71s71 32 71 71s-32 71 -71 71s-71 -32 -71 -71z" />
    <glyph glyph-name="slash" unicode="/" horiz-adv-x="520" 
d="M502 757l-400 -898l-96 43l400 898z" />
    <glyph glyph-name="backslash" unicode="\" horiz-adv-x="520" 
d="M418 -141l-400 898l96 43l400 -898z" />
    <glyph glyph-name="bar" unicode="|" horiz-adv-x="260" 
d="M72 -230v970h116v-970h-116z" />
    <glyph glyph-name="brokenbar" unicode="&#xa6;" horiz-adv-x="260" 
d="M72 350v390h116v-390h-116zM72 -230v390h116v-390h-116z" />
    <glyph glyph-name="bracketleft" unicode="[" horiz-adv-x="330" 
d="M184 660v-794h114v-96h-224v986h224v-96h-114z" />
    <glyph glyph-name="bracketright" unicode="]" horiz-adv-x="330" 
d="M146 -134v794h-114v96h224v-986h-224v96h114z" />
    <glyph glyph-name="parenleft" unicode="(" horiz-adv-x="312" 
d="M166 295c0 -236 128 -405 128 -405l-98 -60s-148 195 -148 465s148 464 148 464l98 -59s-128 -169 -128 -405z" />
    <glyph glyph-name="parenright" unicode=")" horiz-adv-x="312" 
d="M146 295c0 236 -128 405 -128 405l98 59s148 -194 148 -464s-148 -465 -148 -465l-98 60s128 169 128 405z" />
    <glyph glyph-name="braceleft" unicode="{" horiz-adv-x="350" 
d="M314 756v-108c-40 0 -68 -8 -68 -74v-186c0 -105 -49 -126 -99 -128v-4c50 -2 99 -23 99 -128v-176c0 -66 28 -74 68 -74v-108h-54c-78 0 -134 55 -134 135v208c0 90 -50 101 -100 101v88c50 0 100 11 100 101v218c0 80 56 135 134 135h54z" />
    <glyph glyph-name="braceright" unicode="}" horiz-adv-x="350" 
d="M36 648v108h54c78 0 134 -55 134 -135v-218c0 -90 50 -101 100 -101v-88c-50 0 -100 -11 -100 -101v-208c0 -80 -56 -135 -134 -135h-54v108c40 0 68 8 68 74v176c0 105 49 126 99 128v4c-50 2 -99 23 -99 128v186c0 66 -28 74 -68 74z" />
    <glyph glyph-name="guilsinglleft" unicode="&#x2039;" horiz-adv-x="322" 
d="M9 245l183 236l82 -63l-138 -173l138 -173l-82 -63z" />
    <glyph glyph-name="guilsinglright" unicode="&#x203a;" horiz-adv-x="322" 
d="M136 481l183 -236l-183 -236l-82 63l138 173l-138 173z" />
    <glyph glyph-name="guillemotleft" unicode="&#xab;" horiz-adv-x="529" 
d="M6 245l183 236l82 -63l-138 -173l138 -173l-82 -63zM221 245l183 236l82 -63l-138 -173l138 -173l-82 -63z" />
    <glyph glyph-name="guillemotright" unicode="&#xbb;" horiz-adv-x="529" 
d="M340 481l183 -236l-183 -236l-82 63l138 173l-138 173zM125 481l183 -236l-183 -236l-82 63l138 173l-138 173z" />
    <glyph glyph-name="quotesingle" unicode="'" horiz-adv-x="186" 
d="M40 454v246h106v-246h-106z" />
    <glyph glyph-name="quotedbl" unicode="&#x22;" horiz-adv-x="400" 
d="M60 452v248h106v-248h-106zM234 452v248h106v-248h-106z" />
    <glyph glyph-name="quotesinglbase" unicode="&#x201a;" horiz-adv-x="186" 
d="M40 -140v248h106v-248h-106z" />
    <glyph glyph-name="quoteleft" unicode="&#x2018;" horiz-adv-x="186" 
d="M40 454v246h106v-246h-106z" />
    <glyph glyph-name="quoteright" unicode="&#x2019;" horiz-adv-x="186" 
d="M40 454v246h106v-246h-106z" />
    <glyph glyph-name="quotedblbase" unicode="&#x201e;" horiz-adv-x="400" 
d="M60 -140v248h106v-248h-106zM234 -140v248h106v-248h-106z" />
    <glyph glyph-name="quotedblleft" unicode="&#x201c;" horiz-adv-x="400" 
d="M60 452v248h106v-248h-106zM234 452v248h106v-248h-106z" />
    <glyph glyph-name="quotedblright" unicode="&#x201d;" horiz-adv-x="400" 
d="M60 452v248h106v-248h-106zM234 452v248h106v-248h-106z" />
    <glyph glyph-name="periodcentered" unicode="&#xb7;" horiz-adv-x="262" 
d="M52 350c0 44 35 79 79 79s79 -35 79 -79s-35 -79 -79 -79s-79 35 -79 79z" />
    <glyph glyph-name="bullet" unicode="&#x2022;" horiz-adv-x="500" 
d="M106 350c0 79 65 144 144 144s144 -65 144 -144s-65 -144 -144 -144s-144 65 -144 144z" />
    <glyph glyph-name="bullet.alt" horiz-adv-x="500" 
d="M40 350c0 116 94 210 210 210s210 -94 210 -210s-94 -210 -210 -210s-210 94 -210 210z" />
    <glyph glyph-name="paragraph.alt" horiz-adv-x="589" 
d="M24 513c0 103 84 187 187 187h304v-700h-102v598h-100v-598h-102v326c-103 0 -187 84 -187 187z" />
    <glyph glyph-name="paragraph" unicode="&#xb6;" horiz-adv-x="672" 
d="M386 598v-786h-112v414c-131 0 -238 105 -238 236s107 238 238 238h324v-888h-112v786h-100z" />
    <glyph glyph-name="fj" horiz-adv-x="582" 
d="M16 368v106h94v111c0 117 89 183 201 183c130 0 197 -83 197 -167v-11c0 -33 -28 -59 -61 -59s-59 25 -59 59v7c0 37 -32 63 -77 63c-40 0 -81 -27 -81 -85v-101h97v-106h-97v-368h-120v368h-94zM220 -211l44 100s27 -19 49 -19c32 0 75 6 75 98v506h120v-517
c0 -155 -105 -199 -176 -199c-33 0 -72 7 -112 31z" />
    <glyph glyph-name="ft" horiz-adv-x="689" 
d="M222 585v-111h166v129h120v-129h143v-106h-143v-193c0 -60 31 -75 63 -75c27 0 50 17 50 17l43 -98s-45 -31 -114 -31c-92 0 -162 60 -162 166v214h-166v-368h-120v368h-86v106h86v114c0 132 93 180 170 180c66 0 105 -25 105 -25l-45 -99s-17 14 -48 14
c-23 0 -62 -12 -62 -73z" />
    <glyph glyph-name="germandbls" unicode="&#xdf;" horiz-adv-x="601" 
d="M64 0v543c0 137 94 225 234 225c110 0 218 -70 218 -212c0 -105 -83 -140 -83 -140s132 -20 132 -190c0 -174 -122 -238 -282 -238h-20v112h15c122 0 165 56 165 126s-39 126 -172 126v106c113 0 123 70 123 99c0 39 -30 97 -98 97c-70 0 -112 -43 -112 -111v-543h-120z
" />
    <glyph glyph-name="dieresis" unicode="&#xa8;" horiz-adv-x="392" 
d="M14 621c0 44 35 79 79 79s79 -35 79 -79s-35 -79 -79 -79s-79 35 -79 79zM220 621c0 44 35 79 79 79s79 -35 79 -79s-35 -79 -79 -79s-79 35 -79 79z" />
    <glyph glyph-name="acute" unicode="&#xb4;" horiz-adv-x="272" 
d="M191 753l81 -79l-175 -168l-77 73z" />
    <glyph glyph-name="grave" unicode="`" horiz-adv-x="272" 
d="M0 675l81 79l171 -174l-77 -73z" />
    <glyph glyph-name="circumflex" unicode="&#x2c6;" horiz-adv-x="424" 
d="M26 596l186 134l186 -134l-66 -82l-120 91l-122 -91z" />
    <glyph glyph-name="caron" unicode="&#x2c7;" horiz-adv-x="424" 
d="M212 513l-186 134l66 82l120 -91l120 91l66 -82z" />
    <glyph glyph-name="breve" unicode="&#x2d8;" horiz-adv-x="410" 
d="M26 700h108s-1 -72 71 -72s71 72 71 72h108s1 -164 -179 -164s-179 164 -179 164z" />
    <glyph glyph-name="dotaccent" unicode="&#x2d9;" horiz-adv-x="240" 
d="M41 623c0 44 35 79 79 79s79 -35 79 -79s-35 -79 -79 -79s-79 35 -79 79z" />
    <glyph glyph-name="ring" unicode="&#x2da;" horiz-adv-x="256" 
d="M6 643c0 66 56 120 122 120s122 -54 122 -120s-56 -120 -122 -120s-122 54 -122 120zM74 643c0 -30 24 -54 54 -54s54 24 54 54s-24 54 -54 54s-54 -24 -54 -54z" />
    <glyph glyph-name="cedilla" unicode="&#xb8;" horiz-adv-x="315" 
d="M241 -57l-68 -214l-111 32l72 194z" />
    <glyph glyph-name="ogonek" unicode="&#x2db;" horiz-adv-x="256" 
d="M85 0h111s-89 -29 -89 -80c0 -28 19 -47 51 -47c21 0 38 7 38 7v-95c-16 -5 -31 -8 -51 -8c-82 0 -131 57 -131 114c0 77 71 109 71 109z" />
    <glyph glyph-name="tilde" unicode="&#x2dc;" horiz-adv-x="425" 
d="M93 537l-84 61s35 104 134 104c59 0 99 -58 137 -58c43 0 54 65 54 65l82 -65s-33 -106 -130 -106c-58 0 -99 57 -137 57c-43 0 -56 -58 -56 -58z" />
    <glyph glyph-name="hungarumlaut" unicode="&#x2dd;" horiz-adv-x="382" 
d="M127 745l84 -54l-128 -177l-76 47zM296 745l84 -54l-128 -177l-76 47z" />
    <glyph glyph-name="macron" unicode="&#xaf;" horiz-adv-x="334" 
d="M6 572v108h322v-108h-322z" />
    <glyph glyph-name="logicalnot" unicode="&#xac;" horiz-adv-x="674" 
d="M18 394v114h600v-316h-118v202h-482z" />
    <glyph glyph-name="Delta" unicode="&#x394;" horiz-adv-x="836" 
d="M4 0l414 756l414 -756h-828zM191 114h454l-227 414z" />
    <glyph glyph-name="Delta" unicode="&#x2206;" horiz-adv-x="836" 
d="M4 0l414 756l414 -756h-828zM191 114h454l-227 414z" />
    <glyph glyph-name="Omega" unicode="&#x3a9;" horiz-adv-x="788" 
d="M394 712c188 0 351 -142 351 -349c0 -115 -59 -201 -138 -249h113v-114h-259v114c96 34 162 136 162 249c0 135 -91 239 -229 239s-229 -104 -229 -239c0 -113 65 -215 162 -249v-114h-259v114h113c-80 48 -138 134 -138 249c0 207 163 349 351 349z" />
    <glyph glyph-name="Omega" unicode="&#x2126;" horiz-adv-x="788" 
d="M394 712c188 0 351 -142 351 -349c0 -115 -59 -201 -138 -249h113v-114h-259v114c96 34 162 136 162 249c0 135 -91 239 -229 239s-229 -104 -229 -239c0 -113 65 -215 162 -249v-114h-259v114h113c-80 48 -138 134 -138 249c0 207 163 349 351 349z" />
    <glyph glyph-name="mu" unicode="&#xb5;" horiz-adv-x="548" 
d="M234 -12c-19 0 -37 3 -54 8v-226h-120v704h120v-274c0 -70 33 -100 94 -100c62 0 94 58 94 58v316h120v-474h-112v69s-45 -81 -142 -81z" />
    <glyph glyph-name="mu" unicode="&#x3bc;" horiz-adv-x="548" 
d="M234 -12c-19 0 -37 3 -54 8v-226h-120v704h120v-274c0 -70 33 -100 94 -100c62 0 94 58 94 58v316h120v-474h-112v69s-45 -81 -142 -81z" />
    <glyph glyph-name="pi" unicode="&#x3c0;" horiz-adv-x="571" 
d="M320 138v222h-90v-360h-120v360h-84v114h513v-114h-99v-207c0 -36 16 -53 42 -53c22 0 32 10 32 10l39 -99c-29 -17 -65 -23 -88 -23c-59 0 -145 34 -145 150z" />
    <glyph glyph-name="partialdiff" unicode="&#x2202;" horiz-adv-x="544" 
d="M272 486c34 0 75 -10 99 -23c-79 131 -290 170 -290 170l25 100s418 -48 418 -443v-13c0 -142 -70 -289 -252 -289c-147 0 -252 110 -252 249c0 140 105 249 252 249zM272 100c80 0 130 63 130 137s-50 137 -130 137s-130 -63 -130 -137s50 -137 130 -137z" />
    <glyph glyph-name="product" unicode="&#x220f;" horiz-adv-x="707" 
d="M635 700v-930h-120v816h-323v-816h-120v930h563z" />
    <glyph glyph-name="summation" unicode="&#x2211;" horiz-adv-x="738" 
d="M24 -230l325 466l-323 464h664v-114h-437l244 -350l-247 -352h440v-114h-666z" />
    <glyph glyph-name="radical" unicode="&#x221a;" horiz-adv-x="625" 
d="M318 257l224 703h114l-316 -980l-199 380h-111v114h176z" />
    <glyph glyph-name="infinity" unicode="&#x221e;" horiz-adv-x="838" 
d="M726 252c0 60 -49 101 -103 101c-64 0 -116 -70 -145 -101c29 -31 81 -101 145 -101c54 0 103 41 103 101zM112 252c0 -60 49 -101 103 -101c64 0 116 70 145 101c-29 31 -81 101 -145 101c-54 0 -103 -41 -103 -101zM25 252c0 48 17 96 53 132c39 38 88 57 137 57
s102 -25 140 -63l64 -66l64 66c38 38 91 63 140 63s98 -19 137 -57c36 -36 53 -84 53 -132s-17 -96 -53 -132c-39 -38 -88 -57 -137 -57s-102 25 -140 63l-64 66l-64 -66c-38 -38 -91 -63 -140 -63s-98 19 -137 57c-36 36 -53 84 -53 132z" />
    <glyph glyph-name="integral" unicode="&#x222b;" horiz-adv-x="418" 
d="M269 592v-663c0 -115 -75 -171 -161 -171c-60 0 -108 30 -108 30l46 98s21 -16 46 -16c35 0 57 22 57 64v665c0 115 74 169 160 169c60 0 107 -30 107 -30l-45 -98s-21 16 -46 16c-35 0 -56 -22 -56 -64z" />
    <glyph glyph-name="lozenge" unicode="&#x25ca;" horiz-adv-x="488" 
d="M244 169l121 188l-121 180l-124 -180zM2 357l242 355l242 -355l-242 -369z" />
    <glyph glyph-name="asterisk" unicode="*" horiz-adv-x="398" 
d="M199 453l-74 -105l-69 49l77 105l-127 40l27 79l124 -41v132h84v-132l124 41l27 -79l-127 -40l77 -105l-69 -49z" />
    <glyph glyph-name="asciicircum" unicode="^" horiz-adv-x="537" 
d="M10 350l206 406h105l206 -406h-125l-133 274l-135 -274h-124z" />
    <glyph glyph-name="degree" unicode="&#xb0;" horiz-adv-x="357" 
d="M22 555c0 87 69 157 156 157s157 -70 157 -157s-70 -156 -157 -156s-156 69 -156 156zM108 555c0 -40 32 -71 71 -71s71 31 71 71s-32 71 -71 71s-71 -31 -71 -71z" />
    <glyph glyph-name="dagger" unicode="&#x2020;" horiz-adv-x="520" 
d="M63 412v114h136v174h120v-174h138v-114h-138v-492h-120v492h-136z" />
    <glyph glyph-name="daggerdbl" unicode="&#x2021;" horiz-adv-x="520" 
d="M63 94v114h136v204h-136v114h136v174h120v-174h138v-114h-138v-204h138v-114h-138v-174h-120v174h-136z" />
    <glyph glyph-name="plus" unicode="+" horiz-adv-x="520" 
d="M497 302v-112h-177v-190h-120v190h-177v112h177v184h120v-184h177z" />
    <glyph glyph-name="plusminus" unicode="&#xb1;" horiz-adv-x="520" 
d="M38 0v102h444v-102h-444zM38 269v102h167v130h110v-130h167v-102h-167v-123h-110v123h-167z" />
    <glyph glyph-name="minus" unicode="&#x2212;" horiz-adv-x="520" 
d="M35 190v112h450v-112h-450z" />
    <glyph glyph-name="divide" unicode="&#xf7;" horiz-adv-x="520" 
d="M180 67c0 44 35 79 79 79s79 -35 79 -79s-35 -79 -79 -79s-79 35 -79 79zM180 407c0 44 35 79 79 79s79 -35 79 -79s-35 -79 -79 -79s-79 35 -79 79zM35 182v110h450v-110h-450z" />
    <glyph glyph-name="multiply" unicode="&#xd7;" horiz-adv-x="520" 
d="M107 24l-78 78l153 153l-153 153l78 78l153 -153l153 153l78 -78l-153 -153l153 -153l-78 -78l-153 153z" />
    <glyph glyph-name="equal" unicode="=" horiz-adv-x="520" 
d="M45 116v110h430v-110h-430zM45 302v110h430v-110h-430z" />
    <glyph glyph-name="notequal" unicode="&#x2260;" horiz-adv-x="520" 
d="M431 659l54 -31l-116 -219h103v-110h-162l-37 -70h199v-110h-257l-126 -238l-54 31l109 207h-102v110h161l37 70h-198v110h256z" />
    <glyph glyph-name="approxequal" unicode="&#x2248;" horiz-adv-x="520" 
d="M117 276l-72 63s36 89 125 89c56 0 110 -50 149 -50c57 0 65 54 65 54l72 -65s-39 -92 -132 -92c-54 0 -113 49 -152 49c-45 0 -55 -48 -55 -48zM137 92l-72 63s35 89 124 89c53 0 111 -50 150 -50c57 0 65 54 65 54l72 -65s-39 -92 -132 -92c-57 0 -112 49 -151 49
c-45 0 -56 -48 -56 -48z" />
    <glyph glyph-name="less" unicode="&#x3c;" horiz-adv-x="520" 
d="M18 221v100l462 197v-123l-303 -124l303 -125v-123z" />
    <glyph glyph-name="greater" unicode="&#x3e;" horiz-adv-x="520" 
d="M506 321v-100l-462 -198v123l303 125l-303 124v123z" />
    <glyph glyph-name="lessequal" unicode="&#x2264;" horiz-adv-x="520" 
d="M19 0v102h462v-102h-462zM19 343v84l462 197v-115l-303 -124l303 -125v-115z" />
    <glyph glyph-name="greaterequal" unicode="&#x2265;" horiz-adv-x="520" 
d="M504 102v-102h-462v102h462zM504 427v-84l-462 -198v115l303 125l-303 124v115z" />
    <glyph glyph-name="Agrave" unicode="&#xc0;" horiz-adv-x="678" 
d="M6 0l272 700h122l272 -700h-121l-64 166h-296l-64 -166h-121zM339 549l-105 -273h210zM191 913l81 79l171 -174l-77 -73z" />
    <glyph glyph-name="agrave" unicode="&#xe0;" horiz-adv-x="536" 
d="M246 88c72 0 110 55 110 55v49s-43 24 -108 24c-37 0 -88 -16 -88 -67c0 -50 49 -61 86 -61zM260 486c136 0 216 -69 216 -177v-309h-111v60s-49 -72 -156 -72c-89 0 -171 58 -171 159c0 91 83 157 186 157c87 0 132 -34 132 -34v27c0 62 -60 82 -102 82
c-69 0 -142 -35 -142 -35l-39 99s88 43 187 43zM133 704l81 79l171 -174l-77 -73z" />
    <glyph glyph-name="agrave.alt" horiz-adv-x="573" 
d="M402 474h111v-474h-111v62s-41 -74 -143 -74c-123 0 -231 103 -231 249s108 249 231 249c99 0 143 -74 143 -74v62zM393 166v142s-35 66 -112 66c-81 0 -131 -59 -131 -137s50 -137 131 -137c77 0 112 66 112 66zM149 704l81 79l171 -174l-77 -73z" />
    <glyph glyph-name="Aacute" unicode="&#xc1;" horiz-adv-x="678" 
d="M6 0l272 700h122l272 -700h-121l-64 166h-296l-64 -166h-121zM339 549l-105 -273h210zM409 991l81 -79l-175 -168l-77 73z" />
    <glyph glyph-name="aacute" unicode="&#xe1;" horiz-adv-x="536" 
d="M344 783l81 -79l-175 -168l-77 73zM246 88c72 0 110 55 110 55v49s-43 24 -108 24c-37 0 -88 -16 -88 -67c0 -50 49 -61 86 -61zM260 486c136 0 216 -69 216 -177v-309h-111v60s-49 -72 -156 -72c-89 0 -171 58 -171 159c0 91 83 157 186 157c87 0 132 -34 132 -34v27
c0 62 -60 82 -102 82c-69 0 -142 -35 -142 -35l-39 99s88 43 187 43z" />
    <glyph glyph-name="aacute.alt" horiz-adv-x="573" 
d="M350 783l81 -79l-175 -168l-77 73zM402 474h111v-474h-111v62s-41 -74 -143 -74c-123 0 -231 103 -231 249s108 249 231 249c99 0 143 -74 143 -74v62zM393 166v142s-35 66 -112 66c-81 0 -131 -59 -131 -137s50 -137 131 -137c77 0 112 66 112 66z" />
    <glyph glyph-name="Acircumflex" unicode="&#xc2;" horiz-adv-x="678" 
d="M6 0l272 700h122l272 -700h-121l-64 166h-296l-64 -166h-121zM339 549l-105 -273h210zM153 824l186 134l186 -134l-66 -82l-120 91l-122 -91z" />
    <glyph glyph-name="acircumflex" unicode="&#xe2;" horiz-adv-x="536" 
d="M246 88c72 0 110 55 110 55v49s-43 24 -108 24c-37 0 -88 -16 -88 -67c0 -50 49 -61 86 -61zM260 486c136 0 216 -69 216 -177v-309h-111v60s-49 -72 -156 -72c-89 0 -171 58 -171 159c0 91 83 157 186 157c87 0 132 -34 132 -34v27c0 62 -60 82 -102 82
c-69 0 -142 -35 -142 -35l-39 99s88 43 187 43zM99 606l186 134l186 -134l-66 -82l-120 91l-122 -91z" />
    <glyph glyph-name="acircumflex.alt" horiz-adv-x="573" 
d="M402 474h111v-474h-111v62s-41 -74 -143 -74c-123 0 -231 103 -231 249s108 249 231 249c99 0 143 -74 143 -74v62zM393 166v142s-35 66 -112 66c-81 0 -131 -59 -131 -137s50 -137 131 -137c77 0 112 66 112 66zM106 606l186 134l186 -134l-66 -82l-120 91l-122 -91z
" />
    <glyph glyph-name="Atilde" unicode="&#xc3;" horiz-adv-x="678" 
d="M6 0l272 700h122l272 -700h-121l-64 166h-296l-64 -166h-121zM339 549l-105 -273h210zM220 775l-84 61s35 104 134 104c59 0 99 -58 137 -58c43 0 54 65 54 65l82 -65s-33 -106 -130 -106c-58 0 -99 57 -137 57c-43 0 -56 -58 -56 -58z" />
    <glyph glyph-name="atilde" unicode="&#xe3;" horiz-adv-x="536" 
d="M246 88c72 0 110 55 110 55v49s-43 24 -108 24c-37 0 -88 -16 -88 -67c0 -50 49 -61 86 -61zM260 486c136 0 216 -69 216 -177v-309h-111v60s-49 -72 -156 -72c-89 0 -171 58 -171 159c0 91 83 157 186 157c87 0 132 -34 132 -34v27c0 62 -60 82 -102 82
c-69 0 -142 -35 -142 -35l-39 99s88 43 187 43zM150 554l-84 61s35 104 134 104c59 0 99 -58 137 -58c43 0 54 65 54 65l82 -65s-33 -106 -130 -106c-58 0 -99 57 -137 57c-43 0 -56 -58 -56 -58z" />
    <glyph glyph-name="atilde.alt" horiz-adv-x="573" 
d="M402 474h111v-474h-111v62s-41 -74 -143 -74c-123 0 -231 103 -231 249s108 249 231 249c99 0 143 -74 143 -74v62zM393 166v142s-35 66 -112 66c-81 0 -131 -59 -131 -137s50 -137 131 -137c77 0 112 66 112 66zM157 554l-84 61s35 104 134 104c59 0 99 -58 137 -58
c43 0 54 65 54 65l82 -65s-33 -106 -130 -106c-58 0 -99 57 -137 57c-43 0 -56 -58 -56 -58z" />
    <glyph glyph-name="Adieresis" unicode="&#xc4;" horiz-adv-x="678" 
d="M6 0l272 700h122l272 -700h-121l-64 166h-296l-64 -166h-121zM339 549l-105 -273h210zM157 859c0 44 35 79 79 79s79 -35 79 -79s-35 -79 -79 -79s-79 35 -79 79zM363 859c0 44 35 79 79 79s79 -35 79 -79s-35 -79 -79 -79s-79 35 -79 79z" />
    <glyph glyph-name="adieresis" unicode="&#xe4;" horiz-adv-x="536" 
d="M246 88c72 0 110 55 110 55v49s-43 24 -108 24c-37 0 -88 -16 -88 -67c0 -50 49 -61 86 -61zM260 486c136 0 216 -69 216 -177v-309h-111v60s-49 -72 -156 -72c-89 0 -171 58 -171 159c0 91 83 157 186 157c87 0 132 -34 132 -34v27c0 62 -60 82 -102 82
c-69 0 -142 -35 -142 -35l-39 99s88 43 187 43zM95 631c0 44 35 79 79 79s79 -35 79 -79s-35 -79 -79 -79s-79 35 -79 79zM301 631c0 44 35 79 79 79s79 -35 79 -79s-35 -79 -79 -79s-79 35 -79 79z" />
    <glyph glyph-name="adieresis.alt" horiz-adv-x="573" 
d="M402 474h111v-474h-111v62s-41 -74 -143 -74c-123 0 -231 103 -231 249s108 249 231 249c99 0 143 -74 143 -74v62zM393 166v142s-35 66 -112 66c-81 0 -131 -59 -131 -137s50 -137 131 -137c77 0 112 66 112 66zM109 631c0 44 35 79 79 79s79 -35 79 -79
s-35 -79 -79 -79s-79 35 -79 79zM315 631c0 44 35 79 79 79s79 -35 79 -79s-35 -79 -79 -79s-79 35 -79 79z" />
    <glyph glyph-name="Aring" unicode="&#xc5;" horiz-adv-x="678" 
d="M6 0l272 700h122l272 -700h-121l-64 166h-296l-64 -166h-121zM339 549l-105 -273h210zM217 863c0 66 56 120 122 120s122 -54 122 -120s-56 -120 -122 -120s-122 54 -122 120zM285 863c0 -30 24 -54 54 -54s54 24 54 54s-24 54 -54 54s-54 -24 -54 -54z" />
    <glyph glyph-name="aring" unicode="&#xe5;" horiz-adv-x="536" 
d="M246 88c72 0 110 55 110 55v49s-43 24 -108 24c-37 0 -88 -16 -88 -67c0 -50 49 -61 86 -61zM260 486c136 0 216 -69 216 -177v-309h-111v60s-49 -72 -156 -72c-89 0 -171 58 -171 159c0 91 83 157 186 157c87 0 132 -34 132 -34v27c0 62 -60 82 -102 82
c-69 0 -142 -35 -142 -35l-39 99s88 43 187 43zM146 647c0 66 56 120 122 120s122 -54 122 -120s-56 -120 -122 -120s-122 54 -122 120zM214 647c0 -30 24 -54 54 -54s54 24 54 54s-24 54 -54 54s-54 -24 -54 -54z" />
    <glyph glyph-name="aring.alt" horiz-adv-x="573" 
d="M402 474h111v-474h-111v62s-41 -74 -143 -74c-123 0 -231 103 -231 249s108 249 231 249c99 0 143 -74 143 -74v62zM393 166v142s-35 66 -112 66c-81 0 -131 -59 -131 -137s50 -137 131 -137c77 0 112 66 112 66zM164 648c0 66 56 120 122 120s122 -54 122 -120
s-56 -120 -122 -120s-122 54 -122 120zM232 648c0 -30 24 -54 54 -54s54 24 54 54s-24 54 -54 54s-54 -24 -54 -54z" />
    <glyph glyph-name="Amacron" unicode="&#x100;" horiz-adv-x="678" 
d="M6 0l272 700h122l272 -700h-121l-64 166h-296l-64 -166h-121zM339 549l-105 -273h210zM178 790v108h322v-108h-322z" />
    <glyph glyph-name="amacron" unicode="&#x101;" horiz-adv-x="536" 
d="M246 88c72 0 110 55 110 55v49s-43 24 -108 24c-37 0 -88 -16 -88 -67c0 -50 49 -61 86 -61zM260 486c136 0 216 -69 216 -177v-309h-111v60s-49 -72 -156 -72c-89 0 -171 58 -171 159c0 91 83 157 186 157c87 0 132 -34 132 -34v27c0 62 -60 82 -102 82
c-69 0 -142 -35 -142 -35l-39 99s88 43 187 43zM110 567v108h322v-108h-322z" />
    <glyph glyph-name="amacron.alt" horiz-adv-x="573" 
d="M402 474h111v-474h-111v62s-41 -74 -143 -74c-123 0 -231 103 -231 249s108 249 231 249c99 0 143 -74 143 -74v62zM393 166v142s-35 66 -112 66c-81 0 -131 -59 -131 -137s50 -137 131 -137c77 0 112 66 112 66zM125 567v108h322v-108h-322z" />
    <glyph glyph-name="Abreve" unicode="&#x102;" horiz-adv-x="678" 
d="M6 0l272 700h122l272 -700h-121l-64 166h-296l-64 -166h-121zM339 549l-105 -273h210zM160 918h108s-1 -72 71 -72s71 72 71 72h108s1 -164 -179 -164s-179 164 -179 164z" />
    <glyph glyph-name="abreve" unicode="&#x103;" horiz-adv-x="536" 
d="M246 88c72 0 110 55 110 55v49s-43 24 -108 24c-37 0 -88 -16 -88 -67c0 -50 49 -61 86 -61zM260 486c136 0 216 -69 216 -177v-309h-111v60s-49 -72 -156 -72c-89 0 -171 58 -171 159c0 91 83 157 186 157c87 0 132 -34 132 -34v27c0 62 -60 82 -102 82
c-69 0 -142 -35 -142 -35l-39 99s88 43 187 43zM89 712h108s-1 -72 71 -72s71 72 71 72h108s1 -164 -179 -164s-179 164 -179 164z" />
    <glyph glyph-name="abreve.alt" horiz-adv-x="573" 
d="M402 474h111v-474h-111v62s-41 -74 -143 -74c-123 0 -231 103 -231 249s108 249 231 249c99 0 143 -74 143 -74v62zM393 166v142s-35 66 -112 66c-81 0 -131 -59 -131 -137s50 -137 131 -137c77 0 112 66 112 66zM107 712h108s-1 -72 71 -72s71 72 71 72h108
s1 -164 -179 -164s-179 164 -179 164z" />
    <glyph glyph-name="Aogonek" unicode="&#x104;" horiz-adv-x="678" 
d="M6 0l272 700h122l272 -700s-99 -17 -99 -78c0 -28 19 -49 51 -49c21 0 38 7 38 7v-95c-16 -5 -31 -8 -51 -8c-82 0 -131 59 -131 116c0 78 57 112 67 118l-60 155h-296l-64 -166h-121zM339 549l-105 -273h210z" />
    <glyph glyph-name="aogonek" unicode="&#x105;" horiz-adv-x="536" 
d="M260 486c136 0 216 -79 216 -177v-309s-89 -27 -89 -78c0 -28 19 -49 51 -49c21 0 38 7 38 7v-95c-16 -5 -31 -8 -51 -8c-82 0 -131 59 -131 116c0 83 71 117 71 117v50s-49 -72 -156 -72c-82 0 -171 58 -171 159c0 94 80 157 183 157c89 0 135 -34 135 -34v27
c0 62 -66 82 -108 82c-74 0 -132 -38 -132 -38l-45 94s70 51 189 51zM246 88c72 0 110 55 110 55v51s-43 22 -108 22c-37 0 -88 -13 -88 -64c0 -50 49 -64 86 -64z" />
    <glyph glyph-name="aogonek.alt" horiz-adv-x="573" 
d="M402 474h111v-474s-89 -27 -89 -78c0 -28 19 -49 51 -49c21 0 38 7 38 7v-95c-16 -5 -31 -8 -51 -8c-82 0 -131 59 -131 116c0 83 71 117 71 117v52s-41 -74 -143 -74c-123 0 -231 103 -231 249s108 249 231 249c99 0 143 -74 143 -74v62zM393 166v142s-35 66 -112 66
c-81 0 -131 -59 -131 -137s50 -137 131 -137c77 0 112 66 112 66z" />
    <glyph glyph-name="AE" unicode="&#xc6;" horiz-adv-x="915" 
d="M493 605l-206 -348h206v348zM613 588v-172h230v-114h-230v-190h260v-112h-380v143h-272l-85 -143h-130l413 700h448v-112h-254z" />
    <glyph glyph-name="ae" unicode="&#xe6;" horiz-adv-x="865" 
d="M602 486c137 0 235 -101 235 -247c0 -9 0 -26 -1 -44h-351c9 -42 57 -97 132 -97c83 0 130 48 130 48l60 -90s-75 -68 -190 -68c-84 0 -155 37 -201 92c-39 -52 -94 -92 -193 -92c-106 0 -185 64 -185 150c0 79 49 142 177 142h149c0 61 -68 96 -123 96
c-73 0 -130 -42 -130 -42l-53 94s79 58 188 58c102 0 158 -52 179 -80c43 49 105 80 177 80zM485 280h233c-2 41 -37 97 -116 97c-77 0 -113 -55 -117 -97zM239 94c87 0 130 47 130 100h-137c-52 0 -74 -19 -74 -50c0 -42 46 -50 81 -50z" />
    <glyph glyph-name="Cacute" unicode="&#x106;" horiz-adv-x="676" 
d="M389 100c123 0 189 86 189 86l80 -79s-92 -119 -269 -119c-202 0 -355 155 -355 362s153 362 355 362c168 0 259 -110 259 -110l-81 -79s-63 77 -178 77c-138 0 -233 -115 -233 -250s95 -250 233 -250zM457 991l81 -79l-175 -168l-77 73z" />
    <glyph glyph-name="cacute" unicode="&#x107;" horiz-adv-x="494" 
d="M337 773l81 -79l-175 -168l-77 73zM283 100c81 0 117 58 117 58l79 -80s-68 -90 -196 -90c-142 0 -255 110 -255 249c0 140 113 249 255 249c127 0 194 -88 194 -88l-83 -74s-39 50 -111 50c-81 0 -133 -63 -133 -137s52 -137 133 -137z" />
    <glyph glyph-name="Ccircumflex" unicode="&#x108;" horiz-adv-x="676" 
d="M389 100c123 0 189 86 189 86l80 -79s-92 -119 -269 -119c-202 0 -355 155 -355 362s153 362 355 362c168 0 259 -110 259 -110l-81 -79s-63 77 -178 77c-138 0 -233 -115 -233 -250s95 -250 233 -250zM204 824l186 134l186 -134l-66 -82l-120 91l-122 -91z" />
    <glyph glyph-name="ccircumflex" unicode="&#x109;" horiz-adv-x="497" 
d="M95 606l186 134l186 -134l-66 -82l-120 91l-122 -91zM283 100c81 0 117 58 117 58l79 -80s-68 -90 -196 -90c-142 0 -255 110 -255 249c0 140 113 249 255 249c127 0 194 -88 194 -88l-83 -74s-39 50 -111 50c-81 0 -133 -63 -133 -137s52 -137 133 -137z" />
    <glyph glyph-name="Ccaron" unicode="&#x10c;" horiz-adv-x="676" 
d="M389 100c123 0 189 86 189 86l80 -79s-92 -119 -269 -119c-202 0 -355 155 -355 362s153 362 355 362c168 0 259 -110 259 -110l-81 -79s-63 77 -178 77c-138 0 -233 -115 -233 -250s95 -250 233 -250zM381 745l-186 134l66 82l120 -91l120 91l66 -82z" />
    <glyph glyph-name="ccaron" unicode="&#x10d;" horiz-adv-x="497" 
d="M263 536l-186 134l66 82l120 -91l120 91l66 -82zM283 100c81 0 117 58 117 58l79 -80s-68 -90 -196 -90c-142 0 -255 110 -255 249c0 140 113 249 255 249c127 0 194 -88 194 -88l-83 -74s-39 50 -111 50c-81 0 -133 -63 -133 -137s52 -137 133 -137z" />
    <glyph glyph-name="Ccedilla" unicode="&#xc7;" horiz-adv-x="676" 
d="M409 -62l-68 -214l-111 32l72 194zM389 100c123 0 189 86 189 86l80 -79s-92 -119 -269 -119c-202 0 -355 155 -355 362s153 362 355 362c168 0 259 -110 259 -110l-81 -79s-63 77 -178 77c-138 0 -233 -115 -233 -250s95 -250 233 -250z" />
    <glyph glyph-name="ccedilla" unicode="&#xe7;" horiz-adv-x="497" 
d="M319 -62l-68 -214l-111 32l72 194zM283 100c81 0 117 58 117 58l79 -80s-68 -90 -196 -90c-142 0 -255 110 -255 249c0 140 113 249 255 249c127 0 194 -88 194 -88l-83 -74s-39 50 -111 50c-81 0 -133 -63 -133 -137s52 -137 133 -137z" />
    <glyph glyph-name="Cdotaccent" unicode="&#x10a;" horiz-adv-x="676" 
d="M389 100c123 0 189 86 189 86l80 -79s-92 -119 -269 -119c-202 0 -355 155 -355 362s153 362 355 362c168 0 259 -110 259 -110l-81 -79s-63 77 -178 77c-138 0 -233 -115 -233 -250s95 -250 233 -250zM291 851c0 44 35 79 79 79s79 -35 79 -79s-35 -79 -79 -79
s-79 35 -79 79z" />
    <glyph glyph-name="cdotaccent" unicode="&#x10b;" horiz-adv-x="494" 
d="M185 627c0 44 35 79 79 79s79 -35 79 -79s-35 -79 -79 -79s-79 35 -79 79zM283 100c81 0 117 58 117 58l79 -80s-68 -90 -196 -90c-142 0 -255 110 -255 249c0 140 113 249 255 249c127 0 194 -88 194 -88l-83 -74s-39 50 -111 50c-81 0 -133 -63 -133 -137
s52 -137 133 -137z" />
    <glyph glyph-name="Eth" unicode="&#xd0;" horiz-adv-x="708" 
d="M328 700c204 0 346 -148 346 -350s-142 -350 -346 -350h-226v305h-90v104h90v291h226zM330 114c136 0 222 109 222 236c0 128 -86 236 -222 236h-108v-177h202v-104h-202v-191h108z" />
    <glyph glyph-name="eth" unicode="&#xf0;" horiz-adv-x="577" 
d="M117 512l-36 78l101 47c-36 21 -70 37 -100 53l47 89c49 -24 106 -54 160 -92l127 59l36 -78l-88 -41c92 -85 165 -200 165 -355c0 -170 -110 -284 -250 -284s-251 109 -251 249s111 249 251 249c29 0 58 -5 86 -19c-27 41 -65 80 -102 112zM279 100c80 0 131 63 131 137
s-51 137 -131 137s-131 -63 -131 -137s51 -137 131 -137z" />
    <glyph glyph-name="Dcaron" unicode="&#x10e;" horiz-adv-x="680" 
d="M300 700c204 0 346 -148 346 -350s-142 -350 -346 -350h-226v700h226zM302 114c136 0 222 109 222 236c0 128 -86 236 -222 236h-108v-472h108zM316 743l-186 134l66 82l120 -91l120 91l66 -82z" />
    <glyph glyph-name="dcaron" unicode="&#x10f;" horiz-adv-x="705" 
d="M513 756v-756h-111v62s-41 -74 -143 -74c-123 0 -231 103 -231 249s108 249 231 249c90 0 134 -62 134 -62v332h120zM393 166v142s-34 66 -113 66c-81 0 -130 -59 -130 -137s49 -137 130 -137c79 0 113 66 113 66zM583 454v246h106v-246h-106z" />
    <glyph glyph-name="Dcroat" unicode="&#x110;" horiz-adv-x="703" 
d="M323 700c204 0 346 -148 346 -350s-142 -350 -346 -350h-226v305h-90v104h90v291h226zM325 114c136 0 222 109 222 236c0 128 -86 236 -222 236h-108v-177h202v-104h-202v-191h108z" />
    <glyph glyph-name="dcroat" unicode="&#x111;" horiz-adv-x="605" 
d="M513 756v-101h80v-100h-80v-555h-111v62s-41 -74 -143 -74c-123 0 -231 103 -231 249s108 249 231 249c90 0 134 -62 134 -62v131h-155v100h155v101h120zM393 166v142s-34 66 -113 66c-81 0 -130 -59 -130 -137s49 -137 130 -137c79 0 113 66 113 66z" />
    <glyph glyph-name="Egrave" unicode="&#xc8;" horiz-adv-x="546" 
d="M194 586v-170h280v-114h-280v-188h310v-114h-430v700h424v-114h-304zM147 913l81 79l171 -174l-77 -73z" />
    <glyph glyph-name="egrave" unicode="&#xe8;" horiz-adv-x="533" 
d="M266 486c130 0 239 -101 239 -247c0 -9 0 -27 -1 -45h-354c9 -42 58 -96 133 -96c83 0 130 48 130 48l60 -90s-75 -68 -190 -68c-144 0 -255 110 -255 249s101 249 238 249zM150 281h235c-2 41 -40 96 -119 96c-77 0 -112 -54 -116 -96zM132 694l81 79l171 -174l-77 -73z
" />
    <glyph glyph-name="Eacute" unicode="&#xc9;" horiz-adv-x="546" 
d="M194 586v-170h280v-114h-280v-188h310v-114h-430v700h424v-114h-304zM361 991l81 -79l-175 -168l-77 73z" />
    <glyph glyph-name="eacute" unicode="&#xe9;" horiz-adv-x="533" 
d="M266 486c130 0 239 -101 239 -247c0 -9 0 -27 -1 -45h-354c9 -42 58 -96 133 -96c83 0 130 48 130 48l60 -90s-75 -68 -190 -68c-144 0 -255 110 -255 249s101 249 238 249zM150 281h235c-2 41 -40 96 -119 96c-77 0 -112 -54 -116 -96zM335 773l81 -79l-175 -168l-77 73
z" />
    <glyph glyph-name="Ecircumflex" unicode="&#xca;" horiz-adv-x="546" 
d="M194 586v-170h280v-114h-280v-188h310v-114h-430v700h424v-114h-304zM99 824l186 134l186 -134l-66 -82l-120 91l-122 -91z" />
    <glyph glyph-name="ecircumflex" unicode="&#xea;" horiz-adv-x="533" 
d="M85 618l186 134l186 -134l-66 -82l-120 91l-122 -91zM266 486c130 0 239 -101 239 -247c0 -9 0 -27 -1 -45h-354c9 -42 58 -96 133 -96c83 0 130 48 130 48l60 -90s-75 -68 -190 -68c-144 0 -255 110 -255 249s101 249 238 249zM150 281h235c-2 41 -40 96 -119 96
c-77 0 -112 -54 -116 -96z" />
    <glyph glyph-name="Edieresis" unicode="&#xcb;" horiz-adv-x="546" 
d="M194 586v-170h280v-114h-280v-188h310v-114h-430v700h424v-114h-304zM109 859c0 44 35 79 79 79s79 -35 79 -79s-35 -79 -79 -79s-79 35 -79 79zM315 859c0 44 35 79 79 79s79 -35 79 -79s-35 -79 -79 -79s-79 35 -79 79z" />
    <glyph glyph-name="edieresis" unicode="&#xeb;" horiz-adv-x="533" 
d="M84 631c0 44 35 79 79 79s79 -35 79 -79s-35 -79 -79 -79s-79 35 -79 79zM290 631c0 44 35 79 79 79s79 -35 79 -79s-35 -79 -79 -79s-79 35 -79 79zM266 486c130 0 239 -101 239 -247c0 -9 0 -27 -1 -45h-354c9 -42 58 -96 133 -96c83 0 130 48 130 48l60 -90
s-75 -68 -190 -68c-144 0 -255 110 -255 249s101 249 238 249zM150 281h235c-2 41 -40 96 -119 96c-77 0 -112 -54 -116 -96z" />
    <glyph glyph-name="Ecaron" unicode="&#x11a;" horiz-adv-x="546" 
d="M194 586v-170h280v-114h-280v-188h310v-114h-430v700h424v-114h-304zM292 745l-186 134l66 82l120 -91l120 91l66 -82z" />
    <glyph glyph-name="ecaron" unicode="&#x11b;" horiz-adv-x="533" 
d="M266 486c130 0 239 -101 239 -247c0 -9 0 -27 -1 -45h-354c9 -42 58 -96 133 -96c83 0 130 48 130 48l60 -90s-75 -68 -190 -68c-144 0 -255 110 -255 249s101 249 238 249zM150 281h235c-2 41 -40 96 -119 96c-77 0 -112 -54 -116 -96zM276 527l-186 134l66 82l120 -91
l120 91l66 -82z" />
    <glyph glyph-name="Emacron" unicode="&#x112;" horiz-adv-x="546" 
d="M194 586v-170h280v-114h-280v-188h310v-114h-430v700h424v-114h-304zM130 795v108h322v-108h-322z" />
    <glyph glyph-name="emacron" unicode="&#x113;" horiz-adv-x="533" 
d="M107 567v108h322v-108h-322zM266 486c130 0 239 -101 239 -247c0 -9 0 -27 -1 -45h-354c9 -42 58 -96 133 -96c83 0 130 48 130 48l60 -90s-75 -68 -190 -68c-144 0 -255 110 -255 249s101 249 238 249zM150 281h235c-2 41 -40 96 -119 96c-77 0 -112 -54 -116 -96z" />
    <glyph glyph-name="Ebreve" unicode="&#x114;" horiz-adv-x="546" 
d="M194 586v-170h280v-114h-280v-188h310v-114h-430v700h424v-114h-304zM107 918h108s-1 -72 71 -72s71 72 71 72h108s1 -164 -179 -164s-179 164 -179 164z" />
    <glyph glyph-name="ebreve" unicode="&#x115;" horiz-adv-x="533" 
d="M87 712h108s-1 -72 71 -72s71 72 71 72h108s1 -164 -179 -164s-179 164 -179 164zM266 486c130 0 239 -101 239 -247c0 -9 0 -27 -1 -45h-354c9 -42 58 -96 133 -96c83 0 130 48 130 48l60 -90s-75 -68 -190 -68c-144 0 -255 110 -255 249s101 249 238 249zM150 281h235
c-2 41 -40 96 -119 96c-77 0 -112 -54 -116 -96z" />
    <glyph glyph-name="Edotaccent" unicode="&#x116;" horiz-adv-x="546" 
d="M194 586v-170h280v-114h-280v-188h310v-114h-430v700h424v-114h-304zM211 851c0 44 35 79 79 79s79 -35 79 -79s-35 -79 -79 -79s-79 35 -79 79z" />
    <glyph glyph-name="edotaccent" unicode="&#x117;" horiz-adv-x="533" 
d="M187 627c0 44 35 79 79 79s79 -35 79 -79s-35 -79 -79 -79s-79 35 -79 79zM266 486c130 0 239 -101 239 -247c0 -9 0 -27 -1 -45h-354c9 -42 58 -96 133 -96c83 0 130 48 130 48l60 -90s-75 -68 -190 -68c-144 0 -255 110 -255 249s101 249 238 249zM150 281h235
c-2 41 -40 96 -119 96c-77 0 -112 -54 -116 -96z" />
    <glyph glyph-name="Eogonek" unicode="&#x118;" horiz-adv-x="546" 
d="M194 586v-170h280v-114h-280v-188h310v-114h-430v700h424v-114h-304zM393 0h111s-89 -29 -89 -80c0 -28 19 -47 51 -47c21 0 38 7 38 7v-95c-16 -5 -31 -8 -51 -8c-82 0 -131 57 -131 114c0 77 71 109 71 109z" />
    <glyph glyph-name="eogonek" unicode="&#x119;" horiz-adv-x="533" 
d="M266 486c130 0 239 -101 239 -247c0 -9 0 -27 -1 -45h-354c9 -42 58 -96 133 -96c83 0 130 48 130 48l60 -90s-43 -38 -110 -57c-10 -3 -86 -31 -86 -79c0 -28 19 -47 51 -47c21 0 38 7 38 7v-95c-16 -5 -31 -8 -51 -8c-82 0 -131 57 -131 114c0 54 35 86 56 100
c-123 19 -212 121 -212 246c0 139 101 249 238 249zM150 281h235c-2 41 -40 96 -119 96c-77 0 -112 -54 -116 -96z" />
    <glyph glyph-name="Gcircumflex" unicode="&#x11c;" horiz-adv-x="713" 
d="M402 100c100 0 141 34 141 34v148h-159v112h277v-318s-89 -88 -259 -88c-205 0 -368 155 -368 362s158 362 363 362c172 0 259 -105 259 -105l-82 -80s-58 73 -177 73c-141 0 -241 -115 -241 -250s105 -250 246 -250zM209 824l186 134l186 -134l-66 -82l-120 91l-122 -91
z" />
    <glyph glyph-name="gcircumflex" unicode="&#x11d;" horiz-adv-x="573" 
d="M393 49c-16 -20 -59 -61 -134 -61c-123 0 -231 103 -231 249s108 249 231 249c99 0 143 -74 143 -74v62h111v-478c0 -165 -122 -238 -255 -238c-136 0 -225 90 -225 90l68 92s66 -70 157 -70c93 0 135 51 135 122v57zM393 166v142s-34 66 -113 66
c-81 0 -130 -59 -130 -137s49 -137 130 -137c78 0 113 66 113 66zM101 605l186 134l186 -134l-66 -82l-120 91l-122 -91z" />
    <glyph glyph-name="Gbreve" unicode="&#x11e;" horiz-adv-x="713" 
d="M402 100c100 0 141 34 141 34v148h-159v112h277v-318s-89 -88 -259 -88c-205 0 -368 155 -368 362s158 362 363 362c172 0 259 -105 259 -105l-82 -80s-58 73 -177 73c-141 0 -241 -115 -241 -250s105 -250 246 -250zM203 928h108s-1 -72 71 -72s71 72 71 72h108
s1 -164 -179 -164s-179 164 -179 164z" />
    <glyph glyph-name="gbreve" unicode="&#x11f;" horiz-adv-x="573" 
d="M393 49c-16 -20 -59 -61 -134 -61c-123 0 -231 103 -231 249s108 249 231 249c99 0 143 -74 143 -74v62h111v-478c0 -165 -122 -238 -255 -238c-136 0 -225 90 -225 90l68 92s66 -70 157 -70c93 0 135 51 135 122v57zM393 166v142s-34 66 -113 66
c-81 0 -130 -59 -130 -137s49 -137 130 -137c78 0 113 66 113 66zM100 712h108s-1 -72 71 -72s71 72 71 72h108s1 -164 -179 -164s-179 164 -179 164z" />
    <glyph glyph-name="Gdotaccent" unicode="&#x120;" horiz-adv-x="713" 
d="M402 100c100 0 141 34 141 34v148h-159v112h277v-318s-89 -88 -259 -88c-205 0 -368 155 -368 362s158 362 363 362c172 0 259 -105 259 -105l-82 -80s-58 73 -177 73c-141 0 -241 -115 -241 -250s105 -250 246 -250zM304 851c0 44 35 79 79 79s79 -35 79 -79
s-35 -79 -79 -79s-79 35 -79 79z" />
    <glyph glyph-name="gdotaccent" unicode="&#x121;" horiz-adv-x="573" 
d="M393 49c-16 -20 -59 -61 -134 -61c-123 0 -231 103 -231 249s108 249 231 249c99 0 143 -74 143 -74v62h111v-478c0 -165 -122 -238 -255 -238c-136 0 -225 90 -225 90l68 92s66 -70 157 -70c93 0 135 51 135 122v57zM393 166v142s-34 66 -113 66
c-81 0 -130 -59 -130 -137s49 -137 130 -137c78 0 113 66 113 66zM198 627c0 44 35 79 79 79s79 -35 79 -79s-35 -79 -79 -79s-79 35 -79 79z" />
    <glyph glyph-name="Gcedilla" unicode="&#x122;" horiz-adv-x="713" 
d="M402 100c100 0 141 34 141 34v148h-159v112h277v-318s-89 -88 -259 -88c-205 0 -368 155 -368 362s158 362 363 362c172 0 259 -105 259 -105l-82 -80s-58 73 -177 73c-141 0 -241 -115 -241 -250s105 -250 246 -250zM448 -57l-68 -214l-111 32l72 194z" />
    <glyph glyph-name="gcedilla" unicode="&#x123;" horiz-adv-x="573" 
d="M393 49c-16 -20 -59 -61 -134 -61c-123 0 -231 103 -231 249s108 249 231 249c99 0 143 -74 143 -74v62h111v-478c0 -165 -122 -238 -255 -238c-136 0 -225 90 -225 90l68 92s66 -70 157 -70c93 0 135 51 135 122v57zM393 166v142s-34 66 -113 66
c-81 0 -130 -59 -130 -137s49 -137 130 -137c78 0 113 66 113 66zM210 554l68 214l111 -32l-72 -194z" />
    <glyph glyph-name="Hcircumflex" unicode="&#x124;" horiz-adv-x="687" 
d="M493 415v285h120v-700h-120v301h-299v-301h-120v700h120v-285h299zM157 824l186 134l186 -134l-66 -82l-120 91l-122 -91z" />
    <glyph glyph-name="hcircumflex" unicode="&#x125;" horiz-adv-x="562" 
d="M328 486c92 0 174 -65 174 -179v-307h-120v277c0 68 -42 97 -94 97c-62 0 -94 -62 -94 -62v-312h-120v756h120v-339s42 69 134 69zM-52 864l186 134l186 -134l-66 -82l-120 91l-122 -91z" />
    <glyph glyph-name="Hbar" unicode="&#x126;" horiz-adv-x="701" 
d="M8 606h73v94h120v-94h299v94h120v-94h73v-100h-73v-506h-120v301h-299v-301h-120v506h-73v100zM500 415v91h-299v-91h299z" />
    <glyph glyph-name="hbar" unicode="&#x127;" horiz-adv-x="576" 
d="M8 555v100h80v101h120v-101h145v-100h-145v-138s42 69 134 69s174 -65 174 -179v-307h-120v277c0 68 -42 97 -94 97c-62 0 -94 -63 -94 -63v-311h-120v555h-80z" />
    <glyph glyph-name="dotlessi" unicode="&#x131;" horiz-adv-x="278" 
d="M79 0v462h120v-462h-120z" />
    <glyph glyph-name="Igrave" unicode="&#xcc;" horiz-adv-x="296" 
d="M88 0v700h120v-700h-120zM4 913l81 79l171 -174l-77 -73z" />
    <glyph glyph-name="igrave" unicode="&#xec;" horiz-adv-x="278" 
d="M0 695l81 79l171 -174l-77 -73zM77 0v462h120v-462h-120z" />
    <glyph glyph-name="Iacute" unicode="&#xcd;" horiz-adv-x="296" 
d="M85 0v700h120v-700h-120zM211 991l81 -79l-175 -168l-77 73z" />
    <glyph glyph-name="iacute" unicode="&#xed;" horiz-adv-x="278" 
d="M197 773l81 -79l-175 -168l-77 73zM73 0v462h120v-462h-120z" />
    <glyph glyph-name="Icircumflex" unicode="&#xce;" horiz-adv-x="296" 
d="M88 0v700h120v-700h-120zM-36 834l186 134l186 -134l-66 -82l-120 91l-122 -91z" />
    <glyph glyph-name="icircumflex" unicode="&#xee;" horiz-adv-x="308" 
d="M94 0v462h120v-462h-120zM-32 618l186 134l186 -134l-66 -82l-120 91l-122 -91z" />
    <glyph glyph-name="Idieresis" unicode="&#xcf;" horiz-adv-x="296" 
d="M74 0v700h120v-700h-120zM-48 859c0 44 35 79 79 79s79 -35 79 -79s-35 -79 -79 -79s-79 35 -79 79zM158 859c0 44 35 79 79 79s79 -35 79 -79s-35 -79 -79 -79s-79 35 -79 79z" />
    <glyph glyph-name="idieresis" unicode="&#xef;" horiz-adv-x="278" 
d="M79 0v462h120v-462h-120zM-43 631c0 44 35 79 79 79s79 -35 79 -79s-35 -79 -79 -79s-79 35 -79 79zM163 631c0 44 35 79 79 79s79 -35 79 -79s-35 -79 -79 -79s-79 35 -79 79z" />
    <glyph glyph-name="Itilde" unicode="&#x128;" horiz-adv-x="296" 
d="M88 0v700h120v-700h-120zM28 765l-84 61s35 104 134 104c59 0 99 -58 137 -58c43 0 54 65 54 65l82 -65s-33 -106 -130 -106c-58 0 -99 57 -137 57c-43 0 -56 -58 -56 -58z" />
    <glyph glyph-name="itilde" unicode="&#x129;" horiz-adv-x="343" 
d="M112 0v462h120v-462h-120zM52 527l-84 61s35 104 134 104c59 0 99 -58 137 -58c43 0 54 65 54 65l82 -65s-33 -106 -130 -106c-58 0 -99 57 -137 57c-43 0 -56 -58 -56 -58z" />
    <glyph glyph-name="Imacron" unicode="&#x12a;" horiz-adv-x="296" 
d="M88 0v700h120v-700h-120zM-13 790v108h322v-108h-322z" />
    <glyph glyph-name="imacron" unicode="&#x12b;" horiz-adv-x="286" 
d="M82 0v462h120v-462h-120zM-18 568v108h322v-108h-322z" />
    <glyph glyph-name="Ibreve" unicode="&#x12c;" horiz-adv-x="296" 
d="M88 0v700h120v-700h-120zM-31 918h108s-1 -72 71 -72s71 72 71 72h108s1 -164 -179 -164s-179 164 -179 164z" />
    <glyph glyph-name="ibreve" unicode="&#x12d;" horiz-adv-x="294" 
d="M85 0v462h120v-462h-120zM-32 712h108s-1 -72 71 -72s71 72 71 72h108s1 -164 -179 -164s-179 164 -179 164z" />
    <glyph glyph-name="Iogonek" unicode="&#x12e;" horiz-adv-x="296" 
d="M26 -107c0 63 40 99 62 112v695h120v-700s-89 -27 -89 -78c0 -28 19 -49 51 -49c21 0 38 7 38 7v-95c-16 -5 -31 -8 -51 -8c-82 0 -131 59 -131 116z" />
    <glyph glyph-name="iogonek" unicode="&#x12f;" horiz-adv-x="278" 
d="M17 -107c0 63 43 100 62 112v469h120v-474h-1c-4 -1 -88 -28 -88 -78c0 -28 19 -49 51 -49c21 0 38 7 38 7v-95c-16 -5 -31 -8 -51 -8c-82 0 -131 59 -131 116zM60 627c0 44 35 79 79 79s79 -35 79 -79s-35 -79 -79 -79s-79 35 -79 79z" />
    <glyph glyph-name="Idotaccent" unicode="&#x130;" horiz-adv-x="296" 
d="M89 0v700h120v-700h-120zM69 835c0 44 35 79 79 79s79 -35 79 -79s-35 -79 -79 -79s-79 35 -79 79z" />
    <glyph glyph-name="IJ" unicode="&#x132;" horiz-adv-x="748" 
d="M88 0v700h120v-700h-120zM554 216v484h120v-480c0 -147 -91 -232 -239 -232c-140 0 -205 117 -205 117l88 74s44 -77 117 -77c92 0 119 60 119 114z" />
    <glyph glyph-name="ij" unicode="&#x133;" horiz-adv-x="494" 
d="M79 0v474h120v-474h-120zM60 627c0 44 35 79 79 79s79 -35 79 -79s-35 -79 -79 -79s-79 35 -79 79zM127 -211l43 101s31 -20 57 -20s69 6 69 98v506h120v-517c0 -155 -105 -199 -176 -199c-66 0 -113 31 -113 31zM276 627c0 44 35 79 79 79s79 -35 79 -79
s-35 -79 -79 -79s-79 35 -79 79z" />
    <glyph glyph-name="Jcircumflex" unicode="&#x134;" horiz-adv-x="521" 
d="M327 216v484h120v-480c0 -147 -91 -232 -239 -232c-140 0 -205 117 -205 117l88 74s44 -77 117 -77c92 0 119 60 119 114zM201 821l186 134l186 -134l-66 -82l-120 91l-122 -91z" />
    <glyph glyph-name="jcircumflex" unicode="&#x135;" horiz-adv-x="331" 
d="M-35 -211l44 100s28 -19 50 -19c32 0 74 6 74 98v506h120v-517c0 -155 -105 -199 -176 -199c-33 0 -72 7 -112 31zM7 618l186 134l186 -134l-66 -82l-120 91l-122 -91z" />
    <glyph glyph-name="Kcedilla" unicode="&#x136;" horiz-adv-x="628" 
d="M194 700v-314l250 314h150l-274 -344l308 -356h-159l-275 316v-316h-120v700h120zM374 -47l-68 -214l-111 32l72 194z" />
    <glyph glyph-name="kcedilla" unicode="&#x137;" horiz-adv-x="535" 
d="M194 756v-469l170 187h155l-208 -224l222 -250h-158l-181 207v-207h-120v756h120zM349 -57l-68 -214l-111 32l72 194z" />
    <glyph glyph-name="kgreenlandic" unicode="&#x138;" horiz-adv-x="521" 
d="M361 0l-181 207v-207h-120v474h120v-186l170 186h155l-208 -224l222 -250h-158z" />
    <glyph glyph-name="Lacute" unicode="&#x139;" horiz-adv-x="500" 
d="M74 0v700h120v-586h298v-114h-418zM191 991l81 -79l-175 -168l-77 73z" />
    <glyph glyph-name="lacute" unicode="&#x13a;" horiz-adv-x="268" 
d="M74 0v756h120v-756h-120zM191 1033l81 -79l-175 -168l-77 73z" />
    <glyph glyph-name="Lcedilla" unicode="&#x13b;" horiz-adv-x="500" 
d="M74 0v700h120v-586h298v-114h-418zM342 -57l-68 -214l-111 32l72 194z" />
    <glyph glyph-name="lcedilla" unicode="&#x13c;" horiz-adv-x="268" 
d="M74 0v756h120v-756h-120zM213 -57l-68 -214l-111 32l72 194z" />
    <glyph glyph-name="Lcaron" unicode="&#x13d;" horiz-adv-x="500" 
d="M74 0v700h120v-586h298v-114h-418zM281 454v246h106v-246h-106z" />
    <glyph glyph-name="lcaron" unicode="&#x13e;" horiz-adv-x="387" 
d="M74 0v756h120v-756h-120zM265 454v246h106v-246h-106z" />
    <glyph glyph-name="Ldot" unicode="&#x13f;" horiz-adv-x="500" 
d="M74 0v700h120v-586h298v-114h-418zM263 370c0 44 35 79 79 79s79 -35 79 -79s-35 -79 -79 -79s-79 35 -79 79z" />
    <glyph glyph-name="ldot" unicode="&#x140;" horiz-adv-x="394" 
d="M74 0v756h120v-756h-120zM230 370c0 44 35 79 79 79s79 -35 79 -79s-35 -79 -79 -79s-79 35 -79 79z" />
    <glyph glyph-name="Lslash" unicode="&#x141;" horiz-adv-x="541" 
d="M56 147l-50 67l110 86v400h120v-307l170 133l50 -67l-220 -172v-173h297v-114h-417v194z" />
    <glyph glyph-name="lslash" unicode="&#x142;" horiz-adv-x="360" 
d="M56 213l-50 67l112 87v389h120v-296l66 52l50 -67l-116 -91v-354h-120v261z" />
    <glyph glyph-name="Nacute" unicode="&#x143;" horiz-adv-x="726" 
d="M74 700h108l350 -482v482h120v-700h-108l-350 481v-481h-120v700zM464 991l81 -79l-175 -168l-77 73z" />
    <glyph glyph-name="nacute" unicode="&#x144;" horiz-adv-x="548" 
d="M314 486c92 0 174 -65 174 -179v-307h-120v277c0 68 -42 97 -94 97c-62 0 -94 -61 -94 -61v-313h-120v474h112v-69s42 81 142 81zM338 773l81 -79l-175 -168l-77 73z" />
    <glyph glyph-name="Ncedilla" unicode="&#x145;" horiz-adv-x="726" 
d="M74 700h108l350 -482v482h120v-700h-108l-350 481v-481h-120v700zM416 -47l-68 -214l-111 32l72 194z" />
    <glyph glyph-name="ncedilla" unicode="&#x146;" horiz-adv-x="548" 
d="M314 486c92 0 174 -65 174 -179v-307h-120v277c0 68 -42 97 -94 97c-62 0 -94 -61 -94 -61v-313h-120v474h112v-69s42 81 142 81zM350 -47l-68 -214l-111 32l72 194z" />
    <glyph glyph-name="Ntilde" unicode="&#xd1;" horiz-adv-x="726" 
d="M74 700h108l350 -482v482h120v-700h-108l-350 481v-481h-120v700zM247 775l-84 61s35 104 134 104c59 0 99 -58 137 -58c43 0 54 65 54 65l82 -65s-33 -106 -130 -106c-58 0 -99 57 -137 57c-43 0 -56 -58 -56 -58z" />
    <glyph glyph-name="ntilde" unicode="&#xf1;" horiz-adv-x="548" 
d="M314 486c92 0 174 -65 174 -179v-307h-120v277c0 68 -42 97 -94 97c-62 0 -94 -61 -94 -61v-313h-120v474h112v-69s42 81 142 81zM160 554l-84 61s35 104 134 104c59 0 99 -58 137 -58c43 0 54 65 54 65l82 -65s-33 -106 -130 -106c-58 0 -99 57 -137 57
c-43 0 -56 -58 -56 -58z" />
    <glyph glyph-name="Ncaron" unicode="&#x147;" horiz-adv-x="726" 
d="M74 700h108l350 -482v482h120v-700h-108l-350 481v-481h-120v700zM367 741l-186 134l66 82l120 -91l120 91l66 -82z" />
    <glyph glyph-name="ncaron" unicode="&#x148;" horiz-adv-x="548" 
d="M314 486c92 0 174 -65 174 -179v-307h-120v277c0 68 -42 97 -94 97c-62 0 -94 -61 -94 -61v-313h-120v474h112v-69s42 81 142 81zM278 527l-186 134l66 82l120 -91l120 91l66 -82z" />
    <glyph glyph-name="napostrophe" unicode="&#x149;" horiz-adv-x="656" 
d="M422 486c92 0 174 -65 174 -179v-307h-120v277c0 68 -42 97 -94 97c-62 0 -94 -61 -94 -61v-313h-120v474h112v-69s42 81 142 81zM12 454v246h106v-246h-106z" />
    <glyph glyph-name="Eng" unicode="&#x14a;" horiz-adv-x="726" 
d="M74 700h108l350 -482v482h120v-743c0 -155 -105 -199 -176 -199c-33 0 -72 7 -112 31l44 100s28 -19 50 -19c32 0 74 6 74 98v48l-338 465v-481h-120v700z" />
    <glyph glyph-name="eng" unicode="&#x14b;" horiz-adv-x="548" 
d="M314 486c92 0 174 -65 174 -179v-350c0 -155 -105 -199 -176 -199c-33 0 -72 7 -112 31l44 100s28 -19 50 -19c32 0 74 6 74 98v309c0 68 -42 97 -94 97c-62 0 -94 -63 -94 -63v-311h-120v474h112v-69s42 81 142 81z" />
    <glyph glyph-name="Ograve" unicode="&#xd2;" horiz-adv-x="776" 
d="M388 712c204 0 354 -155 354 -362s-150 -362 -354 -362s-354 155 -354 362s150 362 354 362zM388 102c141 0 232 113 232 248s-91 248 -232 248s-232 -113 -232 -248s91 -248 232 -248zM249 913l81 79l171 -174l-77 -73z" />
    <glyph glyph-name="ograve" unicode="&#xf2;" horiz-adv-x="562" 
d="M281 486c141 0 253 -109 253 -249c0 -139 -112 -249 -253 -249s-253 110 -253 249c0 140 112 249 253 249zM281 100c81 0 131 63 131 137s-50 137 -131 137s-131 -63 -131 -137s50 -137 131 -137zM125 695l81 79l171 -174l-77 -73z" />
    <glyph glyph-name="Oacute" unicode="&#xd3;" horiz-adv-x="776" 
d="M441 991l81 -79l-175 -168l-77 73zM388 712c204 0 354 -155 354 -362s-150 -362 -354 -362s-354 155 -354 362s150 362 354 362zM388 102c141 0 232 113 232 248s-91 248 -232 248s-232 -113 -232 -248s91 -248 232 -248z" />
    <glyph glyph-name="oacute" unicode="&#xf3;" horiz-adv-x="562" 
d="M356 773l81 -79l-175 -168l-77 73zM281 486c141 0 253 -109 253 -249c0 -139 -112 -249 -253 -249s-253 110 -253 249c0 140 112 249 253 249zM281 100c81 0 131 63 131 137s-50 137 -131 137s-131 -63 -131 -137s50 -137 131 -137z" />
    <glyph glyph-name="Ocircumflex" unicode="&#xd4;" horiz-adv-x="776" 
d="M388 712c204 0 354 -155 354 -362s-150 -362 -354 -362s-354 155 -354 362s150 362 354 362zM388 102c141 0 232 113 232 248s-91 248 -232 248s-232 -113 -232 -248s91 -248 232 -248zM204 824l186 134l186 -134l-66 -82l-120 91l-122 -91z" />
    <glyph glyph-name="ocircumflex" unicode="&#xf4;" horiz-adv-x="562" 
d="M281 486c141 0 253 -109 253 -249c0 -139 -112 -249 -253 -249s-253 110 -253 249c0 140 112 249 253 249zM281 100c81 0 131 63 131 137s-50 137 -131 137s-131 -63 -131 -137s50 -137 131 -137zM95 606l186 134l186 -134l-66 -82l-120 91l-122 -91z" />
    <glyph glyph-name="Otilde" unicode="&#xd5;" horiz-adv-x="776" 
d="M388 712c204 0 354 -155 354 -362s-150 -362 -354 -362s-354 155 -354 362s150 362 354 362zM388 102c141 0 232 113 232 248s-91 248 -232 248s-232 -113 -232 -248s91 -248 232 -248zM270 775l-84 61s35 104 134 104c59 0 99 -58 137 -58c43 0 54 65 54 65l82 -65
s-33 -106 -130 -106c-58 0 -99 57 -137 57c-43 0 -56 -58 -56 -58z" />
    <glyph glyph-name="otilde" unicode="&#xf5;" horiz-adv-x="562" 
d="M281 486c141 0 253 -109 253 -249c0 -139 -112 -249 -253 -249s-253 110 -253 249c0 140 112 249 253 249zM281 100c81 0 131 63 131 137s-50 137 -131 137s-131 -63 -131 -137s50 -137 131 -137zM164 550l-84 61s35 104 134 104c59 0 99 -58 137 -58c43 0 54 65 54 65
l82 -65s-33 -106 -130 -106c-58 0 -99 57 -137 57c-43 0 -56 -58 -56 -58z" />
    <glyph glyph-name="Odieresis" unicode="&#xd6;" horiz-adv-x="776" 
d="M388 712c204 0 354 -155 354 -362s-150 -362 -354 -362s-354 155 -354 362s150 362 354 362zM388 102c141 0 232 113 232 248s-91 248 -232 248s-232 -113 -232 -248s91 -248 232 -248zM206 859c0 44 35 79 79 79s79 -35 79 -79s-35 -79 -79 -79s-79 35 -79 79zM412 859
c0 44 35 79 79 79s79 -35 79 -79s-35 -79 -79 -79s-79 35 -79 79z" />
    <glyph glyph-name="odieresis" unicode="&#xf6;" horiz-adv-x="562" 
d="M281 486c141 0 253 -109 253 -249c0 -139 -112 -249 -253 -249s-253 110 -253 249c0 140 112 249 253 249zM281 100c81 0 131 63 131 137s-50 137 -131 137s-131 -63 -131 -137s50 -137 131 -137zM99 631c0 44 35 79 79 79s79 -35 79 -79s-35 -79 -79 -79s-79 35 -79 79z
M305 631c0 44 35 79 79 79s79 -35 79 -79s-35 -79 -79 -79s-79 35 -79 79z" />
    <glyph glyph-name="Oslash" unicode="&#xd8;" horiz-adv-x="784" 
d="M65 12l70 83c-61 64 -97 153 -97 255c0 207 150 362 354 362c79 0 151 -24 208 -65l70 82l49 -41l-70 -83c61 -65 97 -154 97 -255c0 -207 -150 -362 -354 -362c-80 0 -151 24 -209 65l-69 -82zM160 350c0 -62 19 -119 53 -163l312 370c-36 26 -82 41 -133 41
c-141 0 -232 -113 -232 -248zM392 102c141 0 232 113 232 248c0 61 -19 118 -53 162l-312 -369c36 -26 81 -41 133 -41z" />
    <glyph glyph-name="oslash" unicode="&#xf8;" horiz-adv-x="570" 
d="M285 486c50 0 97 -14 136 -38l43 51l48 -40l-43 -51c43 -44 69 -104 69 -171c0 -139 -112 -249 -253 -249c-51 0 -99 14 -138 39l-46 -54l-48 40l46 54c-42 44 -67 104 -67 170c0 140 112 249 253 249zM285 100c81 0 131 63 131 137c0 30 -8 58 -23 81l-172 -203
c18 -10 40 -15 64 -15zM154 237c0 -29 7 -57 22 -79l170 202c-17 9 -38 14 -61 14c-81 0 -131 -63 -131 -137z" />
    <glyph glyph-name="Omacron" unicode="&#x14c;" horiz-adv-x="776" 
d="M388 712c204 0 354 -155 354 -362s-150 -362 -354 -362s-354 155 -354 362s150 362 354 362zM388 102c141 0 232 113 232 248s-91 248 -232 248s-232 -113 -232 -248s91 -248 232 -248zM227 790v108h322v-108h-322z" />
    <glyph glyph-name="omacron" unicode="&#x14d;" horiz-adv-x="562" 
d="M281 486c141 0 253 -109 253 -249c0 -139 -112 -249 -253 -249s-253 110 -253 249c0 140 112 249 253 249zM281 100c81 0 131 63 131 137s-50 137 -131 137s-131 -63 -131 -137s50 -137 131 -137zM120 568v108h322v-108h-322z" />
    <glyph glyph-name="Obreve" unicode="&#x14e;" horiz-adv-x="776" 
d="M388 712c204 0 354 -155 354 -362s-150 -362 -354 -362s-354 155 -354 362s150 362 354 362zM388 102c141 0 232 113 232 248s-91 248 -232 248s-232 -113 -232 -248s91 -248 232 -248zM209 928h108s-1 -72 71 -72s71 72 71 72h108s1 -164 -179 -164s-179 164 -179 164z
" />
    <glyph glyph-name="obreve" unicode="&#x14f;" horiz-adv-x="562" 
d="M281 486c141 0 253 -109 253 -249c0 -139 -112 -249 -253 -249s-253 110 -253 249c0 140 112 249 253 249zM281 100c81 0 131 63 131 137s-50 137 -131 137s-131 -63 -131 -137s50 -137 131 -137zM102 712h108s-1 -72 71 -72s71 72 71 72h108s1 -164 -179 -164
s-179 164 -179 164z" />
    <glyph glyph-name="Ohungarumlaut" unicode="&#x150;" horiz-adv-x="776" 
d="M388 712c204 0 354 -155 354 -362s-150 -362 -354 -362s-354 155 -354 362s150 362 354 362zM388 102c141 0 232 113 232 248s-91 248 -232 248s-232 -113 -232 -248s91 -248 232 -248zM367 981l84 -54l-128 -177l-76 47zM536 981l84 -54l-128 -177l-76 47z" />
    <glyph glyph-name="ohungarumlaut" unicode="&#x151;" horiz-adv-x="562" 
d="M281 486c141 0 253 -109 253 -249c0 -139 -112 -249 -253 -249s-253 110 -253 249c0 140 112 249 253 249zM281 100c81 0 131 63 131 137s-50 137 -131 137s-131 -63 -131 -137s50 -137 131 -137zM239 747l84 -54l-128 -177l-76 47zM408 747l84 -54l-128 -177l-76 47z
" />
    <glyph glyph-name="OE" unicode="&#x152;" horiz-adv-x="826" 
d="M524 588v-172h230v-114h-230v-190h260v-112h-405c-195 0 -349 150 -349 350s154 350 349 350h399v-112h-254zM404 112v476h-25c-133 0 -227 -109 -227 -238c0 -128 94 -238 227 -238h25z" />
    <glyph glyph-name="oe" unicode="&#x153;" horiz-adv-x="916" 
d="M653 486c137 0 235 -101 235 -247c0 -9 0 -26 -1 -44h-351c9 -42 57 -97 132 -97c83 0 130 48 130 48l60 -90s-75 -68 -190 -68c-80 0 -150 33 -196 86c-46 -54 -115 -86 -192 -86c-140 0 -252 110 -252 249c0 140 112 249 252 249c76 0 144 -33 190 -85
c43 52 108 85 183 85zM280 100c80 0 132 63 132 137s-52 137 -132 137s-132 -63 -132 -137s52 -137 132 -137zM536 280h233c-2 41 -37 97 -116 97c-77 0 -113 -55 -117 -97z" />
    <glyph glyph-name="Racute" unicode="&#x154;" horiz-adv-x="583" 
d="M74 0v700h230c139 0 232 -90 232 -218c0 -105 -56 -185 -156 -210l175 -272h-140l-166 264h-55v-264h-120zM289 378c77 0 125 35 125 104s-48 104 -125 104h-95v-208h95zM355 991l81 -79l-175 -168l-77 73z" />
    <glyph glyph-name="racute" unicode="&#x155;" horiz-adv-x="387" 
d="M303 486c43 0 82 -15 82 -15l-42 -108s-22 11 -57 11c-73 0 -106 -64 -106 -64v-310h-120v474h114v-69s41 81 129 81zM253 773l81 -79l-175 -168l-77 73z" />
    <glyph glyph-name="Rcedilla" unicode="&#x156;" horiz-adv-x="583" 
d="M74 0v700h230c139 0 232 -90 232 -218c0 -105 -56 -185 -156 -210l175 -272h-140l-166 264h-55v-264h-120zM289 378c77 0 125 35 125 104s-48 104 -125 104h-95v-208h95zM369 -47l-68 -214l-111 32l72 194z" />
    <glyph glyph-name="rcedilla" unicode="&#x157;" horiz-adv-x="387" 
d="M303 486c43 0 82 -15 82 -15l-42 -108s-22 11 -57 11c-73 0 -106 -64 -106 -64v-310h-120v474h114v-69s41 81 129 81zM210 -57l-68 -214l-111 32l72 194z" />
    <glyph glyph-name="Rcaron" unicode="&#x158;" horiz-adv-x="583" 
d="M74 0v700h230c139 0 232 -90 232 -218c0 -105 -56 -185 -156 -210l175 -272h-140l-166 264h-55v-264h-120zM289 378c77 0 125 35 125 104s-48 104 -125 104h-95v-208h95zM297 751l-186 134l66 82l120 -91l120 91l66 -82z" />
    <glyph glyph-name="rcaron" unicode="&#x159;" horiz-adv-x="387" 
d="M303 486c43 0 82 -15 82 -15l-42 -108s-22 11 -57 11c-73 0 -106 -64 -106 -64v-310h-120v474h114v-69s41 81 129 81zM206 527l-186 134l66 82l120 -91l120 91l66 -82z" />
    <glyph glyph-name="Sacute" unicode="&#x15a;" horiz-adv-x="595" 
d="M424 183c0 59 -45 80 -128 109c-103 36 -219 92 -219 222c0 99 88 198 229 198c146 0 228 -111 228 -111l-83 -82s-58 79 -145 79c-60 0 -107 -37 -107 -84c0 -61 55 -80 151 -116c107 -40 196 -88 196 -215s-112 -195 -244 -195c-175 0 -256 143 -256 143l90 76
s60 -105 166 -105c60 0 122 24 122 81zM371 991l81 -79l-175 -168l-77 73z" />
    <glyph glyph-name="sacute" unicode="&#x15b;" horiz-adv-x="483" 
d="M30 74l67 87s63 -68 143 -68c49 0 90 14 90 43c0 31 -22 37 -94 52c-94 20 -176 60 -176 150c0 74 74 148 204 148c107 0 178 -58 178 -58l-60 -88s-54 41 -118 41c-45 0 -86 -16 -86 -45s32 -36 112 -53c94 -20 161 -51 161 -149c0 -81 -86 -146 -207 -146
c-139 0 -214 86 -214 86zM325 773l81 -79l-175 -168l-77 73z" />
    <glyph glyph-name="Scircumflex" unicode="&#x15c;" horiz-adv-x="595" 
d="M424 183c0 59 -45 80 -128 109c-103 36 -219 92 -219 222c0 99 88 198 229 198c146 0 228 -111 228 -111l-83 -82s-58 79 -145 79c-60 0 -107 -37 -107 -84c0 -61 55 -80 151 -116c107 -40 196 -88 196 -215s-112 -195 -244 -195c-175 0 -256 143 -256 143l90 76
s60 -105 166 -105c60 0 122 24 122 81zM130 824l186 134l186 -134l-66 -82l-120 91l-122 -91z" />
    <glyph glyph-name="scircumflex" unicode="&#x15d;" horiz-adv-x="483" 
d="M30 74l67 87s63 -68 143 -68c49 0 90 14 90 43c0 31 -22 37 -94 52c-94 20 -176 60 -176 150c0 74 74 148 204 148c107 0 178 -58 178 -58l-60 -88s-54 41 -118 41c-45 0 -86 -16 -86 -45s32 -36 112 -53c94 -20 161 -51 161 -149c0 -81 -86 -146 -207 -146
c-139 0 -214 86 -214 86zM77 605l186 134l186 -134l-66 -82l-120 91l-122 -91z" />
    <glyph glyph-name="Scedilla" unicode="&#x15e;" horiz-adv-x="595" 
d="M424 183c0 59 -45 80 -128 109c-103 36 -219 92 -219 222c0 99 88 198 229 198c146 0 228 -111 228 -111l-83 -82s-58 79 -145 79c-60 0 -107 -37 -107 -84c0 -61 55 -80 151 -116c107 -40 196 -88 196 -215s-112 -195 -244 -195c-175 0 -256 143 -256 143l90 76
s60 -105 166 -105c60 0 122 24 122 81zM348 -57l-68 -214l-111 32l72 194z" />
    <glyph glyph-name="scedilla" unicode="&#x15f;" horiz-adv-x="483" 
d="M30 74l67 87s63 -68 143 -68c49 0 90 14 90 43c0 31 -22 37 -94 52c-94 20 -176 60 -176 150c0 74 74 148 204 148c107 0 178 -58 178 -58l-60 -88s-54 41 -118 41c-45 0 -86 -16 -86 -45s32 -36 112 -53c94 -20 161 -51 161 -149c0 -81 -86 -146 -207 -146
c-139 0 -214 86 -214 86zM303 -57l-68 -214l-111 32l72 194z" />
    <glyph glyph-name="Scaron" unicode="&#x160;" horiz-adv-x="595" 
d="M424 183c0 59 -45 80 -128 109c-103 36 -219 92 -219 222c0 99 88 198 229 198c146 0 228 -111 228 -111l-83 -82s-58 79 -145 79c-60 0 -107 -37 -107 -84c0 -61 55 -80 151 -116c107 -40 196 -88 196 -215s-112 -195 -244 -195c-175 0 -256 143 -256 143l90 76
s60 -105 166 -105c60 0 122 24 122 81zM317 745l-186 134l66 82l120 -91l120 91l66 -82z" />
    <glyph glyph-name="scaron" unicode="&#x161;" horiz-adv-x="483" 
d="M30 74l67 87s63 -68 143 -68c49 0 90 14 90 43c0 31 -22 37 -94 52c-94 20 -176 60 -176 150c0 74 74 148 204 148c107 0 178 -58 178 -58l-60 -88s-54 41 -118 41c-45 0 -86 -16 -86 -45s32 -36 112 -53c94 -20 161 -51 161 -149c0 -81 -86 -146 -207 -146
c-139 0 -214 86 -214 86zM262 526l-186 134l66 82l120 -91l120 91l66 -82z" />
    <glyph glyph-name="Tcedilla" unicode="&#x162;" horiz-adv-x="534" 
d="M207 0v586h-193v114h506v-114h-193v-586h-120zM324 -57l-68 -214l-111 32l72 194z" />
    <glyph glyph-name="tcedilla" unicode="&#x163;" horiz-adv-x="416" 
d="M22 366v108h93v141h120v-141h143v-108h-143v-191c0 -58 30 -75 62 -75c27 0 50 17 50 17l44 -98s-45 -31 -114 -31c-92 0 -162 67 -162 168v210h-93zM292 -57l-68 -214l-111 32l72 194z" />
    <glyph glyph-name="Tcaron" unicode="&#x164;" horiz-adv-x="534" 
d="M207 0v586h-193v114h506v-114h-193v-586h-120zM267 743l-186 134l66 82l120 -91l120 91l66 -82z" />
    <glyph glyph-name="tcaron" unicode="&#x165;" horiz-adv-x="428" 
d="M22 366v108h93v141h120v-141h143v-108h-143v-191c0 -58 30 -75 62 -75c27 0 50 17 50 17l44 -98s-45 -31 -114 -31c-92 0 -162 67 -162 168v210h-93zM310 534v246h106v-246h-106z" />
    <glyph glyph-name="Tbar" unicode="&#x166;" horiz-adv-x="534" 
d="M84 374v100h123v112h-193v114h506v-114h-193v-112h123v-100h-123v-374h-120v374h-123z" />
    <glyph glyph-name="tbar" unicode="&#x167;" horiz-adv-x="406" 
d="M22 368v106h83v141h120v-141h143v-106h-143v-78h143v-100h-143v-15c0 -60 31 -75 63 -75c27 0 49 17 49 17l44 -98s-45 -31 -114 -31c-92 0 -162 62 -162 168v34h-83v100h83v78h-83z" />
    <glyph glyph-name="Ugrave" unicode="&#xd9;" horiz-adv-x="688" 
d="M495 269v431h120v-446c0 -154 -105 -266 -270 -266s-270 112 -270 266v446h120v-431c0 -100 50 -167 150 -167c99 0 150 67 150 167zM189 913l81 79l171 -174l-77 -73z" />
    <glyph glyph-name="ugrave" unicode="&#xf9;" horiz-adv-x="548" 
d="M234 -12c-91 0 -174 65 -174 179v307h120v-274c0 -70 33 -100 94 -100c62 0 94 58 94 58v316h120v-474h-112v69s-45 -81 -142 -81zM126 695l81 79l171 -174l-77 -73z" />
    <glyph glyph-name="Uacute" unicode="&#xda;" horiz-adv-x="688" 
d="M494 269v431h120v-446c0 -154 -105 -266 -270 -266s-270 112 -270 266v446h120v-431c0 -100 50 -167 150 -167c99 0 150 67 150 167zM423 991l81 -79l-175 -168l-77 73z" />
    <glyph glyph-name="uacute" unicode="&#xfa;" horiz-adv-x="548" 
d="M350 773l81 -79l-175 -168l-77 73zM234 -12c-91 0 -174 65 -174 179v307h120v-274c0 -70 33 -100 94 -100c62 0 94 58 94 58v316h120v-474h-112v69s-45 -81 -142 -81z" />
    <glyph glyph-name="Ucircumflex" unicode="&#xdb;" horiz-adv-x="688" 
d="M494 269v431h120v-446c0 -154 -105 -266 -270 -266s-270 112 -270 266v446h120v-431c0 -100 50 -167 150 -167c99 0 150 67 150 167zM158 824l186 134l186 -134l-66 -82l-120 91l-122 -91z" />
    <glyph glyph-name="ucircumflex" unicode="&#xfb;" horiz-adv-x="548" 
d="M234 -12c-91 0 -174 65 -174 179v307h120v-274c0 -70 33 -100 94 -100c62 0 94 58 94 58v316h120v-474h-112v69s-45 -81 -142 -81zM89 606l186 134l186 -134l-66 -82l-120 91l-122 -91z" />
    <glyph glyph-name="Udieresis" unicode="&#xdc;" horiz-adv-x="688" 
d="M494 269v431h120v-446c0 -154 -105 -266 -270 -266s-270 112 -270 266v446h120v-431c0 -100 50 -167 150 -167c99 0 150 67 150 167zM162 859c0 44 35 79 79 79s79 -35 79 -79s-35 -79 -79 -79s-79 35 -79 79zM368 859c0 44 35 79 79 79s79 -35 79 -79s-35 -79 -79 -79
s-79 35 -79 79z" />
    <glyph glyph-name="udieresis" unicode="&#xfc;" horiz-adv-x="548" 
d="M234 -12c-91 0 -174 65 -174 179v307h120v-274c0 -70 33 -100 94 -100c62 0 94 58 94 58v316h120v-474h-112v69s-45 -81 -142 -81zM94 631c0 44 35 79 79 79s79 -35 79 -79s-35 -79 -79 -79s-79 35 -79 79zM300 631c0 44 35 79 79 79s79 -35 79 -79s-35 -79 -79 -79
s-79 35 -79 79z" />
    <glyph glyph-name="Utilde" unicode="&#x168;" horiz-adv-x="688" 
d="M494 269v431h120v-446c0 -154 -105 -266 -270 -266s-270 112 -270 266v446h120v-431c0 -100 50 -167 150 -167c99 0 150 67 150 167zM224 775l-84 61s35 104 134 104c59 0 99 -58 137 -58c43 0 54 65 54 65l82 -65s-33 -106 -130 -106c-58 0 -99 57 -137 57
c-43 0 -56 -58 -56 -58z" />
    <glyph glyph-name="utilde" unicode="&#x169;" horiz-adv-x="548" 
d="M234 -12c-91 0 -174 65 -174 179v307h120v-274c0 -70 33 -100 94 -100c62 0 94 58 94 58v316h120v-474h-112v69s-45 -81 -142 -81zM155 554l-84 61s35 104 134 104c59 0 99 -58 137 -58c43 0 54 65 54 65l82 -65s-33 -106 -130 -106c-58 0 -99 57 -137 57
c-43 0 -56 -58 -56 -58z" />
    <glyph glyph-name="Umacron" unicode="&#x16a;" horiz-adv-x="688" 
d="M494 269v431h120v-446c0 -154 -105 -266 -270 -266s-270 112 -270 266v446h120v-431c0 -100 50 -167 150 -167c99 0 150 67 150 167zM183 800v108h322v-108h-322z" />
    <glyph glyph-name="umacron" unicode="&#x16b;" horiz-adv-x="548" 
d="M234 -12c-91 0 -174 65 -174 179v307h120v-274c0 -70 33 -100 94 -100c62 0 94 58 94 58v316h120v-474h-112v69s-45 -81 -142 -81zM115 577v108h322v-108h-322z" />
    <glyph glyph-name="Ubreve" unicode="&#x16c;" horiz-adv-x="688" 
d="M494 269v431h120v-446c0 -154 -105 -266 -270 -266s-270 112 -270 266v446h120v-431c0 -100 50 -167 150 -167c99 0 150 67 150 167zM162 918h108s-1 -72 71 -72s71 72 71 72h108s1 -164 -179 -164s-179 164 -179 164z" />
    <glyph glyph-name="ubreve" unicode="&#x16d;" horiz-adv-x="548" 
d="M234 -12c-91 0 -174 65 -174 179v307h120v-274c0 -70 33 -100 94 -100c62 0 94 58 94 58v316h120v-474h-112v69s-45 -81 -142 -81zM91 700h108s-1 -72 71 -72s71 72 71 72h108s1 -164 -179 -164s-179 164 -179 164z" />
    <glyph glyph-name="Uring" unicode="&#x16e;" horiz-adv-x="688" 
d="M494 269v431h120v-446c0 -154 -105 -266 -270 -266s-270 112 -270 266v446h120v-431c0 -100 50 -167 150 -167c99 0 150 67 150 167zM222 850c0 66 56 120 122 120s122 -54 122 -120s-56 -120 -122 -120s-122 54 -122 120zM290 850c0 -30 24 -54 54 -54s54 24 54 54
s-24 54 -54 54s-54 -24 -54 -54z" />
    <glyph glyph-name="uring" unicode="&#x16f;" horiz-adv-x="548" 
d="M234 -12c-91 0 -174 65 -174 179v307h120v-274c0 -70 33 -100 94 -100c62 0 94 58 94 58v316h120v-474h-112v69s-45 -81 -142 -81zM152 648c0 66 56 120 122 120s122 -54 122 -120s-56 -120 -122 -120s-122 54 -122 120zM220 648c0 -30 24 -54 54 -54s54 24 54 54
s-24 54 -54 54s-54 -24 -54 -54z" />
    <glyph glyph-name="Uhungarumlaut" unicode="&#x170;" horiz-adv-x="688" 
d="M494 269v431h120v-446c0 -154 -105 -266 -270 -266s-270 112 -270 266v446h120v-431c0 -100 50 -167 150 -167c99 0 150 67 150 167zM312 983l84 -54l-128 -177l-76 47zM481 983l84 -54l-128 -177l-76 47z" />
    <glyph glyph-name="uhungarumlaut" unicode="&#x171;" horiz-adv-x="548" 
d="M234 -12c-91 0 -174 65 -174 179v307h120v-274c0 -70 33 -100 94 -100c62 0 94 58 94 58v316h120v-474h-112v69s-45 -81 -142 -81zM245 745l84 -54l-128 -177l-76 47zM414 745l84 -54l-128 -177l-76 47z" />
    <glyph glyph-name="Uogonek" unicode="&#x172;" horiz-adv-x="688" 
d="M494 269v431h120v-446c0 -125 -70 -223 -184 -254c-9 -3 -87 -32 -87 -80c0 -28 19 -47 51 -47c21 0 38 7 38 7v-95c-16 -5 -31 -8 -51 -8c-82 0 -131 57 -131 114c0 53 33 85 54 100c-142 16 -230 121 -230 263v446h120v-431c0 -100 50 -167 150 -167
c99 0 150 67 150 167z" />
    <glyph glyph-name="uogonek" unicode="&#x173;" horiz-adv-x="548" 
d="M234 -12c-91 0 -174 65 -174 179v307h120v-274c0 -70 33 -100 94 -100c62 0 94 58 94 58v316h120v-474h-1c-4 -1 -88 -28 -88 -78c0 -28 19 -49 51 -49c21 0 38 7 38 7v-95c-16 -5 -31 -8 -51 -8c-82 0 -131 59 -131 116c0 78 64 113 70 116v60s-45 -81 -142 -81z" />
    <glyph glyph-name="Wgrave" unicode="&#x1e80;" horiz-adv-x="983" 
d="M979 700l-276 -724l-210 525l-213 -525l-276 724h136l148 -420l159 420h99l156 -420l152 420h125zM347 913l81 79l171 -174l-77 -73z" />
    <glyph glyph-name="wgrave" unicode="&#x1e81;" horiz-adv-x="768" 
d="M4 474h134l98 -243l103 243h101l100 -243l102 243h122l-229 -498l-152 338l-150 -338zM239 694l81 79l171 -174l-77 -73z" />
    <glyph glyph-name="Wacute" unicode="&#x1e82;" horiz-adv-x="983" 
d="M979 700l-276 -724l-210 525l-213 -525l-276 724h136l148 -420l159 420h99l156 -420l152 420h125zM562 991l81 -79l-175 -168l-77 73z" />
    <glyph glyph-name="wacute" unicode="&#x1e83;" horiz-adv-x="768" 
d="M4 474h134l98 -243l103 243h101l100 -243l102 243h122l-229 -498l-152 338l-150 -338zM467 773l81 -79l-175 -168l-77 73z" />
    <glyph glyph-name="Wcircumflex" unicode="&#x174;" horiz-adv-x="983" 
d="M979 700l-276 -724l-210 525l-213 -525l-276 724h136l148 -420l159 420h99l156 -420l152 420h125zM305 824l186 134l186 -134l-66 -82l-120 91l-122 -91z" />
    <glyph glyph-name="wcircumflex" unicode="&#x175;" horiz-adv-x="768" 
d="M4 474h134l98 -243l103 243h101l100 -243l102 243h122l-229 -498l-152 338l-150 -338zM203 606l186 134l186 -134l-66 -82l-120 91l-122 -91z" />
    <glyph glyph-name="Ygrave" unicode="&#x1ef2;" horiz-adv-x="614" 
d="M367 276v-276h-120v276l-239 424h132l171 -313l171 313h124zM140 893l81 79l171 -174l-77 -73z" />
    <glyph glyph-name="ygrave" unicode="&#x1ef3;" horiz-adv-x="557" 
d="M20 -192l56 93s32 -31 63 -31c41 0 58 12 81 70l19 49l-231 485h133l160 -347l125 347h129l-230 -580c-41 -104 -108 -136 -178 -136c-72 0 -127 50 -127 50zM126 695l81 79l171 -174l-77 -73z" />
    <glyph glyph-name="Yacute" unicode="&#xdd;" horiz-adv-x="614" 
d="M367 276v-276h-120v276l-239 424h132l171 -313l171 313h124zM386 991l81 -79l-175 -168l-77 73z" />
    <glyph glyph-name="yacute" unicode="&#xfd;" horiz-adv-x="557" 
d="M363 773l81 -79l-175 -168l-77 73zM20 -192l56 93s32 -31 63 -31c41 0 58 12 81 70l19 49l-231 485h133l160 -347l125 347h129l-230 -580c-41 -104 -108 -136 -178 -136c-72 0 -127 50 -127 50z" />
    <glyph glyph-name="Ycircumflex" unicode="&#x176;" horiz-adv-x="614" 
d="M367 276v-276h-120v276l-239 424h132l171 -313l171 313h124zM121 824l186 134l186 -134l-66 -82l-120 91l-122 -91z" />
    <glyph glyph-name="ycircumflex" unicode="&#x177;" horiz-adv-x="557" 
d="M20 -192l56 93s32 -31 63 -31c41 0 58 12 81 70l19 49l-231 485h133l160 -347l125 347h129l-230 -580c-41 -104 -108 -136 -178 -136c-72 0 -127 50 -127 50zM98 605l186 134l186 -134l-66 -82l-120 91l-122 -91z" />
    <glyph glyph-name="Ydieresis" unicode="&#x178;" horiz-adv-x="614" 
d="M367 276v-276h-120v276l-239 424h132l171 -313l171 313h124zM125 851c0 44 35 79 79 79s79 -35 79 -79s-35 -79 -79 -79s-79 35 -79 79zM331 851c0 44 35 79 79 79s79 -35 79 -79s-35 -79 -79 -79s-79 35 -79 79z" />
    <glyph glyph-name="ydieresis" unicode="&#xff;" horiz-adv-x="557" 
d="M20 -192l56 93s32 -31 63 -31c41 0 58 12 81 70l19 49l-231 485h133l160 -347l125 347h129l-230 -580c-41 -104 -108 -136 -178 -136c-72 0 -127 50 -127 50zM106 631c0 44 35 79 79 79s79 -35 79 -79s-35 -79 -79 -79s-79 35 -79 79zM312 631c0 44 35 79 79 79
s79 -35 79 -79s-35 -79 -79 -79s-79 35 -79 79z" />
    <glyph glyph-name="Zacute" unicode="&#x179;" horiz-adv-x="597" 
d="M48 700h535l-364 -586h344v-114h-549l366 586h-332v114zM379 998l81 -79l-175 -168l-77 73z" />
    <glyph glyph-name="zacute" unicode="&#x17a;" horiz-adv-x="495" 
d="M47 474h422l-235 -362h224v-112h-428l235 362h-218v112zM312 773l81 -79l-175 -168l-77 73z" />
    <glyph glyph-name="Zdotaccent" unicode="&#x17b;" horiz-adv-x="597" 
d="M48 700h535l-364 -586h344v-114h-549l366 586h-332v114zM220 841c0 44 35 79 79 79s79 -35 79 -79s-35 -79 -79 -79s-79 35 -79 79z" />
    <glyph glyph-name="zdotaccent" unicode="&#x17c;" horiz-adv-x="495" 
d="M47 474h422l-235 -362h224v-112h-428l235 362h-218v112zM172 627c0 44 35 79 79 79s79 -35 79 -79s-35 -79 -79 -79s-79 35 -79 79z" />
    <glyph glyph-name="Zcaron" unicode="&#x17d;" horiz-adv-x="597" 
d="M48 700h535l-364 -586h344v-114h-549l366 586h-332v114zM319 746l-186 134l66 82l120 -91l120 91l66 -82z" />
    <glyph glyph-name="zcaron" unicode="&#x17e;" horiz-adv-x="495" 
d="M47 474h422l-235 -362h224v-112h-428l235 362h-218v112zM260 526l-186 134l66 82l120 -91l120 91l66 -82z" />
    <glyph glyph-name="Thorn" unicode="&#xde;" horiz-adv-x="545" 
d="M74 0v700h120v-111h86c136 0 247 -68 247 -214s-111 -214 -247 -214h-86v-161h-120zM265 273c79 0 142 20 142 102s-63 102 -142 102h-71v-204h71z" />
    <glyph glyph-name="thorn" unicode="&#xfe;" horiz-adv-x="583" 
d="M74 756h120v-332c16 20 59 62 134 62c123 0 231 -103 231 -249s-108 -249 -231 -249c-75 0 -118 41 -134 61v-279h-120v986zM194 308v-142s34 -66 113 -66c81 0 130 59 130 137s-49 137 -130 137c-79 0 -113 -66 -113 -66z" />
    <glyph glyph-name="longs" unicode="&#x17f;" horiz-adv-x="342" 
d="M16 364v110h93v114c0 132 93 180 170 180c66 0 105 -25 105 -25l-45 -99s-17 14 -48 14c-23 0 -62 -12 -62 -73v-585h-120v364h-93z" />
    <glyph glyph-name="zero.lnum_tnum" 
d="M291 712c178 0 262 -172 262 -362s-84 -362 -262 -362s-264 172 -264 362s86 362 264 362zM291 100c97 0 142 113 142 250s-45 250 -142 250s-144 -113 -144 -250s47 -250 144 -250z" />
    <glyph glyph-name="one.lnum_tnum" 
d="M73 504l246 196h99v-700h-120v540l-156 -124z" />
    <glyph glyph-name="two.lnum_tnum" 
d="M48 0l257 326c26 34 81 87 81 166c0 56 -38 108 -104 108c-103 0 -125 -102 -125 -102l-107 39s45 175 232 175c151 0 224 -102 224 -218c0 -87 -44 -149 -61 -172l-161 -208h225v-114h-461z" />
    <glyph glyph-name="three.lnum_tnum" 
d="M384 502c0 56 -43 98 -105 98c-91 0 -119 -85 -119 -85l-104 49s54 148 223 148c128 0 226 -81 226 -210c0 -100 -86 -147 -86 -147s103 -26 103 -160c0 -127 -106 -207 -242 -207c-195 0 -245 162 -245 162l98 57s31 -107 147 -107c76 0 122 41 122 95
c0 74 -64 99 -127 99h-50v110h38c73 0 121 27 121 98z" />
    <glyph glyph-name="four.lnum_tnum" 
d="M-15 152l356 548h134v-436h77v-112h-77v-152h-120v152h-370zM181 264h176v271z" />
    <glyph glyph-name="five.lnum_tnum" 
d="M545 230c0 -164 -128 -242 -249 -242c-185 0 -245 162 -245 162l100 57s36 -107 145 -107c81 0 128 57 128 130c0 75 -45 130 -149 130c-97 0 -188 -76 -188 -76v416h440v-114h-320v-137s39 21 99 21c124 0 239 -76 239 -240z" />
    <glyph glyph-name="six.lnum_tnum" 
d="M407 670l-130 -211s13 3 24 3c151 0 237 -118 237 -237s-95 -237 -245 -237s-245 118 -245 235c0 60 21 112 39 145c11 20 220 364 220 364zM293 350c-69 0 -124 -49 -124 -125s55 -125 124 -125s124 49 124 125s-55 125 -124 125z" />
    <glyph glyph-name="seven.lnum_tnum" 
d="M69 586v114h500l-375 -724l-102 53l288 557h-311z" />
    <glyph glyph-name="eight.lnum_tnum" 
d="M290 712c146 0 220 -98 220 -202c0 -93 -78 -138 -78 -138s98 -39 98 -166c0 -117 -88 -218 -240 -218s-240 101 -240 218c0 127 98 166 98 166s-78 45 -78 138c0 104 74 202 220 202zM290 98c79 0 119 53 119 110s-40 108 -119 108s-119 -51 -119 -108s40 -110 119 -110
zM391 509c0 57 -45 93 -101 93s-101 -36 -101 -93s45 -93 101 -93s101 36 101 93z" />
    <glyph glyph-name="nine.lnum_tnum" 
d="M175 34l128 207s-13 -3 -24 -3c-144 0 -237 118 -237 237s95 237 245 237s245 -118 245 -235c0 -60 -22 -111 -40 -145c-11 -20 -217 -360 -217 -360zM287 350c69 0 124 49 124 125s-55 125 -124 125s-124 -49 -124 -125s55 -125 124 -125z" />
    <glyph glyph-name="zero.onum_pnum" horiz-adv-x="554" 
d="M277 486c144 0 255 -110 255 -249s-111 -249 -255 -249s-255 110 -255 249s111 249 255 249zM277 100c79 0 135 59 135 137c0 79 -56 137 -135 137s-135 -58 -135 -137c0 -78 56 -137 135 -137z" />
    <glyph glyph-name="one.onum_pnum" horiz-adv-x="396" 
d="M9 307l210 167h111v-474h-120v322l-131 -105z" />
    <glyph glyph-name="two.onum_pnum" horiz-adv-x="500" 
d="M377 187c-7 -9 -72 -73 -72 -73h145v-114h-408l201 200c27 27 67 60 67 102s-36 72 -77 72c-62 0 -86 -70 -86 -70l-103 43s45 139 189 139c101 0 197 -73 197 -179c0 -47 -16 -77 -53 -120z" />
    <glyph glyph-name="three.onum_pnum" horiz-adv-x="543" 
d="M368 283c0 52 -46 91 -104 91c-82 0 -111 -83 -111 -83l-103 50s56 145 214 145c113 0 224 -66 224 -203c0 -96 -72 -135 -72 -135s88 -29 88 -152c0 -130 -110 -206 -236 -206c-179 0 -237 158 -237 158l102 54s32 -100 135 -100c74 0 116 40 116 94
c0 67 -48 93 -116 93h-42v104h42c54 0 100 30 100 90z" />
    <glyph glyph-name="four.onum_pnum" horiz-adv-x="574" 
d="M-4 0l348 474h133v-364h73v-110h-73v-198h-119v198h-362zM201 110h157v217z" />
    <glyph glyph-name="five.onum_pnum" horiz-adv-x="586" 
d="M540 25c0 -160 -127 -235 -248 -235c-180 0 -238 161 -238 161l99 56s36 -105 139 -105c70 0 128 38 128 123c0 84 -59 126 -134 126c-97 0 -195 -75 -195 -75v398h437v-120h-317v-108s43 17 95 17c124 0 234 -79 234 -238z" />
    <glyph glyph-name="six.onum_pnum" horiz-adv-x="562" 
d="M397 670l-130 -211s13 3 24 3c151 0 237 -118 237 -237s-95 -237 -245 -237s-245 118 -245 235c0 60 21 112 39 145c11 20 220 364 220 364zM283 350c-69 0 -124 -49 -124 -125s55 -125 124 -125s124 49 124 125s-55 125 -124 125z" />
    <glyph glyph-name="seven.onum_pnum" horiz-adv-x="496" 
d="M24 354v120h480l-353 -684l-109 58l262 506h-280z" />
    <glyph glyph-name="eight.onum_pnum" horiz-adv-x="576" 
d="M288 712c146 0 220 -98 220 -202c0 -93 -78 -138 -78 -138s98 -39 98 -166c0 -117 -88 -218 -240 -218s-240 101 -240 218c0 127 98 166 98 166s-78 45 -78 138c0 104 74 202 220 202zM288 98c79 0 119 53 119 110s-40 108 -119 108s-119 -51 -119 -108s40 -110 119 -110
zM389 509c0 57 -45 93 -101 93s-101 -36 -101 -93s45 -93 101 -93s101 36 101 93z" />
    <glyph glyph-name="nine.onum_pnum" horiz-adv-x="556" 
d="M184 -156l104 170s-5 -1 -18 -1c-141 0 -236 116 -236 236c0 119 94 237 243 237s241 -118 241 -235c0 -60 -24 -110 -42 -144c-10 -19 -194 -326 -194 -326zM276 124c69 0 122 51 122 125s-53 125 -122 125s-122 -51 -122 -125s53 -125 122 -125z" />
    <glyph glyph-name="zero.onum_tnum" 
d="M290 486c144 0 255 -110 255 -249s-111 -249 -255 -249s-255 110 -255 249s111 249 255 249zM290 100c79 0 135 59 135 137c0 79 -56 137 -135 137s-135 -58 -135 -137c0 -78 56 -137 135 -137z" />
    <glyph glyph-name="one.onum_tnum" 
d="M64 292l230 182h111v-474h-120v322l-151 -120z" />
    <glyph glyph-name="two.onum_tnum" 
d="M403 187c-7 -9 -72 -73 -72 -73h145v-114h-408l201 200c27 27 67 60 67 102s-36 72 -77 72c-62 0 -86 -70 -86 -70l-103 43s45 139 189 139c101 0 197 -73 197 -179c0 -47 -16 -77 -53 -120z" />
    <glyph glyph-name="three.onum_tnum" 
d="M372 283c0 52 -46 91 -104 91c-82 0 -111 -83 -111 -83l-103 50s56 145 214 145c113 0 224 -66 224 -203c0 -96 -72 -135 -72 -135s88 -29 88 -152c0 -130 -110 -206 -236 -206c-179 0 -237 158 -237 158l102 54s32 -100 135 -100c74 0 116 40 116 94
c0 67 -48 93 -116 93h-42v104h42c54 0 100 30 100 90z" />
    <glyph glyph-name="four.onum_tnum" 
d="M-14 0l348 474h133v-364h73v-110h-73v-198h-119v198h-362zM191 110h157v217z" />
    <glyph glyph-name="five.onum_tnum" 
d="M539 25c0 -160 -127 -235 -248 -235c-180 0 -238 161 -238 161l99 56s36 -105 139 -105c70 0 128 38 128 123c0 84 -59 126 -134 126c-97 0 -195 -75 -195 -75v398h437v-120h-317v-108s43 17 95 17c124 0 234 -79 234 -238z" />
    <glyph glyph-name="six.onum_tnum" 
d="M409 670l-130 -211s13 3 24 3c151 0 237 -118 237 -237s-95 -237 -245 -237s-245 118 -245 235c0 60 21 112 39 145c11 20 220 364 220 364zM295 350c-69 0 -124 -49 -124 -125s55 -125 124 -125s124 49 124 125s-55 125 -124 125z" />
    <glyph glyph-name="seven.onum_tnum" 
d="M90 354v120h480l-353 -684l-109 58l262 506h-280z" />
    <glyph glyph-name="eight.onum_tnum" 
d="M290 712c146 0 220 -98 220 -202c0 -93 -78 -138 -78 -138s98 -39 98 -166c0 -117 -88 -218 -240 -218s-240 101 -240 218c0 127 98 166 98 166s-78 45 -78 138c0 104 74 202 220 202zM290 98c79 0 119 53 119 110s-40 108 -119 108s-119 -51 -119 -108s40 -110 119 -110
zM391 509c0 57 -45 93 -101 93s-101 -36 -101 -93s45 -93 101 -93s101 36 101 93z" />
    <glyph glyph-name="nine.onum_tnum" 
d="M196 -156l104 170s-5 -1 -18 -1c-141 0 -236 116 -236 236c0 119 94 237 243 237s241 -118 241 -235c0 -60 -24 -110 -42 -144c-10 -19 -194 -326 -194 -326zM288 124c69 0 122 51 122 125s-53 125 -122 125s-122 -51 -122 -125s53 -125 122 -125z" />
    <glyph glyph-name="zerosuperior" unicode="&#x2070;" horiz-adv-x="386" 
d="M193 806c103 0 163 -88 163 -208s-60 -210 -163 -210s-163 90 -163 210s60 208 163 208zM193 473c56 0 72 65 72 125s-16 124 -72 124c-57 0 -72 -64 -72 -124s15 -125 72 -125z" />
    <glyph glyph-name="onesuperior" unicode="&#xb9;" horiz-adv-x="323" 
d="M8 669l158 131h85v-406h-93v289l-97 -80z" />
    <glyph glyph-name="twosuperior" unicode="&#xb2;" horiz-adv-x="362" 
d="M32 394l152 184c15 20 47 52 47 86c0 33 -25 57 -63 57c-53 0 -67 -59 -67 -59l-79 27s30 117 146 117c105 0 154 -73 154 -140c0 -40 -22 -77 -32 -90l-75 -100h111v-82h-294z" />
    <glyph glyph-name="threesuperior" unicode="&#xb3;" horiz-adv-x="368" 
d="M235 680c0 26 -21 45 -59 45c-50 0 -69 -43 -69 -43l-70 38s38 86 139 86c81 0 149 -43 149 -126c0 -55 -47 -74 -47 -74s54 -19 54 -91c0 -84 -75 -127 -154 -127c-115 0 -148 96 -148 96l74 41s16 -56 74 -56c44 0 64 22 64 46c0 32 -24 49 -67 49h-22v70h15
c32 0 67 12 67 46z" />
    <glyph glyph-name="foursuperior" unicode="&#x2074;" horiz-adv-x="386" 
d="M4 472l208 328h98v-250h50v-78h-50v-78h-86v78h-220zM140 550h84v134z" />
    <glyph glyph-name="fivesuperior" unicode="&#x2075;" horiz-adv-x="383" 
d="M345 530c0 -91 -80 -142 -155 -142c-115 0 -148 90 -148 90l69 46s19 -52 79 -52c42 0 65 26 65 58c0 36 -25 63 -79 63c-57 0 -112 -29 -112 -29v236h275v-84h-185v-54s19 4 49 4c71 0 142 -42 142 -136z" />
    <glyph glyph-name="sixsuperior" unicode="&#x2076;" horiz-adv-x="355" 
d="M255 783l-72 -117c86 0 148 -66 148 -137c0 -70 -57 -141 -153 -141c-94 0 -150 71 -150 140c0 36 15 63 26 83c6 12 129 218 129 218zM178 587c-34 0 -64 -22 -64 -58s30 -58 64 -58c33 0 63 22 63 58s-30 58 -63 58z" />
    <glyph glyph-name="sevensuperior" unicode="&#x2077;" horiz-adv-x="333" 
d="M16 716v84h313l-219 -423l-76 41l157 298h-175z" />
    <glyph glyph-name="eightsuperior" unicode="&#x2078;" horiz-adv-x="368" 
d="M184 806c88 0 143 -49 143 -121c0 -55 -49 -81 -49 -81s58 -21 58 -91s-58 -125 -152 -125s-152 55 -152 125s58 91 58 91s-49 26 -49 82c0 72 55 120 143 120zM184 468c38 0 62 19 62 47s-24 47 -62 47s-62 -18 -62 -47c0 -28 24 -47 62 -47zM131 683
c0 -31 25 -43 53 -43s53 12 53 43s-25 43 -53 43s-53 -12 -53 -43z" />
    <glyph glyph-name="ninesuperior" unicode="&#x2079;" horiz-adv-x="355" 
d="M106 421l66 105c-86 0 -148 68 -148 139c0 70 57 141 153 141c94 0 150 -71 150 -140c0 -36 -15 -63 -26 -83c-6 -12 -123 -208 -123 -208zM177 607c34 0 64 22 64 58s-30 58 -64 58c-33 0 -63 -22 -63 -58s30 -58 63 -58z" />
    <glyph glyph-name="zeroinferior" unicode="&#x2080;" horiz-adv-x="386" 
d="M193 319c103 0 163 -88 163 -208s-60 -210 -163 -210s-163 90 -163 210s60 208 163 208zM193 -14c56 0 72 65 72 125s-16 124 -72 124c-57 0 -72 -64 -72 -124s15 -125 72 -125z" />
    <glyph glyph-name="oneinferior" unicode="&#x2081;" horiz-adv-x="323" 
d="M8 182l158 131h85v-406h-93v289l-97 -80z" />
    <glyph glyph-name="twoinferior" unicode="&#x2082;" horiz-adv-x="362" 
d="M32 -93l152 184c15 20 47 52 47 86c0 33 -25 57 -63 57c-53 0 -67 -59 -67 -59l-79 27s30 117 146 117c105 0 154 -73 154 -140c0 -40 -22 -77 -32 -90l-75 -100h111v-82h-294z" />
    <glyph glyph-name="threeinferior" unicode="&#x2083;" horiz-adv-x="368" 
d="M235 193c0 26 -21 45 -59 45c-50 0 -69 -43 -69 -43l-70 38s38 86 139 86c81 0 149 -43 149 -126c0 -55 -47 -74 -47 -74s54 -19 54 -91c0 -84 -75 -127 -154 -127c-115 0 -148 96 -148 96l74 41s16 -56 74 -56c44 0 64 22 64 46c0 32 -24 49 -67 49h-22v70h15
c32 0 67 12 67 46z" />
    <glyph glyph-name="fourinferior" unicode="&#x2084;" horiz-adv-x="386" 
d="M4 -15l208 328h98v-250h50v-78h-50v-78h-86v78h-220zM140 63h84v134z" />
    <glyph glyph-name="fiveinferior" unicode="&#x2085;" horiz-adv-x="383" 
d="M345 43c0 -91 -80 -142 -155 -142c-115 0 -148 90 -148 90l69 46s19 -52 79 -52c42 0 65 26 65 58c0 36 -25 63 -79 63c-57 0 -112 -29 -112 -29v236h275v-84h-185v-54s19 4 49 4c71 0 142 -42 142 -136z" />
    <glyph glyph-name="sixinferior" unicode="&#x2086;" horiz-adv-x="355" 
d="M255 296l-72 -117c86 0 148 -66 148 -137c0 -70 -57 -141 -153 -141c-94 0 -150 71 -150 140c0 36 15 63 26 83c6 12 129 218 129 218zM178 100c-34 0 -64 -22 -64 -58s30 -58 64 -58c33 0 63 22 63 58s-30 58 -63 58z" />
    <glyph glyph-name="seveninferior" unicode="&#x2087;" horiz-adv-x="333" 
d="M16 229v84h313l-219 -423l-76 41l157 298h-175z" />
    <glyph glyph-name="eightinferior" unicode="&#x2088;" horiz-adv-x="368" 
d="M184 319c88 0 143 -49 143 -121c0 -55 -49 -81 -49 -81s58 -21 58 -91s-58 -125 -152 -125s-152 55 -152 125s58 91 58 91s-49 26 -49 82c0 72 55 120 143 120zM184 -19c38 0 62 19 62 47s-24 47 -62 47s-62 -18 -62 -47c0 -28 24 -47 62 -47zM131 196
c0 -31 25 -43 53 -43s53 12 53 43s-25 43 -53 43s-53 -12 -53 -43z" />
    <glyph glyph-name="nineinferior" unicode="&#x2089;" horiz-adv-x="355" 
d="M106 -66l66 105c-86 0 -148 68 -148 139c0 70 57 141 153 141c94 0 150 -71 150 -140c0 -36 -15 -63 -26 -83c-6 -12 -123 -208 -123 -208zM177 120c34 0 64 22 64 58s-30 58 -64 58c-33 0 -63 -22 -63 -58s30 -58 63 -58z" />
    <glyph glyph-name="zero.numerator" unicode="&#xf661;" horiz-adv-x="386" 
d="M193 706c103 0 163 -88 163 -208s-60 -210 -163 -210s-163 90 -163 210s60 208 163 208zM193 373c56 0 72 65 72 125s-16 124 -72 124c-57 0 -72 -64 -72 -124s15 -125 72 -125z" />
    <glyph glyph-name="one.numerator" unicode="&#xf662;" horiz-adv-x="323" 
d="M8 569l158 131h85v-406h-93v289l-97 -80z" />
    <glyph glyph-name="two.numerator" unicode="&#xf663;" horiz-adv-x="362" 
d="M32 294l152 184c15 20 47 52 47 86c0 33 -25 57 -63 57c-53 0 -67 -59 -67 -59l-79 27s30 117 146 117c105 0 154 -73 154 -140c0 -40 -22 -77 -32 -90l-75 -100h111v-82h-294z" />
    <glyph glyph-name="three.numerator" unicode="&#xf664;" horiz-adv-x="368" 
d="M235 580c0 26 -21 45 -59 45c-50 0 -69 -43 -69 -43l-70 38s38 86 139 86c81 0 149 -43 149 -126c0 -55 -47 -74 -47 -74s54 -19 54 -91c0 -84 -75 -127 -154 -127c-115 0 -148 96 -148 96l74 41s16 -56 74 -56c44 0 64 22 64 46c0 32 -24 49 -67 49h-22v70h15
c32 0 67 12 67 46z" />
    <glyph glyph-name="four.numerator" unicode="&#xf665;" horiz-adv-x="386" 
d="M4 372l208 328h98v-250h50v-78h-50v-78h-86v78h-220zM140 450h84v134z" />
    <glyph glyph-name="five.numerator" unicode="&#xf666;" horiz-adv-x="383" 
d="M345 430c0 -91 -80 -142 -155 -142c-115 0 -148 90 -148 90l69 46s19 -52 79 -52c42 0 65 26 65 58c0 36 -25 63 -79 63c-57 0 -112 -29 -112 -29v236h275v-84h-185v-54s19 4 49 4c71 0 142 -42 142 -136z" />
    <glyph glyph-name="six.numerator" unicode="&#xf667;" horiz-adv-x="355" 
d="M255 683l-72 -117c86 0 148 -66 148 -137c0 -70 -57 -141 -153 -141c-94 0 -150 71 -150 140c0 36 15 63 26 83c6 12 129 218 129 218zM178 487c-34 0 -64 -22 -64 -58s30 -58 64 -58c33 0 63 22 63 58s-30 58 -63 58z" />
    <glyph glyph-name="seven.numerator" unicode="&#xf668;" horiz-adv-x="333" 
d="M16 616v84h313l-219 -423l-76 41l157 298h-175z" />
    <glyph glyph-name="eight.numerator" unicode="&#xf669;" horiz-adv-x="368" 
d="M184 706c88 0 143 -49 143 -121c0 -55 -49 -81 -49 -81s58 -21 58 -91s-58 -125 -152 -125s-152 55 -152 125s58 91 58 91s-49 26 -49 82c0 72 55 120 143 120zM184 368c38 0 62 19 62 47s-24 47 -62 47s-62 -18 -62 -47c0 -28 24 -47 62 -47zM131 583
c0 -31 25 -43 53 -43s53 12 53 43s-25 43 -53 43s-53 -12 -53 -43z" />
    <glyph glyph-name="nine.numerator" unicode="&#xf66a;" horiz-adv-x="355" 
d="M106 321l66 105c-86 0 -148 68 -148 139c0 70 57 141 153 141c94 0 150 -71 150 -140c0 -36 -15 -63 -26 -83c-6 -12 -123 -208 -123 -208zM177 507c34 0 64 22 64 58s-30 58 -64 58c-33 0 -63 -22 -63 -58s30 -58 63 -58z" />
    <glyph glyph-name="fraction" unicode="&#x2044;" horiz-adv-x="168" 
d="M-180 7l471 724l57 -39l-471 -724z" />
    <glyph glyph-name="zero.denominator" unicode="&#xf655;" horiz-adv-x="386" 
d="M193 412c103 0 163 -88 163 -208s-60 -210 -163 -210s-163 90 -163 210s60 208 163 208zM193 79c56 0 72 65 72 125s-16 124 -72 124c-57 0 -72 -64 -72 -124s15 -125 72 -125z" />
    <glyph glyph-name="one.denominator" unicode="&#xf656;" horiz-adv-x="323" 
d="M8 275l158 131h85v-406h-93v289l-97 -80z" />
    <glyph glyph-name="two.denominator" unicode="&#xf657;" horiz-adv-x="362" 
d="M32 0l152 184c15 20 47 52 47 86c0 33 -25 57 -63 57c-53 0 -67 -59 -67 -59l-79 27s30 117 146 117c105 0 154 -73 154 -140c0 -40 -22 -77 -32 -90l-75 -100h111v-82h-294z" />
    <glyph glyph-name="three.denominator" unicode="&#xf658;" horiz-adv-x="368" 
d="M235 286c0 26 -21 45 -59 45c-50 0 -69 -43 -69 -43l-70 38s38 86 139 86c81 0 149 -43 149 -126c0 -55 -47 -74 -47 -74s54 -19 54 -91c0 -84 -75 -127 -154 -127c-115 0 -148 96 -148 96l74 41s16 -56 74 -56c44 0 64 22 64 46c0 32 -24 49 -67 49h-22v70h15
c32 0 67 12 67 46z" />
    <glyph glyph-name="four.denominator" unicode="&#xf659;" horiz-adv-x="386" 
d="M4 78l208 328h98v-250h50v-78h-50v-78h-86v78h-220zM140 156h84v134z" />
    <glyph glyph-name="five.denominator" unicode="&#xf65a;" horiz-adv-x="383" 
d="M345 136c0 -91 -80 -142 -155 -142c-115 0 -148 90 -148 90l69 46s19 -52 79 -52c42 0 65 26 65 58c0 36 -25 63 -79 63c-57 0 -112 -29 -112 -29v236h275v-84h-185v-54s19 4 49 4c71 0 142 -42 142 -136z" />
    <glyph glyph-name="six.denominator" unicode="&#xf65b;" horiz-adv-x="355" 
d="M255 389l-72 -117c86 0 148 -66 148 -137c0 -70 -57 -141 -153 -141c-94 0 -150 71 -150 140c0 36 15 63 26 83c6 12 129 218 129 218zM178 193c-34 0 -64 -22 -64 -58s30 -58 64 -58c33 0 63 22 63 58s-30 58 -63 58z" />
    <glyph glyph-name="seven.denominator" unicode="&#xf65c;" horiz-adv-x="333" 
d="M16 322v84h313l-219 -423l-76 41l157 298h-175z" />
    <glyph glyph-name="eight.denominator" unicode="&#xf65d;" horiz-adv-x="368" 
d="M184 412c88 0 143 -49 143 -121c0 -55 -49 -81 -49 -81s58 -21 58 -91s-58 -125 -152 -125s-152 55 -152 125s58 91 58 91s-49 26 -49 82c0 72 55 120 143 120zM184 74c38 0 62 19 62 47s-24 47 -62 47s-62 -18 -62 -47c0 -28 24 -47 62 -47zM131 289
c0 -31 25 -43 53 -43s53 12 53 43s-25 43 -53 43s-53 -12 -53 -43z" />
    <glyph glyph-name="nine.denominator" unicode="&#xf65e;" horiz-adv-x="355" 
d="M106 27l66 105c-86 0 -148 68 -148 139c0 70 57 141 153 141c94 0 150 -71 150 -140c0 -36 -15 -63 -26 -83c-6 -12 -123 -208 -123 -208zM177 213c34 0 64 22 64 58s-30 58 -64 58c-33 0 -63 -22 -63 -58s30 -58 63 -58z" />
    <glyph glyph-name="numero" unicode="&#x2116;" horiz-adv-x="1110" 
d="M733 228v106h314v-106h-314zM890 712c116 0 172 -97 172 -171s-56 -171 -172 -171s-172 97 -172 171s56 171 172 171zM819 541c0 -39 32 -71 71 -71s71 32 71 71s-32 71 -71 71s-71 -32 -71 -71zM74 700h108l350 -482v482h120v-700h-108l-350 481v-481h-120v700z" />
    <glyph glyph-name="uni27F5" unicode="&#x27f5;" horiz-adv-x="1000" 
d="M968 304v-110h-768l131 -143l-77 -74l-236 272l236 272l77 -74l-131 -143h768z" />
    <glyph glyph-name="uni27F6" unicode="&#x27f6;" horiz-adv-x="1000" 
d="M32 194v110h768l-131 143l77 74l236 -272l-236 -272l-77 74l131 143h-768z" />
    <glyph glyph-name="arrowleft" unicode="&#x2190;" horiz-adv-x="760" 
d="M732 304v-110h-532l131 -143l-77 -74l-236 272l236 272l77 -74l-131 -143h532z" />
    <glyph glyph-name="arrowright" unicode="&#x2192;" horiz-adv-x="760" 
d="M28 194v110h532l-131 143l77 74l236 -272l-236 -272l-77 74l131 143h-532z" />
    <glyph glyph-name="arrowup" unicode="&#x2191;" horiz-adv-x="598" 
d="M354 0h-110v532l-143 -131l-74 77l272 236l272 -236l-74 -77l-143 131v-532z" />
    <glyph glyph-name="arrowdown" unicode="&#x2193;" horiz-adv-x="598" 
d="M244 700h110v-532l143 131l74 -77l-272 -236l-272 236l74 77l143 -131v532z" />
    <glyph glyph-name="uni21B3" unicode="&#x21b3;" horiz-adv-x="796" 
d="M64 194v506h120v-396h412l-131 143l77 74l236 -272l-236 -272l-77 74l131 143h-532z" />
    <glyph glyph-name="carriagereturn" unicode="&#x21b5;" horiz-adv-x="796" 
d="M732 700v-506h-532l131 -143l-77 -74l-236 272l236 272l77 -74l-131 -143h412v396h120z" />
    <glyph glyph-name="BALLOTBOX" unicode="&#x2610;" horiz-adv-x="844" 
d="M82 0v700h680v-700h-680zM192 595v-490h460v490h-460z" />
    <glyph glyph-name="BALLOTBOXWITHCHECK" unicode="&#x2611;" horiz-adv-x="844" 
d="M192 595v-490h460v490h-460zM360 166l-117 184h106l57 -91l101 275h99l-143 -368h-103zM82 0v700h680v-700h-680z" />
    <glyph glyph-name="BALLOTBOXWITHX" unicode="&#x2612;" horiz-adv-x="844" 
d="M82 0v700h680v-700h-680zM192 595v-490h460v490h-460zM423 285l-137 -150l-64 62l142 153l-141 152l64 62l136 -150l136 150l64 -62l-141 -152l142 -153l-64 -62z" />
    <glyph glyph-name="Circle" horiz-adv-x="844" 
d="M60 350c0 200 161 362 361 362s361 -162 361 -362s-161 -362 -361 -362s-361 162 -361 362zM173 350c0 -137 111 -248 248 -248s248 111 248 248s-111 248 -248 248s-248 -111 -248 -248z" />
    <glyph glyph-name="CircleDotted" horiz-adv-x="844" 
d="M282 350c0 76 62 140 139 140c76 0 140 -64 140 -140c0 -77 -64 -139 -140 -139c-77 0 -139 62 -139 139zM60 350c0 200 161 362 361 362s361 -162 361 -362s-161 -362 -361 -362s-361 162 -361 362zM173 350c0 -137 111 -248 248 -248s248 111 248 248
s-111 248 -248 248s-248 -111 -248 -248z" />
    <glyph glyph-name="uni2709" unicode="&#x2709;" horiz-adv-x="844" 
d="M20 0v700h804v-700h-804zM422 190l-292 309v-394h584v394zM180 595l242 -250l240 250h-482z" />
    <glyph glyph-name="uni270E" unicode="&#x270e;" horiz-adv-x="844" 
d="M829 434l-383 -382l-371 -52l52 371l382 383zM446 207l231 231l-164 164l-231 -231zM246 117l120 15l-159 159l-15 -120z" />
    <glyph glyph-name="Trash" horiz-adv-x="844" 
d="M168 0l-133 700h774l-133 -700h-508zM354 590l7 -130h121l7 130h-135zM174 590l23 -130h114l-7 130h-130zM539 590l-7 -130h114l23 130h-130zM364 414l6 -126h104l6 126h-116zM205 414l22 -126h93l-6 126h-109zM530 414l-6 -126h92l22 126h-108zM372 242l7 -132h85l7 132
h-99zM521 242l-7 -132h71l23 132h-87zM235 242l23 -132h71l-7 132h-87z" />
    <glyph glyph-name="uni2717" unicode="&#x2717;" horiz-adv-x="844" 
d="M772 637l-268 -288l268 -287l-88 -81l-262 280l-262 -280l-88 81l268 287l-268 288l88 81l262 -281l262 281z" />
    <glyph glyph-name="heart" unicode="&#x2665;" horiz-adv-x="632" 
d="M316 127l-240 239c-28 28 -42 64 -42 101c0 36 14 73 42 100c27 27 64 41 100 41s72 -14 99 -41c24 -24 38 -55 41 -86c3 31 16 62 40 86c27 27 64 41 100 41s72 -14 100 -41s42 -64 42 -100c0 -37 -14 -74 -42 -101z" />
    <glyph glyph-name="EuropaType" horiz-adv-x="776" 
d="M619 194l24 -64c-14 -9 -47 -25 -92 -38c-5 8 -14 13 -24 13c-16 0 -29 -13 -29 -29s13 -29 29 -29c15 0 28 12 29 27c45 13 78 30 94 38l24 -63s-105 -60 -233 -60c-15 21 -22 52 -23 84c0 24 3 48 11 67c111 0 190 54 190 54zM211 408h363c-4 78 -69 155 -182 155
c-109 0 -173 -77 -181 -155zM391 712c205 0 338 -151 338 -366c0 -13 -2 -38 -3 -55h-514c11 -77 83 -143 195 -150c-7 -21 -11 -44 -11 -69c1 -31 8 -61 21 -84h-6c-218 0 -364 164 -364 362c0 199 138 362 344 362z" />
    <glyph glyph-name="softhyphen" unicode="&#xad;" horiz-adv-x="333" 
d="M33 190v114h267v-114h-267z" />
    <glyph glyph-name="apostrophemod" unicode="&#x2bc;" horiz-adv-x="186" 
d="M40 454v246h106v-246h-106z" />
    <glyph glyph-name="period.tabular" 
d="M211 67c0 44 35 79 79 79s79 -35 79 -79s-35 -79 -79 -79s-79 35 -79 79z" />
    <glyph glyph-name="space.tabular" 
 />
    </font>
</defs>
</svg>
