<?xml version="1.0" standalone="no"?>
<!DOCTYPE svg PUBLIC "-//W3C//DTD SVG 1.1//EN" "http://www.w3.org/Graphics/SVG/1.1/DTD/svg11.dtd" >
<svg>
<metadata>
Created by FontForge 20120731 at Thu Oct 11 16:44:24 2018
 By www-data
Copyright (c) 2011 by FabianLeuenberger. All rights reserved.
</metadata>
<defs>
<font id="Europa-RegularItalic" horiz-adv-x="580" >
  <font-face 
    font-family="Europa-Regular"
    font-weight="400"
    font-style="italic"
    font-stretch="normal"
    units-per-em="1000"
    panose-1="2 0 0 0 0 0 0 0 0 0"
    ascent="782"
    descent="-218"
    x-height="462"
    cap-height="700"
    bbox="-195 -254 1145 987"
    underline-thickness="38"
    underline-position="-39"
    unicode-range="U+0020-FB04"
  />
<missing-glyph horiz-adv-x="570" 
d="M40 0l123 700h490l-123 -700h-490zM196 663l-110 -626h410l111 626h-411zM364 363c52 37 60 51 60 83c0 25 -17 51 -56 51c-60 0 -81 -55 -81 -55l-38 19s29 78 119 78c58 0 102 -33 102 -93c0 -34 -10 -59 -61 -99c-45 -35 -50 -35 -54 -58l-6 -36h-42l6 39
c6 37 8 40 51 71zM285 180c0 16 14 30 30 30c17 0 31 -14 31 -30c0 -17 -14 -30 -31 -30c-16 0 -30 13 -30 30z" />
    <glyph glyph-name="ff" unicode="ff" horiz-adv-x="607" 
d="M258 386l-68 -386h-84l68 386h-101l13 76h101l28 159c18 98 85 147 157 147c27 0 60 -2 98 -23l-34 -70s-28 15 -56 15c-45 0 -74 -29 -82 -74l-27 -154h190l28 159c18 98 85 147 157 147c27 0 60 -2 98 -23l-34 -70s-28 15 -56 15c-45 0 -74 -29 -82 -74l-27 -154h120
l-13 -76h-120l-68 -386h-84l68 386h-190z" />
    <glyph glyph-name="fi" unicode="fi" horiz-adv-x="538" 
d="M374 0l81 462h84l-81 -462h-84zM475 586l3 14c7 41 -4 90 -71 90c-63 0 -96 -49 -103 -90l-24 -138h103l-14 -76h-103l-68 -386h-84l68 386h-102l14 76h102l23 134c17 95 77 172 196 172c105 0 163 -77 146 -172l-2 -10c-4 -23 -26 -42 -49 -42s-39 19 -35 42z" />
    <glyph glyph-name="ffi" unicode="ffi" horiz-adv-x="798" 
d="M632 0l81 462h84l-81 -462h-84zM380 462l-13 -76h-101l-68 -386h-84l68 386h-101l13 76h101l24 134c17 95 80 172 193 172c65 0 102 -22 127 -56c36 34 77 56 134 56c113 0 165 -77 148 -172l-2 -10c-4 -23 -26 -42 -49 -42s-39 19 -35 42l3 14c7 41 -7 90 -72 90
c-62 0 -94 -47 -102 -87v-3l-25 -138h103l-13 -76h-103l-68 -386h-84l105 596l1 4c7 41 -8 90 -73 90c-63 0 -96 -49 -103 -90l-25 -138h101z" />
    <glyph glyph-name="ffj" unicode="ffj" horiz-adv-x="799" 
d="M475 -221l43 70c6 -4 20 -13 32 -13c23 0 54 6 66 71l98 555h84l-100 -563c-19 -110 -99 -141 -149 -141c-23 0 -48 4 -74 21zM380 462l-13 -76h-101l-68 -386h-84l68 386h-101l13 76h101l24 134c17 95 80 172 193 172c65 0 102 -22 127 -56c36 34 77 56 134 56
c113 0 165 -77 148 -172l-2 -10c-4 -23 -26 -42 -49 -42s-39 19 -35 42l3 14c7 41 -7 90 -72 90c-62 0 -94 -47 -102 -87v-3l-25 -138h103l-13 -76h-103l-68 -386h-84l105 596l1 4c7 41 -8 90 -73 90c-63 0 -96 -49 -103 -90l-25 -138h101z" />
    <glyph glyph-name="fl" unicode="fl" horiz-adv-x="538" 
d="M478 600c7 41 -4 90 -71 90c-63 0 -96 -49 -103 -90l-24 -138h103l-14 -76h-103l-68 -386h-84l68 386h-102l14 76h102l23 134c17 95 77 172 196 172c105 0 163 -77 146 -172l-105 -596h-84z" />
    <glyph glyph-name="ffl" unicode="ffl" horiz-adv-x="798" 
d="M380 462l-13 -76h-101l-68 -386h-84l68 386h-101l13 76h101l24 134c17 95 80 172 193 172c65 0 102 -22 127 -56c36 34 77 56 134 56c113 0 165 -77 148 -172l-105 -596h-84l103 586l2 14c6 43 -4 90 -71 90c-62 0 -94 -47 -102 -87v-3l-25 -138h103l-13 -76h-103
l-68 -386h-84l105 596l1 4c7 41 -8 90 -73 90c-63 0 -96 -49 -103 -90l-25 -138h101z" />
    <glyph glyph-name="fft" unicode="fft" horiz-adv-x="923" 
d="M266 386l-68 -386h-84l68 386h-101l13 76h101l28 159c18 98 85 147 157 147c27 0 60 -2 98 -23l-34 -70s-28 15 -56 15c-45 0 -74 -29 -82 -74l-27 -154h190l28 159c18 98 85 147 157 147c27 0 60 -2 98 -23l-34 -70s-28 15 -56 15c-45 0 -74 -29 -82 -74l-27 -154h190
l25 141h84l-25 -141h144l-13 -76h-144l-44 -249c-8 -45 7 -71 47 -71c33 0 67 22 67 22l30 -70c-44 -24 -79 -30 -116 -30c-56 0 -131 43 -113 145l45 253h-190l-68 -386h-84l68 386h-190z" />
    <glyph glyph-name=".notdef" horiz-adv-x="570" 
d="M40 0l123 700h490l-123 -700h-490zM196 663l-110 -626h410l111 626h-411zM364 363c52 37 60 51 60 83c0 25 -17 51 -56 51c-60 0 -81 -55 -81 -55l-38 19s29 78 119 78c58 0 102 -33 102 -93c0 -34 -10 -59 -61 -99c-45 -35 -50 -35 -54 -58l-6 -36h-42l6 39
c6 37 8 40 51 71zM285 180c0 16 14 30 30 30c17 0 31 -14 31 -30c0 -17 -14 -30 -31 -30c-16 0 -30 13 -30 30z" />
    <glyph glyph-name=".null" horiz-adv-x="0" 
 />
    <glyph glyph-name="carriagereturn" unicode="&#x21b5;" horiz-adv-x="796" 
d="M860 700l-87 -490h-590l133 -178l-58 -48l-193 263l266 253l47 -53l-176 -163h510l74 416h74z" />
    <glyph glyph-name="space" unicode=" " horiz-adv-x="280" 
 />
    <glyph glyph-name="percent" unicode="%" horiz-adv-x="712" 
d="M292 712c85 0 144 -54 144 -136c0 -109 -93 -174 -174 -174c-85 0 -144 54 -144 136c0 109 93 174 174 174zM262 456c63 0 116 57 116 120c0 46 -36 82 -86 82c-63 0 -116 -57 -116 -120c0 -46 36 -82 86 -82zM568 298c85 0 144 -54 144 -136c0 -109 -93 -174 -174 -174
c-85 0 -144 54 -144 136c0 109 93 174 174 174zM538 42c63 0 116 57 116 120c0 46 -36 82 -86 82c-63 0 -116 -57 -116 -120c0 -46 36 -82 86 -82zM88 2l599 728l42 -33l-599 -728z" />
    <glyph glyph-name="perthousand" unicode="&#x2030;" horiz-adv-x="1072" 
d="M928 298c85 0 144 -54 144 -136c0 -109 -93 -174 -174 -174c-85 0 -144 54 -144 136c0 109 93 174 174 174zM898 42c63 0 116 57 116 120c0 46 -36 82 -86 82c-63 0 -116 -57 -116 -120c0 -46 36 -82 86 -82zM292 712c85 0 144 -54 144 -136c0 -109 -93 -174 -174 -174
c-85 0 -144 54 -144 136c0 109 93 174 174 174zM262 456c63 0 116 57 116 120c0 46 -36 82 -86 82c-63 0 -116 -57 -116 -120c0 -46 36 -82 86 -82zM568 298c85 0 144 -54 144 -136c0 -109 -93 -174 -174 -174c-85 0 -144 54 -144 136c0 109 93 174 174 174zM538 42
c63 0 116 57 116 120c0 46 -36 82 -86 82c-63 0 -116 -57 -116 -120c0 -46 36 -82 86 -82zM88 2l599 728l42 -33l-599 -728z" />
    <glyph glyph-name="at" unicode="@" horiz-adv-x="799" 
d="M595 89l25 -54c-45 -22 -113 -47 -198 -47c-176 0 -315 125 -315 309c0 243 190 415 405 415c166 0 312 -108 312 -291c0 -215 -108 -272 -188 -272c-42 0 -85 15 -93 63c0 0 -36 -63 -133 -63c-55 0 -116 42 -116 114c0 79 69 141 166 141c64 0 103 -38 103 -38
s5 38 5 46c0 59 -40 71 -74 71c-65 0 -117 -38 -117 -38l-29 53s67 47 145 47c86 0 143 -43 143 -113c0 -10 -1 -23 -29 -181c-1 -4 -1 -8 -1 -11c0 -24 18 -32 39 -32c36 0 116 42 116 213c0 135 -104 229 -249 229c-187 0 -342 -146 -342 -353c0 -140 100 -247 252 -247
c76 0 136 21 173 39zM430 209c79 0 116 64 116 64l7 40s-32 34 -93 34c-55 0 -97 -33 -97 -79c0 -38 28 -59 67 -59z" />
    <glyph glyph-name="at.alt" horiz-adv-x="799" 
d="M642 191c55 0 138 84 138 235c0 139 -92 244 -250 244c-219 0 -380 -176 -380 -378c0 -148 105 -262 267 -262c79 0 145 24 182 42l17 -37c-45 -22 -114 -47 -199 -47c-188 0 -311 135 -311 304c0 227 185 420 424 420c184 0 293 -126 293 -286
c0 -193 -122 -277 -192 -277c-42 0 -80 15 -88 63c0 0 -41 -63 -133 -63c-55 0 -116 42 -116 111c0 83 68 144 165 144c59 0 104 -35 104 -35s5 35 5 43c0 57 -40 71 -74 71c-65 0 -117 -39 -117 -39l-29 53s67 48 145 48c86 0 143 -43 143 -113c0 -10 -4 -40 -32 -198
c-1 -4 -1 -8 -1 -11c0 -24 18 -32 39 -32zM430 209c79 0 116 64 116 64l7 42s-32 32 -93 32c-55 0 -97 -33 -97 -79c0 -38 28 -59 67 -59z" />
    <glyph glyph-name="ampersand" unicode="&#x26;" horiz-adv-x="701" 
d="M603 384h78c-15 -156 -81 -234 -81 -234l98 -104l-57 -57l-95 100c-63 -61 -166 -101 -262 -101c-121 0 -196 69 -196 143c0 88 54 140 193 244c-54 54 -81 107 -81 155c0 75 54 182 199 182c107 0 160 -70 160 -144c0 -72 -31 -104 -157 -203l145 -158s35 37 56 177z
M297 66c70 0 149 32 196 80l-157 175c-104 -78 -168 -131 -168 -175c0 -58 69 -80 129 -80zM394 638c-56 0 -111 -43 -111 -108c0 -41 34 -71 67 -111c102 84 126 88 126 146c0 34 -33 73 -82 73z" />
    <glyph glyph-name="question" unicode="?" horiz-adv-x="482" 
d="M333 386c98 66 113 95 113 153c0 47 -36 95 -105 95c-112 0 -151 -102 -151 -102l-70 34s58 146 221 146c99 0 190 -60 190 -173c0 -58 -14 -116 -114 -187c-86 -61 -93 -66 -100 -108l-11 -64h-79l12 69c12 69 12 82 94 137zM196 44c0 31 25 57 56 57s57 -26 57 -57
s-26 -56 -57 -56s-56 25 -56 56z" />
    <glyph glyph-name="questiondown" unicode="&#xbf;" horiz-adv-x="482" 
d="M231 76c-98 -66 -113 -95 -113 -153c0 -47 36 -95 105 -95c112 0 151 102 151 102l70 -34s-58 -146 -221 -146c-99 0 -190 60 -190 173c0 58 14 116 114 187c86 61 93 66 100 108l11 64h79l-12 -69c-12 -69 -12 -82 -94 -137zM368 418c0 -31 -25 -57 -56 -57
s-57 26 -57 57s26 56 57 56s56 -25 56 -56z" />
    <glyph glyph-name="exclam" unicode="!" horiz-adv-x="277" 
d="M304 700l-91 -519h-84l91 519h84zM203 45c0 -30 -26 -57 -56 -57s-57 27 -57 57s27 56 57 56s56 -26 56 -56z" />
    <glyph glyph-name="exclamdown" unicode="&#xa1;" horiz-adv-x="277" 
d="M230 281l-91 -519h-84l91 519h84zM268 417c0 -30 -26 -56 -56 -56s-57 26 -57 56s27 57 57 57s56 -27 56 -57z" />
    <glyph glyph-name="period" unicode="." horiz-adv-x="230" 
d="M65 45c0 31 26 57 57 57s57 -26 57 -57s-26 -57 -57 -57s-57 26 -57 57z" />
    <glyph glyph-name="colon" unicode=":" horiz-adv-x="236" 
d="M68 45c0 31 26 57 57 57s57 -26 57 -57s-26 -57 -57 -57s-57 26 -57 57zM134 417c0 31 26 57 57 57s57 -26 57 -57s-26 -57 -57 -57s-57 26 -57 57z" />
    <glyph glyph-name="ellipsis" unicode="&#x2026;" horiz-adv-x="1000" 
d="M120 45c0 31 26 57 57 57s57 -26 57 -57s-26 -57 -57 -57s-57 26 -57 57zM450 45c0 31 26 57 57 57s57 -26 57 -57s-26 -57 -57 -57s-57 26 -57 57zM780 45c0 31 26 57 57 57s57 -26 57 -57s-26 -57 -57 -57s-57 26 -57 57z" />
    <glyph glyph-name="comma" unicode="," horiz-adv-x="229" 
d="M0 -137l118 229l71 -36l-124 -227z" />
    <glyph glyph-name="semicolon" unicode=";" horiz-adv-x="230" 
d="M141 417c0 31 26 57 57 57s57 -26 57 -57s-26 -57 -57 -57s-57 26 -57 57zM-1 -137l118 229l71 -36l-124 -227z" />
    <glyph glyph-name="asciitilde" unicode="~" horiz-adv-x="430" 
d="M121 273l-58 39s36 91 137 91c54 0 96 -47 132 -47c58 0 76 59 76 59l56 -39s-33 -91 -134 -91c-59 0 -99 47 -136 47c-56 0 -73 -59 -73 -59z" />
    <glyph glyph-name="hyphen" unicode="-" horiz-adv-x="333" 
d="M69 204l14 80h267l-14 -80h-267z" />
    <glyph glyph-name="underscore" unicode="_" horiz-adv-x="500" 
d="M0 -230l15 80h416l-15 -80h-416z" />
    <glyph glyph-name="endash" unicode="&#x2013;" horiz-adv-x="500" 
d="M36 204l14 80h500l-15 -80h-499z" />
    <glyph glyph-name="emdash" unicode="&#x2014;" horiz-adv-x="1000" 
d="M36 204l14 80h1000l-15 -80h-999z" />
    <glyph glyph-name="zero" unicode="0" horiz-adv-x="592" 
d="M410 712c138 0 211 -113 211 -255c0 -202 -78 -469 -315 -469c-138 0 -211 113 -211 255c0 202 78 469 315 469zM315 66c162 0 221 231 221 381c0 101 -34 187 -134 187c-162 0 -222 -231 -222 -381c0 -102 35 -187 135 -187z" />
    <glyph glyph-name="one" unicode="1" horiz-adv-x="405" 
d="M109 549l217 151h82l-123 -700h-84l104 590l-152 -106z" />
    <glyph glyph-name="two" unicode="2" horiz-adv-x="532" 
d="M52 0l304 328c31 33 121 117 121 202c0 57 -41 104 -116 104c-111 0 -147 -107 -147 -107l-74 28s50 157 221 157c123 0 202 -74 202 -182c0 -91 -65 -158 -97 -198c-27 -33 -231 -254 -231 -254h264l-13 -78h-434z" />
    <glyph glyph-name="three" unicode="3" horiz-adv-x="544" 
d="M331 396c78 0 164 44 164 139c0 58 -48 99 -114 99c-106 0 -141 -91 -141 -91l-70 33s55 136 211 136c102 0 198 -57 198 -177c0 -105 -83 -165 -115 -176c16 -5 88 -37 88 -144c0 -133 -110 -227 -245 -227c-174 0 -218 157 -218 157l74 35s30 -114 144 -114
c101 0 160 68 160 149c0 63 -50 104 -138 104h-43l14 77h31z" />
    <glyph glyph-name="four" unicode="4" horiz-adv-x="562" 
d="M34 184l455 516h85l-77 -438h87l-14 -78h-87l-32 -184h-82l32 184h-367zM198 262h217l55 310z" />
    <glyph glyph-name="five" unicode="5" horiz-adv-x="575" 
d="M572 256c0 -157 -113 -268 -263 -268c-178 0 -223 157 -223 157l74 35s34 -114 149 -114c94 0 178 65 178 190c0 83 -66 124 -142 124c-95 0 -192 -72 -192 -72l68 392h400l-13 -78h-319l-33 -185s41 23 113 23c102 0 203 -67 203 -204z" />
    <glyph glyph-name="six" unicode="6" horiz-adv-x="542" 
d="M489 678l-181 -231s24 3 43 3c123 0 195 -83 195 -201c0 -132 -109 -261 -258 -261c-131 0 -208 85 -208 202c0 59 30 122 67 175c36 51 276 359 276 359zM339 372c-100 0 -174 -93 -174 -182c0 -68 45 -124 125 -124c99 0 171 96 171 183c0 69 -43 123 -122 123z" />
    <glyph glyph-name="seven" unicode="7" horiz-adv-x="506" 
d="M135 622l14 78h486l-499 -718l-67 39l414 601h-348z" />
    <glyph glyph-name="eight" unicode="8" horiz-adv-x="552" 
d="M398 712c128 0 180 -85 180 -168c0 -71 -43 -136 -112 -167c48 -26 80 -85 80 -151c0 -125 -105 -238 -249 -238c-133 0 -201 90 -201 189c0 87 52 171 141 206c-36 26 -58 71 -58 119c0 104 91 210 219 210zM297 66c97 0 164 81 164 160c0 61 -42 113 -117 113
c-97 0 -163 -80 -163 -162c0 -59 41 -111 116 -111zM360 412c69 0 133 58 133 132c0 52 -42 90 -95 90c-72 0 -135 -58 -135 -132c0 -54 41 -90 97 -90z" />
    <glyph glyph-name="nine" unicode="9" horiz-adv-x="542" 
d="M175 25l190 232s-19 -7 -38 -7c-135 0 -205 86 -205 200c0 121 105 262 258 262c133 0 208 -84 208 -201c0 -59 -25 -116 -62 -169c-36 -51 -289 -363 -289 -363zM329 328c100 0 174 88 174 183c0 68 -45 123 -125 123c-96 0 -171 -91 -171 -184c0 -69 43 -122 122 -122z
" />
    <glyph glyph-name="oneeighth" unicode="&#x215b;" horiz-adv-x="830" 
d="M147 577l169 123h48l-71 -406h-56l57 325l-120 -86zM160 1l605 732l38 -34l-603 -733zM712 412c75 0 112 -50 112 -103c0 -42 -27 -80 -62 -95c29 -18 44 -47 44 -82c0 -79 -67 -138 -149 -138c-71 0 -123 46 -123 112c0 53 36 97 80 115c-20 14 -35 40 -35 69
c0 63 55 122 133 122zM657 46c51 0 92 40 92 86c0 34 -25 60 -66 60c-56 0 -92 -40 -92 -86c0 -34 25 -60 66 -60zM691 238c41 0 77 33 77 71c0 28 -23 51 -56 51c-47 0 -78 -33 -78 -70c0 -29 23 -52 57 -52z" />
    <glyph glyph-name="onequarter" unicode="&#xbc;" horiz-adv-x="830" 
d="M479 93l271 313h54l-45 -259h54l-10 -54h-54l-16 -93h-56l16 93h-214zM590 147h113l29 164zM147 577l169 123h48l-71 -406h-56l57 325l-120 -86zM188 1l605 732l38 -34l-603 -733z" />
    <glyph glyph-name="onethird" unicode="&#x2153;" horiz-adv-x="830" 
d="M147 577l169 123h48l-71 -406h-56l57 325l-120 -86zM161 1l605 732l38 -34l-603 -733zM683 231c41 0 90 20 90 73c0 32 -27 56 -66 56c-67 0 -89 -56 -89 -56l-45 23s35 85 134 85c70 0 123 -43 123 -108c0 -42 -29 -81 -71 -99c0 0 48 -15 48 -82
c0 -71 -59 -129 -149 -129c-108 0 -132 97 -132 97l49 24s15 -69 85 -69c43 0 90 27 90 77c0 33 -21 56 -69 56h-24l9 52h17z" />
    <glyph glyph-name="threeeighths" unicode="&#x215c;" horiz-adv-x="830" 
d="M712 412c75 0 112 -50 112 -103c0 -42 -27 -80 -62 -95c29 -18 44 -47 44 -82c0 -79 -67 -138 -149 -138c-71 0 -123 46 -123 112c0 53 36 97 80 115c-20 14 -35 40 -35 69c0 63 55 122 133 122zM657 46c51 0 92 40 92 86c0 34 -25 60 -66 60c-56 0 -92 -40 -92 -86
c0 -34 25 -60 66 -60zM691 238c41 0 77 33 77 71c0 28 -23 51 -56 51c-47 0 -78 -33 -78 -70c0 -29 23 -52 57 -52zM160 1l605 732l38 -34l-603 -733zM268 525c41 0 90 20 90 73c0 32 -27 56 -66 56c-67 0 -89 -56 -89 -56l-45 23s35 85 134 85c70 0 123 -43 123 -108
c0 -42 -29 -81 -71 -99c0 0 48 -15 48 -82c0 -71 -59 -129 -149 -129c-108 0 -132 97 -132 97l49 24s15 -69 85 -69c43 0 90 27 90 77c0 33 -21 56 -69 56h-24l9 52h17z" />
    <glyph glyph-name="onehalf" unicode="&#xbd;" horiz-adv-x="830" 
d="M746 165c-7 -7 -116 -111 -116 -111h149l-10 -54h-278l196 181c35 32 71 66 71 114c0 35 -24 65 -69 65c-72 0 -101 -71 -101 -71l-47 21s38 102 148 102c69 0 126 -40 126 -114c0 -55 -21 -87 -69 -133zM140 1l605 732l38 -34l-603 -733zM147 577l169 123h48l-71 -406
h-56l57 325l-120 -86z" />
    <glyph glyph-name="fiveeighths" unicode="&#x215d;" horiz-adv-x="830" 
d="M405 443c0 -90 -74 -155 -164 -155c-109 0 -129 91 -129 91l48 22s16 -61 81 -61c54 0 106 43 106 103c0 48 -41 73 -81 73c-65 0 -120 -45 -120 -45l42 229h239l-9 -52h-183l-17 -90s26 10 62 10c59 0 125 -38 125 -125zM163 1l605 732l38 -34l-603 -733zM712 412
c75 0 112 -50 112 -103c0 -42 -27 -80 -62 -95c29 -18 44 -47 44 -82c0 -79 -67 -138 -149 -138c-71 0 -123 46 -123 112c0 53 36 97 80 115c-20 14 -35 40 -35 69c0 63 55 122 133 122zM657 46c51 0 92 40 92 86c0 34 -25 60 -66 60c-56 0 -92 -40 -92 -86
c0 -34 25 -60 66 -60zM691 238c41 0 77 33 77 71c0 28 -23 51 -56 51c-47 0 -78 -33 -78 -70c0 -29 23 -52 57 -52z" />
    <glyph glyph-name="twothirds" unicode="&#x2154;" horiz-adv-x="830" 
d="M326 459c-7 -7 -116 -111 -116 -111h149l-10 -54h-278l196 181c35 32 71 66 71 114c0 35 -24 65 -69 65c-72 0 -101 -71 -101 -71l-47 21s38 102 148 102c69 0 126 -40 126 -114c0 -55 -21 -87 -69 -133zM693 231c41 0 90 20 90 73c0 32 -27 56 -66 56
c-67 0 -89 -56 -89 -56l-45 23s35 85 134 85c70 0 123 -43 123 -108c0 -42 -29 -81 -71 -99c0 0 48 -15 48 -82c0 -71 -59 -129 -149 -129c-108 0 -132 97 -132 97l49 24s15 -69 85 -69c43 0 90 27 90 77c0 33 -21 56 -69 56h-24l9 52h17zM175 1l605 732l38 -34l-603 -733z
" />
    <glyph glyph-name="threequarters" unicode="&#xbe;" horiz-adv-x="830" 
d="M188 1l605 732l38 -34l-603 -733zM480 93l271 313h54l-45 -259h54l-10 -54h-54l-16 -93h-56l16 93h-214zM591 147h113l29 164zM271 525c41 0 90 20 90 73c0 32 -27 56 -66 56c-67 0 -89 -56 -89 -56l-45 23s35 85 134 85c70 0 123 -43 123 -108c0 -42 -29 -81 -71 -99
c0 0 48 -15 48 -82c0 -71 -59 -129 -149 -129c-108 0 -132 97 -132 97l49 24s15 -69 85 -69c43 0 90 27 90 77c0 33 -21 56 -69 56h-24l9 52h17z" />
    <glyph glyph-name="seveneighths" unicode="&#x215e;" horiz-adv-x="830" 
d="M172 648l9 52h294l-287 -414l-45 25l234 337h-205zM132 0l605 732l38 -34l-603 -733zM716 411c75 0 112 -50 112 -103c0 -42 -27 -80 -62 -95c29 -18 44 -47 44 -82c0 -79 -67 -138 -149 -138c-71 0 -123 46 -123 112c0 53 36 97 80 115c-20 14 -35 40 -35 69
c0 63 55 122 133 122zM661 45c51 0 92 40 92 86c0 34 -25 60 -66 60c-56 0 -92 -40 -92 -86c0 -34 25 -60 66 -60zM695 237c41 0 77 33 77 71c0 28 -23 51 -56 51c-47 0 -78 -33 -78 -70c0 -29 23 -52 57 -52z" />
    <glyph glyph-name="A" unicode="A" horiz-adv-x="642" 
d="M8 0l398 700h78l150 -700h-85l-40 189h-302l-106 -189h-93zM427 583l-175 -314h240z" />
    <glyph glyph-name="B" unicode="B" horiz-adv-x="563" 
d="M82 0l123 700h195c115 0 184 -63 184 -153c0 -108 -53 -162 -103 -185c17 -2 87 -41 87 -127c0 -139 -92 -235 -247 -235h-239zM180 80h140c109 0 162 62 162 143c0 55 -37 97 -125 97h-135zM236 398h128c81 0 135 56 135 134c0 54 -32 88 -110 88h-114z" />
    <glyph glyph-name="C" unicode="C" horiz-adv-x="663" 
d="M741 605l-60 -51s-65 78 -196 78c-136 0 -301 -116 -301 -327c0 -154 90 -237 221 -237c123 0 207 95 207 95l54 -60s-98 -115 -261 -115c-202 0 -312 142 -312 317c0 229 186 407 392 407c180 0 256 -107 256 -107z" />
    <glyph glyph-name="D" unicode="D" horiz-adv-x="667" 
d="M416 700c180 0 282 -135 282 -300c0 -243 -153 -400 -405 -400h-211l123 700h211zM180 80h118c181 0 308 118 308 320c0 131 -73 220 -219 220h-112z" />
    <glyph glyph-name="E" unicode="E" horiz-adv-x="544" 
d="M275 620l-39 -221h296l-14 -80h-296l-42 -239h326l-14 -80h-410l123 700h404l-14 -80h-320z" />
    <glyph glyph-name="F" unicode="F" horiz-adv-x="523" 
d="M275 620l-39 -221h291l-14 -80h-291l-56 -319h-84l123 700h395l-14 -80h-311z" />
    <glyph glyph-name="G" unicode="G" horiz-adv-x="715" 
d="M736 605l-60 -55s-68 82 -191 82c-153 0 -300 -113 -300 -324c0 -165 112 -240 231 -240c114 0 182 43 182 43l33 193h-175l14 80h258l-56 -319s-97 -77 -256 -77c-180 0 -323 113 -323 320c0 228 166 404 392 404c174 0 251 -107 251 -107z" />
    <glyph glyph-name="H" unicode="H" horiz-adv-x="683" 
d="M587 399l53 301h84l-123 -700h-84l56 319h-351l-56 -319h-84l123 700h84l-53 -301h351z" />
    <glyph glyph-name="I" unicode="I" horiz-adv-x="276" 
d="M96 0l123 700h84l-123 -700h-84z" />
    <glyph glyph-name="J" unicode="J" horiz-adv-x="474" 
d="M341 186c40 231 90 514 90 514h84l-90 -513c-22 -125 -100 -199 -223 -199c-120 0 -183 97 -183 97l61 56s47 -73 122 -73c94 0 129 64 139 118z" />
    <glyph glyph-name="K" unicode="K" horiz-adv-x="589" 
d="M289 700l-57 -324l336 324h111l-356 -343l266 -357h-107l-255 344l-61 -344h-84l123 700h84z" />
    <glyph glyph-name="L" unicode="L" horiz-adv-x="488" 
d="M82 0l123 700h84l-109 -620h314l-14 -80h-398z" />
    <glyph glyph-name="M" unicode="M" horiz-adv-x="810" 
d="M205 700h79l182 -391l291 391h94l-123 -700h-84l96 547l-294 -388l-184 388l-96 -547h-84z" />
    <glyph glyph-name="N" unicode="N" horiz-adv-x="710" 
d="M205 700h79l284 -560l99 560h84l-123 -700h-79l-284 560l-99 -560h-84z" />
    <glyph glyph-name="O" unicode="O" horiz-adv-x="768" 
d="M476 712c215 0 321 -153 321 -320c0 -206 -161 -404 -384 -404c-215 0 -320 153 -320 320c0 206 160 404 383 404zM413 68c161 0 294 137 294 324c0 143 -87 240 -231 240c-161 0 -292 -137 -292 -324c0 -143 85 -240 229 -240z" />
    <glyph glyph-name="P" unicode="P" horiz-adv-x="528" 
d="M82 0l123 700h181c126 0 207 -64 207 -182c0 -162 -111 -240 -270 -240h-108l-49 -278h-84zM229 358h103c96 0 177 40 177 150c0 88 -66 112 -142 112h-92z" />
    <glyph glyph-name="Q" unicode="Q" horiz-adv-x="791" 
d="M476 712c215 0 321 -153 321 -320c0 -102 -40 -201 -106 -276l84 -89l-60 -56l-84 89c-61 -45 -135 -72 -218 -72c-215 0 -320 153 -320 320c0 206 160 404 383 404zM486 214l59 56l89 -95c45 56 73 131 73 217c0 143 -87 240 -231 240c-161 0 -292 -137 -292 -324
c0 -143 85 -240 229 -240c59 0 115 18 162 51z" />
    <glyph glyph-name="R" unicode="R" horiz-adv-x="553" 
d="M338 366c103 0 167 55 167 142c0 72 -43 112 -127 112h-103l-45 -254h108zM82 0l123 700h187c129 0 197 -81 197 -176c0 -167 -121 -224 -207 -231l143 -293h-95l-139 286h-75l-50 -286h-84z" />
    <glyph glyph-name="S" unicode="S" horiz-adv-x="542" 
d="M292 68c74 0 145 45 145 128c0 59 -47 92 -111 124c-83 42 -160 83 -160 190c0 105 97 202 222 202c139 0 196 -100 196 -100l-65 -50s-49 70 -131 70c-71 0 -137 -48 -137 -122c0 -58 51 -80 131 -121c86 -44 143 -95 143 -193c0 -119 -102 -208 -233 -208
c-166 0 -219 142 -219 142l74 44s40 -106 145 -106z" />
    <glyph glyph-name="T" unicode="T" horiz-adv-x="514" 
d="M215 0l109 620h-201l14 80h486l-14 -80h-201l-109 -620h-84z" />
    <glyph glyph-name="U" unicode="U" horiz-adv-x="674" 
d="M555 267c41 231 76 433 76 433h84l-78 -442c-28 -159 -126 -270 -289 -270c-175 0 -249 111 -221 270l78 442h84s-36 -207 -77 -438c-20 -114 10 -194 136 -194c121 0 187 86 207 199z" />
    <glyph glyph-name="V" unicode="V" horiz-adv-x="592" 
d="M711 700l-419 -720l-165 720h87l112 -513l293 513h92z" />
    <glyph glyph-name="W" unicode="W" horiz-adv-x="950" 
d="M1073 700l-397 -720l-104 551l-299 -551l-142 720h89l91 -488l260 488h58l85 -488l268 488h91z" />
    <glyph glyph-name="X" unicode="X" horiz-adv-x="590" 
d="M478 0l-128 294l-232 -294h-100l289 362l-151 338h93l119 -272l214 272h98l-269 -338l162 -362h-95z" />
    <glyph glyph-name="Y" unicode="Y" 
d="M248 0l48 275l-161 425h88l128 -344l245 344h95l-311 -425l-48 -275h-84z" />
    <glyph glyph-name="Z" unicode="Z" horiz-adv-x="572" 
d="M157 700h519l-497 -620h369l-14 -80h-516l496 620h-371z" />
    <glyph glyph-name="a" unicode="a" horiz-adv-x="512" 
d="M318 474c149 0 197 -89 182 -175l-52 -299h-77l11 67s-62 -79 -164 -79c-83 0 -152 51 -152 143c0 94 89 169 207 169c83 0 136 -42 136 -42l5 29c17 96 -59 109 -94 109c-71 0 -150 -35 -150 -35l-26 73s73 40 174 40zM240 62c80 0 147 70 147 70l11 65s-46 33 -115 33
c-64 0 -132 -30 -132 -99c0 -51 44 -69 89 -69z" />
    <glyph glyph-name="b" unicode="b" horiz-adv-x="571" 
d="M395 474c107 0 188 -83 188 -209c0 -153 -105 -277 -262 -277c-100 0 -150 84 -150 84l-12 -72h-77l133 756h84l-61 -346s57 64 157 64zM221 316l-30 -170s33 -80 128 -80c111 0 179 95 179 199c0 75 -45 131 -126 131c-92 0 -151 -80 -151 -80z" />
    <glyph glyph-name="c" unicode="c" horiz-adv-x="477" 
d="M423 134l52 -57s-69 -89 -191 -89c-140 0 -213 95 -213 209c0 153 125 277 271 277c123 0 180 -81 180 -81l-62 -53s-36 56 -118 56c-105 0 -186 -95 -186 -199c0 -75 47 -131 128 -131c88 0 139 68 139 68z" />
    <glyph glyph-name="d" unicode="d" horiz-adv-x="571" 
d="M330 474c100 0 145 -71 145 -71l63 353h84l-133 -756h-77l12 68s-57 -80 -163 -80c-104 0 -192 77 -192 207c0 138 103 279 261 279zM429 144l32 179s-37 73 -128 73c-105 0 -179 -96 -179 -201c0 -74 46 -129 127 -129c90 0 148 78 148 78z" />
    <glyph glyph-name="e" unicode="e" horiz-adv-x="520" 
d="M335 474c118 0 200 -74 200 -196c0 -24 -5 -52 -11 -77h-368c-7 -67 43 -135 128 -135c96 0 152 70 152 70l53 -57s-79 -91 -205 -91c-129 0 -213 87 -213 207c0 155 120 279 264 279zM165 271h289c6 52 -28 125 -119 125c-103 0 -156 -76 -170 -125z" />
    <glyph glyph-name="f" unicode="f" horiz-adv-x="343" 
d="M83 386l13 76h101l28 159c18 98 84 147 157 147c63 0 98 -23 98 -23l-33 -70s-29 15 -57 15c-45 0 -74 -29 -82 -74l-27 -154h120l-13 -76h-120l-68 -386h-84l68 386h-101z" />
    <glyph glyph-name="g" unicode="g" horiz-adv-x="553" 
d="M404 -6l11 61s-52 -67 -156 -67c-100 0 -190 78 -190 208c0 137 103 278 261 278c106 0 152 -79 152 -79l12 67h77l-82 -464c-29 -160 -122 -240 -265 -240c-131 0 -208 88 -208 88l54 64s64 -74 154 -74c94 0 162 54 180 158zM430 144l32 179s-37 73 -129 73
c-105 0 -179 -96 -179 -200c0 -74 45 -130 127 -130c90 0 149 78 149 78z" />
    <glyph glyph-name="h" unicode="h" horiz-adv-x="540" 
d="M381 474c91 0 167 -63 147 -177l-52 -297h-84l50 283c14 79 -26 113 -91 113c-80 0 -128 -73 -128 -73l-57 -323h-84l133 756h84l-62 -351c18 20 69 69 144 69z" />
    <glyph glyph-name="i" unicode="i" horiz-adv-x="242" 
d="M79 0l81 462h84l-81 -462h-84zM161 610c0 31 26 57 57 57s57 -26 57 -57s-26 -57 -57 -57s-57 26 -57 57z" />
    <glyph glyph-name="j" unicode="j" horiz-adv-x="257" 
d="M-53 -222l32 70c7 -4 24 -12 40 -12c24 0 48 6 60 71l97 555h84l-99 -563c-19 -110 -79 -141 -139 -141c-22 0 -49 4 -75 20zM177 610c0 31 26 57 57 57s57 -26 57 -57s-26 -57 -57 -57s-57 26 -57 57z" />
    <glyph glyph-name="k" unicode="k" horiz-adv-x="494" 
d="M385 0l-180 224l-39 -224h-84l133 756h84l-87 -492l224 198h119l-255 -221l192 -241h-107z" />
    <glyph glyph-name="l" unicode="l" horiz-adv-x="248" 
d="M82 0l133 756h84l-133 -756h-84z" />
    <glyph glyph-name="m" unicode="m" horiz-adv-x="776" 
d="M632 474c86 0 152 -63 132 -177l-52 -297h-84l50 284c13 75 -12 112 -79 112c-69 0 -113 -74 -113 -74l-56 -322h-84l50 284c13 75 -12 112 -79 112c-68 0 -113 -74 -113 -74l-56 -322h-84l81 462h78l-13 -71s41 83 140 83c107 0 128 -85 128 -85s48 85 154 85z" />
    <glyph glyph-name="n" unicode="n" horiz-adv-x="522" 
d="M365 474c87 0 165 -63 145 -177l-52 -297h-84l50 283c14 80 -26 113 -91 113c-74 0 -128 -72 -128 -72l-57 -324h-84l81 462h78l-11 -65s61 77 153 77z" />
    <glyph glyph-name="o" unicode="o" horiz-adv-x="540" 
d="M341 474c135 0 212 -89 212 -215c0 -130 -105 -271 -270 -271c-135 0 -212 87 -212 213c0 131 105 273 270 273zM283 66c117 0 186 100 186 193c0 92 -61 137 -128 137c-117 0 -186 -102 -186 -195c0 -91 61 -135 128 -135z" />
    <glyph glyph-name="p" unicode="p" horiz-adv-x="553" 
d="M376 474c109 0 189 -83 189 -209c0 -153 -106 -277 -256 -277c-100 0 -151 69 -151 69l-51 -287h-84l122 692h77l-11 -63s56 75 165 75zM203 316l-31 -176s42 -74 128 -74c111 0 180 95 180 199c0 75 -46 131 -127 131c-92 0 -150 -80 -150 -80z" />
    <glyph glyph-name="q" unicode="q" horiz-adv-x="553" 
d="M492 462h77l-121 -692h-84l49 279s-57 -61 -153 -61c-104 0 -192 77 -192 207c0 138 102 279 261 279c107 0 151 -79 151 -79zM428 144l32 179s-37 73 -128 73c-106 0 -179 -96 -179 -201c0 -74 46 -129 127 -129c90 0 148 78 148 78z" />
    <glyph glyph-name="r" unicode="r" horiz-adv-x="340" 
d="M349 474c44 0 70 -12 70 -12l-34 -76s-26 10 -61 10c-73 0 -120 -78 -120 -78l-56 -318h-84l81 462h78l-12 -71s48 83 138 83z" />
    <glyph glyph-name="s" unicode="s" horiz-adv-x="455" 
d="M48 81l58 56s50 -73 139 -73c52 0 109 23 109 67c0 34 -27 47 -96 64c-82 20 -144 58 -144 134s67 145 178 145c114 0 174 -65 174 -65l-49 -60s-57 49 -125 49c-62 0 -95 -31 -95 -65c0 -32 26 -44 96 -63c76 -21 146 -48 146 -132c0 -102 -98 -150 -194 -150
c-136 0 -197 93 -197 93z" />
    <glyph glyph-name="t" unicode="t" horiz-adv-x="376" 
d="M82 386l13 76h100l25 141h84l-25 -141h144l-13 -76h-144l-44 -249c-8 -45 10 -71 47 -71c30 0 63 23 63 23l30 -69s-45 -32 -111 -32c-57 0 -131 48 -113 150l44 248h-100z" />
    <glyph glyph-name="u" unicode="u" horiz-adv-x="522" 
d="M241 -12c-75 0 -151 52 -151 145c0 10 0 27 55 329h84c-52 -281 -53 -304 -53 -313c0 -57 36 -83 91 -83c78 0 132 76 132 76l56 320h84l-81 -462h-78l12 71s-54 -83 -151 -83z" />
    <glyph glyph-name="v" unicode="v" horiz-adv-x="474" 
d="M87 462h89l87 -308l194 308h92l-316 -482z" />
    <glyph glyph-name="w" unicode="w" horiz-adv-x="742" 
d="M89 462h86l70 -299l176 299h60l69 -295l176 295h89l-296 -482l-91 347l-213 -347z" />
    <glyph glyph-name="x" unicode="x" horiz-adv-x="489" 
d="M113 462h94l88 -171l143 171h99l-197 -227l127 -235h-95l-93 178l-152 -178h-105l211 237z" />
    <glyph glyph-name="y" unicode="y" horiz-adv-x="500" 
d="M-5 -214l36 71s26 -21 54 -21c39 0 57 26 83 71l53 92l-134 463h94l97 -365l203 365h96s-335 -584 -351 -611c-39 -67 -86 -93 -140 -93c-57 0 -91 28 -91 28z" />
    <glyph glyph-name="z" unicode="z" horiz-adv-x="470" 
d="M129 462h391l-321 -384h251l-14 -78h-402l322 384h-241z" />
    <glyph glyph-name="a.alt" horiz-adv-x="553" 
d="M429 144l32 179s-37 73 -128 73c-105 0 -179 -96 -179 -201c0 -74 46 -129 127 -129c90 0 148 78 148 78zM493 462h77l-81 -462h-74l12 68s-60 -80 -166 -80c-103 0 -192 78 -192 207c0 139 102 279 261 279c106 0 151 -79 151 -79z" />
    <glyph glyph-name="dollar" unicode="$" 
d="M258 -94l15 85c-130 19 -179 139 -179 139l73 44s34 -91 120 -105l45 254c-78 40 -147 84 -147 187s85 199 215 202l15 82h51l-15 -86c104 -18 152 -96 152 -96l-66 -51s-36 54 -100 68l-43 -240l7 -3c86 -44 143 -90 143 -190c0 -115 -94 -202 -221 -208l-14 -82h-51z
M456 196c0 48 -32 77 -78 103l-40 -229c63 11 118 57 118 126zM270 510c0 -44 29 -69 78 -97l38 217c-63 -8 -116 -54 -116 -120z" />
    <glyph glyph-name="cent" unicode="&#xa2;" 
d="M479 134l52 -57s-69 -88 -191 -89l-14 -82h-51l15 87c-105 20 -163 104 -163 204c0 145 112 264 248 276l15 85h51l-15 -86c103 -11 152 -79 152 -79l-62 -53s-32 49 -104 55l-58 -329c79 7 125 68 125 68zM212 197c0 -63 33 -113 92 -127l56 321
c-86 -19 -148 -103 -148 -194z" />
    <glyph glyph-name="sterling" unicode="&#xa3;" 
d="M411 632c-73 0 -148 -47 -148 -138c0 -42 19 -71 39 -122h173l-11 -64h-143s6 -20 6 -58c0 -73 -44 -121 -44 -121c42 -9 80 -61 124 -61c57 0 83 64 83 64l64 -43s-43 -101 -147 -101c-95 0 -114 68 -179 68c-60 0 -90 -68 -90 -68l-67 43s35 78 113 99
c0 0 58 47 58 120c0 19 -1 40 -8 58h-110l11 64h75c-19 46 -33 80 -33 122c0 112 89 218 237 218c134 0 186 -99 186 -99l-67 -52s-43 71 -122 71z" />
    <glyph glyph-name="yen" unicode="&#xa5;" 
d="M249 0l44 251h-213l11 64h191l-27 70h-151l11 64h116l-95 251h88l128 -344l245 344h95l-183 -251h116l-11 -64h-152l-52 -70h191l-11 -64h-213l-44 -251h-84z" />
    <glyph glyph-name="Euro" unicode="&#x20ac;" 
d="M676 687l-30 -74s-42 19 -106 19c-120 0 -214 -78 -257 -183h234l-11 -64h-242c-7 -22 -11 -50 -13 -70h242l-11 -64h-233c1 -93 60 -183 187 -183c58 0 106 23 106 23l23 -77s-63 -26 -139 -26c-185 0 -264 137 -265 263h-84l11 64h74c2 23 7 47 13 70h-74l11 64h81
c57 152 185 263 347 263c90 0 136 -25 136 -25z" />
    <glyph glyph-name="euro.alt" horiz-adv-x="739" 
d="M86 385l11 64h102c62 153 203 263 364 263c124 0 200 -47 252 -122l-62 -49c-37 56 -111 91 -190 91c-125 0 -220 -78 -271 -183h334l-11 -64h-345s-6 -20 -9 -35s-4 -35 -4 -35h303l-11 -64h-294c10 -109 86 -183 208 -183c79 0 165 40 225 98l52 -61
c-77 -73 -180 -117 -287 -117c-170 0 -276 106 -286 263h-105l11 64h94s2 20 5 35c2 12 8 35 8 35h-94z" />
    <glyph glyph-name="florin" unicode="&#x192;" 
d="M354 388l-127 -362c-43 -125 -119 -173 -231 -173h-36l14 78h33c83 0 121 51 141 110l122 347h-96l25 74h96l61 169c35 98 101 137 177 137c53 0 95 -25 95 -25l-39 -68s-29 15 -56 15c-53 0 -83 -29 -99 -74l-55 -154h120l-25 -74h-120z" />
    <glyph glyph-name="currency" unicode="&#xa4;" 
d="M185 582l56 -65c40 24 87 38 137 38c55 0 100 -16 133 -43l82 70l48 -58l-81 -69c16 -31 25 -66 25 -103c0 -67 -26 -127 -67 -172l54 -64l-61 -51l-53 64c-41 -25 -88 -38 -137 -38c-56 0 -102 17 -136 45l-83 -71l-49 58l85 72c-16 30 -24 65 -24 101
c0 66 25 125 65 170l-55 65zM378 483c-100 0 -191 -81 -191 -187c0 -75 54 -133 134 -133c98 0 191 84 191 189c0 76 -54 131 -134 131z" />
    <glyph glyph-name="section" unicode="&#xa7;" horiz-adv-x="508" 
d="M231 -114c50 0 110 34 110 96c0 54 -50 75 -109 111c-61 37 -115 77 -115 155c0 80 63 123 135 149c-45 33 -74 83 -74 139c0 99 86 176 196 176c115 0 163 -82 163 -82l-64 -50s-30 52 -99 52c-67 0 -110 -45 -110 -96c0 -54 50 -75 109 -111c61 -37 115 -78 115 -146
c0 -80 -61 -128 -133 -160c44 -32 72 -71 72 -137c0 -97 -89 -176 -196 -176c-115 0 -163 83 -163 83l64 50s30 -53 99 -53zM320 357l-4 2c-50 -12 -115 -48 -115 -102c0 -46 30 -64 84 -96l5 -3c50 13 114 49 114 113c0 36 -30 54 -84 86z" />
    <glyph glyph-name="copyright" unicode="&#xa9;" horiz-adv-x="819" 
d="M110 295c0 227 170 417 406 417c188 0 316 -138 316 -307c0 -227 -169 -417 -405 -417c-188 0 -317 138 -317 307zM516 653c-217 0 -347 -170 -347 -358c0 -137 104 -248 258 -248c217 0 346 170 346 358c0 137 -103 248 -257 248zM567 268l41 -47s-59 -68 -154 -68
c-101 0 -170 68 -170 173c0 108 88 221 213 221c103 0 147 -68 147 -68l-48 -42s-32 46 -99 46c-83 0 -144 -78 -144 -157c0 -59 32 -110 107 -110c60 0 107 52 107 52z" />
    <glyph glyph-name="registered" unicode="&#xae;" horiz-adv-x="451" 
d="M232 437l34 192h87c39 0 57 -29 57 -55c0 -39 -27 -61 -55 -67l38 -70h-53l-31 65h-18l-11 -65h-48zM321 542c15 0 42 1 42 27c0 18 -14 21 -28 21h-28l-9 -48h23zM113 504c0 138 113 231 235 231c106 0 178 -76 178 -176c0 -138 -111 -231 -233 -231
c-106 0 -180 76 -180 176zM348 685c-100 0 -183 -69 -183 -181c0 -72 48 -126 128 -126c100 0 183 68 183 180c0 72 -48 127 -128 127z" />
    <glyph glyph-name="trademark" unicode="&#x2122;" horiz-adv-x="767" 
d="M183 330l56 317h-105l9 53h257l-9 -53h-97l-56 -317h-55zM468 700h50l91 -215l163 215h58l-65 -370h-55l47 267l-160 -209l-92 209l-47 -267h-55z" />
    <glyph glyph-name="ordfeminine" unicode="&#xaa;" horiz-adv-x="328" 
d="M236 483c42 0 70 32 70 32l5 29s-24 12 -61 12c-25 0 -57 -13 -57 -43c0 -23 24 -30 43 -30zM274 712c79 0 128 -40 118 -102l-32 -178h-64l7 35s-33 -42 -88 -42c-44 0 -92 27 -92 85c0 57 48 96 121 96c46 0 74 -21 74 -21l4 18c7 35 -18 48 -52 48
c-48 0 -88 -20 -88 -20l-21 55s44 26 113 26z" />
    <glyph glyph-name="ordmasculine" unicode="&#xba;" horiz-adv-x="332" 
d="M412 583c0 -84 -71 -159 -160 -159c-82 0 -132 50 -132 128c0 84 70 160 159 160c81 0 133 -51 133 -129zM276 647c-50 0 -91 -41 -91 -95c0 -42 31 -62 70 -62c50 0 91 39 91 93c0 42 -31 64 -70 64z" />
    <glyph glyph-name="slash" unicode="/" horiz-adv-x="497" 
d="M619 758l-555 -897l-60 38l554 897z" />
    <glyph glyph-name="backslash" unicode="\" horiz-adv-x="497" 
d="M385 -133l-242 905l73 22l242 -905z" />
    <glyph glyph-name="bar" unicode="|" horiz-adv-x="260" 
d="M49 -230l171 970h80l-171 -970h-80z" />
    <glyph glyph-name="brokenbar" unicode="&#xa6;" horiz-adv-x="260" 
d="M151 350l69 390h80l-69 -390h-80zM49 -230l69 390h80l-69 -390h-80z" />
    <glyph glyph-name="bracketleft" unicode="[" horiz-adv-x="313" 
d="M267 674l-147 -838h114l-12 -66h-187l170 970h188l-12 -66h-114z" />
    <glyph glyph-name="bracketright" unicode="]" horiz-adv-x="313" 
d="M135 -164l147 838h-114l12 66h188l-171 -970h-187l12 66h113z" />
    <glyph glyph-name="parenleft" unicode="(" horiz-adv-x="308" 
d="M258 -119l-69 -35c-53 108 -82 213 -82 316c0 231 94 417 242 587l55 -44c-132 -152 -220 -320 -220 -536c0 -105 28 -191 74 -288z" />
    <glyph glyph-name="parenright" unicode=")" horiz-adv-x="308" 
d="M66 -161l-58 47c133 152 220 328 220 538c0 108 -29 196 -75 292l67 33c53 -108 86 -207 86 -322c0 -229 -94 -418 -240 -588z" />
    <glyph glyph-name="braceleft" unicode="{" horiz-adv-x="312" 
d="M413 740l-13 -72h-10c-40 0 -70 -13 -82 -79l-36 -204c-18 -105 -81 -126 -131 -128l-1 -4c50 -2 105 -23 87 -128l-36 -204c-12 -66 14 -79 54 -79h10l-13 -72h-20c-93 0 -124 65 -110 145l37 210c15 90 -33 101 -83 101l11 58c50 0 102 11 117 101l41 230
c14 80 65 125 158 125h20z" />
    <glyph glyph-name="braceright" unicode="}" horiz-adv-x="312" 
d="M146 668l13 72h20c83 0 124 -65 110 -145l-37 -210c-15 -90 33 -101 83 -101l-11 -58c-50 0 -102 -11 -117 -101l-41 -230c-14 -80 -55 -125 -157 -125h-20l13 72h10c39 0 69 13 81 79l36 204c18 105 81 126 131 128l1 4c-50 2 -105 23 -87 128l36 204
c12 66 -14 79 -54 79h-10z" />
    <glyph glyph-name="guilsinglleft" unicode="&#x2039;" horiz-adv-x="305" 
d="M197 12l-140 233l207 231l53 -50l-172 -185l115 -186z" />
    <glyph glyph-name="guilsinglright" unicode="&#x203a;" horiz-adv-x="305" 
d="M196 476l138 -231l-216 -238l-54 51l178 192l-110 182z" />
    <glyph glyph-name="guillemotleft" unicode="&#xab;" horiz-adv-x="488" 
d="M378 12l-138 228l224 236l53 -50l-188 -190l112 -181zM197 12l-140 233l207 231l53 -50l-172 -185l115 -186z" />
    <glyph glyph-name="guillemotright" unicode="&#xbb;" horiz-adv-x="488" 
d="M197 476l143 -226l-221 -238l-54 51l183 192l-115 177zM385 476l138 -231l-216 -238l-54 51l178 192l-110 182z" />
    <glyph glyph-name="quotesingle" unicode="'" horiz-adv-x="150" 
d="M122 462l41 238h70l-41 -238h-70z" />
    <glyph glyph-name="quotedbl" unicode="&#x22;" horiz-adv-x="332" 
d="M142 462l41 238h72l-41 -238h-72zM282 462l41 238h72l-41 -238h-72z" />
    <glyph glyph-name="quotesinglbase" unicode="&#x201a;" horiz-adv-x="150" 
d="M16 -140l41 238h70l-41 -238h-70z" />
    <glyph glyph-name="quoteleft" unicode="&#x2018;" horiz-adv-x="150" 
d="M121 462l41 238h70l-41 -238h-70z" />
    <glyph glyph-name="quoteright" unicode="&#x2019;" horiz-adv-x="150" 
d="M121 462l41 238h70l-41 -238h-70z" />
    <glyph glyph-name="quotedblbase" unicode="&#x201e;" horiz-adv-x="332" 
d="M36 -140l41 238h72l-41 -238h-72zM176 -140l41 238h72l-41 -238h-72z" />
    <glyph glyph-name="quotedblleft" unicode="&#x201c;" horiz-adv-x="332" 
d="M141 462l41 238h72l-41 -238h-72zM281 462l41 238h72l-41 -238h-72z" />
    <glyph glyph-name="quotedblright" unicode="&#x201d;" horiz-adv-x="332" 
d="M141 462l41 238h72l-41 -238h-72zM281 462l41 238h72l-41 -238h-72z" />
    <glyph glyph-name="periodcentered" unicode="&#xb7;" horiz-adv-x="230" 
d="M119 350c0 31 26 57 57 57s57 -26 57 -57s-26 -57 -57 -57s-57 26 -57 57z" />
    <glyph glyph-name="bullet" unicode="&#x2022;" horiz-adv-x="500" 
d="M190 350c0 67 54 121 121 121s121 -54 121 -121s-54 -121 -121 -121s-121 54 -121 121z" />
    <glyph glyph-name="bullet.alt" horiz-adv-x="500" 
d="M101 350c0 116 94 210 210 210s210 -94 210 -210s-94 -210 -210 -210s-210 94 -210 210z" />
    <glyph glyph-name="paragraph.alt" horiz-adv-x="555" 
d="M407 639l-112 -639h-84l58 326c-80 0 -157 69 -157 159c0 137 80 215 223 215h261l-124 -700h-83l112 639h-94z" />
    <glyph glyph-name="paragraph" unicode="&#xb6;" horiz-adv-x="618" 
d="M468 622l-143 -810h-84l73 414c-101 0 -199 87 -199 201c0 174 102 273 283 273h262l-157 -888h-84l143 810h-94z" />
    <glyph glyph-name="fj" horiz-adv-x="539" 
d="M216 -221l43 70c6 -4 20 -13 32 -13c23 0 54 6 66 71l98 555h84l-100 -563c-19 -110 -99 -141 -149 -141c-23 0 -48 4 -74 21zM475 586l3 14c7 41 -4 90 -71 90c-63 0 -96 -49 -103 -90l-24 -138h103l-14 -76h-103l-68 -386h-84l68 386h-102l14 76h102l23 134
c17 95 77 172 196 172c105 0 163 -77 146 -172l-2 -10c-4 -23 -26 -42 -49 -42s-39 19 -35 42z" />
    <glyph glyph-name="ft" horiz-adv-x="649" 
d="M81 386l13 76h101l28 159c18 98 85 147 157 147c27 0 60 -2 98 -23l-34 -70s-28 15 -56 15c-45 0 -74 -29 -82 -74l-27 -154h190l25 141h84l-25 -141h144l-13 -76h-144l-44 -249c-8 -45 7 -71 47 -71c33 0 67 22 67 22l30 -70c-44 -24 -79 -30 -116 -30
c-56 0 -131 43 -113 145l45 253h-190l-68 -386h-84l68 386h-101z" />
    <glyph glyph-name="germandbls" unicode="&#xdf;" horiz-adv-x="568" 
d="M66 0c0 0 51 293 97 553c22 127 98 215 226 215c108 0 187 -59 187 -171c0 -133 -122 -166 -122 -166c36 -13 113 -44 113 -174c0 -190 -134 -269 -290 -269h-43l13 78h25c153 0 210 79 210 191c0 68 -51 131 -168 131l13 74c121 4 163 69 163 135c0 40 -20 93 -101 93
c-91 0 -132 -74 -144 -143l-96 -547h-83z" />
    <glyph glyph-name="dieresis" unicode="&#xa8;" horiz-adv-x="391" 
d="M156 610c0 31 26 57 57 57s57 -26 57 -57s-26 -57 -57 -57s-57 26 -57 57zM337 610c0 31 26 57 57 57s57 -26 57 -57s-26 -57 -57 -57s-57 26 -57 57z" />
    <glyph glyph-name="acute" unicode="&#xb4;" horiz-adv-x="264" 
d="M303 724l46 -55l-169 -137l-44 51z" />
    <glyph glyph-name="grave" unicode="`" horiz-adv-x="264" 
d="M137 676l52 52l149 -149l-51 -47z" />
    <glyph glyph-name="circumflex" unicode="&#x2c6;" horiz-adv-x="424" 
d="M322 684l156 -121l-48 -54l-113 92l-131 -94l-41 59z" />
    <glyph glyph-name="caron" unicode="&#x2c7;" horiz-adv-x="418" 
d="M488 641l-178 -121l-154 121l47 56l112 -95l134 93z" />
    <glyph glyph-name="breve" unicode="&#x2d8;" horiz-adv-x="410" 
d="M174 700h75c-4 -32 -2 -82 64 -82c88 0 93 82 93 82h75s-16 -149 -171 -149c-131 0 -143 95 -136 149z" />
    <glyph glyph-name="dotaccent" unicode="&#x2d9;" horiz-adv-x="239" 
d="M169 600c0 31 25 57 56 57s57 -26 57 -57s-26 -56 -57 -56s-56 25 -56 56z" />
    <glyph glyph-name="ring" unicode="&#x2da;" horiz-adv-x="242" 
d="M239 688c-35 0 -63 -27 -63 -66c0 -20 14 -44 48 -44c35 0 64 25 64 64c0 20 -15 46 -49 46zM122 622c0 70 59 119 117 119c67 0 103 -50 103 -99c0 -70 -60 -117 -118 -117c-67 0 -102 48 -102 97z" />
    <glyph glyph-name="cedilla" unicode="&#xb8;" horiz-adv-x="315" 
d="M214 -53l-87 -201l-77 21l87 186z" />
    <glyph glyph-name="ogonek" unicode="&#x2db;" horiz-adv-x="219" 
d="M147 -121l-13 -69s-19 -7 -47 -7c-48 0 -93 37 -93 86c0 64 47 98 91 111h81c-38 -11 -102 -42 -102 -92c0 -24 18 -36 43 -36c22 0 40 7 40 7z" />
    <glyph glyph-name="tilde" unicode="&#x2dc;" horiz-adv-x="390" 
d="M182 553l-55 37s34 84 119 84c51 0 86 -44 118 -44c44 0 62 49 62 49l54 -37s-31 -84 -116 -84c-54 0 -88 44 -120 44c-45 0 -62 -49 -62 -49z" />
    <glyph glyph-name="hungarumlaut" unicode="&#x2dd;" horiz-adv-x="382" 
d="M423 722l62 -36l-151 -170l-58 31zM261 722l62 -36l-151 -170l-58 31z" />
    <glyph glyph-name="macron" unicode="&#xaf;" horiz-adv-x="314" 
d="M107 572l12 69h302l-13 -69h-301z" />
    <glyph glyph-name="logicalnot" unicode="&#xac;" horiz-adv-x="678" 
d="M96 422l14 78h600l-53 -300h-76l39 222h-524z" />
    <glyph glyph-name="Delta" unicode="&#x394;" horiz-adv-x="836" 
d="M4 0l546 756l281 -756h-827zM155 75h560l-190 512z" />
    <glyph glyph-name="Delta" unicode="&#x2206;" horiz-adv-x="836" 
d="M4 0l546 756l281 -756h-827zM155 75h560l-190 512z" />
    <glyph glyph-name="Omega" unicode="&#x3a9;" horiz-adv-x="788" 
d="M79 0l14 80h124c-60 40 -110 122 -110 216c0 244 183 416 400 416c201 0 303 -138 303 -306c0 -126 -90 -270 -202 -326h119l-14 -80h-240l14 80c133 41 231 184 231 326c0 125 -73 226 -211 226c-189 0 -311 -167 -311 -336c0 -100 50 -185 137 -216l-14 -80h-240z" />
    <glyph glyph-name="Omega" unicode="&#x2126;" horiz-adv-x="788" 
d="M79 0l14 80h124c-60 40 -110 122 -110 216c0 244 183 416 400 416c201 0 303 -138 303 -306c0 -126 -90 -270 -202 -326h119l-14 -80h-240l14 80c133 41 231 184 231 326c0 125 -73 226 -211 226c-189 0 -311 -167 -311 -336c0 -100 50 -185 137 -216l-14 -80h-240z" />
    <glyph glyph-name="mu" unicode="&#xb5;" horiz-adv-x="528" 
d="M244 -12c-33 0 -65 10 -92 28l-43 -246h-84l81 456c8 48 21 121 42 236h84l-47 -263c-6 -38 -6 -46 -6 -50c0 -57 36 -83 91 -83c78 0 132 76 132 76l56 320h84l-81 -462h-75l12 71s-57 -83 -154 -83z" />
    <glyph glyph-name="mu" unicode="&#x3bc;" horiz-adv-x="528" 
d="M244 -12c-33 0 -65 10 -92 28l-43 -246h-84l81 456c8 48 21 121 42 236h84l-47 -263c-6 -38 -6 -46 -6 -50c0 -57 36 -83 91 -83c78 0 132 76 132 76l56 320h84l-81 -462h-75l12 71s-57 -83 -154 -83z" />
    <glyph glyph-name="pi" unicode="&#x3c0;" horiz-adv-x="585" 
d="M532 75l30 -70c-35 -17 -61 -21 -94 -21c-40 0 -118 31 -99 141l46 259h-127l-68 -384h-84l68 384h-94l14 78h493l-14 -78h-104l-45 -256c-12 -65 23 -66 35 -66c20 0 36 9 43 13z" />
    <glyph glyph-name="partialdiff" unicode="&#x2202;" horiz-adv-x="548" 
d="M502 358c0 -99 -32 -370 -298 -370c-115 0 -199 84 -199 198c0 144 99 288 279 288c49 0 102 -19 130 -50c-36 179 -253 215 -253 215l27 74s314 -38 314 -355zM217 66c102 0 187 95 187 199c0 75 -47 131 -128 131c-105 0 -186 -96 -186 -200c0 -74 46 -130 127 -130z
" />
    <glyph glyph-name="product" unicode="&#x220f;" horiz-adv-x="707" 
d="M740 700l-163 -930h-84l149 850h-359l-149 -850h-84l163 930h527z" />
    <glyph glyph-name="summation" unicode="&#x2211;" horiz-adv-x="738" 
d="M-15 -230l428 466l-264 464h664l-14 -80h-506l225 -392l-345 -378h491l-14 -80h-665z" />
    <glyph glyph-name="radical" unicode="&#x221a;" horiz-adv-x="625" 
d="M347 174l390 786h81l-484 -972l-137 400h-89l13 74h129z" />
    <glyph glyph-name="infinity" unicode="&#x221e;" horiz-adv-x="838" 
d="M78 224c0 95 82 199 209 199c43 0 90 -22 120 -58l60 -72l88 74c43 36 86 56 144 56c80 0 147 -66 147 -154c0 -99 -83 -198 -210 -198c-43 0 -90 22 -120 58l-60 72l-88 -74c-43 -36 -86 -56 -144 -56c-80 0 -146 61 -146 153zM561 170c22 -24 50 -39 84 -39
c70 0 140 59 140 138c0 58 -39 94 -99 94c-34 0 -66 -17 -96 -41c-24 -18 -91 -77 -91 -77s44 -57 62 -75zM237 131c38 0 65 17 95 41c24 18 92 79 92 79s-44 55 -62 73c-22 24 -50 39 -84 39c-71 0 -139 -59 -139 -139c0 -57 38 -93 98 -93z" />
    <glyph glyph-name="integral" unicode="&#x222b;" horiz-adv-x="418" 
d="M313 616l-126 -712c-17 -98 -77 -147 -163 -147c-26 0 -60 5 -96 27l43 69s27 -18 52 -18c50 0 73 29 81 74l126 712c17 98 77 147 163 147c27 0 61 -5 97 -27l-42 -68s-28 17 -54 17c-50 0 -73 -29 -81 -74z" />
    <glyph glyph-name="lozenge" unicode="&#x25ca;" horiz-adv-x="460" 
d="M247 123l186 242l-96 215l-185 -231zM71 356l285 356l159 -356l-288 -370z" />
    <glyph glyph-name="asterisk" unicode="*" horiz-adv-x="398" 
d="M472 564l-131 -39l59 -105l-53 -32l-55 106l-95 -109l-46 37l94 105l-119 39l22 58l124 -44l23 132h60l-23 -132l120 42z" />
    <glyph glyph-name="asciicircum" unicode="^" horiz-adv-x="536" 
d="M91 350l276 406h68l135 -406h-86l-96 302l-204 -302h-93z" />
    <glyph glyph-name="degree" unicode="&#xb0;" horiz-adv-x="332" 
d="M412 580c0 -84 -77 -156 -160 -156c-87 0 -132 61 -132 130c0 84 74 158 157 158c87 0 135 -63 135 -132zM277 640c-41 0 -86 -29 -86 -86c0 -36 23 -59 61 -59c41 0 86 28 86 85c0 36 -23 60 -61 60z" />
    <glyph glyph-name="dagger" unicode="&#x2020;" horiz-adv-x="520" 
d="M159 447l13 74h140l31 179h78l-31 -179h142l-13 -74h-142l-93 -527h-78l93 527h-140z" />
    <glyph glyph-name="daggerdbl" unicode="&#x2021;" horiz-adv-x="520" 
d="M159 447l13 74h140l31 179h78l-31 -179h142l-13 -74h-142l-49 -274h142l-13 -74h-142l-31 -179h-78l31 179h-140l13 74h140l49 274h-140z" />
    <glyph glyph-name="plus" unicode="+" horiz-adv-x="520" 
d="M543 278l-13 -74h-196l-36 -204h-76l36 204h-192l13 74h192l34 196h76l-34 -196h196z" />
    <glyph glyph-name="plusminus" unicode="&#xb1;" horiz-adv-x="520" 
d="M45 0l12 68h430l-12 -68h-430zM91 261l12 70h178l25 143h74l-25 -143h178l-12 -70h-178l-27 -149h-74l27 149h-178z" />
    <glyph glyph-name="minus" unicode="&#x2212;" horiz-adv-x="520" 
d="M81 202l13 78h430l-13 -78h-430z" />
    <glyph glyph-name="divide" unicode="&#xf7;" horiz-adv-x="520" 
d="M83 214l13 74h430l-13 -74h-430zM218 95c0 31 26 57 57 57s57 -26 57 -57s-26 -57 -57 -57s-57 26 -57 57zM275 417c0 31 26 57 57 57s57 -26 57 -57s-26 -57 -57 -57s-57 26 -57 57z" />
    <glyph glyph-name="multiply" unicode="&#xd7;" horiz-adv-x="520" 
d="M70 425l53 45l140 -168l202 172l44 -52l-198 -169l138 -168l-54 -47l-140 171l-209 -177l-40 54l202 172z" />
    <glyph glyph-name="equal" unicode="=" horiz-adv-x="520" 
d="M105 283l13 74h410l-13 -74h-410zM77 125l13 74h410l-13 -74h-410z" />
    <glyph glyph-name="notequal" unicode="&#x2260;" horiz-adv-x="520" 
d="M109 306l13 74h238l196 277l38 -28l-175 -249h113l-13 -74h-152l-59 -84h196l-13 -74h-235l-187 -265l-39 29l165 236h-114l13 74h154l59 84h-198z" />
    <glyph glyph-name="approxequal" unicode="&#x2248;" horiz-adv-x="520" 
d="M159 270l-50 43s35 86 129 86c60 0 98 -54 140 -54c61 0 81 54 81 54l50 -43s-44 -82 -135 -82c-60 0 -89 53 -141 53c-58 0 -74 -57 -74 -57zM154 120l-50 43s35 86 127 86c60 0 97 -54 139 -54c61 0 81 54 81 54l50 -43s-43 -82 -134 -82c-60 0 -90 53 -142 53
c-56 0 -71 -57 -71 -57z" />
    <glyph glyph-name="less" unicode="&#x3c;" horiz-adv-x="520" 
d="M59 235l13 71l496 193l-14 -83l-390 -149l337 -148l-13 -78z" />
    <glyph glyph-name="greater" unicode="&#x3e;" horiz-adv-x="520" 
d="M556 306l-12 -69l-496 -194l14 84l389 148l-336 149l14 81z" />
    <glyph glyph-name="lessequal" unicode="&#x2264;" horiz-adv-x="520" 
d="M76 342l13 71l496 193l-14 -83l-390 -149l337 -148l-13 -78zM18 0l13 76h461l-13 -76h-461z" />
    <glyph glyph-name="greaterequal" unicode="&#x2265;" horiz-adv-x="520" 
d="M572 411l-12 -69l-496 -194l14 84l389 148l-336 149l14 81zM514 76l-13 -76h-461l12 76h462z" />
    <glyph glyph-name="Agrave" unicode="&#xc0;" horiz-adv-x="642" 
d="M8 0l398 700h78l150 -700h-85l-40 189h-302l-106 -189h-93zM427 583l-175 -314h240zM304 887l52 52l149 -149l-51 -47z" />
    <glyph glyph-name="agrave" unicode="&#xe0;" horiz-adv-x="512" 
d="M318 474c149 0 197 -89 182 -175l-52 -299h-77l11 67s-62 -79 -164 -79c-83 0 -152 51 -152 143c0 94 89 169 207 169c83 0 136 -42 136 -42l5 29c17 96 -59 109 -94 109c-71 0 -150 -35 -150 -35l-26 73s73 40 174 40zM240 62c80 0 147 70 147 70l11 65s-46 33 -115 33
c-64 0 -132 -30 -132 -99c0 -51 44 -69 89 -69zM249 669l52 52l149 -149l-51 -47z" />
    <glyph glyph-name="agrave.alt" horiz-adv-x="553" 
d="M429 144l32 179s-37 73 -128 73c-105 0 -179 -96 -179 -201c0 -74 46 -129 127 -129c90 0 148 78 148 78zM493 462h77l-81 -462h-74l12 68s-60 -80 -166 -80c-103 0 -192 78 -192 207c0 139 102 279 261 279c106 0 151 -79 151 -79zM248 669l52 52l149 -149l-51 -47z" />
    <glyph glyph-name="Aacute" unicode="&#xc1;" horiz-adv-x="642" 
d="M8 0l398 700h78l150 -700h-85l-40 189h-302l-106 -189h-93zM427 583l-175 -314h240zM555 935l46 -55l-169 -137l-44 51z" />
    <glyph glyph-name="aacute" unicode="&#xe1;" horiz-adv-x="512" 
d="M435 717l46 -55l-169 -137l-44 51zM318 474c149 0 197 -89 182 -175l-52 -299h-77l11 67s-62 -79 -164 -79c-83 0 -152 51 -152 143c0 94 89 169 207 169c83 0 136 -42 136 -42l5 29c17 96 -59 109 -94 109c-71 0 -150 -35 -150 -35l-26 73s73 40 174 40zM240 62
c80 0 147 70 147 70l11 65s-46 33 -115 33c-64 0 -132 -30 -132 -99c0 -51 44 -69 89 -69z" />
    <glyph glyph-name="aacute.alt" horiz-adv-x="553" 
d="M458 717l46 -55l-169 -137l-44 51zM429 144l32 179s-37 73 -128 73c-105 0 -179 -96 -179 -201c0 -74 46 -129 127 -129c90 0 148 78 148 78zM493 462h77l-81 -462h-74l12 68s-60 -80 -166 -80c-103 0 -192 78 -192 207c0 139 102 279 261 279c106 0 151 -79 151 -79z
" />
    <glyph glyph-name="Acircumflex" unicode="&#xc2;" horiz-adv-x="642" 
d="M8 0l398 700h78l150 -700h-85l-40 189h-302l-106 -189h-93zM427 583l-175 -314h240zM459 922l156 -121l-48 -54l-113 92l-131 -94l-41 59z" />
    <glyph glyph-name="acircumflex" unicode="&#xe2;" horiz-adv-x="512" 
d="M318 474c149 0 197 -89 182 -175l-52 -299h-77l11 67s-62 -79 -164 -79c-83 0 -152 51 -152 143c0 94 89 169 207 169c83 0 136 -42 136 -42l5 29c17 96 -59 109 -94 109c-71 0 -150 -35 -150 -35l-26 73s73 40 174 40zM240 62c80 0 147 70 147 70l11 65s-46 33 -115 33
c-64 0 -132 -30 -132 -99c0 -51 44 -69 89 -69zM355 702l156 -121l-48 -54l-113 92l-131 -94l-41 59z" />
    <glyph glyph-name="acircumflex.alt" horiz-adv-x="553" 
d="M429 144l32 179s-37 73 -128 73c-105 0 -179 -96 -179 -201c0 -74 46 -129 127 -129c90 0 148 78 148 78zM493 462h77l-81 -462h-74l12 68s-60 -80 -166 -80c-103 0 -192 78 -192 207c0 139 102 279 261 279c106 0 151 -79 151 -79zM376 702l156 -121l-48 -54l-113 92
l-131 -94l-41 59z" />
    <glyph glyph-name="Atilde" unicode="&#xc3;" horiz-adv-x="642" 
d="M8 0l398 700h78l150 -700h-85l-40 189h-302l-106 -189h-93zM427 583l-175 -314h240zM338 771l-55 37s34 84 119 84c51 0 86 -44 118 -44c44 0 62 49 62 49l54 -37s-31 -84 -116 -84c-54 0 -88 44 -120 44c-45 0 -62 -49 -62 -49z" />
    <glyph glyph-name="atilde" unicode="&#xe3;" horiz-adv-x="512" 
d="M318 474c149 0 197 -89 182 -175l-52 -299h-77l11 67s-62 -79 -164 -79c-83 0 -152 51 -152 143c0 94 89 169 207 169c83 0 136 -42 136 -42l5 29c17 96 -59 109 -94 109c-71 0 -150 -35 -150 -35l-26 73s73 40 174 40zM240 62c80 0 147 70 147 70l11 65s-46 33 -115 33
c-64 0 -132 -30 -132 -99c0 -51 44 -69 89 -69zM226 552l-55 37s34 84 119 84c51 0 86 -44 118 -44c44 0 62 49 62 49l54 -37s-31 -84 -116 -84c-54 0 -88 44 -120 44c-45 0 -62 -49 -62 -49z" />
    <glyph glyph-name="atilde.alt" horiz-adv-x="553" 
d="M429 144l32 179s-37 73 -128 73c-105 0 -179 -96 -179 -201c0 -74 46 -129 127 -129c90 0 148 78 148 78zM493 462h77l-81 -462h-74l12 68s-60 -80 -166 -80c-103 0 -192 78 -192 207c0 139 102 279 261 279c106 0 151 -79 151 -79zM241 553l-55 37s34 84 119 84
c51 0 86 -44 118 -44c44 0 62 49 62 49l54 -37s-31 -84 -116 -84c-54 0 -88 44 -120 44c-45 0 -62 -49 -62 -49z" />
    <glyph glyph-name="Adieresis" unicode="&#xc4;" horiz-adv-x="642" 
d="M8 0l398 700h78l150 -700h-85l-40 189h-302l-106 -189h-93zM427 583l-175 -314h240zM301 838c0 31 26 57 57 57s57 -26 57 -57s-26 -57 -57 -57s-57 26 -57 57zM482 838c0 31 26 57 57 57s57 -26 57 -57s-26 -57 -57 -57s-57 26 -57 57z" />
    <glyph glyph-name="adieresis" unicode="&#xe4;" horiz-adv-x="512" 
d="M318 474c149 0 197 -89 182 -175l-52 -299h-77l11 67s-62 -79 -164 -79c-83 0 -152 51 -152 143c0 94 89 169 207 169c83 0 136 -42 136 -42l5 29c17 96 -59 109 -94 109c-71 0 -150 -35 -150 -35l-26 73s73 40 174 40zM240 62c80 0 147 70 147 70l11 65s-46 33 -115 33
c-64 0 -132 -30 -132 -99c0 -51 44 -69 89 -69zM202 610c0 31 26 57 57 57s57 -26 57 -57s-26 -57 -57 -57s-57 26 -57 57zM383 610c0 31 26 57 57 57s57 -26 57 -57s-26 -57 -57 -57s-57 26 -57 57z" />
    <glyph glyph-name="adieresis.alt" horiz-adv-x="553" 
d="M429 144l32 179s-37 73 -128 73c-105 0 -179 -96 -179 -201c0 -74 46 -129 127 -129c90 0 148 78 148 78zM493 462h77l-81 -462h-74l12 68s-60 -80 -166 -80c-103 0 -192 78 -192 207c0 139 102 279 261 279c106 0 151 -79 151 -79zM218 610c0 31 26 57 57 57
s57 -26 57 -57s-26 -57 -57 -57s-57 26 -57 57zM399 610c0 31 26 57 57 57s57 -26 57 -57s-26 -57 -57 -57s-57 26 -57 57z" />
    <glyph glyph-name="Aring" unicode="&#xc5;" horiz-adv-x="642" 
d="M8 0l398 700h78l150 -700h-85l-40 189h-302l-106 -189h-93zM427 583l-175 -314h240zM467 895c-35 0 -63 -27 -63 -66c0 -20 14 -44 48 -44c35 0 64 25 64 64c0 20 -15 46 -49 46zM350 829c0 70 59 119 117 119c67 0 103 -50 103 -99c0 -70 -60 -117 -118 -117
c-67 0 -102 48 -102 97z" />
    <glyph glyph-name="aring" unicode="&#xe5;" horiz-adv-x="512" 
d="M318 474c149 0 197 -89 182 -175l-52 -299h-77l11 67s-62 -79 -164 -79c-83 0 -152 51 -152 143c0 94 89 169 207 169c83 0 136 -42 136 -42l5 29c17 96 -59 109 -94 109c-71 0 -150 -35 -150 -35l-26 73s73 40 174 40zM240 62c80 0 147 70 147 70l11 65s-46 33 -115 33
c-64 0 -132 -30 -132 -99c0 -51 44 -69 89 -69zM361 700c-35 0 -63 -27 -63 -66c0 -20 14 -44 48 -44c35 0 64 25 64 64c0 20 -15 46 -49 46zM244 634c0 70 59 119 117 119c67 0 103 -50 103 -99c0 -70 -60 -117 -118 -117c-67 0 -102 48 -102 97z" />
    <glyph glyph-name="aring.alt" horiz-adv-x="553" 
d="M429 144l32 179s-37 73 -128 73c-105 0 -179 -96 -179 -201c0 -74 46 -129 127 -129c90 0 148 78 148 78zM493 462h77l-81 -462h-74l12 68s-60 -80 -166 -80c-103 0 -192 78 -192 207c0 139 102 279 261 279c106 0 151 -79 151 -79zM376 699c-35 0 -63 -27 -63 -66
c0 -20 14 -44 48 -44c35 0 64 25 64 64c0 20 -15 46 -49 46zM259 633c0 70 59 119 117 119c67 0 103 -50 103 -99c0 -70 -60 -117 -118 -117c-67 0 -102 48 -102 97z" />
    <glyph glyph-name="Amacron" unicode="&#x100;" horiz-adv-x="642" 
d="M8 0l398 700h78l150 -700h-85l-40 189h-302l-106 -189h-93zM427 583l-175 -314h240zM299 790l12 69h302l-13 -69h-301z" />
    <glyph glyph-name="amacron" unicode="&#x101;" horiz-adv-x="512" 
d="M318 474c149 0 197 -89 182 -175l-52 -299h-77l11 67s-62 -79 -164 -79c-83 0 -152 51 -152 143c0 94 89 169 207 169c83 0 136 -42 136 -42l5 29c17 96 -59 109 -94 109c-71 0 -150 -35 -150 -35l-26 73s73 40 174 40zM240 62c80 0 147 70 147 70l11 65s-46 33 -115 33
c-64 0 -132 -30 -132 -99c0 -51 44 -69 89 -69zM191 572l12 69h302l-13 -69h-301z" />
    <glyph glyph-name="amacron.alt" horiz-adv-x="553" 
d="M429 144l32 179s-37 73 -128 73c-105 0 -179 -96 -179 -201c0 -74 46 -129 127 -129c90 0 148 78 148 78zM493 462h77l-81 -462h-74l12 68s-60 -80 -166 -80c-103 0 -192 78 -192 207c0 139 102 279 261 279c106 0 151 -79 151 -79zM215 572l12 69h302l-13 -69h-301z" />
    <glyph glyph-name="Abreve" unicode="&#x102;" horiz-adv-x="642" 
d="M8 0l398 700h78l150 -700h-85l-40 189h-302l-106 -189h-93zM427 583l-175 -314h240zM308 908h75c-4 -32 -2 -82 64 -82c88 0 93 82 93 82h75s-16 -149 -171 -149c-131 0 -143 95 -136 149z" />
    <glyph glyph-name="abreve" unicode="&#x103;" horiz-adv-x="512" 
d="M318 474c149 0 197 -89 182 -175l-52 -299h-77l11 67s-62 -79 -164 -79c-83 0 -152 51 -152 143c0 94 89 169 207 169c83 0 136 -42 136 -42l5 29c17 96 -59 109 -94 109c-71 0 -150 -35 -150 -35l-26 73s73 40 174 40zM240 62c80 0 147 70 147 70l11 65s-46 33 -115 33
c-64 0 -132 -30 -132 -99c0 -51 44 -69 89 -69zM204 700h75c-4 -32 -2 -82 64 -82c88 0 93 82 93 82h75s-16 -149 -171 -149c-131 0 -143 95 -136 149z" />
    <glyph glyph-name="abreve.alt" horiz-adv-x="553" 
d="M429 144l32 179s-37 73 -128 73c-105 0 -179 -96 -179 -201c0 -74 46 -129 127 -129c90 0 148 78 148 78zM493 462h77l-81 -462h-74l12 68s-60 -80 -166 -80c-103 0 -192 78 -192 207c0 139 102 279 261 279c106 0 151 -79 151 -79zM218 700h75c-4 -32 -2 -82 64 -82
c88 0 93 82 93 82h75s-16 -149 -171 -149c-131 0 -143 95 -136 149z" />
    <glyph glyph-name="Aogonek" unicode="&#x104;" horiz-adv-x="642" 
d="M8 0l397 700h79l150 -700c-38 -11 -103 -35 -103 -90c0 -24 18 -37 43 -37c22 0 40 9 40 9l-13 -72s-19 -7 -47 -7c-48 0 -93 29 -93 88c0 63 54 100 88 114l-40 184h-302l-106 -189h-93zM427 583l-175 -314h240z" />
    <glyph glyph-name="aogonek" unicode="&#x105;" horiz-adv-x="512" 
d="M320 474c136 0 192 -89 176 -175l-52 -299c-38 -11 -103 -35 -103 -90c0 -24 18 -37 43 -37c22 0 40 9 40 9l-13 -72s-19 -7 -47 -7c-48 0 -93 29 -93 88c0 66 58 105 100 118l10 58s-65 -79 -167 -79c-83 0 -152 51 -152 143c0 94 91 169 207 169c83 0 136 -40 136 -40
l5 27c17 96 -59 109 -102 109c-71 0 -140 -38 -140 -38l-31 73s82 43 183 43zM239 62c80 0 144 70 144 70l11 65s-41 33 -110 33c-74 0 -137 -30 -137 -99c0 -51 40 -69 92 -69z" />
    <glyph glyph-name="aogonek.alt" horiz-adv-x="553" 
d="M493 462h77l-81 -462c-38 -11 -103 -35 -103 -90c0 -24 18 -37 43 -37c22 0 40 9 40 9l-13 -72s-19 -7 -47 -7c-48 0 -93 29 -93 88c0 66 59 106 101 119l10 58s-60 -80 -166 -80c-103 0 -192 78 -192 207c0 139 102 279 261 279c106 0 151 -79 151 -79zM429 144l32 179
s-37 73 -128 73c-105 0 -179 -96 -179 -201c0 -74 46 -129 127 -129c90 0 148 78 148 78z" />
    <glyph glyph-name="AE" unicode="&#xc6;" horiz-adv-x="885" 
d="M8 0l530 700h411l-14 -80h-270l-39 -221h246l-14 -80h-246l-42 -239h276l-14 -80h-360l33 189h-252l-143 -189h-102zM313 269h206l62 352z" />
    <glyph glyph-name="ae" unicode="&#xe6;" horiz-adv-x="820" 
d="M325 474c79 0 137 -35 158 -83c37 46 105 83 176 83c119 0 187 -76 187 -196c0 -24 -5 -52 -11 -77h-351c-7 -70 38 -135 123 -135c93 0 141 68 141 68l54 -56s-71 -90 -198 -90c-85 0 -143 37 -178 100c-26 -34 -83 -100 -197 -100c-90 0 -162 48 -162 138
c0 86 77 145 177 145h168l3 16c17 96 -60 109 -102 109c-71 0 -142 -39 -142 -39l-31 72s81 45 185 45zM244 62c80 0 142 56 157 139h-141c-59 0 -108 -21 -108 -75c0 -42 38 -64 92 -64zM497 271h270c6 52 -20 125 -111 125c-90 0 -145 -77 -159 -125z" />
    <glyph glyph-name="Cacute" unicode="&#x106;" horiz-adv-x="663" 
d="M741 605l-60 -51s-65 78 -196 78c-136 0 -301 -116 -301 -327c0 -154 90 -237 221 -237c123 0 207 95 207 95l54 -60s-98 -115 -261 -115c-202 0 -312 142 -312 317c0 229 186 407 392 407c180 0 256 -107 256 -107zM572 947l46 -55l-169 -137l-44 51z" />
    <glyph glyph-name="cacute" unicode="&#x107;" horiz-adv-x="477" 
d="M423 134l52 -57s-69 -89 -191 -89c-140 0 -213 95 -213 209c0 153 125 277 271 277c123 0 180 -81 180 -81l-62 -53s-36 56 -118 56c-105 0 -186 -95 -186 -199c0 -75 47 -131 128 -131c88 0 139 68 139 68zM407 708l46 -55l-169 -137l-44 51z" />
    <glyph glyph-name="Ccircumflex" unicode="&#x108;" horiz-adv-x="663" 
d="M741 605l-60 -51s-65 78 -196 78c-136 0 -301 -116 -301 -327c0 -154 90 -237 221 -237c123 0 207 95 207 95l54 -60s-98 -115 -261 -115c-202 0 -312 142 -312 317c0 229 186 407 392 407c180 0 256 -107 256 -107zM502 921l156 -121l-48 -54l-113 92l-131 -94l-41 59z
" />
    <glyph glyph-name="ccircumflex" unicode="&#x109;" horiz-adv-x="477" 
d="M423 134l52 -57s-69 -89 -191 -89c-140 0 -213 95 -213 209c0 153 125 277 271 277c123 0 180 -81 180 -81l-62 -53s-36 56 -118 56c-105 0 -186 -95 -186 -199c0 -75 47 -131 128 -131c88 0 139 68 139 68zM362 702l156 -121l-48 -54l-113 92l-131 -94l-41 59z" />
    <glyph glyph-name="Ccaron" unicode="&#x10c;" horiz-adv-x="663" 
d="M741 605l-60 -51s-65 78 -196 78c-136 0 -301 -116 -301 -327c0 -154 90 -237 221 -237c123 0 207 95 207 95l54 -60s-98 -115 -261 -115c-202 0 -312 142 -312 317c0 229 186 407 392 407c180 0 256 -107 256 -107zM668 867l-178 -121l-154 121l47 56l112 -95l134 93z
" />
    <glyph glyph-name="ccaron" unicode="&#x10d;" horiz-adv-x="477" 
d="M423 134l52 -57s-69 -89 -191 -89c-140 0 -213 95 -213 209c0 153 125 277 271 277c123 0 180 -81 180 -81l-62 -53s-36 56 -118 56c-105 0 -186 -95 -186 -199c0 -75 47 -131 128 -131c88 0 139 68 139 68zM524 646l-178 -121l-154 121l47 56l112 -95l134 93z" />
    <glyph glyph-name="Ccedilla" unicode="&#xc7;" horiz-adv-x="663" 
d="M384 -53l-87 -201l-77 21l87 186zM741 605l-60 -51s-65 78 -196 78c-136 0 -301 -116 -301 -327c0 -154 90 -237 221 -237c123 0 207 95 207 95l54 -60s-98 -115 -261 -115c-202 0 -312 142 -312 317c0 229 186 407 392 407c180 0 256 -107 256 -107z" />
    <glyph glyph-name="ccedilla" unicode="&#xe7;" horiz-adv-x="477" 
d="M423 134l52 -57s-69 -89 -191 -89c-140 0 -213 95 -213 209c0 153 125 277 271 277c123 0 180 -81 180 -81l-62 -53s-36 56 -118 56c-105 0 -186 -95 -186 -199c0 -75 47 -131 128 -131c88 0 139 68 139 68zM287 -53l-87 -201l-77 21l87 186z" />
    <glyph glyph-name="Cdotaccent" unicode="&#x10a;" horiz-adv-x="663" 
d="M741 605l-60 -51s-65 78 -196 78c-136 0 -301 -116 -301 -327c0 -154 90 -237 221 -237c123 0 207 95 207 95l54 -60s-98 -115 -261 -115c-202 0 -312 142 -312 317c0 229 186 407 392 407c180 0 256 -107 256 -107zM434 828c0 31 25 57 56 57s57 -26 57 -57
s-26 -56 -57 -56s-56 25 -56 56z" />
    <glyph glyph-name="cdotaccent" unicode="&#x10b;" horiz-adv-x="477" 
d="M423 134l52 -57s-69 -89 -191 -89c-140 0 -213 95 -213 209c0 153 125 277 271 277c123 0 180 -81 180 -81l-62 -53s-36 56 -118 56c-105 0 -186 -95 -186 -199c0 -75 47 -131 128 -131c88 0 139 68 139 68zM289 610c0 31 25 57 56 57s57 -26 57 -57s-26 -56 -57 -56
s-56 25 -56 56z" />
    <glyph glyph-name="Eth" unicode="&#xd0;" horiz-adv-x="672" 
d="M58 326l13 70h96l53 304h211c180 0 282 -135 282 -300c0 -243 -153 -400 -405 -400h-211l57 326h-96zM195 80h118c181 0 308 118 308 320c0 131 -73 220 -219 220h-112l-39 -224h182l-13 -70h-182z" />
    <glyph glyph-name="eth" unicode="&#xf0;" horiz-adv-x="544" 
d="M221 528l-26 58l119 50c-33 27 -69 48 -100 65l38 67c45 -24 97 -56 144 -94l127 57l27 -61l-103 -44c65 -69 115 -161 115 -277c0 -198 -102 -361 -290 -361c-121 0 -204 84 -204 198c0 161 123 288 279 288c82 0 126 -45 126 -45c-15 66 -51 112 -105 163zM282 66
c105 0 187 104 187 199c0 76 -47 131 -128 131c-104 0 -186 -85 -186 -199c0 -75 46 -131 127 -131z" />
    <glyph glyph-name="Dcaron" unicode="&#x10e;" horiz-adv-x="667" 
d="M416 700c180 0 282 -135 282 -300c0 -243 -153 -400 -405 -400h-211l123 700h211zM180 80h118c181 0 308 118 308 320c0 131 -73 220 -219 220h-112zM603 867l-178 -121l-154 121l47 56l112 -95l134 93z" />
    <glyph glyph-name="dcaron" unicode="&#x10f;" horiz-adv-x="647" 
d="M330 474c100 0 145 -71 145 -71l63 353h84l-133 -756h-77l12 68s-57 -80 -163 -80c-104 0 -192 77 -192 207c0 138 103 279 261 279zM429 144l32 179s-37 73 -128 73c-105 0 -179 -96 -179 -201c0 -74 46 -129 127 -129c90 0 148 78 148 78zM640 462l41 238h70l-41 -238
h-70z" />
    <glyph glyph-name="Dcroat" unicode="&#x110;" horiz-adv-x="672" 
d="M58 326l13 70h96l53 304h211c180 0 282 -135 282 -300c0 -243 -153 -400 -405 -400h-211l57 326h-96zM195 80h118c181 0 308 118 308 320c0 131 -73 220 -219 220h-112l-39 -224h182l-13 -70h-182z" />
    <glyph glyph-name="dcroat" unicode="&#x111;" horiz-adv-x="588" 
d="M330 474c100 0 145 -71 145 -71l29 163h-163l12 70h163l22 120h84l-21 -120h84l-12 -70h-85l-99 -566h-74l12 68s-62 -80 -166 -80s-192 77 -192 207c0 138 103 279 261 279zM429 144l32 179s-37 73 -128 73c-105 0 -179 -96 -179 -201c0 -74 46 -129 127 -129
c90 0 148 78 148 78z" />
    <glyph glyph-name="Egrave" unicode="&#xc8;" horiz-adv-x="544" 
d="M275 620l-39 -221h296l-14 -80h-296l-42 -239h326l-14 -80h-410l123 700h404l-14 -80h-320zM277 887l52 52l149 -149l-51 -47z" />
    <glyph glyph-name="egrave" unicode="&#xe8;" horiz-adv-x="520" 
d="M335 474c118 0 200 -74 200 -196c0 -24 -5 -52 -11 -77h-368c-7 -67 43 -135 128 -135c96 0 152 70 152 70l53 -57s-79 -91 -205 -91c-129 0 -213 87 -213 207c0 155 120 279 264 279zM165 271h289c6 52 -28 125 -119 125c-103 0 -156 -76 -170 -125zM254 670l52 52
l149 -149l-51 -47z" />
    <glyph glyph-name="Eacute" unicode="&#xc9;" horiz-adv-x="544" 
d="M275 620l-39 -221h296l-14 -80h-296l-42 -239h326l-14 -80h-410l123 700h404l-14 -80h-320zM505 935l46 -55l-169 -137l-44 51z" />
    <glyph glyph-name="eacute" unicode="&#xe9;" horiz-adv-x="520" 
d="M420 717l46 -55l-169 -137l-44 51zM335 474c118 0 200 -74 200 -196c0 -24 -5 -52 -11 -77h-368c-7 -67 43 -135 128 -135c96 0 152 70 152 70l53 -57s-79 -91 -205 -91c-129 0 -213 87 -213 207c0 155 120 279 264 279zM165 271h289c6 52 -28 125 -119 125
c-103 0 -156 -76 -170 -125z" />
    <glyph glyph-name="Ecircumflex" unicode="&#xca;" horiz-adv-x="544" 
d="M275 620l-39 -221h296l-14 -80h-296l-42 -239h326l-14 -80h-410l123 700h404l-14 -80h-320zM428 932l156 -121l-48 -54l-113 92l-131 -94l-41 59z" />
    <glyph glyph-name="ecircumflex" unicode="&#xea;" horiz-adv-x="520" 
d="M335 474c118 0 200 -74 200 -196c0 -24 -5 -52 -11 -77h-368c-7 -67 43 -135 128 -135c96 0 152 70 152 70l53 -57s-79 -91 -205 -91c-129 0 -213 87 -213 207c0 155 120 279 264 279zM165 271h289c6 52 -28 125 -119 125c-103 0 -156 -76 -170 -125zM366 702l156 -121
l-48 -54l-113 92l-131 -94l-41 59z" />
    <glyph glyph-name="Edieresis" unicode="&#xcb;" horiz-adv-x="544" 
d="M275 620l-39 -221h296l-14 -80h-296l-42 -239h326l-14 -80h-410l123 700h404l-14 -80h-320zM272 838c0 31 26 57 57 57s57 -26 57 -57s-26 -57 -57 -57s-57 26 -57 57zM453 838c0 31 26 57 57 57s57 -26 57 -57s-26 -57 -57 -57s-57 26 -57 57z" />
    <glyph glyph-name="edieresis" unicode="&#xeb;" horiz-adv-x="520" 
d="M335 474c118 0 200 -74 200 -196c0 -24 -5 -52 -11 -77h-368c-7 -67 43 -135 128 -135c96 0 152 70 152 70l53 -57s-79 -91 -205 -91c-129 0 -213 87 -213 207c0 155 120 279 264 279zM165 271h289c6 52 -28 125 -119 125c-103 0 -156 -76 -170 -125zM214 610
c0 31 26 57 57 57s57 -26 57 -57s-26 -57 -57 -57s-57 26 -57 57zM395 610c0 31 26 57 57 57s57 -26 57 -57s-26 -57 -57 -57s-57 26 -57 57z" />
    <glyph glyph-name="Ecaron" unicode="&#x11a;" horiz-adv-x="544" 
d="M275 620l-39 -221h296l-14 -80h-296l-42 -239h326l-14 -80h-410l123 700h404l-14 -80h-320zM589 867l-178 -121l-154 121l47 56l112 -95l134 93z" />
    <glyph glyph-name="ecaron" unicode="&#x11b;" horiz-adv-x="520" 
d="M335 474c118 0 200 -74 200 -196c0 -24 -5 -52 -11 -77h-368c-7 -67 43 -135 128 -135c96 0 152 70 152 70l53 -57s-79 -91 -205 -91c-129 0 -213 87 -213 207c0 155 120 279 264 279zM165 271h289c6 52 -28 125 -119 125c-103 0 -156 -76 -170 -125zM531 646l-178 -121
l-154 121l47 56l112 -95l134 93z" />
    <glyph glyph-name="Emacron" unicode="&#x112;" horiz-adv-x="544" 
d="M275 620l-39 -221h296l-14 -80h-296l-42 -239h326l-14 -80h-410l123 700h404l-14 -80h-320zM269 790l12 69h302l-13 -69h-301z" />
    <glyph glyph-name="emacron" unicode="&#x113;" horiz-adv-x="520" 
d="M335 474c118 0 200 -74 200 -196c0 -24 -5 -52 -11 -77h-368c-7 -67 43 -135 128 -135c96 0 152 70 152 70l53 -57s-79 -91 -205 -91c-129 0 -213 87 -213 207c0 155 120 279 264 279zM165 271h289c6 52 -28 125 -119 125c-103 0 -156 -76 -170 -125zM205 572l12 69h302
l-13 -69h-301z" />
    <glyph glyph-name="Ebreve" unicode="&#x114;" horiz-adv-x="544" 
d="M275 620l-39 -221h296l-14 -80h-296l-42 -239h326l-14 -80h-410l123 700h404l-14 -80h-320zM273 908h75c-4 -32 -2 -82 64 -82c88 0 93 82 93 82h75s-16 -149 -171 -149c-131 0 -143 95 -136 149z" />
    <glyph glyph-name="ebreve" unicode="&#x115;" horiz-adv-x="520" 
d="M335 474c118 0 200 -74 200 -196c0 -24 -5 -52 -11 -77h-368c-7 -67 43 -135 128 -135c96 0 152 70 152 70l53 -57s-79 -91 -205 -91c-129 0 -213 87 -213 207c0 155 120 279 264 279zM165 271h289c6 52 -28 125 -119 125c-103 0 -156 -76 -170 -125zM210 700h75
c-4 -32 -2 -82 64 -82c88 0 93 82 93 82h75s-16 -149 -171 -149c-131 0 -143 95 -136 149z" />
    <glyph glyph-name="Edotaccent" unicode="&#x116;" horiz-adv-x="544" 
d="M275 620l-39 -221h296l-14 -80h-296l-42 -239h326l-14 -80h-410l123 700h404l-14 -80h-320zM362 828c0 31 25 57 56 57s57 -26 57 -57s-26 -56 -57 -56s-56 25 -56 56z" />
    <glyph glyph-name="edotaccent" unicode="&#x117;" horiz-adv-x="520" 
d="M335 474c118 0 200 -74 200 -196c0 -24 -5 -52 -11 -77h-368c-7 -67 43 -135 128 -135c96 0 152 70 152 70l53 -57s-79 -91 -205 -91c-129 0 -213 87 -213 207c0 155 120 279 264 279zM165 271h289c6 52 -28 125 -119 125c-103 0 -156 -76 -170 -125zM295 610
c0 31 25 57 56 57s57 -26 57 -57s-26 -56 -57 -56s-56 25 -56 56z" />
    <glyph glyph-name="Eogonek" unicode="&#x118;" horiz-adv-x="544" 
d="M275 620l-39 -221h296l-14 -80h-296l-42 -239h326l-14 -80h-410l123 700h404l-14 -80h-320zM473 -121l-13 -69s-19 -7 -47 -7c-48 0 -93 37 -93 86c0 64 47 98 91 111h81c-38 -11 -102 -42 -102 -92c0 -24 18 -36 43 -36c22 0 40 7 40 7z" />
    <glyph glyph-name="eogonek" unicode="&#x119;" horiz-adv-x="520" 
d="M327 -121l-12 -69s-20 -7 -48 -7c-63 0 -99 45 -89 100c8 45 44 73 69 87c-126 11 -197 112 -174 241c24 135 135 243 274 243c129 0 208 -97 181 -246c-1 -9 -3 -16 -5 -27h-373c-8 -70 48 -135 135 -135c91 0 151 68 151 68l43 -55s-54 -56 -135 -80
c-14 -5 -88 -31 -96 -80c-6 -31 14 -47 42 -47c22 0 37 7 37 7zM164 271h290c6 52 -28 125 -121 125c-100 0 -155 -77 -169 -125z" />
    <glyph glyph-name="Gcircumflex" unicode="&#x11c;" horiz-adv-x="717" 
d="M738 605l-60 -55s-68 82 -191 82c-153 0 -300 -113 -300 -324c0 -165 112 -240 231 -240c114 0 182 43 182 43l33 193h-175l14 80h258l-56 -319s-97 -77 -256 -77c-180 0 -323 113 -323 320c0 228 166 404 392 404c174 0 251 -107 251 -107zM512 924l156 -121l-48 -54
l-113 92l-131 -94l-41 59z" />
    <glyph glyph-name="gcircumflex" unicode="&#x11d;" horiz-adv-x="553" 
d="M404 -6l11 61s-52 -67 -156 -67c-100 0 -190 78 -190 208c0 137 103 278 261 278c106 0 152 -79 152 -79l12 67h77l-82 -464c-29 -160 -122 -240 -265 -240c-131 0 -208 88 -208 88l54 64s64 -74 154 -74c94 0 162 54 180 158zM430 144l32 179s-37 73 -129 73
c-105 0 -179 -96 -179 -200c0 -74 45 -130 127 -130c90 0 149 78 149 78zM366 702l156 -121l-48 -54l-113 92l-131 -94l-41 59z" />
    <glyph glyph-name="Gbreve" unicode="&#x11e;" horiz-adv-x="717" 
d="M738 605l-60 -55s-68 82 -191 82c-153 0 -300 -113 -300 -324c0 -165 112 -240 231 -240c114 0 182 43 182 43l33 193h-175l14 80h258l-56 -319s-97 -77 -256 -77c-180 0 -323 113 -323 320c0 228 166 404 392 404c174 0 251 -107 251 -107zM348 908h75
c-4 -32 -2 -82 64 -82c88 0 93 82 93 82h75s-16 -149 -171 -149c-131 0 -143 95 -136 149z" />
    <glyph glyph-name="gbreve" unicode="&#x11f;" horiz-adv-x="553" 
d="M404 -6l11 61s-52 -67 -156 -67c-100 0 -190 78 -190 208c0 137 103 278 261 278c106 0 152 -79 152 -79l12 67h77l-82 -464c-29 -160 -122 -240 -265 -240c-131 0 -208 88 -208 88l54 64s64 -74 154 -74c94 0 162 54 180 158zM430 144l32 179s-37 73 -129 73
c-105 0 -179 -96 -179 -200c0 -74 45 -130 127 -130c90 0 149 78 149 78zM221 700h75c-4 -32 -2 -82 64 -82c88 0 93 82 93 82h75s-16 -149 -171 -149c-131 0 -143 95 -136 149z" />
    <glyph glyph-name="Gdotaccent" unicode="&#x120;" horiz-adv-x="717" 
d="M738 605l-60 -55s-68 82 -191 82c-153 0 -300 -113 -300 -324c0 -165 112 -240 231 -240c114 0 182 43 182 43l33 193h-175l14 80h258l-56 -319s-97 -77 -256 -77c-180 0 -323 113 -323 320c0 228 166 404 392 404c174 0 251 -107 251 -107zM447 828c0 31 25 57 56 57
s57 -26 57 -57s-26 -56 -57 -56s-56 25 -56 56z" />
    <glyph glyph-name="gdotaccent" unicode="&#x121;" horiz-adv-x="553" 
d="M403 -6l11 61s-52 -67 -156 -67c-100 0 -190 78 -190 208c0 137 103 278 261 278c106 0 152 -79 152 -79l12 67h77l-82 -464c-29 -160 -122 -240 -265 -240c-131 0 -208 88 -208 88l54 64s64 -74 154 -74c94 0 162 54 180 158zM429 144l32 179s-37 73 -129 73
c-105 0 -179 -96 -179 -200c0 -74 45 -130 127 -130c90 0 149 78 149 78zM297 610c0 31 25 57 56 57s57 -26 57 -57s-26 -56 -57 -56s-56 25 -56 56z" />
    <glyph glyph-name="Gcedilla" unicode="&#x122;" horiz-adv-x="717" 
d="M738 605l-60 -55s-68 82 -191 82c-153 0 -300 -113 -300 -324c0 -165 112 -240 231 -240c114 0 182 43 182 43l33 193h-175l14 80h258l-56 -319s-97 -77 -256 -77c-180 0 -323 113 -323 320c0 228 166 404 392 404c174 0 251 -107 251 -107zM414 -53l-87 -201l-77 21
l87 186z" />
    <glyph glyph-name="gcedilla" unicode="&#x123;" horiz-adv-x="553" 
d="M404 -6l11 61s-52 -67 -156 -67c-100 0 -190 78 -190 208c0 137 103 278 261 278c106 0 152 -79 152 -79l12 67h77l-82 -464c-29 -160 -122 -240 -265 -240c-131 0 -208 88 -208 88l54 64s64 -74 154 -74c94 0 162 54 180 158zM430 144l32 179s-37 73 -129 73
c-105 0 -179 -96 -179 -200c0 -74 45 -130 127 -130c90 0 149 78 149 78zM304 530l87 201l77 -21l-87 -186z" />
    <glyph glyph-name="Hcircumflex" unicode="&#x124;" horiz-adv-x="683" 
d="M587 399l53 301h84l-123 -700h-84l56 319h-351l-56 -319h-84l123 700h84l-53 -301h351zM483 922l156 -121l-48 -54l-113 92l-131 -94l-41 59z" />
    <glyph glyph-name="hcircumflex" unicode="&#x125;" horiz-adv-x="535" 
d="M381 474c91 0 167 -63 147 -177l-52 -297h-84l50 283c14 79 -26 113 -91 113c-80 0 -128 -73 -128 -73l-57 -323h-84l133 756h84l-62 -351c18 20 69 69 144 69zM274 952l156 -121l-48 -54l-113 92l-131 -94l-41 59z" />
    <glyph glyph-name="Hbar" unicode="&#x126;" horiz-adv-x="701" 
d="M193 580l21 120h84l-21 -120h351l21 120h84l-21 -120h83l-12 -70h-83l-90 -510h-84l56 319h-351l-56 -319h-84l90 510h-83l12 70h83zM265 510l-20 -111h351l20 111h-351z" />
    <glyph glyph-name="hbar" unicode="&#x127;" horiz-adv-x="559" 
d="M108 570l13 70h90l21 116h84l-21 -116h164l-13 -70h-163l-29 -165c18 20 72 69 144 69c91 0 167 -63 147 -177l-52 -297h-84l50 283c14 79 -26 113 -91 113c-80 0 -128 -73 -128 -73l-57 -323h-84l100 570h-91z" />
    <glyph glyph-name="dotlessi" unicode="&#x131;" horiz-adv-x="220" 
d="M68 0l81 462h84l-81 -462h-84z" />
    <glyph glyph-name="Igrave" unicode="&#xcc;" horiz-adv-x="276" 
d="M96 0l123 700h84l-123 -700h-84zM139 887l52 52l149 -149l-51 -47z" />
    <glyph glyph-name="igrave" unicode="&#xec;" horiz-adv-x="224" 
d="M95 669l52 52l149 -149l-51 -47zM70 0l81 462h84l-81 -462h-84z" />
    <glyph glyph-name="Iacute" unicode="&#xcd;" horiz-adv-x="276" 
d="M360 936l46 -55l-169 -137l-44 51zM96 0l123 700h84l-123 -700h-84z" />
    <glyph glyph-name="iacute" unicode="&#xed;" horiz-adv-x="229" 
d="M281 717l46 -55l-169 -137l-44 51zM70 0l81 462h84l-81 -462h-84z" />
    <glyph glyph-name="Icircumflex" unicode="&#xce;" horiz-adv-x="276" 
d="M96 0l123 700h84l-123 -700h-84zM284 922l156 -121l-48 -54l-113 92l-131 -94l-41 59z" />
    <glyph glyph-name="icircumflex" unicode="&#xee;" horiz-adv-x="256" 
d="M86 0l81 462h84l-81 -462h-84zM234 712l156 -121l-48 -54l-113 92l-131 -94l-41 59z" />
    <glyph glyph-name="Idieresis" unicode="&#xcf;" horiz-adv-x="276" 
d="M96 0l123 700h84l-123 -700h-84zM124 838c0 31 26 57 57 57s57 -26 57 -57s-26 -57 -57 -57s-57 26 -57 57zM305 838c0 31 26 57 57 57s57 -26 57 -57s-26 -57 -57 -57s-57 26 -57 57z" />
    <glyph glyph-name="idieresis" unicode="&#xef;" horiz-adv-x="245" 
d="M72 610c0 31 26 57 57 57s57 -26 57 -57s-26 -57 -57 -57s-57 26 -57 57zM253 610c0 31 26 57 57 57s57 -26 57 -57s-26 -57 -57 -57s-57 26 -57 57zM80 0l81 462h84l-81 -462h-84z" />
    <glyph glyph-name="Itilde" unicode="&#x128;" horiz-adv-x="276" 
d="M109 0l123 700h84l-123 -700h-84zM167 781l-55 37s34 84 119 84c51 0 86 -44 118 -44c44 0 62 49 62 49l54 -37s-31 -84 -116 -84c-54 0 -88 44 -120 44c-45 0 -62 -49 -62 -49z" />
    <glyph glyph-name="itilde" unicode="&#x129;" horiz-adv-x="278" 
d="M97 0l81 462h84l-81 -462h-84zM119 543l-55 37s34 84 119 84c51 0 86 -44 118 -44c44 0 62 49 62 49l54 -37s-31 -84 -116 -84c-54 0 -88 44 -120 44c-45 0 -62 -49 -62 -49z" />
    <glyph glyph-name="Imacron" unicode="&#x12a;" horiz-adv-x="276" 
d="M96 0l123 700h84l-123 -700h-84zM118 790l12 69h302l-13 -69h-301z" />
    <glyph glyph-name="imacron" unicode="&#x12b;" horiz-adv-x="254" 
d="M68 0l81 462h84l-81 -462h-84zM50 572l12 69h302l-13 -69h-301z" />
    <glyph glyph-name="Ibreve" unicode="&#x12c;" horiz-adv-x="276" 
d="M96 0l123 700h84l-123 -700h-84zM132 908h75c-4 -32 -2 -82 64 -82c88 0 93 82 93 82h75s-16 -149 -171 -149c-131 0 -143 95 -136 149z" />
    <glyph glyph-name="ibreve" unicode="&#x12d;" horiz-adv-x="290" 
d="M68 0l81 462h84l-81 -462h-84zM62 700h75c-4 -32 -2 -82 64 -82c88 0 93 82 93 82h75s-16 -149 -171 -149c-131 0 -143 95 -136 149z" />
    <glyph glyph-name="Iogonek" unicode="&#x12e;" horiz-adv-x="276" 
d="M161 -121l-13 -69s-19 -7 -47 -7c-48 0 -93 37 -93 86c0 64 54 104 89 118l123 693h84l-124 -700c-38 -11 -102 -42 -102 -92c0 -24 18 -36 43 -36c22 0 40 7 40 7z" />
    <glyph glyph-name="iogonek" unicode="&#x12f;" horiz-adv-x="249" 
d="M151 -121l-13 -69s-19 -7 -47 -7c-48 0 -93 37 -93 86c0 64 54 104 89 118l81 455h84l-82 -462c-38 -11 -102 -42 -102 -92c0 -24 18 -36 43 -36c22 0 40 7 40 7zM168 610c0 31 26 57 57 57s57 -26 57 -57s-26 -57 -57 -57s-57 26 -57 57z" />
    <glyph glyph-name="Idotaccent" unicode="&#x130;" horiz-adv-x="276" 
d="M96 0l123 700h84l-123 -700h-84zM219 838c0 31 25 57 56 57s57 -26 57 -57s-26 -56 -57 -56s-56 25 -56 56z" />
    <glyph glyph-name="IJ" unicode="&#x132;" horiz-adv-x="688" 
d="M96 0l123 700h84l-123 -700h-84zM555 186c40 231 90 514 90 514h84l-90 -513c-22 -125 -100 -199 -223 -199c-120 0 -183 97 -183 97l61 56s47 -73 122 -73c94 0 129 64 139 118z" />
    <glyph glyph-name="ij" unicode="&#x133;" horiz-adv-x="459" 
d="M79 0l81 462h84l-81 -462h-84zM161 610c0 31 26 57 57 57s57 -26 57 -57s-26 -57 -57 -57s-57 26 -57 57zM148 -222l32 70c7 -4 24 -12 40 -12c24 0 48 6 60 71l97 555h84l-99 -563c-19 -110 -79 -141 -139 -141c-22 0 -49 4 -75 20zM378 610c0 31 26 57 57 57
s57 -26 57 -57s-26 -57 -57 -57s-57 26 -57 57z" />
    <glyph glyph-name="Jcircumflex" unicode="&#x134;" horiz-adv-x="500" 
d="M341 186c40 231 90 514 90 514h84l-90 -513c-22 -125 -100 -199 -223 -199c-120 0 -183 97 -183 97l61 56s47 -73 122 -73c94 0 129 64 139 118zM490 922l156 -121l-48 -54l-113 92l-131 -94l-41 59z" />
    <glyph glyph-name="jcircumflex" unicode="&#x135;" horiz-adv-x="268" 
d="M-53 -222l32 70c7 -4 24 -12 40 -12c24 0 48 6 60 71l97 555h84l-99 -563c-19 -110 -79 -141 -139 -141c-22 0 -49 4 -75 20zM240 712l156 -121l-48 -54l-113 92l-131 -94l-41 59z" />
    <glyph glyph-name="Kcedilla" unicode="&#x136;" horiz-adv-x="589" 
d="M289 700l-57 -324l336 324h111l-356 -343l266 -357h-107l-255 344l-61 -344h-84l123 700h84zM340 -43l-87 -201l-77 21l87 186z" />
    <glyph glyph-name="kcedilla" unicode="&#x137;" horiz-adv-x="478" 
d="M385 0l-180 224l-39 -224h-84l133 756h84l-87 -492l224 198h119l-255 -221l192 -241h-107zM298 -53l-87 -201l-77 21l87 186z" />
    <glyph glyph-name="kgreenlandic" unicode="&#x138;" horiz-adv-x="476" 
d="M366 0l-179 224l-39 -224h-84l81 462h84l-35 -201l225 201h115l-251 -223l191 -239h-108z" />
    <glyph glyph-name="Lacute" unicode="&#x139;" horiz-adv-x="486" 
d="M82 0l123 700h84l-109 -620h314l-14 -80h-398zM365 935l46 -55l-169 -137l-44 51z" />
    <glyph glyph-name="lacute" unicode="&#x13a;" horiz-adv-x="247" 
d="M82 0l133 756h84l-133 -756h-84zM356 987l46 -55l-169 -137l-44 51z" />
    <glyph glyph-name="Lcedilla" unicode="&#x13b;" horiz-adv-x="488" 
d="M82 0l123 700h84l-109 -620h314l-14 -80h-398zM310 -53l-87 -201l-77 21l87 186z" />
    <glyph glyph-name="lcedilla" unicode="&#x13c;" horiz-adv-x="247" 
d="M82 0l133 756h84l-133 -756h-84zM163 -53l-87 -201l-77 21l87 186z" />
    <glyph glyph-name="Lcaron" unicode="&#x13d;" horiz-adv-x="488" 
d="M82 0l123 700h84l-109 -620h314l-14 -80h-398zM350 462l41 238h70l-41 -238h-70z" />
    <glyph glyph-name="lcaron" unicode="&#x13e;" horiz-adv-x="323" 
d="M82 0l133 756h84l-133 -756h-84zM316 462l41 238h70l-41 -238h-70z" />
    <glyph glyph-name="Ldot" unicode="&#x13f;" horiz-adv-x="488" 
d="M429 360c0 -30 -26 -57 -56 -57s-57 27 -57 57s27 56 57 56s56 -26 56 -56zM82 0l123 700h84l-109 -620h314l-14 -80h-398z" />
    <glyph glyph-name="ldot" unicode="&#x140;" horiz-adv-x="361" 
d="M397 360c0 -30 -26 -57 -56 -57s-57 27 -57 57s27 56 57 56s56 -26 56 -56zM82 0l133 756h84l-133 -756h-84z" />
    <glyph glyph-name="Lslash" unicode="&#x141;" horiz-adv-x="520" 
d="M49 180l-35 55l124 85l67 380h84l-55 -314l187 128l36 -55l-239 -163l-38 -216h311l-14 -80h-395l40 230z" />
    <glyph glyph-name="lslash" unicode="&#x142;" horiz-adv-x="334" 
d="M92 228l-35 55l132 90l67 383h84l-56 -318l89 61l36 -56l-141 -94l-61 -349h-84l50 283z" />
    <glyph glyph-name="Nacute" unicode="&#x143;" horiz-adv-x="710" 
d="M205 700h79l284 -560l99 560h84l-123 -700h-79l-284 560l-99 -560h-84zM592 935l46 -55l-169 -137l-44 51z" />
    <glyph glyph-name="nacute" unicode="&#x144;" horiz-adv-x="522" 
d="M365 474c87 0 165 -63 145 -177l-52 -297h-84l50 283c14 80 -26 113 -91 113c-74 0 -128 -72 -128 -72l-57 -324h-84l81 462h78l-11 -65s61 77 153 77zM416 718l46 -55l-169 -137l-44 51z" />
    <glyph glyph-name="Ncedilla" unicode="&#x145;" horiz-adv-x="710" 
d="M205 700h79l284 -560l99 560h84l-123 -700h-79l-284 560l-99 -560h-84zM402 -43l-87 -201l-77 21l87 186z" />
    <glyph glyph-name="ncedilla" unicode="&#x146;" horiz-adv-x="522" 
d="M365 474c87 0 165 -63 145 -177l-52 -297h-84l50 283c14 80 -26 113 -91 113c-74 0 -128 -72 -128 -72l-57 -324h-84l81 462h78l-11 -65s61 77 153 77zM311 -43l-87 -201l-77 21l87 186z" />
    <glyph glyph-name="Ntilde" unicode="&#xd1;" horiz-adv-x="710" 
d="M205 700h79l284 -560l99 560h84l-123 -700h-79l-284 560l-99 -560h-84zM367 791l-55 37s34 84 119 84c51 0 86 -44 118 -44c44 0 62 49 62 49l54 -37s-31 -84 -116 -84c-54 0 -88 44 -120 44c-45 0 -62 -49 -62 -49z" />
    <glyph glyph-name="ntilde" unicode="&#xf1;" horiz-adv-x="522" 
d="M365 474c87 0 165 -63 145 -177l-52 -297h-84l50 283c14 80 -26 113 -91 113c-74 0 -128 -72 -128 -72l-57 -324h-84l81 462h78l-11 -65s61 77 153 77zM233 553l-55 37s34 84 119 84c51 0 86 -44 118 -44c44 0 62 49 62 49l54 -37s-31 -84 -116 -84c-54 0 -88 44 -120 44
c-45 0 -62 -49 -62 -49z" />
    <glyph glyph-name="Ncaron" unicode="&#x147;" horiz-adv-x="710" 
d="M205 700h79l284 -560l99 560h84l-123 -700h-79l-284 560l-99 -560h-84zM661 867l-178 -121l-154 121l47 56l112 -95l134 93z" />
    <glyph glyph-name="ncaron" unicode="&#x148;" horiz-adv-x="522" 
d="M365 474c87 0 165 -63 145 -177l-52 -297h-84l50 283c14 80 -26 113 -91 113c-74 0 -128 -72 -128 -72l-57 -324h-84l81 462h78l-11 -65s61 77 153 77zM527 656l-178 -121l-154 121l47 56l112 -95l134 93z" />
    <glyph glyph-name="napostrophe" unicode="&#x149;" horiz-adv-x="588" 
d="M431 474c87 0 165 -63 145 -177l-52 -297h-84l50 283c14 80 -26 113 -91 113c-74 0 -128 -72 -128 -72l-57 -324h-84l81 462h78l-11 -65s61 77 153 77zM99 462l41 238h70l-41 -238h-70z" />
    <glyph glyph-name="Eng" unicode="&#x14a;" horiz-adv-x="710" 
d="M387 -221l32 71s20 -14 43 -14s54 6 66 71l16 93l-279 558l-99 -558h-84l124 700h84l279 -558l99 558h84l-142 -801c-19 -110 -84 -141 -149 -141c-47 0 -74 21 -74 21z" />
    <glyph glyph-name="eng" unicode="&#x14b;" horiz-adv-x="522" 
d="M365 474c86 0 165 -63 145 -177l-52 -297l-18 -101c-19 -110 -84 -141 -149 -141c-47 0 -74 21 -74 21l32 73s26 -16 43 -16c25 0 54 6 66 71l16 93l50 283c14 79 -26 113 -91 113c-74 0 -128 -72 -128 -72l-57 -324h-84l81 462h78l-11 -65s61 77 153 77z" />
    <glyph glyph-name="Ograve" unicode="&#xd2;" horiz-adv-x="768" 
d="M476 712c215 0 321 -153 321 -320c0 -206 -161 -404 -384 -404c-215 0 -320 153 -320 320c0 206 160 404 383 404zM413 68c161 0 294 137 294 324c0 143 -87 240 -231 240c-161 0 -292 -137 -292 -324c0 -143 85 -240 229 -240zM393 897l52 52l149 -149l-51 -47z" />
    <glyph glyph-name="ograve" unicode="&#xf2;" horiz-adv-x="540" 
d="M342 474c135 0 212 -89 212 -215c0 -130 -105 -271 -270 -271c-135 0 -212 87 -212 213c0 131 105 273 270 273zM284 66c117 0 186 100 186 193c0 92 -61 137 -128 137c-117 0 -186 -102 -186 -195c0 -91 61 -135 128 -135zM238 669l52 52l149 -149l-51 -47z" />
    <glyph glyph-name="Oacute" unicode="&#xd3;" horiz-adv-x="768" 
d="M603 947l46 -55l-169 -137l-44 51zM476 712c215 0 321 -153 321 -320c0 -206 -161 -404 -384 -404c-215 0 -320 153 -320 320c0 206 160 404 383 404zM413 68c161 0 294 137 294 324c0 143 -87 240 -231 240c-161 0 -292 -137 -292 -324c0 -143 85 -240 229 -240z" />
    <glyph glyph-name="oacute" unicode="&#xf3;" horiz-adv-x="540" 
d="M429 717l46 -55l-169 -137l-44 51zM341 474c135 0 212 -89 212 -215c0 -130 -105 -271 -270 -271c-135 0 -212 87 -212 213c0 131 105 273 270 273zM283 66c117 0 186 100 186 193c0 92 -61 137 -128 137c-117 0 -186 -102 -186 -195c0 -91 61 -135 128 -135z" />
    <glyph glyph-name="Ocircumflex" unicode="&#xd4;" horiz-adv-x="768" 
d="M476 712c215 0 321 -153 321 -320c0 -206 -161 -404 -384 -404c-215 0 -320 153 -320 320c0 206 160 404 383 404zM413 68c161 0 294 137 294 324c0 143 -87 240 -231 240c-161 0 -292 -137 -292 -324c0 -143 85 -240 229 -240zM517 922l156 -121l-48 -54l-113 92
l-131 -94l-41 59z" />
    <glyph glyph-name="ocircumflex" unicode="&#xf4;" horiz-adv-x="540" 
d="M341 474c135 0 212 -89 212 -215c0 -130 -105 -271 -270 -271c-135 0 -212 87 -212 213c0 131 105 273 270 273zM283 66c117 0 186 100 186 193c0 92 -61 137 -128 137c-117 0 -186 -102 -186 -195c0 -91 61 -135 128 -135zM375 702l156 -121l-48 -54l-113 92l-131 -94
l-41 59z" />
    <glyph glyph-name="Otilde" unicode="&#xd5;" horiz-adv-x="768" 
d="M476 712c215 0 321 -153 321 -320c0 -206 -161 -404 -384 -404c-215 0 -320 153 -320 320c0 206 160 404 383 404zM413 68c161 0 294 137 294 324c0 143 -87 240 -231 240c-161 0 -292 -137 -292 -324c0 -143 85 -240 229 -240zM391 771l-55 37s34 84 119 84
c51 0 86 -44 118 -44c44 0 62 49 62 49l54 -37s-31 -84 -116 -84c-54 0 -88 44 -120 44c-45 0 -62 -49 -62 -49z" />
    <glyph glyph-name="otilde" unicode="&#xf5;" horiz-adv-x="540" 
d="M341 474c135 0 212 -89 212 -215c0 -130 -105 -271 -270 -271c-135 0 -212 87 -212 213c0 131 105 273 270 273zM283 66c117 0 186 100 186 193c0 92 -61 137 -128 137c-117 0 -186 -102 -186 -195c0 -91 61 -135 128 -135zM242 553l-55 37s34 84 119 84
c51 0 86 -44 118 -44c44 0 62 49 62 49l54 -37s-31 -84 -116 -84c-54 0 -88 44 -120 44c-45 0 -62 -49 -62 -49z" />
    <glyph glyph-name="Odieresis" unicode="&#xd6;" horiz-adv-x="768" 
d="M476 712c215 0 321 -153 321 -320c0 -206 -161 -404 -384 -404c-215 0 -320 153 -320 320c0 206 160 404 383 404zM413 68c161 0 294 137 294 324c0 143 -87 240 -231 240c-161 0 -292 -137 -292 -324c0 -143 85 -240 229 -240zM365 838c0 31 26 57 57 57s57 -26 57 -57
s-26 -57 -57 -57s-57 26 -57 57zM546 838c0 31 26 57 57 57s57 -26 57 -57s-26 -57 -57 -57s-57 26 -57 57z" />
    <glyph glyph-name="odieresis" unicode="&#xf6;" horiz-adv-x="540" 
d="M341 474c135 0 212 -89 212 -215c0 -130 -105 -271 -270 -271c-135 0 -212 87 -212 213c0 131 105 273 270 273zM283 66c117 0 186 100 186 193c0 92 -61 137 -128 137c-117 0 -186 -102 -186 -195c0 -91 61 -135 128 -135zM220 610c0 31 26 57 57 57s57 -26 57 -57
s-26 -57 -57 -57s-57 26 -57 57zM401 610c0 31 26 57 57 57s57 -26 57 -57s-26 -57 -57 -57s-57 26 -57 57z" />
    <glyph glyph-name="Oslash" unicode="&#xd8;" horiz-adv-x="776" 
d="M479 712c97 0 172 -33 224 -85l102 100l37 -38l-104 -102c38 -56 58 -124 58 -195c0 -206 -157 -404 -380 -404c-91 0 -162 28 -213 74l-92 -90l-37 38l92 90c-44 58 -66 131 -66 208c0 206 156 404 379 404zM191 308c0 -57 12 -108 37 -147l415 407
c-38 41 -94 64 -164 64c-161 0 -288 -137 -288 -324zM416 68c161 0 290 137 290 324c0 51 -11 96 -31 133l-412 -404c37 -34 89 -53 153 -53z" />
    <glyph glyph-name="oslash" unicode="&#xf8;" horiz-adv-x="548" 
d="M345 474c56 0 102 -16 137 -43l51 50l36 -37l-51 -50c25 -36 39 -82 39 -135c0 -130 -106 -271 -270 -271c-57 0 -104 15 -139 43l-50 -50l-36 37l51 50c-25 35 -38 81 -38 133c0 131 106 273 270 273zM287 66c117 0 186 100 186 193c0 29 -7 54 -17 74l-247 -243
c22 -16 49 -24 78 -24zM159 201c0 -29 6 -53 16 -72l247 243c-22 16 -49 24 -77 24c-117 0 -186 -102 -186 -195z" />
    <glyph glyph-name="Omacron" unicode="&#x14c;" horiz-adv-x="768" 
d="M476 712c215 0 321 -153 321 -320c0 -206 -161 -404 -384 -404c-215 0 -320 153 -320 320c0 206 160 404 383 404zM413 68c161 0 294 137 294 324c0 143 -87 240 -231 240c-161 0 -292 -137 -292 -324c0 -143 85 -240 229 -240zM354 800l12 69h302l-13 -69h-301z" />
    <glyph glyph-name="omacron" unicode="&#x14d;" horiz-adv-x="540" 
d="M341 474c135 0 212 -89 212 -215c0 -130 -105 -271 -270 -271c-135 0 -212 87 -212 213c0 131 105 273 270 273zM283 66c117 0 186 100 186 193c0 92 -61 137 -128 137c-117 0 -186 -102 -186 -195c0 -91 61 -135 128 -135zM220 572l12 69h302l-13 -69h-301z" />
    <glyph glyph-name="Obreve" unicode="&#x14e;" horiz-adv-x="768" 
d="M476 712c215 0 321 -153 321 -320c0 -206 -161 -404 -384 -404c-215 0 -320 153 -320 320c0 206 160 404 383 404zM413 68c161 0 294 137 294 324c0 143 -87 240 -231 240c-161 0 -292 -137 -292 -324c0 -143 85 -240 229 -240zM370 908h75c-4 -32 -2 -82 64 -82
c88 0 93 82 93 82h75s-16 -149 -171 -149c-131 0 -143 95 -136 149z" />
    <glyph glyph-name="obreve" unicode="&#x14f;" horiz-adv-x="540" 
d="M341 474c135 0 212 -89 212 -215c0 -130 -105 -271 -270 -271c-135 0 -212 87 -212 213c0 131 105 273 270 273zM283 66c117 0 186 100 186 193c0 92 -61 137 -128 137c-117 0 -186 -102 -186 -195c0 -91 61 -135 128 -135zM219 700h75c-4 -32 -2 -82 64 -82
c88 0 93 82 93 82h75s-16 -149 -171 -149c-131 0 -143 95 -136 149z" />
    <glyph glyph-name="Ohungarumlaut" unicode="&#x150;" horiz-adv-x="768" 
d="M476 712c215 0 321 -153 321 -320c0 -206 -161 -404 -384 -404c-215 0 -320 153 -320 320c0 206 160 404 383 404zM413 68c161 0 294 137 294 324c0 143 -87 240 -231 240c-161 0 -292 -137 -292 -324c0 -143 85 -240 229 -240zM681 960l62 -36l-151 -170l-58 31z
M519 960l62 -36l-151 -170l-58 31z" />
    <glyph glyph-name="ohungarumlaut" unicode="&#x151;" horiz-adv-x="540" 
d="M341 474c135 0 212 -89 212 -215c0 -130 -105 -271 -270 -271c-135 0 -212 87 -212 213c0 131 105 273 270 273zM283 66c117 0 186 100 186 193c0 92 -61 137 -128 137c-117 0 -186 -102 -186 -195c0 -91 61 -135 128 -135zM529 722l62 -36l-151 -170l-58 31zM367 722
l62 -36l-151 -170l-58 31z" />
    <glyph glyph-name="OE" unicode="&#x152;" horiz-adv-x="836" 
d="M784 0h-412c-184 0 -278 148 -278 310c0 198 145 390 364 390h443l-14 -80h-280l-39 -221h256l-14 -80h-256l-42 -239h286zM372 80h56l95 540h-65c-164 0 -275 -133 -275 -310c0 -116 49 -230 189 -230z" />
    <glyph glyph-name="oe" unicode="&#x153;" horiz-adv-x="902" 
d="M332 474c91 0 157 -46 189 -113c38 60 104 113 203 113c115 0 191 -74 191 -196c0 -24 -5 -52 -11 -77h-355c-7 -70 38 -135 123 -135c96 0 144 68 144 68l53 -55s-73 -91 -200 -91c-85 0 -152 47 -180 106c-44 -62 -115 -106 -208 -106c-132 0 -210 87 -210 213
c0 131 95 273 261 273zM281 66c114 0 178 100 178 193c0 92 -64 137 -127 137c-114 0 -177 -102 -177 -195c0 -91 63 -135 126 -135zM562 271h270c6 52 -18 125 -111 125c-98 0 -146 -77 -159 -125z" />
    <glyph glyph-name="Racute" unicode="&#x154;" horiz-adv-x="553" 
d="M338 366c103 0 167 55 167 142c0 72 -43 112 -127 112h-103l-45 -254h108zM82 0l123 700h187c129 0 197 -81 197 -176c0 -167 -121 -224 -207 -231l143 -293h-95l-139 286h-75l-50 -286h-84zM489 935l46 -55l-169 -137l-44 51z" />
    <glyph glyph-name="racute" unicode="&#x155;" horiz-adv-x="340" 
d="M349 474c44 0 70 -12 70 -12l-34 -76s-26 10 -61 10c-73 0 -120 -78 -120 -78l-56 -318h-84l81 462h78l-12 -71s48 83 138 83zM344 718l46 -55l-169 -137l-44 51z" />
    <glyph glyph-name="Rcedilla" unicode="&#x156;" horiz-adv-x="553" 
d="M338 366c103 0 167 55 167 142c0 72 -43 112 -127 112h-103l-45 -254h108zM82 0l123 700h187c129 0 197 -81 197 -176c0 -167 -121 -224 -207 -231l143 -293h-95l-139 286h-75l-50 -286h-84zM330 -43l-87 -201l-77 21l87 186z" />
    <glyph glyph-name="rcedilla" unicode="&#x157;" horiz-adv-x="340" 
d="M349 474c44 0 70 -12 70 -12l-34 -76s-26 10 -61 10c-73 0 -120 -78 -120 -78l-56 -318h-84l81 462h78l-12 -71s48 83 138 83zM168 -53l-87 -201l-77 21l87 186z" />
    <glyph glyph-name="Rcaron" unicode="&#x158;" horiz-adv-x="553" 
d="M338 366c103 0 167 55 167 142c0 72 -43 112 -127 112h-103l-45 -254h108zM82 0l123 700h187c129 0 197 -81 197 -176c0 -167 -121 -224 -207 -231l143 -293h-95l-139 286h-75l-50 -286h-84zM571 867l-178 -121l-154 121l47 56l112 -95l134 93z" />
    <glyph glyph-name="rcaron" unicode="&#x159;" horiz-adv-x="340" 
d="M349 474c44 0 70 -12 70 -12l-34 -76s-26 10 -61 10c-73 0 -120 -78 -120 -78l-56 -318h-84l81 462h78l-12 -71s48 83 138 83zM457 646l-178 -121l-154 121l47 56l112 -95l134 93z" />
    <glyph glyph-name="Sacute" unicode="&#x15a;" horiz-adv-x="542" 
d="M292 68c74 0 145 45 145 128c0 59 -47 92 -111 124c-83 42 -160 83 -160 190c0 105 97 202 222 202c139 0 196 -100 196 -100l-65 -50s-49 70 -131 70c-71 0 -137 -48 -137 -122c0 -58 51 -80 131 -121c86 -44 143 -95 143 -193c0 -119 -102 -208 -233 -208
c-166 0 -219 142 -219 142l74 44s40 -106 145 -106zM486 945l46 -55l-169 -137l-44 51z" />
    <glyph glyph-name="sacute" unicode="&#x15b;" horiz-adv-x="455" 
d="M48 81l58 56s50 -73 139 -73c52 0 109 23 109 67c0 34 -27 47 -96 64c-82 20 -144 58 -144 134s67 145 178 145c114 0 174 -65 174 -65l-49 -60s-57 49 -125 49c-62 0 -95 -31 -95 -65c0 -32 26 -44 96 -63c76 -21 146 -48 146 -132c0 -102 -98 -150 -194 -150
c-136 0 -197 93 -197 93zM390 717l46 -55l-169 -137l-44 51z" />
    <glyph glyph-name="Scircumflex" unicode="&#x15c;" horiz-adv-x="542" 
d="M292 68c74 0 145 45 145 128c0 59 -47 92 -111 124c-83 42 -160 83 -160 190c0 105 97 202 222 202c139 0 196 -100 196 -100l-65 -50s-49 70 -131 70c-71 0 -137 -48 -137 -122c0 -58 51 -80 131 -121c86 -44 143 -95 143 -193c0 -119 -102 -208 -233 -208
c-166 0 -219 142 -219 142l74 44s40 -106 145 -106zM418 921l156 -121l-48 -54l-113 92l-131 -94l-41 59z" />
    <glyph glyph-name="scircumflex" unicode="&#x15d;" horiz-adv-x="455" 
d="M48 81l58 56s50 -73 139 -73c52 0 109 23 109 67c0 34 -27 47 -96 64c-82 20 -144 58 -144 134s67 145 178 145c114 0 174 -65 174 -65l-49 -60s-57 49 -125 49c-62 0 -95 -31 -95 -65c0 -32 26 -44 96 -63c76 -21 146 -48 146 -132c0 -102 -98 -150 -194 -150
c-136 0 -197 93 -197 93zM328 702l156 -121l-48 -54l-113 92l-131 -94l-41 59z" />
    <glyph glyph-name="Scedilla" unicode="&#x15e;" horiz-adv-x="542" 
d="M292 68c74 0 145 45 145 128c0 59 -47 92 -111 124c-83 42 -160 83 -160 190c0 105 97 202 222 202c139 0 196 -100 196 -100l-65 -50s-49 70 -131 70c-71 0 -137 -48 -137 -122c0 -58 51 -80 131 -121c86 -44 143 -95 143 -193c0 -119 -102 -208 -233 -208
c-166 0 -219 142 -219 142l74 44s40 -106 145 -106zM301 -53l-87 -201l-77 21l87 186z" />
    <glyph glyph-name="scedilla" unicode="&#x15f;" horiz-adv-x="455" 
d="M48 81l58 56s50 -73 139 -73c52 0 109 23 109 67c0 34 -27 47 -96 64c-82 20 -144 58 -144 134s67 145 178 145c114 0 174 -65 174 -65l-49 -60s-57 49 -125 49c-62 0 -95 -31 -95 -65c0 -32 26 -44 96 -63c76 -21 146 -48 146 -132c0 -102 -98 -150 -194 -150
c-136 0 -197 93 -197 93zM256 -53l-87 -201l-77 21l87 186z" />
    <glyph glyph-name="Scaron" unicode="&#x160;" horiz-adv-x="542" 
d="M289 68c74 0 145 45 145 128c0 59 -47 92 -111 124c-83 42 -160 83 -160 190c0 105 97 202 222 202c139 0 196 -100 196 -100l-65 -50s-49 70 -131 70c-71 0 -137 -48 -137 -122c0 -58 51 -80 131 -121c86 -44 143 -95 143 -193c0 -119 -102 -208 -233 -208
c-166 0 -219 142 -219 142l74 44s40 -106 145 -106zM576 867l-178 -121l-154 121l47 56l112 -95l134 93z" />
    <glyph glyph-name="scaron" unicode="&#x161;" horiz-adv-x="455" 
d="M48 81l58 56s50 -73 139 -73c52 0 109 23 109 67c0 34 -27 47 -96 64c-82 20 -144 58 -144 134s67 145 178 145c114 0 174 -65 174 -65l-49 -60s-57 49 -125 49c-62 0 -95 -31 -95 -65c0 -32 26 -44 96 -63c76 -21 146 -48 146 -132c0 -102 -98 -150 -194 -150
c-136 0 -197 93 -197 93zM491 646l-178 -121l-154 121l47 56l112 -95l134 93z" />
    <glyph glyph-name="Tcedilla" unicode="&#x162;" horiz-adv-x="514" 
d="M215 0l109 620h-201l14 80h486l-14 -80h-201l-109 -620h-84zM302 -53l-87 -201l-77 21l87 186z" />
    <glyph glyph-name="tcedilla" unicode="&#x163;" horiz-adv-x="376" 
d="M82 386l13 76h100l25 141h84l-25 -141h144l-13 -76h-144l-44 -249c-8 -45 10 -71 47 -71c30 0 63 23 63 23l30 -69s-45 -32 -111 -32c-57 0 -131 48 -113 150l44 248h-100zM260 -53l-87 -201l-77 21l87 186z" />
    <glyph glyph-name="Tcaron" unicode="&#x164;" horiz-adv-x="514" 
d="M215 0l109 620h-201l14 80h486l-14 -80h-201l-109 -620h-84zM551 867l-178 -121l-154 121l47 56l112 -95l134 93z" />
    <glyph glyph-name="tcaron" unicode="&#x165;" horiz-adv-x="376" 
d="M82 386l13 76h100l25 141h84l-25 -141h144l-13 -76h-144l-44 -249c-8 -45 10 -71 47 -71c30 0 63 23 63 23l30 -69s-45 -32 -111 -32c-57 0 -131 48 -113 150l44 248h-100zM362 518l41 238h70l-41 -238h-70z" />
    <glyph glyph-name="Tbar" unicode="&#x166;" horiz-adv-x="514" 
d="M133 392l12 70h151l28 158h-201l14 80h486l-14 -80h-201l-28 -158h151l-12 -70h-151l-69 -392h-84l69 392h-151z" />
    <glyph glyph-name="tbar" unicode="&#x167;" horiz-adv-x="374" 
d="M92 386l14 76h90l25 141h84l-25 -141h144l-14 -76h-144l-15 -86h144l-12 -70h-144s-18 -96 -18 -115c0 -32 16 -49 49 -49s63 21 63 21l29 -69c-44 -24 -74 -30 -111 -30c-50 0 -116 35 -116 116c0 23 12 85 20 126h-84l12 70h84l15 86h-90z" />
    <glyph glyph-name="Ugrave" unicode="&#xd9;" horiz-adv-x="674" 
d="M555 267c41 231 76 433 76 433h84l-78 -442c-28 -159 -126 -270 -289 -270c-175 0 -249 111 -221 270l78 442h84s-36 -207 -77 -438c-20 -114 10 -194 136 -194c121 0 187 86 207 199zM332 887l52 52l149 -149l-51 -47z" />
    <glyph glyph-name="ugrave" unicode="&#xf9;" horiz-adv-x="522" 
d="M241 -12c-75 0 -151 52 -151 145c0 10 0 27 55 329h84c-52 -281 -53 -304 -53 -313c0 -57 36 -83 91 -83c78 0 132 76 132 76l56 320h84l-81 -462h-78l12 71s-54 -83 -151 -83zM226 669l52 52l149 -149l-51 -47z" />
    <glyph glyph-name="Uacute" unicode="&#xda;" horiz-adv-x="674" 
d="M555 267c41 231 76 433 76 433h84l-78 -442c-28 -159 -126 -270 -289 -270c-175 0 -249 111 -221 270l78 442h84s-36 -207 -77 -438c-20 -114 10 -194 136 -194c121 0 187 86 207 199zM574 935l46 -55l-169 -137l-44 51z" />
    <glyph glyph-name="uacute" unicode="&#xfa;" horiz-adv-x="522" 
d="M437 717l46 -55l-169 -137l-44 51zM241 -12c-75 0 -151 52 -151 145c0 10 0 27 55 329h84c-52 -281 -53 -304 -53 -313c0 -57 36 -83 91 -83c78 0 132 76 132 76l56 320h84l-81 -462h-78l12 71s-54 -83 -151 -83z" />
    <glyph glyph-name="Ucircumflex" unicode="&#xdb;" horiz-adv-x="674" 
d="M555 267c41 231 76 433 76 433h84l-78 -442c-28 -159 -126 -270 -289 -270c-175 0 -249 111 -221 270l78 442h84s-36 -207 -77 -438c-20 -114 10 -194 136 -194c121 0 187 86 207 199zM483 921l156 -121l-48 -54l-113 92l-131 -94l-41 59z" />
    <glyph glyph-name="ucircumflex" unicode="&#xfb;" horiz-adv-x="522" 
d="M241 -12c-75 0 -151 52 -151 145c0 10 0 27 55 329h84c-52 -281 -53 -304 -53 -313c0 -57 36 -83 91 -83c78 0 132 76 132 76l56 320h84l-81 -462h-78l12 71s-54 -83 -151 -83zM367 712l156 -121l-48 -54l-113 92l-131 -94l-41 59z" />
    <glyph glyph-name="Udieresis" unicode="&#xdc;" horiz-adv-x="674" 
d="M555 267c41 231 76 433 76 433h84l-78 -442c-28 -159 -126 -270 -289 -270c-175 0 -249 111 -221 270l78 442h84s-36 -207 -77 -438c-20 -114 10 -194 136 -194c121 0 187 86 207 199zM318 838c0 31 26 57 57 57s57 -26 57 -57s-26 -57 -57 -57s-57 26 -57 57zM499 838
c0 31 26 57 57 57s57 -26 57 -57s-26 -57 -57 -57s-57 26 -57 57z" />
    <glyph glyph-name="udieresis" unicode="&#xfc;" horiz-adv-x="522" 
d="M241 -12c-75 0 -151 52 -151 145c0 10 0 27 55 329h84c-52 -281 -53 -304 -53 -313c0 -57 36 -83 91 -83c78 0 132 76 132 76l56 320h84l-81 -462h-78l12 71s-54 -83 -151 -83zM211 610c0 31 26 57 57 57s57 -26 57 -57s-26 -57 -57 -57s-57 26 -57 57zM392 610
c0 31 26 57 57 57s57 -26 57 -57s-26 -57 -57 -57s-57 26 -57 57z" />
    <glyph glyph-name="Utilde" unicode="&#x168;" horiz-adv-x="674" 
d="M555 267c41 231 76 433 76 433h84l-78 -442c-28 -159 -126 -270 -289 -270c-175 0 -249 111 -221 270l78 442h84s-36 -207 -77 -438c-20 -114 10 -194 136 -194c121 0 187 86 207 199zM352 791l-55 37s34 84 119 84c51 0 86 -44 118 -44c44 0 62 49 62 49l54 -37
s-31 -84 -116 -84c-54 0 -88 44 -120 44c-45 0 -62 -49 -62 -49z" />
    <glyph glyph-name="utilde" unicode="&#x169;" horiz-adv-x="522" 
d="M241 -12c-75 0 -151 52 -151 145c0 10 0 27 55 329h84c-52 -281 -53 -304 -53 -313c0 -57 36 -83 91 -83c78 0 132 76 132 76l56 320h84l-81 -462h-78l12 71s-54 -83 -151 -83zM244 553l-55 37s34 84 119 84c51 0 86 -44 118 -44c44 0 62 49 62 49l54 -37
s-31 -84 -116 -84c-54 0 -88 44 -120 44c-45 0 -62 -49 -62 -49z" />
    <glyph glyph-name="Umacron" unicode="&#x16a;" horiz-adv-x="674" 
d="M555 267c41 231 76 433 76 433h84l-78 -442c-28 -159 -126 -270 -289 -270c-175 0 -249 111 -221 270l78 442h84s-36 -207 -77 -438c-20 -114 10 -194 136 -194c121 0 187 86 207 199zM318 790l12 69h302l-13 -69h-301z" />
    <glyph glyph-name="umacron" unicode="&#x16b;" horiz-adv-x="522" 
d="M241 -12c-75 0 -151 52 -151 145c0 10 0 27 55 329h84c-52 -281 -53 -304 -53 -313c0 -57 36 -83 91 -83c78 0 132 76 132 76l56 320h84l-81 -462h-78l12 71s-54 -83 -151 -83zM204 572l12 69h302l-13 -69h-301z" />
    <glyph glyph-name="Ubreve" unicode="&#x16c;" horiz-adv-x="674" 
d="M555 267c41 231 76 433 76 433h84l-78 -442c-28 -159 -126 -270 -289 -270c-175 0 -249 111 -221 270l78 442h84s-36 -207 -77 -438c-20 -114 10 -194 136 -194c121 0 187 86 207 199zM327 908h75c-4 -32 -2 -82 64 -82c88 0 93 82 93 82h75s-16 -149 -171 -149
c-131 0 -143 95 -136 149z" />
    <glyph glyph-name="ubreve" unicode="&#x16d;" horiz-adv-x="522" 
d="M241 -12c-75 0 -151 52 -151 145c0 10 0 27 55 329h84c-52 -281 -53 -304 -53 -313c0 -57 36 -83 91 -83c78 0 132 76 132 76l56 320h84l-81 -462h-78l12 71s-54 -83 -151 -83zM216 700h75c-4 -32 -2 -82 64 -82c88 0 93 82 93 82h75s-16 -149 -171 -149
c-131 0 -143 95 -136 149z" />
    <glyph glyph-name="Uring" unicode="&#x16e;" horiz-adv-x="674" 
d="M555 267c41 231 76 433 76 433h84l-78 -442c-28 -159 -126 -270 -289 -270c-175 0 -249 111 -221 270l78 442h84s-36 -207 -77 -438c-20 -114 10 -194 136 -194c121 0 187 86 207 199zM475 895c-35 0 -63 -27 -63 -66c0 -20 14 -44 48 -44c35 0 64 25 64 64
c0 20 -15 46 -49 46zM358 829c0 70 59 119 117 119c67 0 103 -50 103 -99c0 -70 -60 -117 -118 -117c-67 0 -102 48 -102 97z" />
    <glyph glyph-name="uring" unicode="&#x16f;" horiz-adv-x="522" 
d="M241 -12c-75 0 -151 52 -151 145c0 10 0 27 55 329h84c-52 -281 -53 -304 -53 -313c0 -57 36 -83 91 -83c78 0 132 76 132 76l56 320h84l-81 -462h-78l12 71s-54 -83 -151 -83zM367 700c-35 0 -63 -27 -63 -66c0 -20 14 -44 48 -44c35 0 64 25 64 64c0 20 -15 46 -49 46z
M250 634c0 70 59 119 117 119c67 0 103 -50 103 -99c0 -70 -60 -117 -118 -117c-67 0 -102 48 -102 97z" />
    <glyph glyph-name="Uhungarumlaut" unicode="&#x170;" horiz-adv-x="674" 
d="M555 267c41 231 76 433 76 433h84l-78 -442c-28 -159 -126 -270 -289 -270c-175 0 -249 111 -221 270l78 442h84s-36 -207 -77 -438c-20 -114 10 -194 136 -194c121 0 187 86 207 199zM621 960l62 -36l-151 -170l-58 31zM459 960l62 -36l-151 -170l-58 31z" />
    <glyph glyph-name="uhungarumlaut" unicode="&#x171;" horiz-adv-x="525" 
d="M241 -12c-75 0 -151 52 -151 145c0 10 0 27 55 329h84c-52 -281 -53 -304 -53 -313c0 -57 36 -83 91 -83c78 0 132 76 132 76l56 320h84l-81 -462h-78l12 71s-54 -83 -151 -83zM504 722l62 -36l-151 -170l-58 31zM342 722l62 -36l-151 -170l-58 31z" />
    <glyph glyph-name="Uogonek" unicode="&#x172;" horiz-adv-x="674" 
d="M554 267c41 231 76 433 76 433h84l-78 -442c-25 -140 -94 -220 -224 -262c-28 -9 -93 -43 -93 -87c0 -24 19 -37 44 -37c22 0 37 7 37 7l-12 -69s-20 -7 -48 -7c-52 0 -91 37 -91 84c0 52 41 88 69 102l-1 1c-149 11 -218 113 -191 263l78 447h84s-36 -207 -77 -438
c-20 -114 9 -194 136 -194c117 0 187 86 207 199z" />
    <glyph glyph-name="uogonek" unicode="&#x173;" horiz-adv-x="522" 
d="M241 -12c-75 0 -151 52 -151 145c0 10 0 27 55 329h84c-52 -281 -53 -304 -53 -313c0 -57 36 -83 91 -83c78 0 132 76 132 76l56 320h84l-81 -462c-5 -1 -102 -24 -102 -88c0 -26 19 -40 44 -40c22 0 37 7 37 7l-12 -69s-20 -7 -48 -7c-46 0 -91 36 -91 91
c0 79 79 107 98 114l11 63s-57 -83 -154 -83z" />
    <glyph glyph-name="Wgrave" unicode="&#x1e80;" horiz-adv-x="950" 
d="M1069 700l-397 -720l-104 551l-299 -551l-142 720h89l91 -488l260 488h58l85 -488l268 488h91zM478 887l52 52l149 -149l-51 -47z" />
    <glyph glyph-name="wgrave" unicode="&#x1e81;" horiz-adv-x="742" 
d="M324 670l52 52l149 -149l-51 -47zM89 462h86l70 -299l176 299h60l69 -295l176 295h89l-296 -482l-91 347l-213 -347z" />
    <glyph glyph-name="Wacute" unicode="&#x1e82;" horiz-adv-x="950" 
d="M1069 700l-397 -720l-104 551l-299 -551l-142 720h89l91 -488l260 488h58l85 -488l268 488h91zM692 935l46 -55l-169 -137l-44 51z" />
    <glyph glyph-name="wacute" unicode="&#x1e83;" horiz-adv-x="742" 
d="M89 462h86l70 -299l176 299h60l69 -295l176 295h89l-296 -482l-91 347l-213 -347zM561 718l46 -55l-169 -137l-44 51z" />
    <glyph glyph-name="Wcircumflex" unicode="&#x174;" horiz-adv-x="950" 
d="M1073 700l-397 -720l-104 551l-299 -551l-142 720h89l91 -488l260 488h58l85 -488l268 488h91zM615 922l156 -121l-48 -54l-113 92l-131 -94l-41 59z" />
    <glyph glyph-name="wcircumflex" unicode="&#x175;" horiz-adv-x="742" 
d="M89 462h86l70 -299l176 299h60l69 -295l176 295h89l-296 -482l-91 347l-213 -347zM471 702l156 -121l-48 -54l-113 92l-131 -94l-41 59z" />
    <glyph glyph-name="Ygrave" unicode="&#x1ef2;" 
d="M248 0l48 275l-161 425h88l128 -344l245 344h95l-311 -425l-48 -275h-84zM270 887l52 52l149 -149l-51 -47z" />
    <glyph glyph-name="ygrave" unicode="&#x1ef3;" horiz-adv-x="500" 
d="M-5 -214l36 71s26 -21 54 -21c39 0 57 26 83 71l53 92l-134 463h94l97 -365l203 365h96s-335 -584 -351 -611c-39 -67 -86 -93 -140 -93c-57 0 -91 28 -91 28zM200 669l52 52l149 -149l-51 -47z" />
    <glyph glyph-name="Yacute" unicode="&#xdd;" 
d="M248 0l48 275l-161 425h88l128 -344l245 344h95l-311 -425l-48 -275h-84zM525 935l46 -55l-169 -137l-44 51z" />
    <glyph glyph-name="yacute" unicode="&#xfd;" horiz-adv-x="500" 
d="M440 717l46 -55l-169 -137l-44 51zM-5 -214l36 71s26 -21 54 -21c39 0 57 26 83 71l53 92l-134 463h94l97 -365l203 365h96s-335 -584 -351 -611c-39 -67 -86 -93 -140 -93c-57 0 -91 28 -91 28z" />
    <glyph glyph-name="Ycircumflex" unicode="&#x176;" 
d="M248 0l48 275l-161 425h88l128 -344l245 344h95l-311 -425l-48 -275h-84zM422 922l156 -121l-48 -54l-113 92l-131 -94l-41 59z" />
    <glyph glyph-name="ycircumflex" unicode="&#x177;" horiz-adv-x="500" 
d="M-5 -214l36 71s26 -21 54 -21c39 0 57 26 83 71l53 92l-134 463h94l97 -365l203 365h96s-335 -584 -351 -611c-39 -67 -86 -93 -140 -93c-57 0 -91 28 -91 28zM346 714l156 -121l-48 -54l-113 92l-131 -94l-41 59z" />
    <glyph glyph-name="Ydieresis" unicode="&#x178;" 
d="M248 0l48 275l-161 425h88l128 -344l245 344h95l-311 -425l-48 -275h-84zM270 838c0 31 26 57 57 57s57 -26 57 -57s-26 -57 -57 -57s-57 26 -57 57zM451 838c0 31 26 57 57 57s57 -26 57 -57s-26 -57 -57 -57s-57 26 -57 57z" />
    <glyph glyph-name="ydieresis" unicode="&#xff;" horiz-adv-x="500" 
d="M-3 -214l36 71s26 -21 54 -21c39 0 57 26 83 71l53 92l-134 463h94l97 -365l203 365h96s-335 -584 -351 -611c-39 -67 -86 -93 -140 -93c-57 0 -91 28 -91 28zM191 610c0 31 26 57 57 57s57 -26 57 -57s-26 -57 -57 -57s-57 26 -57 57zM372 610c0 31 26 57 57 57
s57 -26 57 -57s-26 -57 -57 -57s-57 26 -57 57z" />
    <glyph glyph-name="Zacute" unicode="&#x179;" horiz-adv-x="572" 
d="M157 700h519l-497 -620h369l-14 -80h-516l496 620h-371zM502 935l46 -55l-169 -137l-44 51z" />
    <glyph glyph-name="zacute" unicode="&#x17a;" horiz-adv-x="470" 
d="M129 462h391l-321 -384h251l-14 -78h-402l322 384h-241zM417 697l46 -55l-169 -137l-44 51z" />
    <glyph glyph-name="Zdotaccent" unicode="&#x17b;" horiz-adv-x="572" 
d="M157 700h519l-497 -620h369l-14 -80h-516l496 620h-371zM354 818c0 31 25 57 56 57s57 -26 57 -57s-26 -56 -57 -56s-56 25 -56 56z" />
    <glyph glyph-name="zdotaccent" unicode="&#x17c;" horiz-adv-x="470" 
d="M129 462h391l-321 -384h251l-14 -78h-402l322 384h-241zM271 610c0 31 25 57 56 57s57 -26 57 -57s-26 -56 -57 -56s-56 25 -56 56z" />
    <glyph glyph-name="Zcaron" unicode="&#x17d;" horiz-adv-x="572" 
d="M157 700h519l-497 -620h369l-14 -80h-516l496 620h-371zM591 869l-178 -121l-154 121l47 56l112 -95l134 93z" />
    <glyph glyph-name="zcaron" unicode="&#x17e;" horiz-adv-x="470" 
d="M129 462h391l-321 -384h251l-14 -78h-402l322 384h-241zM508 646l-178 -121l-154 121l47 56l112 -95l134 93z" />
    <glyph glyph-name="Thorn" unicode="&#xde;" horiz-adv-x="540" 
d="M82 0l123 700h84l-22 -127h120c121 0 191 -61 191 -157c0 -155 -97 -239 -256 -239h-125l-31 -177h-84zM321 257c115 0 172 45 172 147c0 63 -47 89 -129 89h-111l-42 -236h110z" />
    <glyph glyph-name="thorn" unicode="&#xfe;" horiz-adv-x="567" 
d="M298 756l-62 -352c17 20 66 70 154 70c105 0 194 -85 194 -204c0 -154 -101 -282 -255 -282c-79 0 -136 48 -154 69l-50 -287h-83l172 986h84zM222 317l-31 -177s41 -74 133 -74c105 0 175 90 175 194c0 79 -48 136 -127 136c-92 0 -150 -79 -150 -79z" />
    <glyph glyph-name="longs" unicode="&#x17f;" horiz-adv-x="331" 
d="M83 386l13 76h101l28 159c18 98 85 147 157 147c27 0 60 -2 98 -23l-34 -70s-28 15 -56 15c-45 0 -74 -29 -82 -74l-108 -616h-84l68 386h-101z" />
    <glyph glyph-name="zero.lnum_tnum" 
d="M415 712c177 0 210 -190 180 -362c-31 -172 -130 -362 -307 -362s-212 190 -181 362c30 172 131 362 308 362zM301 64c124 0 189 167 210 286c20 119 15 284 -109 284s-191 -165 -211 -284c-21 -119 -14 -286 110 -286z" />
    <glyph glyph-name="one.lnum_tnum" 
d="M174 505l279 195h82l-123 -700h-84l104 590l-212 -148z" />
    <glyph glyph-name="two.lnum_tnum" 
d="M70 0l304 328c31 33 121 117 121 202c0 57 -41 104 -116 104c-111 0 -147 -107 -147 -107l-74 28s50 157 221 157c123 0 202 -74 202 -182c0 -91 -65 -158 -97 -198c-27 -33 -231 -254 -231 -254h264l-13 -78h-434z" />
    <glyph glyph-name="three.lnum_tnum" 
d="M328 396c78 0 164 44 164 139c0 58 -48 99 -114 99c-106 0 -141 -91 -141 -91l-70 33s55 136 211 136c102 0 198 -57 198 -177c0 -105 -83 -165 -115 -176c16 -5 88 -37 88 -144c0 -133 -110 -227 -245 -227c-174 0 -218 157 -218 157l74 35s30 -114 144 -114
c101 0 160 68 160 149c0 63 -50 104 -138 104h-43l14 77h31z" />
    <glyph glyph-name="four.lnum_tnum" 
d="M15 184l455 516h85l-77 -438h87l-14 -78h-87l-32 -184h-82l32 184h-367zM179 262h217l55 310z" />
    <glyph glyph-name="five.lnum_tnum" 
d="M571 256c0 -157 -113 -268 -263 -268c-178 0 -223 157 -223 157l74 35s34 -114 149 -114c94 0 178 65 178 190c0 83 -66 124 -142 124c-95 0 -192 -72 -192 -72l68 392h400l-13 -78h-319l-33 -185s41 23 113 23c102 0 203 -67 203 -204z" />
    <glyph glyph-name="six.lnum_tnum" 
d="M505 678l-181 -231s24 3 43 3c123 0 195 -83 195 -201c0 -132 -109 -261 -258 -261c-131 0 -208 85 -208 202c0 59 30 122 67 175c36 51 276 359 276 359zM355 372c-100 0 -174 -93 -174 -182c0 -68 45 -124 125 -124c99 0 171 96 171 183c0 69 -43 123 -122 123z" />
    <glyph glyph-name="seven.lnum_tnum" 
d="M177 622l14 78h486l-499 -718l-67 39l414 601h-348z" />
    <glyph glyph-name="eight.lnum_tnum" 
d="M402 712c128 0 180 -85 180 -168c0 -71 -43 -136 -112 -167c48 -26 80 -85 80 -151c0 -125 -105 -238 -249 -238c-133 0 -201 90 -201 189c0 87 52 171 141 206c-36 26 -58 71 -58 119c0 104 91 210 219 210zM301 66c97 0 164 81 164 160c0 61 -42 113 -117 113
c-97 0 -163 -80 -163 -162c0 -59 41 -111 116 -111zM364 412c69 0 133 58 133 132c0 52 -42 90 -95 90c-72 0 -135 -58 -135 -132c0 -54 41 -90 97 -90z" />
    <glyph glyph-name="nine.lnum_tnum" 
d="M197 23l181 231s-24 -3 -43 -3c-123 0 -195 83 -195 201c0 132 109 261 258 261c131 0 208 -85 208 -202c0 -59 -30 -122 -67 -175c-36 -51 -276 -359 -276 -359zM347 329c100 0 174 93 174 182c0 68 -45 124 -125 124c-99 0 -171 -96 -171 -183c0 -69 43 -123 122 -123z
" />
    <glyph glyph-name="zero.onum_pnum" horiz-adv-x="550" 
d="M344 474c137 0 220 -97 220 -212c0 -176 -144 -274 -279 -274c-137 0 -219 96 -219 211c0 176 143 275 278 275zM285 66c114 0 194 92 194 196c0 76 -55 134 -135 134c-114 0 -193 -88 -193 -197c0 -76 54 -133 134 -133z" />
    <glyph glyph-name="one.onum_pnum" horiz-adv-x="365" 
d="M62 309l219 153h85l-81 -462h-84l63 357l-154 -108z" />
    <glyph glyph-name="two.onum_pnum" horiz-adv-x="466" 
d="M382 190c-29 -28 -125 -112 -125 -112h166l-13 -78h-358l217 190c41 38 97 76 97 131c0 45 -32 75 -81 75c-85 0 -112 -77 -112 -77l-71 29s47 126 183 126c100 0 167 -59 167 -153c0 -48 -32 -94 -70 -131z" />
    <glyph glyph-name="three.onum_pnum" horiz-adv-x="500" 
d="M271 178c73 0 133 46 133 128c0 53 -42 90 -104 90c-101 0 -137 -85 -137 -85l-68 32s60 131 205 131c108 0 187 -66 187 -168c0 -93 -61 -147 -102 -163c0 0 80 -28 80 -136c0 -124 -103 -217 -232 -217c-175 0 -208 154 -208 154l72 32s17 -108 136 -108
c88 0 147 60 147 139c0 62 -40 95 -119 95h-46l14 76h42z" />
    <glyph glyph-name="four.onum_pnum" horiz-adv-x="532" 
d="M-3 0l432 462h79l-68 -384h73l-14 -78h-73l-35 -198h-82l35 198h-347zM164 78h194l45 257z" />
    <glyph glyph-name="five.onum_pnum" horiz-adv-x="559" 
d="M513 43c0 -150 -118 -253 -256 -253c-172 0 -209 152 -209 152l73 34s24 -108 136 -108c86 0 171 66 171 175c0 74 -57 119 -133 119c-91 0 -189 -74 -189 -74l66 374h379l-14 -78h-299l-29 -166s48 22 109 22c102 0 195 -65 195 -197z" />
    <glyph glyph-name="six.onum_pnum" horiz-adv-x="540" 
d="M489 678l-181 -231s24 3 43 3c123 0 195 -83 195 -201c0 -132 -109 -261 -258 -261c-131 0 -208 85 -208 202c0 59 30 122 67 175c36 51 276 359 276 359zM339 372c-100 0 -174 -93 -174 -182c0 -68 45 -124 125 -124c99 0 171 96 171 183c0 69 -43 123 -122 123z" />
    <glyph glyph-name="seven.onum_pnum" horiz-adv-x="471" 
d="M95 384l14 78h449l-467 -672l-64 38l385 556h-317z" />
    <glyph glyph-name="eight.onum_pnum" horiz-adv-x="548" 
d="M389 712c128 0 180 -85 180 -168c0 -71 -43 -136 -112 -167c48 -26 80 -85 80 -151c0 -125 -105 -238 -249 -238c-133 0 -201 90 -201 189c0 87 52 171 141 206c-36 26 -58 71 -58 119c0 104 91 210 219 210zM288 66c97 0 164 81 164 160c0 61 -42 113 -117 113
c-97 0 -163 -80 -163 -162c0 -59 41 -111 116 -111zM351 412c69 0 133 58 133 132c0 52 -42 90 -95 90c-72 0 -135 -58 -135 -132c0 -54 41 -90 97 -90z" />
    <glyph glyph-name="nine.onum_pnum" horiz-adv-x="522" 
d="M160 -171l154 214c-17 -4 -29 -5 -47 -5c-109 0 -185 86 -185 189c0 135 117 247 248 247c126 0 199 -80 199 -190c0 -47 -14 -90 -53 -147c-31 -46 -248 -348 -248 -348zM281 116c98 0 165 88 165 168c0 62 -41 112 -116 112c-81 0 -165 -67 -165 -169
c0 -63 40 -111 116 -111z" />
    <glyph glyph-name="zero.onum_tnum" 
d="M358 474c137 0 220 -97 220 -212c0 -176 -144 -274 -279 -274c-137 0 -219 96 -219 211c0 176 143 275 278 275zM299 66c114 0 194 92 194 196c0 76 -55 134 -135 134c-114 0 -193 -88 -193 -197c0 -76 54 -133 134 -133z" />
    <glyph glyph-name="one.onum_tnum" 
d="M148 276l264 186h85l-81 -462h-84l63 357l-199 -141z" />
    <glyph glyph-name="two.onum_tnum" 
d="M445 190c-29 -28 -125 -112 -125 -112h166l-13 -78h-358l217 190c41 38 97 76 97 131c0 45 -32 75 -81 75c-85 0 -112 -77 -112 -77l-71 29s47 126 183 126c100 0 167 -59 167 -153c0 -48 -32 -94 -70 -131z" />
    <glyph glyph-name="three.onum_tnum" 
d="M309 178c73 0 133 46 133 128c0 53 -42 90 -104 90c-101 0 -137 -85 -137 -85l-68 32s60 131 205 131c108 0 187 -66 187 -168c0 -93 -61 -147 -102 -163c0 0 80 -28 80 -136c0 -124 -103 -217 -232 -217c-175 0 -208 154 -208 154l72 32s17 -108 136 -108
c88 0 147 60 147 139c0 62 -40 95 -119 95h-46l14 76h42z" />
    <glyph glyph-name="four.onum_tnum" 
d="M0 0l432 462h79l-68 -384h73l-14 -78h-73l-35 -198h-82l35 198h-347zM167 78h194l45 257z" />
    <glyph glyph-name="five.onum_tnum" 
d="M530 43c0 -150 -118 -253 -256 -253c-172 0 -209 152 -209 152l73 34s24 -108 136 -108c86 0 171 66 171 175c0 74 -57 119 -133 119c-91 0 -189 -74 -189 -74l66 374h379l-14 -78h-299l-29 -166s48 22 109 22c102 0 195 -65 195 -197z" />
    <glyph glyph-name="six.onum_tnum" 
d="M506 678l-181 -231s24 3 43 3c123 0 195 -83 195 -201c0 -132 -109 -261 -258 -261c-131 0 -208 85 -208 202c0 59 30 122 67 175c36 51 276 359 276 359zM356 372c-100 0 -174 -93 -174 -182c0 -68 45 -124 125 -124c99 0 171 96 171 183c0 69 -43 123 -122 123z" />
    <glyph glyph-name="seven.onum_tnum" 
d="M154 384l14 78h449l-467 -672l-64 38l385 556h-317z" />
    <glyph glyph-name="eight.onum_tnum" 
d="M401 712c128 0 180 -85 180 -168c0 -71 -43 -136 -112 -167c48 -26 80 -85 80 -151c0 -125 -105 -238 -249 -238c-133 0 -201 90 -201 189c0 87 52 171 141 206c-36 26 -58 71 -58 119c0 104 91 210 219 210zM300 66c97 0 164 81 164 160c0 61 -42 113 -117 113
c-97 0 -163 -80 -163 -162c0 -59 41 -111 116 -111zM363 412c69 0 133 58 133 132c0 52 -42 90 -95 90c-72 0 -135 -58 -135 -132c0 -54 41 -90 97 -90z" />
    <glyph glyph-name="nine.onum_tnum" 
d="M187 -171l154 214c-17 -4 -29 -5 -47 -5c-109 0 -185 86 -185 189c0 135 117 247 248 247c126 0 199 -80 199 -190c0 -47 -14 -90 -53 -147c-31 -46 -248 -348 -248 -348zM308 116c98 0 165 88 165 168c0 62 -41 112 -116 112c-81 0 -165 -67 -165 -169
c0 -63 40 -111 116 -111z" />
    <glyph glyph-name="zerosuperior" unicode="&#x2070;" horiz-adv-x="373" 
d="M318 806c99 0 128 -78 128 -159c0 -114 -55 -259 -183 -259c-99 0 -127 76 -127 157c0 114 54 261 182 261zM263 440c92 0 128 130 128 207c0 55 -16 107 -73 107c-92 0 -128 -132 -128 -209c0 -55 16 -105 73 -105z" />
    <glyph glyph-name="onesuperior" unicode="&#xb9;" horiz-adv-x="288" 
d="M131 677l169 123h48l-71 -406h-56l57 325l-120 -86z" />
    <glyph glyph-name="twosuperior" unicode="&#xb2;" horiz-adv-x="350" 
d="M353 559c-7 -7 -116 -111 -116 -111h149l-10 -54h-278l196 181c35 32 71 66 71 114c0 35 -24 65 -69 65c-72 0 -101 -71 -101 -71l-47 21s38 102 148 102c69 0 126 -40 126 -114c0 -55 -21 -87 -69 -133z" />
    <glyph glyph-name="threesuperior" unicode="&#xb3;" horiz-adv-x="352" 
d="M278 625c41 0 90 20 90 73c0 32 -27 56 -66 56c-67 0 -89 -56 -89 -56l-45 23s35 85 134 85c70 0 123 -43 123 -108c0 -42 -29 -81 -71 -99c0 0 48 -15 48 -82c0 -71 -59 -129 -149 -129c-108 0 -132 97 -132 97l49 24s15 -69 85 -69c43 0 90 27 90 77
c0 33 -21 56 -69 56h-24l9 52h17z" />
    <glyph glyph-name="foursuperior" unicode="&#x2074;" horiz-adv-x="347" 
d="M89 487l271 313h54l-45 -259h54l-10 -54h-54l-16 -93h-56l16 93h-214zM200 541h113l29 164z" />
    <glyph glyph-name="fivesuperior" unicode="&#x2075;" horiz-adv-x="369" 
d="M425 543c0 -90 -74 -155 -164 -155c-109 0 -129 91 -129 91l48 22s16 -61 81 -61c54 0 106 43 106 103c0 48 -41 73 -81 73c-65 0 -120 -45 -120 -45l42 229h239l-9 -52h-183l-17 -90s26 10 62 10c59 0 125 -38 125 -125z" />
    <glyph glyph-name="sixsuperior" unicode="&#x2076;" horiz-adv-x="346" 
d="M367 794l-105 -133s14 4 30 4c75 0 118 -55 118 -121c0 -69 -51 -156 -161 -156c-77 0 -124 54 -124 124c0 35 11 67 40 105c25 34 163 206 163 206zM282 613c-58 0 -101 -49 -101 -101c0 -39 26 -72 70 -72c63 0 102 52 102 104c0 38 -26 69 -71 69z" />
    <glyph glyph-name="sevensuperior" unicode="&#x2077;" horiz-adv-x="318" 
d="M154 748l9 52h294l-287 -414l-45 25l234 337h-205z" />
    <glyph glyph-name="eightsuperior" unicode="&#x2078;" horiz-adv-x="342" 
d="M303 806c75 0 112 -50 112 -103c0 -42 -27 -80 -62 -95c29 -18 44 -47 44 -82c0 -79 -67 -138 -149 -138c-71 0 -123 46 -123 112c0 53 36 97 80 115c-20 14 -35 40 -35 69c0 63 55 122 133 122zM248 440c51 0 92 40 92 86c0 34 -25 60 -66 60c-56 0 -92 -40 -92 -86
c0 -34 25 -60 66 -60zM282 632c41 0 77 33 77 71c0 28 -23 51 -56 51c-47 0 -78 -33 -78 -70c0 -29 23 -52 57 -52z" />
    <glyph glyph-name="ninesuperior" unicode="&#x2079;" horiz-adv-x="346" 
d="M192 411l99 122s-12 -4 -28 -4c-75 0 -118 59 -118 113c0 81 61 164 159 164c84 0 127 -57 127 -114c0 -42 -14 -77 -43 -115c-25 -34 -153 -196 -153 -196zM273 581c58 0 101 49 101 101c0 39 -26 72 -70 72c-59 0 -102 -52 -102 -104c0 -38 26 -69 71 -69z" />
    <glyph glyph-name="zeroinferior" unicode="&#x2080;" horiz-adv-x="373" 
d="M234 319c99 0 128 -78 128 -159c0 -114 -55 -259 -183 -259c-99 0 -127 76 -127 157c0 114 54 261 182 261zM179 -47c92 0 128 130 128 207c0 55 -16 107 -73 107c-92 0 -128 -132 -128 -209c0 -55 16 -105 73 -105z" />
    <glyph glyph-name="oneinferior" unicode="&#x2081;" horiz-adv-x="288" 
d="M45 190l169 123h48l-71 -406h-56l57 325l-120 -86z" />
    <glyph glyph-name="twoinferior" unicode="&#x2082;" horiz-adv-x="350" 
d="M273 72c-7 -7 -116 -111 -116 -111h149l-10 -54h-278l196 181c35 32 71 66 71 114c0 35 -24 65 -69 65c-72 0 -101 -71 -101 -71l-47 21s38 102 148 102c69 0 126 -40 126 -114c0 -55 -21 -87 -69 -133z" />
    <glyph glyph-name="threeinferior" unicode="&#x2083;" horiz-adv-x="352" 
d="M190 138c41 0 90 20 90 73c0 32 -27 56 -66 56c-67 0 -89 -56 -89 -56l-45 23s35 85 134 85c70 0 123 -43 123 -108c0 -42 -29 -81 -71 -99c0 0 48 -15 48 -82c0 -71 -59 -129 -149 -129c-108 0 -132 97 -132 97l49 24s15 -69 85 -69c43 0 90 27 90 77
c0 33 -21 56 -69 56h-24l9 52h17z" />
    <glyph glyph-name="fourinferior" unicode="&#x2084;" horiz-adv-x="347" 
d="M2 0l271 313h54l-45 -259h54l-10 -54h-54l-16 -93h-56l16 93h-214zM113 54h113l29 164z" />
    <glyph glyph-name="fiveinferior" unicode="&#x2085;" horiz-adv-x="369" 
d="M340 56c0 -90 -74 -155 -164 -155c-109 0 -129 91 -129 91l48 22s16 -61 81 -61c54 0 106 43 106 103c0 48 -41 73 -81 73c-65 0 -120 -45 -120 -45l42 229h239l-9 -52h-183l-17 -90s26 10 62 10c59 0 125 -38 125 -125z" />
    <glyph glyph-name="sixinferior" unicode="&#x2086;" horiz-adv-x="346" 
d="M283 307l-105 -133s14 4 30 4c75 0 118 -55 118 -121c0 -69 -51 -156 -161 -156c-77 0 -124 54 -124 124c0 35 11 67 40 105c25 34 163 206 163 206zM198 126c-58 0 -101 -49 -101 -101c0 -39 26 -72 70 -72c63 0 102 52 102 104c0 38 -26 69 -71 69z" />
    <glyph glyph-name="seveninferior" unicode="&#x2087;" horiz-adv-x="318" 
d="M68 261l9 52h294l-287 -414l-45 25l234 337h-205z" />
    <glyph glyph-name="eightinferior" unicode="&#x2088;" horiz-adv-x="342" 
d="M219 319c75 0 112 -50 112 -103c0 -42 -27 -80 -62 -95c29 -18 44 -47 44 -82c0 -79 -67 -138 -149 -138c-71 0 -123 46 -123 112c0 53 36 97 80 115c-20 14 -35 40 -35 69c0 63 55 122 133 122zM164 -47c51 0 92 40 92 86c0 34 -25 60 -66 60c-56 0 -92 -40 -92 -86
c0 -34 25 -60 66 -60zM198 145c41 0 77 33 77 71c0 28 -23 51 -56 51c-47 0 -78 -33 -78 -70c0 -29 23 -52 57 -52z" />
    <glyph glyph-name="nineinferior" unicode="&#x2089;" horiz-adv-x="346" 
d="M107 -76l99 122s-12 -4 -28 -4c-75 0 -118 59 -118 113c0 81 61 164 159 164c84 0 127 -57 127 -114c0 -42 -14 -77 -43 -115c-25 -34 -153 -196 -153 -196zM188 94c58 0 101 49 101 101c0 39 -26 72 -70 72c-59 0 -102 -52 -102 -104c0 -38 26 -69 71 -69z" />
    <glyph glyph-name="zero.numerator" unicode="&#xf661;" horiz-adv-x="373" 
d="M300 706c99 0 128 -78 128 -159c0 -114 -55 -259 -183 -259c-99 0 -127 76 -127 157c0 114 54 261 182 261zM245 340c92 0 128 130 128 207c0 55 -16 107 -73 107c-92 0 -128 -132 -128 -209c0 -55 16 -105 73 -105z" />
    <glyph glyph-name="one.numerator" unicode="&#xf662;" horiz-adv-x="288" 
d="M113 577l169 123h48l-71 -406h-56l57 325l-120 -86z" />
    <glyph glyph-name="two.numerator" unicode="&#xf663;" horiz-adv-x="350" 
d="M335 459c-7 -7 -116 -111 -116 -111h149l-10 -54h-278l196 181c35 32 71 66 71 114c0 35 -24 65 -69 65c-72 0 -101 -71 -101 -71l-47 21s38 102 148 102c69 0 126 -40 126 -114c0 -55 -21 -87 -69 -133z" />
    <glyph glyph-name="three.numerator" unicode="&#xf664;" horiz-adv-x="352" 
d="M260 525c41 0 90 20 90 73c0 32 -27 56 -66 56c-67 0 -89 -56 -89 -56l-45 23s35 85 134 85c70 0 123 -43 123 -108c0 -42 -29 -81 -71 -99c0 0 48 -15 48 -82c0 -71 -59 -129 -149 -129c-108 0 -132 97 -132 97l49 24s15 -69 85 -69c43 0 90 27 90 77
c0 33 -21 56 -69 56h-24l9 52h17z" />
    <glyph glyph-name="four.numerator" unicode="&#xf665;" horiz-adv-x="347" 
d="M66 387l271 313h54l-45 -259h54l-10 -54h-54l-16 -93h-56l16 93h-214zM177 441h113l29 164z" />
    <glyph glyph-name="five.numerator" unicode="&#xf666;" horiz-adv-x="369" 
d="M407 443c0 -90 -74 -155 -164 -155c-109 0 -129 91 -129 91l48 22s16 -61 81 -61c54 0 106 43 106 103c0 48 -41 73 -81 73c-65 0 -120 -45 -120 -45l42 229h239l-9 -52h-183l-17 -90s26 10 62 10c59 0 125 -38 125 -125z" />
    <glyph glyph-name="six.numerator" unicode="&#xf667;" horiz-adv-x="346" 
d="M349 694l-105 -133s14 4 30 4c75 0 118 -55 118 -121c0 -69 -51 -156 -161 -156c-77 0 -124 54 -124 124c0 35 11 67 40 105c25 34 163 206 163 206zM264 513c-58 0 -101 -49 -101 -101c0 -39 26 -72 70 -72c63 0 102 52 102 104c0 38 -26 69 -71 69z" />
    <glyph glyph-name="seven.numerator" unicode="&#xf668;" horiz-adv-x="318" 
d="M136 648l9 52h294l-287 -414l-45 25l234 337h-205z" />
    <glyph glyph-name="eight.numerator" unicode="&#xf669;" horiz-adv-x="342" 
d="M285 706c75 0 112 -50 112 -103c0 -42 -27 -80 -62 -95c29 -18 44 -47 44 -82c0 -79 -67 -138 -149 -138c-71 0 -123 46 -123 112c0 53 36 97 80 115c-20 14 -35 40 -35 69c0 63 55 122 133 122zM230 340c51 0 92 40 92 86c0 34 -25 60 -66 60c-56 0 -92 -40 -92 -86
c0 -34 25 -60 66 -60zM264 532c41 0 77 33 77 71c0 28 -23 51 -56 51c-47 0 -78 -33 -78 -70c0 -29 23 -52 57 -52z" />
    <glyph glyph-name="nine.numerator" unicode="&#xf66a;" horiz-adv-x="346" 
d="M174 311l99 122s-12 -4 -28 -4c-75 0 -118 59 -118 113c0 81 61 164 159 164c84 0 127 -57 127 -114c0 -42 -14 -77 -43 -115c-25 -34 -153 -196 -153 -196zM255 481c58 0 101 49 101 101c0 39 -26 72 -70 72c-59 0 -102 -52 -102 -104c0 -38 26 -69 71 -69z" />
    <glyph glyph-name="fraction" unicode="&#x2044;" horiz-adv-x="130" 
d="M-195 1l605 732l38 -34l-603 -733z" />
    <glyph glyph-name="zero.denominator" unicode="&#xf655;" horiz-adv-x="373" 
d="M248 412c99 0 128 -78 128 -159c0 -114 -55 -259 -183 -259c-99 0 -127 76 -127 157c0 114 54 261 182 261zM193 46c92 0 128 130 128 207c0 55 -16 107 -73 107c-92 0 -128 -132 -128 -209c0 -55 16 -105 73 -105z" />
    <glyph glyph-name="one.denominator" unicode="&#xf656;" horiz-adv-x="288" 
d="M62 283l169 123h48l-71 -406h-56l57 325l-120 -86z" />
    <glyph glyph-name="two.denominator" unicode="&#xf657;" horiz-adv-x="350" 
d="M284 165c-7 -7 -116 -111 -116 -111h149l-10 -54h-278l196 181c35 32 71 66 71 114c0 35 -24 65 -69 65c-72 0 -101 -71 -101 -71l-47 21s38 102 148 102c69 0 126 -40 126 -114c0 -55 -21 -87 -69 -133z" />
    <glyph glyph-name="three.denominator" unicode="&#xf658;" horiz-adv-x="352" 
d="M202 231c41 0 90 20 90 73c0 32 -27 56 -66 56c-67 0 -89 -56 -89 -56l-45 23s35 85 134 85c70 0 123 -43 123 -108c0 -42 -29 -81 -71 -99c0 0 48 -15 48 -82c0 -71 -59 -129 -149 -129c-108 0 -132 97 -132 97l49 24s15 -69 85 -69c43 0 90 27 90 77
c0 33 -21 56 -69 56h-24l9 52h17z" />
    <glyph glyph-name="four.denominator" unicode="&#xf659;" horiz-adv-x="347" 
d="M17 93l271 313h54l-45 -259h54l-10 -54h-54l-16 -93h-56l16 93h-214zM128 147h113l29 164z" />
    <glyph glyph-name="five.denominator" unicode="&#xf65a;" horiz-adv-x="369" 
d="M355 149c0 -90 -74 -155 -164 -155c-109 0 -129 91 -129 91l48 22s16 -61 81 -61c54 0 106 43 106 103c0 48 -41 73 -81 73c-65 0 -120 -45 -120 -45l42 229h239l-9 -52h-183l-17 -90s26 10 62 10c59 0 125 -38 125 -125z" />
    <glyph glyph-name="six.denominator" unicode="&#xf65b;" horiz-adv-x="346" 
d="M298 400l-105 -133s14 4 30 4c75 0 118 -55 118 -121c0 -69 -51 -156 -161 -156c-77 0 -124 54 -124 124c0 35 11 67 40 105c25 34 163 206 163 206zM213 219c-58 0 -101 -49 -101 -101c0 -39 26 -72 70 -72c63 0 102 52 102 104c0 38 -26 69 -71 69z" />
    <glyph glyph-name="seven.denominator" unicode="&#xf65c;" horiz-adv-x="318" 
d="M84 354l9 52h294l-287 -414l-45 25l234 337h-205z" />
    <glyph glyph-name="eight.denominator" unicode="&#xf65d;" horiz-adv-x="342" 
d="M234 412c75 0 112 -50 112 -103c0 -42 -27 -80 -62 -95c29 -18 44 -47 44 -82c0 -79 -67 -138 -149 -138c-71 0 -123 46 -123 112c0 53 36 97 80 115c-20 14 -35 40 -35 69c0 63 55 122 133 122zM179 46c51 0 92 40 92 86c0 34 -25 60 -66 60c-56 0 -92 -40 -92 -86
c0 -34 25 -60 66 -60zM213 238c41 0 77 33 77 71c0 28 -23 51 -56 51c-47 0 -78 -33 -78 -70c0 -29 23 -52 57 -52z" />
    <glyph glyph-name="nine.denominator" unicode="&#xf65e;" horiz-adv-x="346" 
d="M122 17l99 122s-12 -4 -28 -4c-75 0 -118 59 -118 113c0 81 61 164 159 164c84 0 127 -57 127 -114c0 -42 -14 -77 -43 -115c-25 -34 -153 -196 -153 -196zM203 187c58 0 101 49 101 101c0 39 -26 72 -70 72c-59 0 -102 -52 -102 -104c0 -38 26 -69 71 -69z" />
    <glyph glyph-name="numero" unicode="&#x2116;" horiz-adv-x="1100" 
d="M762 242l13 74h314l-13 -74h-314zM999 712c92 0 146 -76 146 -144c0 -97 -73 -198 -203 -198c-92 0 -145 75 -145 143c0 97 72 199 202 199zM953 441c57 0 118 42 118 119c0 48 -35 81 -83 81c-59 0 -117 -44 -117 -120c0 -48 34 -80 82 -80zM205 700h79l284 -560l99 560
h84l-123 -700h-79l-284 560l-99 -560h-84z" />
    <glyph glyph-name="uni27F5" unicode="&#x27f5;" horiz-adv-x="1000" 
d="M1021 284l-13 -74h-826l133 -178l-58 -48l-193 263l266 253l47 -53l-176 -163h820z" />
    <glyph glyph-name="uni27F6" unicode="&#x27f6;" horiz-adv-x="1000" 
d="M64 210l13 74h826l-133 178l58 48l193 -263l-266 -253l-48 54l174 162h-817z" />
    <glyph glyph-name="arrowleft" unicode="&#x2190;" horiz-adv-x="760" 
d="M786 284l-13 -74h-590l133 -178l-58 -48l-193 263l266 253l47 -53l-176 -163h584z" />
    <glyph glyph-name="arrowright" unicode="&#x2192;" horiz-adv-x="760" 
d="M60 210l13 74h590l-133 178l58 48l193 -263l-266 -253l-48 54l174 162h-581z" />
    <glyph glyph-name="arrowup" unicode="&#x2191;" horiz-adv-x="600" 
d="M337 0h-74l103 585l-195 -149l-45 56l301 222l211 -229l-55 -47l-141 157z" />
    <glyph glyph-name="arrowdown" unicode="&#x2193;" horiz-adv-x="600" 
d="M375 700h74l-103 -585l197 151l45 -56l-303 -224l-211 229l55 50l142 -158z" />
    <glyph glyph-name="uni21B3" unicode="&#x21b3;" horiz-adv-x="796" 
d="M97 210l87 490h74l-74 -416h516l-133 178l58 48l193 -263l-266 -253l-48 54l174 162h-581z" />
    <glyph glyph-name="nbspace" unicode="&#xa0;" horiz-adv-x="280" 
 />
    <glyph glyph-name="BALLOTBOX" unicode="&#x2610;" horiz-adv-x="844" 
d="M82 0l123 700h680l-123 -700h-680zM268 629l-99 -558h530l99 558h-530z" />
    <glyph glyph-name="BALLOTBOXWITHCHECK" unicode="&#x2611;" horiz-adv-x="844" 
d="M82 0l123 700h680l-123 -700h-680zM268 629l-99 -558h530l99 558h-530zM723 562l-255 -428h-81l-91 216h79l57 -146l209 358h82z" />
    <glyph glyph-name="BALLOTBOXWITHX" unicode="&#x2612;" horiz-adv-x="844" 
d="M82 0l123 700h680l-123 -700h-680zM346 587l139 -187l204 187l43 -49l-204 -187l147 -197l-57 -43l-136 189l-206 -189l-42 50l205 188l-148 195zM268 629l-99 -558h530l99 558h-530z" />
    <glyph glyph-name="Circle" horiz-adv-x="844" 
d="M117 285c0 222 170 427 415 427c188 0 316 -122 316 -297c0 -222 -172 -427 -417 -427c-188 0 -314 127 -314 297zM532 638c-196 0 -341 -160 -341 -340c0 -140 88 -236 240 -236c196 0 342 159 342 339c0 140 -89 237 -241 237z" />
    <glyph glyph-name="CircleDotted" horiz-adv-x="844" 
d="M341 325c0 87 70 165 165 165c68 0 118 -52 118 -117c0 -87 -72 -162 -167 -162c-68 0 -116 49 -116 114zM117 285c0 222 170 427 415 427c188 0 316 -122 316 -297c0 -222 -172 -427 -417 -427c-188 0 -314 127 -314 297zM532 638c-196 0 -341 -160 -341 -340
c0 -140 88 -236 240 -236c196 0 342 159 342 339c0 140 -89 237 -241 237z" />
    <glyph glyph-name="uni2709" unicode="&#x2709;" horiz-adv-x="844" 
d="M20 0v700h804v-700h-804zM422 210l-327 352v-491h654v491zM131 629l291 -314l292 314h-583z" />
    <glyph glyph-name="uni270E" unicode="&#x270e;" horiz-adv-x="844" 
d="M819 434l-383 -382l-371 -52l52 371l382 383zM437 158l275 275l-214 214l-275 -275zM259 98l125 13l-208 208l-13 -124z" />
    <glyph glyph-name="Trash" horiz-adv-x="844" 
d="M666 0h-488l-133 700h754zM501 620h-158l9 -152h140zM551 620l-9 -152h124l27 152h-142zM293 620h-142l27 -152h124zM354 424l9 -150h117l9 150h-135zM185 424l27 -150h101l-9 150h-119zM539 424l-9 -150h102l26 150h-119zM366 230l9 -150h94l9 150h-112zM528 230
l-9 -150h79l26 150h-96zM219 230l27 -150h79l-9 150h-97z" />
    <glyph glyph-name="uni2717" unicode="&#x2717;" horiz-adv-x="844" 
d="M761 655l-283 -306l283 -305l-60 -56l-279 301l-279 -301l-60 56l283 305l-283 306l60 56l279 -301l279 301z" />
    <glyph glyph-name="heart" unicode="&#x2665;" horiz-adv-x="654" 
d="M327 127l-240 239c-28 28 -42 64 -42 101c0 36 14 73 42 100c27 27 64 41 100 41s72 -14 99 -41c24 -24 38 -55 41 -86c3 31 16 62 40 86c27 27 64 41 100 41s72 -14 100 -41s42 -64 42 -100c0 -37 -14 -74 -42 -101z" />
    <glyph glyph-name="EuropaType" horiz-adv-x="776" 
d="M619 194l24 -64c-14 -9 -47 -25 -92 -38c-5 8 -14 13 -24 13c-16 0 -29 -13 -29 -29s13 -29 29 -29c15 0 28 12 29 27c45 13 78 30 94 38l24 -63s-105 -60 -233 -60c-15 21 -22 52 -23 84c0 24 3 48 11 67c111 0 190 54 190 54zM211 408h363c-4 78 -69 155 -182 155
c-109 0 -173 -77 -181 -155zM391 712c205 0 338 -151 338 -366c0 -13 -2 -38 -3 -55h-514c11 -77 83 -143 195 -150c-7 -21 -11 -44 -11 -69c1 -31 8 -61 21 -84h-6c-218 0 -364 164 -364 362c0 199 138 362 344 362z" />
    <glyph glyph-name="softhyphen" unicode="&#xad;" horiz-adv-x="333" 
d="M69 204l14 80h267l-14 -80h-267z" />
    <glyph glyph-name="apostrophemod" unicode="&#x2bc;" horiz-adv-x="150" 
d="M122 462l41 238h70l-41 -238h-70z" />
    <glyph glyph-name="period.tabular" 
d="M240 45c0 31 26 57 57 57s57 -26 57 -57s-26 -57 -57 -57s-57 26 -57 57z" />
    <glyph glyph-name="space.tabular" 
 />
    <glyph glyph-name="numbersign" unicode="#" horiz-adv-x="634" 
d="M130 430l11 64h128l71 225l59 -15l-67 -210h136l71 225l58 -15l-66 -210h119l-11 -64h-126l-47 -144h118l-11 -64h-129l-76 -240l-57 15l71 225h-136l-76 -240l-58 15l71 225h-119l11 64h126l46 144h-117zM310 430l-46 -144h141l46 144h-141z" />
    </font>
</defs>
</svg>
